<svg height="512pt" viewBox="-13 0 512 512.00101" width="512pt" xmlns="http://www.w3.org/2000/svg"><path d="m260.667969 463.414062v-43.503906c0-24.472656 5.96875-48.574218 17.390625-70.21875l32.457031-61.5c10.746094-20.363281 16.363281-43.042968 16.363281-66.070312 0-38.542969-15.707031-75.292969-43.277344-101.878906-1.984374-1.914063-4.027343-3.773438-6.132812-5.574219-24.042969-20.617188-54.664062-31.949219-86.335938-31.949219h-3.429687c-33.207031 0-65.359375 11.644531-90.871094 32.90625-28.195312 23.503906-44.5 58.324219-44.5 95.035156v27.675782l-39.839843 39.855468c-5.757813 5.757813-1.679688 15.609375 6.464843 15.609375h20.996094v77.671875c0 8.535156 3.386719 16.71875 9.417969 22.75 6.03125 6.035156 14.214844 9.421875 22.746094 9.421875h9.890624c14.53125 0 26.3125 11.785157 26.3125 26.320313v33.449218" fill="#f2bb88"/><path d="m225.800781 501.949219v-43.496094c0-24.464844-5.972656-48.5625-17.390625-70.199219l-32.460937-61.484375c-10.746094-20.359375-16.363281-43.03125-16.363281-66.054687 0-41.300782 18.050781-80.542969 49.410156-107.425782 24.042968-20.609374 54.667968-31.9375 86.339844-31.9375h3.429687c16.578125 0 32.894531 2.902344 48.253906 8.453126 15.402344 5.570312 29.839844 13.800781 42.613281 24.445312 28.199219 23.5 44.5 58.304688 44.5 95.011719v27.664062l39.84375 39.84375c5.757813 5.757813 1.679688 15.605469-6.464843 15.605469h-20.996094v77.652344c0 8.53125-3.390625 16.710937-9.421875 22.746094-6.03125 6.03125-14.210938 9.417968-22.742188 9.417968h-9.890624c-14.53125 0-26.3125 11.78125-26.3125 26.3125v33.441406" fill="#f2d1a5"/><path d="m299.386719 203.757812-39.5625 63.640626 8.375-119.691407h-61.496094l65.195313-137.65625h72.671874l-51.902343 91.0625h68.328125l-22.886719 37.609375" fill="#00d7df"/><path d="m481.328125 309.664062-20.277344-20.277343c-10.71875-10.71875-16.621093-24.96875-16.621093-40.125 0-39.804688-17.539063-77.25-48.117188-102.730469-11.304688-9.421875-23.8125-17.085938-37.273438-22.867188l10.542969-17.328124c1.886719-3.101563 1.953125-6.984376.175781-10.148438-1.78125-3.167969-5.128906-5.125-8.761718-5.125h-51.03125l43.339844-76.035156c1.773437-3.109375 1.757812-6.929688-.042969-10.023438-1.800781-3.097656-5.109375-5.003906-8.691407-5.003906h-72.671874c-3.886719 0-7.421876 2.238281-9.085938 5.75l-34.054688 71.90625c-12.101562-3.285156-24.664062-4.988281-37.378906-4.988281h-3.429687c-35.484375 0-70.042969 12.511719-97.300781 35.230469-30.582032 25.480468-48.117188 62.925781-48.117188 102.730468 0 15.15625-5.90625 29.40625-16.621094 40.125l-20.277344 20.277344c-5.507812 5.507812-7.144531 13.71875-4.160156 20.917969 2.980469 7.195312 9.941406 11.847656 17.730469 11.847656h10.945313v67.601563c0 11.277343 4.390624 21.878906 12.367187 29.851562 7.972656 7.972656 18.574219 12.363281 29.847656 12.363281h9.890625c8.96875 0 16.261719 7.296875 16.261719 16.261719v33.445312c0 5.550782 4.5 10.050782 10.050781 10.050782h41.914063c5.550781 0 10.050781-4.5 10.050781-10.050782 0-5.554687-4.5-10.054687-10.050781-10.054687h-31.863281v-23.390625c0-20.050781-16.3125-36.363281-36.363282-36.363281h-9.890625c-5.90625 0-11.457031-2.300781-15.632812-6.476563-4.179688-4.175781-6.476563-9.730468-6.476563-15.636718v-77.652344c0-5.550782-4.5-10.050782-10.054687-10.050782h-18.800781l18.726562-18.726562c14.511719-14.515625 22.507812-33.8125 22.507812-54.339844 0-33.820312 14.898438-65.636718 40.882813-87.289062 23.65625-19.710938 53.640625-30.566406 84.433594-30.566406h3.429687c9.703125 0 19.300782 1.152343 28.613282 3.390624l-22.375 47.246094c-1.109376 2.339844-1.257813 4.988282-.476563 7.394532-29.355469 30.476562-48.363281 72.9375-48.363281 109.914062 0 24.5625 6.058594 49.023438 17.523437 70.742188l32.460938 61.488281c10.617187 20.113281 16.226562 42.761719 16.226562 65.503906v43.496094c0 5.550781 4.5 10.050781 10.050781 10.050781 5.550782 0 10.050782-4.5 10.050782-10.050781v-43.496094c0-26-6.414063-51.894531-18.554688-74.886719l-32.457031-61.488281c-9.945313-18.839844-15.203125-40.058594-15.203125-61.359375 0-34.960938 19.953125-75.882812 49.941406-102.957031h38.601563l-7.625 108.9375c-.320313 4.609375 2.539062 8.84375 6.933593 10.265625 1.019532.328125 2.0625.488281 3.09375.488281 3.402344 0 6.664063-1.734375 8.539063-4.746094l39.5625-63.640625c2.929687-4.714844 1.484375-10.910156-3.230469-13.839844-4.710937-2.933593-10.910156-1.488281-13.839844 3.226563l-18.175781 29.234375 5.550781-79.277344c.195313-2.78125-.773437-5.515625-2.675781-7.554687-1.902343-2.039063-4.5625-3.195313-7.351562-3.195313h-45.617188l55.675781-117.558594h49.015626l-43.339844 76.03125c-1.773438 3.113282-1.757813 6.933594.042968 10.027344 1.800782 3.097656 5.109376 5 8.691407 5h50.445312l-13.589843 22.339844c-2.886719 4.742188-1.378907 10.925781 3.363281 13.8125 4.742187 2.886719 10.925781 1.378906 13.808593-3.363281l1.769532-2.90625c12.683594 5.125 24.4375 12.144531 34.980468 20.929687 25.980469 21.652344 40.882813 53.46875 40.882813 87.289063 0 20.527343 7.992187 39.824219 22.507813 54.335937l18.726562 18.726563h-18.804688c-5.550781 0-10.050781 4.5-10.050781 10.050781v77.65625c0 5.90625-2.300781 11.460938-6.476562 15.636719s-9.726563 6.476562-15.636719 6.476562h-9.890625c-20.050781 0-36.363281 16.3125-36.363281 36.363281v33.441407c0 5.550781 4.5 10.050781 10.050781 10.050781s10.050781-4.5 10.050781-10.050781v-33.441407c0-8.964843 7.296875-16.261718 16.261719-16.261718h9.890625c11.277344 0 21.878906-4.390625 29.851562-12.363282 7.972657-7.972656 12.367188-18.574218 12.367188-29.851562v-67.605469h10.945312c7.789063 0 14.75-4.648437 17.730469-11.847656 2.980469-7.195313 1.347657-15.40625-4.160156-20.914063zm0 0"/><path d="m196.003906 455.410156-.265625-.203125c-4.421875-3.355469-10.726562-2.488281-14.082031 1.933594s-2.488281 10.726563 1.933594 14.082031l.261718.199219c1.816407 1.378906 3.953126 2.046875 6.070313 2.046875 3.035156 0 6.035156-1.371094 8.015625-3.976562 3.351562-4.421876 2.488281-10.726563-1.933594-14.082032zm0 0"/><path d="m325.589844 162.535156-.265625-.203125c-4.421875-3.355469-10.722657-2.488281-14.082031 1.933594-3.351563 4.421875-2.488282 10.726563 1.933593 14.082031l.261719.199219c1.820312 1.378906 3.953125 2.042969 6.070312 2.042969 3.035157 0 6.035157-1.371094 8.015626-3.972656 3.355468-4.421876 2.488281-10.726563-1.933594-14.082032zm0 0"/></svg>