<svg height="512pt" viewBox="0 0 512 512" width="512pt" xmlns="http://www.w3.org/2000/svg"><g fill="#feb756"><path d="m502 143c0-11.050781-8.949219-20-20-20h-373c-5.519531 0-10.519531 2.238281-14.140625 5.859375s-5.859375 8.621094-5.859375 14.140625c0 11.050781 8.949219 20 20 20h373c5.519531 0 10.519531-2.238281 14.140625-5.859375s5.859375-8.621094 5.859375-14.140625zm0 0"/><path d="m272 13.339844c-14.125 6.171875-24 20.261718-24 36.660156v389h48v-389c0-16.398438-9.875-30.488281-24-36.660156zm0 0"/><path d="m440.511719 353.085938c13.292969-4.308594 24.554687-13.125 31.976562-24.65625 6.023438-9.351563 9.511719-20.480469 9.511719-32.429688h-83c0 26.6875 17.421875 49.289062 41.511719 57.085938zm0 0"/></g><path d="m436 439h-273c-22.089844 0-40 17.910156-40 40v23h353v-23c0-22.089844-17.910156-40-40-40zm0 0" fill="#91552c"/><path d="m301.828125 123c2.683594 6.128906 4.171875 12.890625 4.171875 20s-1.488281 13.871094-4.171875 20c-1.558594 3.570312-3.519531 6.921875-5.839844 10-9.117187 12.148438-23.636719 20-39.988281 20s-30.871094-7.851562-39.988281-20c-2.320313-3.078125-4.28125-6.429688-5.839844-10-2.683594-6.128906-4.171875-12.890625-4.171875-20s1.488281-13.871094 4.171875-20c1.558594-3.570312 3.519531-6.921875 5.839844-10 9.117187-12.148438 23.636719-20 39.988281-20s30.871094 7.851562 39.988281 20c2.320313 3.078125 4.28125 6.429688 5.839844 10zm0 0" fill="#fff"/><path d="m295.988281 113c-5.363281-7.148438-12.609375-12.792969-20.988281-16.238281-8.378906 3.445312-15.625 9.089843-20.988281 16.238281-2.320313 3.078125-4.28125 6.429688-5.839844 10-2.683594 6.128906-4.171875 12.890625-4.171875 20s1.488281 13.871094 4.171875 20c1.558594 3.570312 3.519531 6.921875 5.839844 10 5.363281 7.148438 12.609375 12.792969 20.988281 16.238281 8.378906-3.445312 15.625-9.089843 20.988281-16.238281 2.320313-3.078125 4.28125-6.429688 5.839844-10 2.683594-6.128906 4.171875-12.890625 4.171875-20s-1.488281-13.871094-4.171875-20c-1.558594-3.570312-3.519531-6.921875-5.839844-10zm0 0" fill="#91552c"/><path d="m109.515625 352.746094c12.855469-4.417969 23.738281-13.074219 30.972656-24.316406 6.023438-9.351563 9.511719-20.480469 9.511719-32.429688h-81c0 26.316406 16.945312 48.65625 40.515625 56.746094zm0 0" fill="#feb756"/><path d="m256 60c5.519531 0 10-4.480469 10-10s-4.480469-10-10-10-10 4.480469-10 10 4.480469 10 10 10zm0 0"/><path d="m256 389c-5.519531 0-10 4.480469-10 10s4.480469 10 10 10 10-4.480469 10-10-4.480469-10-10-10zm0 0"/><path d="m256 223c-5.523438 0-10 4.476562-10 10v123c0 5.523438 4.476562 10 10 10s10-4.476562 10-10v-123c0-5.523438-4.476562-10-10-10zm0 0"/><path d="m503.210938 164.210938c5.667968-5.667969 8.789062-13.199219 8.789062-21.210938 0-16.542969-13.457031-30-30-30h-174.046875c-.621094-1.074219-1.269531-2.128906-1.953125-3.160156v-59.839844c0-27.570312-22.429688-50-50-50s-50 22.429688-50 50v59.839844c-.683594 1.03125-1.332031 2.089844-1.953125 3.160156h-174.046875c-8.011719 0-15.542969 3.121094-21.210938 8.789062-5.667968 5.667969-8.789062 13.199219-8.789062 21.210938 0 16.542969 13.457031 30 30 30h44.519531l-53.632812 118.886719c-.011719.023437-.019531.046875-.027344.066406-.308594.703125-.542969 1.445313-.683594 2.222656-.023437.109375-.035156.222657-.050781.332031-.039062.261719-.070312.527344-.089844.792969-.007812.140625-.015625.277344-.019531.417969-.003906.09375-.015625.183594-.015625.28125 0 38.597656 31.402344 70 70 70 23.917969 0 45.933594-12.019531 58.898438-32.15625 7.261718-11.28125 11.101562-24.367188 11.101562-37.84375 0-.09375-.011719-.1875-.015625-.28125-.003906-.140625-.007813-.28125-.019531-.417969-.019532-.269531-.050782-.53125-.085938-.792969-.019531-.109374-.03125-.222656-.054687-.332031-.140625-.777343-.371094-1.519531-.683594-2.222656-.007813-.019531-.015625-.042969-.023437-.066406l-53.636719-118.886719h98.566406c.621094 1.074219 1.269531 2.128906 1.953125 3.160156v252.839844h-130c-27.570312 0-50 22.429688-50 50v23c0 5.523438 4.476562 10 10 10h440c5.523438 0 10-4.476562 10-10v-23c0-27.570312-22.429688-50-50-50h-130v-252.839844c.683594-1.03125 1.332031-2.089844 1.953125-3.160156h98.566406l-53.636719 118.886719c-.007812.023437-.015624.046875-.023437.066406-.3125.703125-.542969 1.445313-.683594 2.222656-.023437.109375-.035156.222657-.054687.332031-.035156.261719-.066406.527344-.085938.792969-.011718.140625-.015625.277344-.019531.417969-.003906.09375-.015625.183594-.015625.28125 0 38.597656 31.402344 70 70 70 23.917969 0 45.933594-12.019531 58.898438-32.15625 7.261718-11.28125 11.101562-24.367188 11.101562-37.84375 0-.09375-.011719-.1875-.015625-.28125-.003906-.140625-.007813-.28125-.019531-.417969-.019532-.269531-.050782-.53125-.085938-.792969-.019531-.109374-.03125-.222656-.054687-.332031-.140625-.777343-.371094-1.519531-.683594-2.222656-.007813-.019531-.015625-.042969-.023437-.066406l-53.636719-118.886719h44.519531c8.011719 0 15.542969-3.121094 21.210938-8.789062zm-413.210938 181.789062c-24.144531 0-44.347656-17.203125-48.992188-40h97.984376c-1.226563 6.03125-3.550782 11.800781-6.910157 17.015625-9.265625 14.390625-24.996093 22.984375-42.082031 22.984375zm-44.519531-60 44.519531-98.683594 44.519531 98.683594zm376.519531 60c-24.144531 0-44.347656-17.203125-48.992188-40h97.984376c-1.226563 6.03125-3.550782 11.800781-6.910157 17.015625-9.265625 14.390625-24.996093 22.984375-42.082031 22.984375zm-44.519531-60 44.519531-98.683594 44.519531 98.683594zm114.519531-143c0 2.667969-1.039062 5.179688-2.929688 7.066406-1.890624 1.894532-4.402343 2.933594-7.070312 2.933594h-166.84375c.550781-3.28125.84375-6.617188.84375-10s-.292969-6.71875-.84375-10h166.84375c5.515625 0 10 4.484375 10 10zm-268.003906 23.984375c-1.851563-2.464844-3.421875-5.152344-4.664063-7.992187-2.210937-5.054688-3.332031-10.4375-3.332031-15.992188s1.121094-10.9375 3.332031-15.996094c1.242188-2.835937 2.8125-5.523437 4.675781-8 7.632813-10.171875 19.296876-16.003906 31.992188-16.003906s24.359375 5.832031 32.003906 16.015625c1.851563 2.464844 3.421875 5.152344 4.664063 7.992187 2.210937 5.054688 3.332031 10.4375 3.332031 15.992188s-1.121094 10.9375-3.332031 15.996094c-1.242188 2.835937-2.8125 5.523437-4.675781 8-7.632813 10.171875-19.296876 16.003906-31.992188 16.003906s-24.359375-5.832031-32.003906-16.015625zm32.003906-146.984375c16.542969 0 30 13.457031 30 30v40.984375c-8.960938-5.183594-19.230469-7.984375-30-7.984375s-21.039062 2.800781-30 7.984375v-40.984375c0-16.542969 13.457031-30 30-30zm-236 123c0-2.667969 1.039062-5.179688 2.929688-7.066406 1.890624-1.894532 4.402343-2.933594 7.070312-2.933594h166.84375c-.550781 3.28125-.84375 6.617188-.84375 10s.292969 6.71875.84375 10h-166.84375c-5.515625 0-10-4.484375-10-10zm446 336v13h-420v-13c0-16.542969 13.457031-30 30-30h360c16.542969 0 30 13.457031 30 30zm-240-50v-233.984375c8.960938 5.183594 19.230469 7.984375 30 7.984375s21.039062-2.800781 30-7.984375v233.984375zm0 0"/></svg>