<?xml version="1.0" encoding="utf-8"?>
<!-- Generator: Adobe Illustrator 18.0.0, SVG Export Plug-In . SVG Version: 6.00 Build 0)  -->
<!DOCTYPE svg PUBLIC "-//W3C//DTD SVG 1.1//EN" "http://www.w3.org/Graphics/SVG/1.1/DTD/svg11.dtd">
<svg version="1.1" id="Слой_2" xmlns="http://www.w3.org/2000/svg" xmlns:xlink="http://www.w3.org/1999/xlink" x="0px" y="0px"
	 viewBox="353 0 885 1200" enable-background="new 353 0 885 1200" xml:space="preserve">
<path fill="#4B0082"    d="M512.9,1125.5c-1.4-13.1,13.3-19.8,21.4-28.4
	c9.7-10.3,21.2-21.5,28.4-33.3c7.5-12.1,13.3-25.7,20-38c6-11.1,18.3-34.2,18.6-46.3c0.3-12.2-24.6-87.3-18.6-125.2
	c2-12.5,4-35.1-6.4-43.4c-10.9-8.7-59.8-25.4-77.8-33.9c-10.9-5.2-20.3-16.9-31.5-22.4c-13.1-6.4-28.8-4.5-41.9-9.9
	c-43.8-18-24-45.3-13.5-73.4c2.4-6.2,3-12.8,1.7-20.5c-1-6-8.3-14.1-7.7-20.3c1-9.2,13-18,13-18s-3.5-5.7-5.1-13.9
	c-2.5-13.3,5.4-24.1,9.5-41.4c0.8-3.5,5.7-17.2,3.5-19.6c-8.6-9.4-25.4-5.4-31.5-6.4c-16.4-2.7-31.4-1.1-33.8-21.8
	c-2-17.3,4.1-23.7,12.4-37.4c56.3-93.2,80.7-116.3,86.7-128.5c14.2-29.1,9-64,26-91.3c13.4-21.6,75.3-130.6,116.2-149.5
	c9.2-4.2,16.7-20.8,26.3-31.5c18.9-21,43.4-29.8,69.5-36.2c26.9-6.6,53.6-17.1,81.3-24.4c54.8-14.5,162.7,29,189.8,40.4
	c29.3,12.4,112.8,79.7,137.2,118c15.2,23.8,28.3,51.6,40.3,77.4c12.9,27.9,26.2,128.3,27.4,135.9c2.7,15.5-0.4,32.8-1.6,47.4
	c-0.6,8-6.2,35.6-7.6,42.3c-2.8,14.5,10.7,27.5,17.9,38.9c17.5,27.2,15.5,59.6,15.5,92.1c0,16.6,0.5,28.5-11.5,40.4
	c-9.1,9.1-18.5,14.4-29.9,20c-17,8.3-38.7,15.6-46.3,33.4c-8.6,20.2-16.6,43.3-20.4,65.3c-2.2,12.3-3.7,19.2,1,30.2
	c4,9.6,8.6,18.9,11,28.5c4.1,16.7,8.1,56.9-2.7,71.5c18.3-21.3,61.2-50.6,88.8-41.1c14.2,4.9,26,23.8,31.9,37.9
	c3.6,8.6,8.4,44.7-11.8,41.3c3,4.9,11.9,7.1,17.5,8c-6.3,7.7-11.9,21-9.8,31.6c1.2,6.4,8,9.1,10.7,13.4c4.1,6.7,2.9,9.6,1.9,17
	c-1.9,13.8-2.8,24.4-12.9,35c-8.2,8.5-19.2,17.4-31,10.7c-3.2,13.4,2.3,26.2-4.3,39.8c-5.9,12-15.7,20.7-26.2,29.1
	c7-17.4,10.4-34.5,4.7-50.9c-1.8,14.5,0.9,32.5-4.9,45.7c-11.9,27.1-13.5-8.8-19.1-13.8c-0.6,9.9-5.1,53.1-16.5,53.8
	c-6.6,0.4-11.1-11.4-16.3-13.7c-7.6-3.3-17.5,1.6-23.7,4.9c0.7-15.7,2.3-30.3,7.9-44.6c-10-8.7-30.6,7.1-41.5,11.5
	c-14.6,5.8-86.7,47.8-117.6,60.8c-33.1,13.8-85.9,18.9-121.7,18.9C782.6,1187.3,584.6,1204.1,512.9,1125.5z"/>
</svg>
