<svg height="480pt" viewBox="0 -59 480 480" width="480pt" xmlns="http://www.w3.org/2000/svg"><path d="m456 161.390625h-8v-64.242187c0-17.671876-14.328125-32-32-32h-376c-17.671875 0-32 14.328124-32 32v224c0 17.675781 14.328125 32 32 32h376c17.671875 0 32-14.324219 32-32v-64h8c8.824219-.023438 15.972656-7.171876 16-16v-63.757813c-.027344-8.828125-7.175781-15.972656-16-16zm-32 47.757813c0 13.257812-10.746094 24-24 24s-24-10.742188-24-24c0-13.253907 10.746094-24 24-24s24 10.746093 24 24zm-232 88c-48.601562 0-88-39.398438-88-88 0-48.601563 39.398438-88 88-88s88 39.398437 88 88c.011719 23.34375-9.253906 45.734374-25.761719 62.242187-16.503906 16.503906-38.894531 25.773437-62.238281 25.757813zm0 0" fill="#78b9eb"/><g fill="#006df0"><path d="m456 153.398438v-56.25c-.0625-20.5625-15.742188-37.710938-36.214844-39.613282l-4.898437-25.183594c-4.222657-21.675781-25.210938-35.828124-46.886719-31.617187l-290.121094 56.414063h-37.878906c-22.089844 0-40 17.910156-40 40v224c.0273438 22.082031 17.917969 39.976562 40 40h376c22.082031-.023438 39.972656-17.917969 40-40v-56c13.253906 0 24-10.742188 24-24v-63.75c0-13.253907-10.746094-24-24-24zm-84.953125-136.960938c6.253906-1.21875 12.734375.09375 18.015625 3.65625 5.292969 3.53125 8.945312 9.042969 10.136719 15.296875l4.214843 21.757813h-241.734374zm68.953125 304.710938c0 13.257812-10.746094 24-24 24h-376c-13.253906 0-24-10.742188-24-24v-224c0-13.253907 10.746094-24 24-24h376c13.253906 0 24 10.746093 24 24v56.25h-80c-13.253906 0-24 10.746093-24 24v63.75c0 13.257812 10.746094 24 24 24h80zm24-80c0 4.417968-3.582031 8-8 8h-96c-4.417969 0-8-3.582032-8-8v-63.75c0-4.417969 3.582031-8 8-8h96c4.417969 0 8 3.582031 8 8zm0 0"/><path d="m400 177.148438c-17.671875 0-32 14.328124-32 32 0 17.675781 14.328125 32 32 32s32-14.324219 32-32c0-17.671876-14.328125-32-32-32zm0 48c-8.835938 0-16-7.164063-16-16 0-8.835938 7.164062-16 16-16s16 7.164062 16 16c0 8.835937-7.164062 16-16 16zm0 0"/><path d="m192 113.148438c-53.019531 0-96 42.980468-96 96 0 53.019531 42.980469 96 96 96s96-42.980469 96-96c-.058594-52.996094-43.003906-95.941407-96-96zm0 176c-44.183594 0-80-35.816407-80-80 0-44.179688 35.816406-80 80-80s80 35.820312 80 80c-.046875 44.164062-35.835938 79.953124-80 80zm0 0"/><path d="m208 161.148438h-8v-16h-16v16h-8c-13.253906 0-24 10.746093-24 24v8c0 13.257812 10.746094 24 24 24h32c4.417969 0 8 3.582031 8 8v8c0 4.417968-3.582031 8-8 8h-32c-4.417969 0-8-3.582032-8-8v-8h-16v8c0 13.257812 10.746094 24 24 24h8v16h16v-16h8c13.253906 0 24-10.742188 24-24v-8c0-13.253907-10.746094-24-24-24h-32c-4.417969 0-8-3.582032-8-8v-8c0-4.417969 3.582031-8 8-8h32c4.417969 0 8 3.582031 8 8v8h16v-8c0-13.253907-10.746094-24-24-24zm0 0"/></g></svg>