<svg height="511pt" viewBox="0 -60 511.99782 511" width="511pt" xmlns="http://www.w3.org/2000/svg"><path d="m337.121094 297.902344-42.160156-42.15625c-11.136719-11.140625-29.546876-9.859375-39.039063 2.707031l-19.792969 26.210937c-9.136718 12.097657-25.738281 16.238282-39.167968 9.195313-.390626-.203125-.785157-.417969-1.167969-.640625-40.613281-23.429688-74.394531-57.207031-97.820313-97.820312-.222656-.386719-.4375-.777344-.644531-1.171876-7.039063-13.425781-2.902344-30.027343 9.195313-39.164062l26.210937-19.792969c12.570313-9.492187 13.847656-27.90625 2.710937-39.042969l-42.160156-42.15625c-13.085937-13.089843-34.300781-13.089843-47.386718 0-31.085938 31.082032-44.511719 75.683594-35.75 118.761719 21.335937 104.894531 103.3125 186.871094 208.207031 208.207031 43.078125 8.761719 87.679687-4.664062 118.765625-35.746093 13.085937-13.089844 13.085937-34.304688 0-47.390625zm0 0" fill="#66bb6a"/><path d="m337.121094 297.902344-42.160156-42.15625c-7.195313-7.199219-17.429688-9.203125-26.332032-6.335938l28.492188 28.492188c13.085937 13.085937 13.085937 34.304687 0 47.390625-31.085938 31.085937-75.683594 44.507812-118.765625 35.746093-15.800781-3.214843-31.082031-7.8125-45.71875-13.652343 25.945312 15.828125 54.839843 27.371093 85.71875 33.652343 43.078125 8.761719 87.679687-4.660156 118.765625-35.746093 13.085937-13.089844 13.085937-34.304688 0-47.390625zm0 0" fill="#388e3c"/><path d="m95.445312 76.226562c11.136719 11.136719 9.859376 29.550782-2.710937 39.042969l-26.210937 19.789063c-12.097657 9.136718-16.234376 25.742187-9.195313 39.167968.207031.394532.421875.785157.644531 1.167969 23.425782 40.613281 57.207032 74.394531 97.820313 97.820313.386719.222656.777343.4375 1.167969.644531 4.578124 2.402344 9.527343 3.5 14.421874 3.429687-29.796874-21.847656-54.855468-49.722656-73.414062-81.894531-.222656-.386719-.4375-.777343-.640625-1.167969-7.042969-13.429687-2.902344-30.03125 9.195313-39.167968l26.210937-19.792969c12.566406-9.492187 13.84375-27.902344 2.707031-39.039063l-42.15625-42.160156c-7.984375-7.980468-18.988281-11.085937-29.332031-9.328125zm0 0" fill="#388e3c"/><path d="m173.011719 19.226562v187.691407c0 6.203125 5.027343 11.226562 11.226562 11.226562h309.035157c6.199218 0 11.226562-5.027343 11.226562-11.226562v-187.691407c0-6.199218-5.027344-11.226562-11.226562-11.226562h-309.035157c-6.199219 0-11.226562 5.027344-11.226562 11.226562zm0 0" fill="#ffca28"/><path d="m348.496094 116.671875 152.09375-105.949219c-1.964844-1.691406-4.519532-2.722656-7.316406-2.722656h-309.035157c-2.796875 0-5.351562 1.03125-7.316406 2.722656l152.097656 105.949219c5.851563 4.078125 13.621094 4.078125 19.476563 0zm0 0" fill="#ffca28"/><path d="m493.273438 8h-28.773438v104.171875c0 47.484375-38.488281 85.976563-85.972656 85.976563h-205.515625v8.769531c0 6.203125 5.027343 11.226562 11.226562 11.226562h309.035157c6.199218 0 11.226562-5.027343 11.226562-11.226562v-187.691407c0-6.199218-5.027344-11.226562-11.226562-11.226562zm0 0" fill="#ffa000"/><path d="m505.917969 5.453125c-.203125-.207031-.417969-.402344-.640625-.582031-3.253906-2.722656-7.4375-4.371094-12.003906-4.371094h-242.886719c-4.144531 0-7.5 3.359375-7.5 7.5s3.355469 7.5 7.5 7.5h230.226562l-136.402343 95.019531c-3.265626 2.269531-7.648438 2.269531-10.90625 0l-136.40625-95.019531h18.488281c4.140625 0 7.5-3.359375 7.5-7.5 0-4.144531-3.359375-7.5-7.5-7.5h-31.148438c-4.570312 0-8.761719 1.648438-12.015625 4.382812-.21875.175782-.425781.363282-.625.566407-3.730468 3.425781-6.085937 8.324219-6.085937 13.777343v187.691407c0 5.5 2.398437 10.4375 6.183593 13.863281.152344.152344.308594.300781.476563.433594 3.261719 2.757812 7.46875 4.429687 12.066406 4.429687h309.035157c4.589843 0 8.796874-1.667969 12.058593-4.421875.171875-.140625.335938-.296875.496094-.453125 3.78125-3.425781 6.167969-8.359375 6.167969-13.851562v-187.691407c.003906-5.449218-2.351563-10.347656-6.078125-13.773437zm-153.136719 117.375.886719-.617187 54.820312 38.191406c3.382813 2.355468 8.0625 1.546875 10.4375-1.867188 2.371094-3.398437 1.535157-8.074218-1.867187-10.441406l-50.269532-35.023438 130.210938-90.707031v181.417969l-51.222656-35.6875c-3.394532-2.371094-8.070313-1.535156-10.4375 1.863281-2.367188 3.398438-1.535156 8.074219 1.863281 10.441407l43.410156 30.246093h-283.714843l126.949218-88.429687.882813.613281c8.390625 5.84375 19.660156 5.84375 28.050781 0zm-172.269531-100.464844 130.214843 90.710938-130.214843 90.707031zm0 0"/><path d="m216.859375 388.386719c17.75 3.613281 35.824219 3.71875 53.703125.289062 4.066406-.78125 6.730469-4.710937 5.953125-8.78125-.78125-4.066406-4.710937-6.726562-8.78125-5.953125-15.921875 3.058594-32.035156 2.972656-47.886719-.253906-102.144531-20.773438-181.570312-100.203125-202.347656-202.347656-8.285156-40.726563 4.3125-82.582032 33.699219-111.96875 10.144531-10.140625 26.644531-10.140625 36.785156 0l42.15625 42.160156c7.917969 7.914062 7 21.011719-1.925781 27.75l-26.210938 19.792969c-15.621094 11.800781-20.363281 33.039062-10.527344 50.070312 24.070313 41.722657 58.84375 76.5 100.5625 100.5625 17.023438 9.839844 38.269532 5.109375 50.074219-10.523437l19.792969-26.210938c6.726562-8.902344 19.8125-9.863281 27.753906-1.925781l42.160156 42.160156c10.140626 10.140625 10.140626 26.640625 0 36.78125-8.984374 8.984375-19.257812 16.5-30.542968 22.339844-3.675782 1.90625-5.113282 6.433594-3.210938 10.109375 1.90625 3.679688 6.429688 5.117188 10.109375 3.210938 12.652344-6.550782 24.175781-14.980469 34.25-25.054688 15.988281-15.988281 15.988281-42.003906 0-57.992188l-42.160156-42.160156c-14.355469-14.355468-38.105469-12.691406-50.328125 3.492188l-19.792969 26.210937c-7.050781 9.339844-20.246093 12.570313-30.601562 6.574219-39.445313-22.75-72.320313-55.625-95.074219-95.070312-5.992188-10.394532-2.75-23.558594 6.578125-30.601563l26.207031-19.792969c16.207032-12.238281 17.835938-35.988281 3.496094-50.328125l-42.160156-42.160156c-15.988282-15.988281-42.003906-15.988281-57.992188 0-32.957031 32.953125-47.085937 79.894531-37.796875 125.5625 21.980469 108.058594 106.003907 192.082031 214.058594 214.058594zm0 0"/></svg>