<?xml version="1.0" encoding="iso-8859-1"?>
<!-- Generator: Adobe Illustrator 19.0.0, SVG Export Plug-In . SVG Version: 6.00 Build 0)  -->
<svg version="1.1" id="Capa_1" xmlns="http://www.w3.org/2000/svg" xmlns:xlink="http://www.w3.org/1999/xlink" x="0px" y="0px"
	 viewBox="0 0 513.408 513.408" style="enable-background:new 0 0 513.408 513.408;" xml:space="preserve">
<path style="fill:#FFC252;" d="M332.624,37.488c-14.8-14.72-32.8-24.96-51.92-28.08v24l-32-24c-24.56,0-49.128,9.36-67.92,28.08
	c-18.72,18.792-28.08,43.36-28.08,67.92v168c0,5.752,1.528,11.576,4.784,16.832c3.24,5.248,7.768,9.216,12.904,11.8l10.472,5.224
	l20.264-7.6c4.424-1.656,8.408-4.624,11.304-8.8c2.896-4.184,4.272-8.952,4.272-13.672v-43.504c-21.888-20.112-32-56.2-32-88.28
	c0-8.16,3.128-16.4,9.36-22.64c6.24-6.232,14.48-9.36,22.64-9.36l20.64-20.64c10.232,12.64,25.848,20.64,43.36,20.64h32
	c4.08,0,8.16,1.6,11.28,4.72c3.12,3.12,4.72,7.2,4.72,11.28v16c0,32.08-10.112,68.168-32,88.28v43.504
	c0,4.72,1.376,9.496,4.272,13.672c2.896,4.168,6.88,7.144,11.304,8.8l20.272,7.6l10.464-5.224c5.144-2.576,9.664-6.544,12.904-11.8
	c3.256-5.256,4.784-11.08,4.784-16.832v-168C360.704,80.848,351.344,56.28,332.624,37.488z"/>
<g>
	<path style="fill:#34303D;" d="M181.128,316.344l-14.312-7.152c-6.68-3.36-12.248-8.464-16.136-14.76
		c-3.904-6.288-5.976-13.568-5.976-21.024v-168c0-27.752,10.8-53.88,30.408-73.568c19.712-19.632,45.84-30.432,73.592-30.432h3.312
		l20.688,20.688V0l9.288,1.512c20.192,3.296,39.648,13.776,56.272,30.304c19.64,19.712,30.44,45.84,30.44,73.592v168
		c0,7.456-2.072,14.728-5.984,21.04c-3.88,6.296-9.464,11.4-16.12,14.736l-14.32,7.168l-7.16-14.312l14.312-7.16
		c3.992-2,7.344-5.064,9.672-8.84c2.368-3.8,3.6-8.16,3.6-12.632v-168c0-23.496-9.144-45.608-25.752-62.28
		c-11.584-11.52-24.664-19.592-38.248-23.672v21.952h-19.312l-23.944-23.944c-22.272,0.808-43.128,9.856-59.024,25.688
		c-16.576,16.648-25.72,38.76-25.72,62.256v168c0,4.472,1.24,8.832,3.584,12.608c2.336,3.8,5.688,6.856,9.704,8.872l14.288,7.144
		L181.128,316.344z"/>
	<path style="fill:#34303D;" d="M256.704,257.408c-52.52,0-80-56.344-80-112c0-10.672,4.16-20.72,11.712-28.28
		c7.56-7.552,17.6-11.72,28.288-11.72v16c-6.408,0-12.44,2.496-16.968,7.032c-4.536,4.536-7.032,10.56-7.032,16.968
		c0,38.592,17.04,96,64,96c46.952,0,64-57.408,64-96v-16c0-2.136-0.832-4.144-2.352-5.664c-1.504-1.504-3.504-2.336-5.648-2.336h-32
		c-35.288,0-64-28.712-64-64h16c0,26.472,21.528,48,48,48h32c6.416,0,12.448,2.504,16.976,7.032s7.024,10.568,7.024,16.968v16
		C336.704,201.064,309.224,257.408,256.704,257.408z"/>
</g>
<path style="fill:#FF5F5C;" d="M360.704,322.048l-40-16.64v24c0,38.56-27.2,70.8-64,80c-36.8-9.2-64-41.44-64-80v-24l-40,16.64
	c-53.128,14.4-88,44.4-88,72v119.36h384v-119.36C448.704,366.448,413.824,336.448,360.704,322.048z"/>
<g>
	<path style="fill:#34303D;" d="M72.704,513.408h-16V394.04c0-32.472,37.736-64.504,93.912-79.72l47.704-17.944
		c3.072-1.152,5.672-3.168,7.536-5.856c1.864-2.688,2.848-5.84,2.848-9.112v-48h16v48c0,6.544-1.976,12.84-5.696,18.224
		c-3.72,5.368-8.936,9.432-15.072,11.728l-48.416,18.168c-54.616,14.832-82.816,43.624-82.816,64.512V513.408z"/>
	<path style="fill:#34303D;" d="M456.704,513.408h-16V394.04c0-20.888-28.192-49.68-82.096-64.28l-49.144-18.4
		c-6.12-2.288-11.336-6.352-15.064-11.728c-3.728-5.384-5.696-11.68-5.696-18.224v-48h16v48c0,3.272,0.984,6.424,2.84,9.104
		c1.864,2.696,4.48,4.72,7.536,5.864l48.432,18.168c55.448,14.992,93.192,47.032,93.192,79.496V513.408z"/>
	<polygon style="fill:#34303D;" points="136.704,513.408 120.704,513.408 120.704,459.296 113.544,444.984 127.864,437.832 
		136.704,455.52 	"/>
	<polygon style="fill:#34303D;" points="392.704,513.408 376.704,513.408 376.704,455.52 385.544,437.832 399.864,444.984 
		392.704,459.296 	"/>
	<path style="fill:#34303D;" d="M256.704,417.656l-1.944-0.496c-41.248-10.296-70.056-46.392-70.056-87.752v-24h16v24
		c0,33.36,22.928,62.576,56,71.728c33.08-9.152,56-38.368,56-71.728v-24h16v24c0,41.36-28.816,77.448-70.056,87.76L256.704,417.656z
		"/>
	<rect x="248.704" y="433.408" style="fill:#34303D;" width="16" height="16"/>
	<rect x="248.704" y="465.408" style="fill:#34303D;" width="16" height="16"/>
</g>
<g>
</g>
<g>
</g>
<g>
</g>
<g>
</g>
<g>
</g>
<g>
</g>
<g>
</g>
<g>
</g>
<g>
</g>
<g>
</g>
<g>
</g>
<g>
</g>
<g>
</g>
<g>
</g>
<g>
</g>
</svg>
