<?xml version="1.0" encoding="utf-8"?>
<!-- Generator: Adobe Illustrator 22.1.0, SVG Export Plug-In . SVG Version: 6.00 Build 0)  -->
<svg version="1.1" id="Layer_1" xmlns="http://www.w3.org/2000/svg" xmlns:xlink="http://www.w3.org/1999/xlink" x="0px" y="0px"
	 viewBox="0 0 1600 1168" enable-background="new 0 0 1600 1168" xml:space="preserve">
<g>
	<path fill="#47FBD4" d="M533.055,1044.736c63.035-5.445,122.082-31.884,179.737-57.945c144.457-65.3,288.916-130.601,433.374-195.9
		c56.691-25.629,114.494-51.984,159.927-94.488c62.754-58.71,96.6-146.965,89.194-232.579
		c-7.4-85.613-55.895-166.749-127.796-213.815c-83.187-54.455-187.285-61.596-284.839-80.802
		c-88.843-17.494-176.468-46.293-267.014-46.902c-90.544-0.608-188.559,34.039-232.82,113.033
		c-35.61,63.548-29.7,141.459-19.951,213.652c9.748,72.189,21.979,147.837-3.319,216.151
		c-17.131,46.256-49.977,84.624-76.852,125.984c-26.88,41.361-48.689,90.357-39.432,138.809
		c7.609,39.827,36.196,73.899,71.825,93.26C450.718,1042.551,492.658,1048.226,533.055,1044.736"/>
	<path fill="#FFFFFF" d="M717.499,564.503h98.229c2.437,0,4.432-2.01,4.432-4.467l11.079-60.31c0-2.457-1.994-4.467-4.431-4.467
		h-98.229c-2.438,0-4.431,2.01-4.431,4.467l-11.078,60.31C713.068,562.492,715.061,564.503,717.499,564.503z"/>
	<path fill="#39E5BC" d="M716.574,568.226h99.028c2.457,0,4.468-2.01,4.468-4.467l11.168-60.31c0-2.457-2.01-4.467-4.467-4.467
		h-99.028c-2.457,0-4.467,2.01-4.467,4.467l-11.169,60.31C712.107,566.215,714.117,568.226,716.574,568.226z"/>
	<path fill="#39E5BC" d="M721.01,843.345h-6.09c-3.86,0-7.019-3.159-7.019-7.019V576.269c0-3.861,3.159-7.019,7.019-7.019h6.09
		c3.861,0,7.019,3.159,7.019,7.019v260.056C728.029,840.186,724.871,843.345,721.01,843.345z"/>
	<path fill="#39E5BC" d="M631.119,801.172c-16.35,1.812-37.65,10.317-46.516,24.173c-8.865,13.856-15.129,29.446-25.712,42.039
		c-17.74,21.11-45.104,31.07-71.253,39.823c-16.198,5.422-32.9,10.976-45.833,22.135c-0.129,0.112-0.258,0.224-0.387,0.337
		c-17.849,15.711-6.362,45.209,17.415,44.996l106.171-0.953c20.468-0.184,41.73-0.547,60.105-9.566
		c19.463-9.553,33.167-27.563,49.912-41.336c22.855-18.798,52.059-29.732,81.64-30.568c23.402-0.661,50.961,3.261,66.408-14.33
		c8.087-9.21,10.551-22.469,19.115-31.239c11.941-12.228,31.301-11.921,48.387-11.448c51.669,1.431,103.508-3.355,154.042-14.223
		c10.852-2.334,24.344-8.547,22.968-19.561c-1.183-9.47-12.735-13.4-22.252-14.106c-34.074-2.528-67.304,9.448-100.814,16.12
		c-112.441,22.385-199.127-18.042-312.694-2.341L631.119,801.172z"/>
	<path fill="#84DBDB" d="M342.901,766.31c-12.435-0.009-22.324-10.374-28.902-20.927c-6.578-10.553-11.903-22.538-22.056-29.717
		c-9.408-6.652-22.645-8.978-28.259-19.04c-3.836-6.876-2.994-15.85-7.675-22.181c-5.028-6.8-15.594-9.362-17.676-17.559
		c-1.56-6.144,2.991-12.516,8.738-15.192c5.747-2.675,12.35-2.553,18.685-2.342c13.691,0.456,27.377,1.084,41.053,1.884
		c11.042,0.646,22.664,1.597,31.816,7.808c6.581,4.466,11.199,11.214,15.658,17.799c13.24,19.554,26.628,39.4,34.316,61.728
		c4.963,14.416,7.218,31.12-0.404,44.325c-7.622,13.205-28.277,18.982-38.486,7.657"/>
	<path fill="#5DB4B3" d="M367.459,842.62c0-13.292,2.97-27.098,3.795-40.364c1.257-20.205-0.311-40.583-4.644-60.357
		c-3.159-14.417-9.018-30.01-22.298-36.45c-18.772-9.104-43.933,4.245-61.019-7.728c-5.634-3.948-9.33-10.093-14.517-14.613
		c-15.717-13.698-40.05-9.139-59.185-0.862c-11.741,5.078-23.52,11.728-30.265,22.598c-6.745,10.869-6.601,26.906,3.358,34.935
		c4.504,3.631,10.283,5.187,15.865,6.706c25.845,7.031,54.642,18.136,63.965,43.245c3.597,9.688,3.814,20.615,8.965,29.575
		c4.681,8.141,13.376,13.841,22.709,14.886c16.148,1.807,32.01-9.476,47.931-6.229c19.81,4.041,11.67,36.54,28.34,45.414
		C370.459,873.375,367.459,859.873,367.459,842.62z"/>
	<path fill="#519D9D" d="M319.23,827.337c-4.238-3.081-8.585-6.277-11.329-10.741c-5.694-9.263-3.095-21.282-5.774-31.82
		c-3.067-12.064-12.679-21.12-20.74-30.605c-8.061-9.485-15.239-21.76-12.021-33.785c1.222-4.566,4.423-9.049,9.071-9.906
		c2.859-0.527,5.769,0.387,8.511,1.353c20.074,7.074,38.913,17.637,55.42,31.072c14.616,11.896,28.38,29.061,25.101,47.619
		c-2.052,11.612-10.449,21.104-14.022,32.341c-2.828,8.895-2.144,18.115-2.415,27.24
		C340.497,842.627,329.764,834.995,319.23,827.337z"/>
	<path fill="#66C3C3" d="M339.305,824.416c-0.167-4.717-0.344-9.494-1.689-14.018c-2.656-8.931-9.516-15.886-16.133-22.446
		c-1.92-1.904-3.879-3.836-6.275-5.091c-3.229-1.691-6.969-2.012-10.566-2.604c-7.754-1.275-15.276-3.955-22.09-7.869
		c-9.976-5.731-20.232-14.464-31.413-11.753c-5.675,1.376-10.195,5.535-14.442,9.543c-6.154,5.807-12.307,11.613-18.461,17.419
		c-3.537,3.338-7.095,6.692-11.132,9.403c-4.964,3.333-10.705,5.746-14.615,10.269c-6.228,7.204-6.231,17.757-5.431,27.247
		c0.737,8.747,3.232,19.206,11.593,21.88c1.268,0.406,2.691,0.58,3.903,0.03c1.845-0.839,2.602-3.009,3.172-4.954
		c1.062-3.625,2.123-7.25,3.185-10.874c1.698-5.799,3.687-12.024,8.574-15.578c4.823-3.508,11.357-3.531,17.22-2.437
		c5.863,1.094,11.587,3.158,17.548,3.336c15.442,0.462,29.829-11.707,45.016-8.875c6.926,1.291,12.867,5.567,18.552,9.729
		c6.172,4.518,15.977,15.029,23.518,15.817C340.874,836.923,338.477,830.35,339.305,824.416z"/>
	<path fill="#5DB4B3" d="M374.514,834.675c0-13.292-2.97-27.098-3.795-40.364c-1.257-20.205,0.311-40.583,4.644-60.357
		c3.159-14.417,9.018-30.01,22.298-36.45c18.772-9.104,43.933,4.245,61.019-7.728c5.634-3.948,9.33-10.092,14.517-14.613
		c15.717-13.698,40.05-9.139,59.185-0.862c11.741,5.078,23.521,11.728,30.265,22.598c6.745,10.87,6.601,26.906-3.358,34.935
		c-4.504,3.631-10.283,5.187-15.865,6.706c-25.845,7.031-54.642,18.136-63.966,43.245c-3.597,9.688-3.814,20.615-8.965,29.575
		c-4.681,8.141-13.376,13.841-22.709,14.885c-16.147,1.807-32.01-9.476-47.931-6.228c-19.81,4.041-11.67,36.54-28.34,45.414
		C371.514,865.43,374.514,851.928,374.514,834.675z"/>
	<path fill="#84DBDB" d="M376.044,824.536c3.147-2.288,6.375-4.661,8.412-7.975c4.228-6.878,2.298-15.802,4.287-23.626
		c2.278-8.958,9.414-15.682,15.4-22.724c5.986-7.043,11.315-16.157,8.926-25.086c-0.907-3.39-3.284-6.719-6.735-7.355
		c-2.123-0.391-4.284,0.287-6.32,1.005c-14.905,5.252-28.893,13.095-41.15,23.071c-10.852,8.833-21.072,21.578-18.638,35.357
		c1.523,8.622,7.758,15.67,10.412,24.014c2.1,6.604,1.592,13.45,1.793,20.226C360.253,835.889,368.222,830.222,376.044,824.536z"/>
	<path fill="#FFFFFF" d="M660.253,851.957c-1.935,14.579-9.211,28.398-3.172,41.813c1.291,2.868,5.607,8.446,6.724,10.632
		c0.774,1.518,1.351,2.754,2.355,4.503c2.944,5.13-1.929,11.276-7.555,9.45c-4.24-1.375-7.028-5.393-8.966-9.403
		c-1.934-4.001-3.406-8.343-6.386-11.639c-4.157-4.595-10.969-6.846-13.506-12.499c-1.063-2.369-1.213-5.062-2.229-7.453
		c-2.462-5.793-9.511-8.815-11.429-14.81c-2.408-7.523,4.284-14.49,8.289-21.298c5.191-8.824,6.118-19.455,6.464-29.688
		c0.929-27.4-1.423-54.91-6.992-81.754c-3.11-14.998-7.238-30.391-4.217-45.406c0.228-1.137,0.587-2.392,1.594-2.968
		c0.788-0.45,1.762-0.354,2.661-0.233c18.934,2.517,53.511,9.26,53.15,33.585c-0.411,27.782-2.513,55.905-6.095,83.469
		C668.61,816.206,662.635,834.014,660.253,851.957"/>
	<g>
		<defs>
			<path id="SVGID_1_" d="M621.228,681.438c-1.008,0.575-1.367,1.829-1.595,2.967c-3.021,15.015,1.107,30.408,4.217,45.406
				c5.568,26.845,7.921,54.354,6.992,81.755c-0.346,10.232-1.272,20.863-6.464,29.688c-4.005,6.808-10.697,13.775-8.289,21.298
				c1.918,5.995,8.967,9.018,11.43,14.81c1.015,2.391,1.165,5.084,2.228,7.453c2.537,5.652,9.349,7.903,13.505,12.498
				c2.981,3.297,4.454,7.638,6.387,11.639c1.938,4.011,4.726,8.029,8.966,9.404c5.625,1.824,10.499-4.321,7.555-9.451
				c-1.004-1.749-1.58-2.985-2.355-4.501c-1.117-2.188-5.433-7.767-6.724-10.634c-6.039-13.414,1.237-27.233,3.172-41.813
				c2.383-17.943,8.358-35.751,10.691-53.7c3.582-27.563,5.682-55.685,6.094-83.469c0.36-24.325-34.216-31.068-53.15-33.585
				c-0.391-0.052-0.796-0.101-1.194-0.101C622.177,681.103,621.673,681.183,621.228,681.438"/>
		</defs>
		<clipPath id="SVGID_2_">
			<use xlink:href="#SVGID_1_"  overflow="visible"/>
		</clipPath>
		<path clip-path="url(#SVGID_2_)" fill="#D5FDFD" d="M636.902,691.864c0.115,6.883,0.016,13.801-1.118,20.59
			c-1.255,7.507,5.338,47.753,4.802,55.345c-0.364,5.167,0.196,10.365-0.179,15.531c-0.418,5.773-1.617,12.807-1.795,21.852
			c-0.15,7.686-1.388,15.61-3.469,23.009c-2.594,9.221-5.288,18.654-10.906,26.414c-5.616,7.76-14.849,13.626-24.366,12.546
			c-0.816-0.094-1.669-0.254-2.297-0.781c-0.806-0.678-1.06-1.792-1.253-2.827c-2.414-12.936-2.61-26.285-0.578-39.288
			c2.169-13.883,6.843-27.314,8.495-41.268c1.187-10.025,0.795-20.161,0.402-30.248c-0.721-18.456-1.516-37.293-8.086-54.556
			c-1.165-3.06-2.532-6.317-1.771-9.504c0.765-3.205,3.497-5.513,6.148-7.47c3.538-2.614,7.218-5.034,11.018-7.248
			c2.882-1.68,6.007-3.284,9.341-3.2c3.86,0.096,7.249,2.41,10.6,4.326c3.765,2.153-3.481-35.466-0.521-32.337
			c2.776,2.933,2.485,9.058,2.952,12.769C635.838,667.574,636.699,679.714,636.902,691.864"/>
	</g>
	<g>
		<path fill="#3E787A" d="M660.82,905.888c3.2,1.712,6.617,3.023,9.669,4.985c3.053,1.962,5.799,4.731,6.727,8.238
			c-1.432,2.988-5.453,3.446-8.76,3.244c-10.914-0.67-21.647-4.097-30.929-9.875c-1.581-0.985-3.134-2.046-4.416-3.399
			c-1.226-1.291-2.179-2.821-3.39-4.128c-1.991-2.145-4.599-3.602-7.181-4.981c-11.212-5.993-23.317-11.619-30.77-21.919
			c-0.363-0.502-0.729-1.07-0.67-1.688c0.035-0.372,0.223-0.709,0.409-1.035c2.857-5.007,5.929-9.892,9.206-14.635
			c3.642-5.273,8.677-10.998,15.912-8.127c2.058,0.817,3.838,2.215,5.254,3.92c2.81,3.382,5.263,7.15,6.842,11.277
			c1.5,3.918,2.196,8.11,3.738,12.012c2.59,6.556,7.326,11.14,13.065,14.992C650.779,898.298,655.209,902.887,660.82,905.888"/>
	</g>
	<g>
		<defs>
			<path id="SVGID_3_" d="M600.715,860.696c-3.277,4.743-6.349,9.628-9.206,14.636c-0.186,0.326-0.374,0.663-0.409,1.035
				c-0.059,0.616,0.307,1.185,0.67,1.685c7.453,10.3,19.558,15.928,30.77,21.92c2.582,1.38,5.19,2.837,7.181,4.982
				c1.211,1.305,2.164,2.836,3.39,4.128c1.282,1.351,2.835,2.413,4.416,3.398c9.282,5.778,20.016,9.204,30.929,9.875
				c3.307,0.201,7.329-0.257,8.76-3.244c-0.928-3.509-3.674-6.276-6.727-8.237c-3.052-1.962-6.469-3.275-9.669-4.986
				c-5.611-3.002-10.041-7.59-15.294-11.118c-5.74-3.852-10.475-8.436-13.066-14.991c-1.541-3.901-2.237-8.095-3.736-12.013
				c-1.58-4.126-4.033-7.893-6.843-11.276c-1.416-1.704-3.196-3.104-5.254-3.92c-1.339-0.531-2.602-0.768-3.795-0.768
				C607.577,851.801,603.683,856.4,600.715,860.696"/>
		</defs>
		<clipPath id="SVGID_4_">
			<use xlink:href="#SVGID_3_"  overflow="visible"/>
		</clipPath>
		<path clip-path="url(#SVGID_4_)" fill="#386362" d="M609.861,873.658c1.735,1.524,3.241,3.291,4.756,5.035
			c6.95,7.999,14.252,15.69,21.88,23.045c2.076,2.003,4.186,3.987,6.544,5.649c2.486,1.753,5.215,3.125,7.933,4.491
			c6.804,3.418,13.608,6.836,20.412,10.254c1.201,0.603,2.442,1.239,3.267,2.298c0.825,1.062,1.102,2.676,0.266,3.729
			c-0.497,0.626-1.282,0.942-2.042,1.191c-6.292,2.064-13.22,1.219-19.518-0.828c-6.298-2.048-12.152-5.235-18.188-7.96
			c-7.993-3.606-16.367-6.424-23.975-10.78c-5.665-3.245-10.821-7.298-15.893-11.409c-3.465-2.808-6.901-5.652-10.309-8.529
			c-1.7-1.435-3.425-2.916-4.564-4.83c-3.401-5.709,0.427-14.461,6.607-16.341C594.734,866.331,603.846,868.37,609.861,873.658"/>
	</g>
	<g>
		<path fill="#FFFFFF" d="M733.613,867.183c2.928,16.617-0.248,34.252,11,46.835c2.404,2.689,9.056,7.299,11.034,9.304
			c1.372,1.39,2.431,2.544,4.133,4.109c4.996,4.592,1.792,13.002-4.993,12.953c-5.113-0.037-9.553-3.47-13.062-7.185
			c-3.499-3.707-6.612-7.947-11.012-10.519c-6.137-3.589-14.367-3.693-19.099-8.999c-1.982-2.225-3.079-5.118-5.017-7.381
			c-4.698-5.485-13.453-6.352-17.627-12.245c-5.236-7.396-0.328-17.333,1.697-26.166c2.625-11.448-0.041-23.397-3.202-34.71
			c-8.466-30.293-20.56-59.57-35.94-87.007c-8.593-15.328-18.434-30.739-20.327-48.209c-0.143-1.322-0.185-2.819,0.718-3.798
			c0.706-0.763,1.804-0.997,2.83-1.177c21.581-3.799,61.735-8.389,69.759,18.344c9.165,30.534,16.599,62.024,22.218,93.412
			C730.383,825.185,730.009,846.732,733.613,867.183"/>
	</g>
	<g>
		<defs>
			<path id="SVGID_5_" d="M634.746,692.988c-1.026,0.181-2.124,0.413-2.831,1.178c-0.902,0.978-0.86,2.474-0.717,3.796
				c1.892,17.47,11.734,32.882,20.326,48.21c15.38,27.437,27.475,56.713,35.94,87.006c3.162,11.314,5.827,23.264,3.202,34.711
				c-2.025,8.832-6.933,18.77-1.696,26.165c4.173,5.895,12.928,6.761,17.627,12.246c1.938,2.263,3.034,5.157,5.017,7.381
				c4.731,5.306,12.961,5.41,19.098,8.999c4.401,2.573,7.513,6.813,11.013,10.519c3.508,3.716,7.948,7.148,13.062,7.185
				c6.785,0.048,9.989-8.36,4.993-12.953c-1.703-1.565-2.762-2.719-4.134-4.108c-1.978-2.006-8.629-6.615-11.034-9.306
				c-11.247-12.583-8.071-30.217-11-46.835c-3.603-20.449-3.23-41.997-6.889-62.438c-5.62-31.389-13.054-62.878-22.218-93.411
				c-5.06-16.857-22.894-21.26-40.791-21.26C653.227,690.073,642.719,691.585,634.746,692.988"/>
		</defs>
		<clipPath id="SVGID_6_">
			<use xlink:href="#SVGID_5_"  overflow="visible"/>
		</clipPath>
		<path clip-path="url(#SVGID_6_)" fill="#D5FDFD" d="M704.231,872.914c0.028-5.176-0.206-10.455-1.993-15.313
			c-0.853-2.319-2.049-4.506-2.825-6.853c-1.083-3.274-1.318-6.758-1.653-10.191c-2.124-21.83-8.612-43.224-18.97-62.556
			c-7.572-14.131-17.183-27.174-23.663-41.837c-2.364-5.35-4.328-10.941-7.662-15.744c-6.257-9.013-17.344-14.443-28.3-13.863
			c-3.377,9.832-3.489,20.442-3.565,30.837c-0.065,8.766-0.113,17.661,2.189,26.118c2.223,8.166,6.541,15.571,10.47,23.067
			c14.351,27.38,23.98,57.228,28.335,87.834c1.107,7.784,2.213,16.313,7.947,21.694c6.145,5.768,15.498,5.962,23.924,5.817
			c5.306-0.091,11.855-0.26,13.858-6.028C704.698,889.06,704.192,880.059,704.231,872.914"/>
	</g>
	<g>
		<path fill="#3E787A" d="M752.896,925.98c4.092,0.765,8.284,1.018,12.302,2.106c4.018,1.09,7.979,3.167,10.208,6.684
			c-0.531,3.764-4.772,5.657-8.46,6.58c-12.169,3.044-25.095,3.01-37.248-0.1c-2.07-0.528-4.136-1.153-6.006-2.187
			c-1.788-0.989-3.359-2.333-5.137-3.342c-2.92-1.658-6.277-2.35-9.578-2.967c-14.339-2.675-29.527-4.639-41.244-13.326
			c-0.57-0.424-1.167-0.918-1.316-1.612c-0.09-0.42-0.001-0.855,0.089-1.274c1.392-6.466,3.063-12.873,5.005-19.195
			c2.159-7.027,5.686-15.033,14.593-14.396c2.535,0.181,4.965,1.095,7.103,2.469c4.245,2.729,8.232,6,11.388,9.969
			c2.996,3.767,5.208,8.111,8.244,11.845c5.103,6.274,11.87,9.649,19.48,11.879C739.286,921.151,745.719,924.638,752.896,925.98"/>
	</g>
	<g>
		<defs>
			<path id="SVGID_7_" d="M671.511,897.346c-1.943,6.323-3.613,12.729-5.005,19.195c-0.09,0.42-0.179,0.854-0.089,1.274
				c0.149,0.693,0.746,1.19,1.316,1.611c11.716,8.688,26.904,10.652,41.244,13.327c3.301,0.617,6.658,1.308,9.577,2.967
				c1.778,1.01,3.349,2.352,5.138,3.343c1.869,1.033,3.935,1.657,6.006,2.186c12.153,3.109,25.079,3.143,37.248,0.099
				c3.688-0.922,7.928-2.815,8.46-6.579c-2.229-3.516-6.191-5.594-10.208-6.683c-4.018-1.09-8.211-1.343-12.302-2.108
				c-7.177-1.342-13.61-4.828-20.578-6.867c-7.61-2.228-14.376-5.603-19.479-11.879c-3.037-3.733-5.248-8.078-8.244-11.846
				c-3.156-3.967-7.143-7.238-11.388-9.967c-2.138-1.374-4.568-2.288-7.102-2.47c-0.336-0.024-0.664-0.036-0.985-0.036
				C676.933,882.915,673.588,890.584,671.511,897.346"/>
		</defs>
		<clipPath id="SVGID_8_">
			<use xlink:href="#SVGID_7_"  overflow="visible"/>
		</clipPath>
		<path clip-path="url(#SVGID_8_)" fill="#386362" d="M667.742,909.865c2.14-0.491,4.113-1.536,6.226-2.132
			c6.416-1.811,13.192,0.671,19.3,3.339c6.664,2.912,13.21,6.094,19.616,9.535c14.255,7.657,28.299,16.778,44.307,19.15
			c5.384,0.797,10.849,0.802,16.292,0.805c3.931,0.002,7.863,0.003,11.795,0.005c1.49,0.001,3.031,0.012,4.389,0.625
			c2.266,1.022,3.534,3.533,3.891,5.993c1.134,7.84-5.558,15.086-13.122,17.44c-7.565,2.354-15.718,1.066-23.544-0.163
			c-17.373-2.731-34.806-5.08-52.283-7.042c-10.76-1.209-22.028-2.443-31-8.506c-6.248-4.222-10.826-10.436-15.276-16.524
			c-1.102-1.507-2.215-3.034-2.915-4.765c-1.159-2.863-1.061-5.961-1.325-8.981c-0.14-1.602-1.296-4.674-0.652-6.212
			C655.032,908.631,664.411,910.631,667.742,909.865"/>
	</g>
	<g>
		<path fill="#84DBDB" d="M551.302,628.117c16.327,2.845,31.91,8.824,47.768,13.635c19.564,5.936,39.643,10.117,59.041,16.573
			c16.892,5.622,33.473,13.137,47.268,24.278c3.382,2.732,3.704,7.764,0.648,10.856c-19.714,19.952-44.971,34.182-71.789,42.56
			c-29.286,9.15-60.405,11.541-91.026,9.597c-11.114-0.706-22.472-2.056-32.405-7.089c-10.852-5.499-19.103-14.921-27.068-24.116
			c-12.474-14.398-24.947-28.798-37.421-43.196c-3.819-4.41-7.82-9.227-8.352-15.036c-0.523-5.714,2.43-11.106,5.287-16.083
			c10.82-18.85,21.547-13.025,40.222-13.341C506.073,626.374,528.879,624.211,551.302,628.117"/>
	</g>
	<g>
		<defs>
			<path id="SVGID_9_" d="M483.475,626.754c-3.721,0.063-7.128-0.117-10.281-0.298c-12.673-0.728-21.278-1.454-29.941,13.639
				c-2.857,4.978-5.811,10.37-5.287,16.083c0.532,5.81,4.532,10.627,8.352,15.036c12.474,14.399,24.947,28.799,37.421,43.197
				c7.965,9.195,16.216,18.617,27.068,24.116c9.934,5.035,21.291,6.383,32.405,7.089c30.621,1.944,61.74-0.446,91.026-9.595
				c26.818-8.379,52.075-22.609,71.789-42.562c3.056-3.093,2.735-8.125-0.649-10.857c-13.794-11.141-30.375-18.655-47.268-24.277
				c-19.397-6.456-39.476-10.638-59.04-16.573c-15.858-4.81-31.441-10.79-47.768-13.635c-10.243-1.784-20.564-2.302-30.91-2.302
				C508.089,625.815,495.75,626.548,483.475,626.754"/>
		</defs>
		<clipPath id="SVGID_10_">
			<use xlink:href="#SVGID_9_"  overflow="visible"/>
		</clipPath>
		<path clip-path="url(#SVGID_10_)" fill="#5DB4B3" d="M561.411,757.359c-5.952,0.972-12.071,1.941-17.968,0.679
			c-5.898-1.263-11.607-5.287-13.046-11.144c-1.789-7.281,3.706-14.763,10.55-17.824c6.843-3.064,14.65-2.798,22.141-2.478
			c-30.913,1.524-62.13-3.396-91.077-14.351c-5.118-1.938-10.281-4.132-14.304-7.841c-4.533-4.179-7.253-9.938-9.523-15.67
			c-3.494-8.823-6.19-17.963-8.045-27.271c-1.231-6.179-1.618-13.718,3.353-17.588c2.924-2.277,6.89-2.541,10.593-2.679
			c15.029-0.566,31.021-0.351,43.74,7.676c9.343,5.896,15.871,15.405,24.857,21.831c17.261,12.342,40.274,11.45,61.492,11.273
			c12.68-0.105,25.363,0.225,38.021,0.99c8.197,0.497,16.792,1.313,23.61,5.893c4.451,2.989,7.782,7.362,11.926,10.768
			c10.431,8.568,24.99,10.197,38.433,8.959c13.443-1.239,26.597-4.961,40.078-5.681c4.071-0.218,8.252-0.144,12.077,1.269
			c8.537,3.15,13.469,12.305,15.107,21.255c3.301,18.042-4.556,37.659-19.401,48.433c-17.311,12.563-40.477,12.484-61.835,11.319
			c-66.435-3.627-132.437-12.811-198.196-22.941c-8.909-1.373-18.08-2.857-25.77-7.563c-7.428-4.544-12.835-11.715-17.625-18.988
			c-18.828-28.592-30.943-61.572-35.1-95.554"/>
	</g>
	<g>
		<path fill="#FFFFFF" d="M666.181,531.482c13.027,0.895,26.054,1.789,39.081,2.684c1.948,0.133,2.109-1.193,3.893-1.988
			c1.605-0.716,4.691-0.645,6.168-1.594c3.655-2.349,8.44-1.827,12.618-0.639c3.069,0.872,6.11,2.065,9.229,2.602
			c1.699,0.293,2.966-1.459,2.182-2.995c-2.841-5.57-8.769-9.408-14.296-12.728c-7.073-4.249-14.555-8.623-22.802-8.865
			c-8.615-0.254-16.866,4.072-25.482,3.869c-3.369-0.079-6.678-0.852-10.018-1.296c-5.969-0.792-12.078-0.524-17.956,0.788"/>
	</g>
	<g>
		<defs>
			<path id="SVGID_11_" d="M689.443,509.891c-4.193,1.019-8.387,2.038-12.671,1.936c-3.369-0.079-6.678-0.852-10.018-1.295
				c-5.969-0.792-12.078-0.525-17.956,0.788l17.384,20.161c13.026,0.895,26.053,1.79,39.08,2.684
				c1.949,0.133,2.11-1.192,3.894-1.988c1.604-0.716,4.69-0.644,6.168-1.594c3.654-2.348,8.439-1.826,12.617-0.639
				c3.07,0.873,6.111,2.065,9.23,2.603c1.699,0.292,2.965-1.46,2.182-2.996c-2.842-5.569-8.77-9.408-14.297-12.728
				c-7.072-4.249-14.555-8.623-22.802-8.865c-0.245-0.007-0.489-0.011-0.733-0.011C697.443,507.947,693.444,508.919,689.443,509.891
				"/>
		</defs>
		<clipPath id="SVGID_12_">
			<use xlink:href="#SVGID_11_"  overflow="visible"/>
		</clipPath>
		<path clip-path="url(#SVGID_12_)" fill="#D5FDFD" d="M677.447,518.486c2.87-0.553,5.696-1.313,8.559-1.904
			c8.993-1.854,18.239-2.003,27.42-2.122c3.736-0.049,7.521-0.088,11.145,0.818c3.521,0.879,6.757,2.617,10.135,3.946
			c4.272,1.681,8.799,2.712,13.378,3.045c0.778-1.314-0.279-2.939-1.368-4.01c-7.235-7.112-17.707-9.539-27.548-12.005
			c-11.365-2.848-22.674-6.146-34.315-7.462c-11.566-1.307-23.754-0.57-34.41,4.47c-3.476,1.644-10.33,4.641-8.408,9.699
			c1.669,4.392,10.504,5.175,14.44,5.808C663.41,519.886,670.545,519.818,677.447,518.486"/>
	</g>
	<g>
		<path fill="#5DB4B3" d="M555.745,413.244c9.943,15.032,14.801,32.881,17.546,50.694c1.708,11.076,3.011,23.075,10.543,31.372
			c8.983,9.896,24.025,11.323,37.305,9.822c14.525-1.642,29.115-5.957,43.514-2.34c2.405,0.605,4.65,1.82,6.348,3.627
			c7.004,7.45-0.193,17.735-2.285,27.215c-0.999,4.525-5.488,7.393-9.947,6.133c-35.779-10.119-78.871,7.619-112.091-10.602
			c-25.246-13.847-36.143-43.773-45.021-71.165c-4.08-12.591-8.204-25.441-8.183-38.676c0.021-13.664,5.812-34.801,22.07-34.936
			C531.12,384.256,547.945,401.451,555.745,413.244"/>
	</g>
	<g>
		<defs>
			<path id="SVGID_13_" d="M515.544,384.387c-16.258,0.136-22.049,21.272-22.071,34.936c-0.019,13.236,4.104,26.086,8.184,38.677
				c8.878,27.391,19.775,57.317,45.021,71.165c18.718,10.267,40.572,9.117,62.484,7.967c16.976-0.891,33.988-1.782,49.607,2.635
				c4.46,1.261,8.948-1.609,9.947-6.134c2.094-9.479,9.29-19.764,2.286-27.215c-1.698-1.807-3.944-3.022-6.348-3.626
				c-14.399-3.619-28.989,0.698-43.514,2.339c-13.28,1.501-28.323,0.075-37.305-9.821c-7.532-8.298-8.835-20.297-10.543-31.373
				c-2.745-17.813-7.603-35.661-17.547-50.693c-7.77-11.75-24.496-28.859-40.023-28.858
				C515.663,384.386,515.602,384.387,515.544,384.387"/>
		</defs>
		<clipPath id="SVGID_14_">
			<use xlink:href="#SVGID_13_"  overflow="visible"/>
		</clipPath>
		<path clip-path="url(#SVGID_14_)" fill="#84DBDB" d="M679.847,556.255c-5.338-2.013-10.149-5.406-13.837-9.758
			c-1.585-1.871-2.979-3.929-4.845-5.518c-2.191-1.868-4.907-2.985-7.575-4.067c-14.096-5.711-28.565-11.319-43.751-12.145
			c-18.026-0.98-36.566,4.804-53.892-0.267c-12.588-3.684-22.903-12.712-31.713-22.43c-4.486-4.949-8.772-10.207-14.284-13.98
			c-5.513-3.772-12.62-5.901-18.957-3.789c-4.365,1.456-7.907,4.761-10.589,8.501c-4.795,6.69-7.075,16.108-2.769,23.122
			c3.358,5.471,9.758,8.144,15.776,10.375c29.315,10.869,59.545,19.266,90.265,25.075c28.602,5.408,57.995,8.571,86.814,4.467"/>
	</g>
	<path fill="#519D9D" d="M544.755,427.422c11.102,20.542,22.427,41.794,24.657,65.038c1.721,17.932-9.501,36.783-11.133,54.723
		c-2.299,25.293,7.405,55.873,12.943,82.112c0.434,2.057-1.235,3.944-3.331,3.78c-52.349-4.088-104.641,4.101-156.396-7.259
		c3.569-27.869,30.126-72.203,35.357-99.809c2.646-13.965-0.495-28.365-4.673-41.952c-4.177-13.586-14.403-33.335-16.128-47.444
		c-3.642-29.786-9.489-36.236,41.812-58.678C498.539,364.512,529.137,398.523,544.755,427.422"/>
	<path fill="#FFFFFF" d="M601.29,652.154L601.29,652.154c-0.565-0.565-0.565-1.489,0-2.054l39.877-39.878
		c0.564-0.564,1.489-0.564,2.054,0c0.565,0.565,0.565,1.49,0,2.055l-39.877,39.877C602.779,652.719,601.855,652.719,601.29,652.154"
		/>
	<path fill="#FFFFFF" d="M597.941,622.986c1.609,1.514,3.176,3.117,5.092,4.22c2.106,1.212,4.518,1.754,6.815,2.545
		c9.553,3.29,17.331,11.34,20.29,21.001c0.389,1.273,0.702,2.586,0.673,3.916c-0.054,2.413-1.217,4.644-2.351,6.773
		c-2.879,5.403-6.806,11.512-12.921,11.83c-1.686,0.088-3.37-0.305-5.058-0.223c-5.831,0.279-11.112,6.063-16.636,4.176
		c-0.467-3.288,2.572-5.929,5.369-7.72c2.798-1.79,6.019-3.962,6.219-7.277c0.154-2.575-1.7-4.894-3.886-6.265
		c-2.185-1.373-4.722-2.057-7.064-3.138c-3.81-1.756-7.112-4.594-9.42-8.095c-0.904-1.371-1.661-2.845-2.694-4.119
		c-3.069-3.791-8.059-5.318-12.714-6.774c-17.956-5.613-35.23-15.914-51.709-24.987c-6.175-3.4-12.416-4.212-17.328-9.268
		c-1.82-1.874-3.548-4.158-3.524-6.769c0.032-3.42,2.97-6.009,5.659-8.121c3.116-2.446,6.282-4.923,9.942-6.439
		c6.147-2.548,13.468-2.069,19.231,1.258c2.839,1.64,5.268,3.894,7.98,5.734c4.468,3.032,9.625,4.146,14.285,6.656
		c4.831,2.602,9.114,6.696,13.71,9.741C578.137,608.422,588.95,614.52,597.941,622.986"/>
	<g>
		<defs>
			<path id="SVGID_15_" d="M512.695,578.252c-3.66,1.516-6.826,3.993-9.942,6.44c-2.69,2.111-5.626,4.701-5.659,8.121
				c-0.023,2.611,1.704,4.896,3.524,6.769c4.912,5.056,11.153,5.867,17.328,9.268c16.479,9.074,33.753,19.373,51.71,24.987
				c4.655,1.456,9.644,2.982,12.713,6.774c1.033,1.274,1.79,2.749,2.694,4.118c2.308,3.502,5.61,6.34,9.419,8.096
				c2.343,1.081,4.88,1.766,7.065,3.138c2.186,1.371,4.04,3.69,3.886,6.264c-0.199,3.316-3.42,5.487-6.219,7.278
				c-2.797,1.79-5.836,4.431-5.369,7.72c5.523,1.887,10.805-3.896,16.636-4.176c0.837-0.04,1.674,0.037,2.51,0.112
				c0.849,0.078,1.699,0.155,2.549,0.109c6.114-0.317,10.041-6.425,12.92-11.829c1.134-2.131,2.297-4.36,2.351-6.773
				c0.029-1.33-0.284-2.642-0.672-3.916c-2.96-9.66-10.737-17.711-20.291-21.001c-2.297-0.792-4.709-1.333-6.815-2.545
				c-1.916-1.102-3.483-2.705-5.092-4.22c-8.991-8.466-19.804-14.564-30.039-21.344c-4.597-3.046-8.881-7.14-13.712-9.741
				c-4.659-2.512-9.816-3.624-14.284-6.655c-2.711-1.841-5.141-4.095-7.979-5.734c-3.308-1.91-7.127-2.881-10.944-2.881
				C518.149,576.63,515.315,577.166,512.695,578.252"/>
		</defs>
		<clipPath id="SVGID_16_">
			<use xlink:href="#SVGID_15_"  overflow="visible"/>
		</clipPath>
		<path clip-path="url(#SVGID_16_)" fill="#D5FDFD" d="M579.924,634.074c2.28,0.8,4.635,1.645,6.375,3.322
			c0.98,0.944,1.714,2.107,2.483,3.23c1.701,2.482,3.658,4.861,6.19,6.489c3.025,1.942,6.685,2.698,9.749,4.579
			c4.032,2.475,6.713,6.732,8.203,11.223c1.491,4.489,1.913,9.251,2.325,13.963c0.076,0.871,0.128,1.833-0.401,2.528
			c-0.614,0.807-1.757,0.937-2.768,1.002c-6.349,0.406-12.698,0.811-19.046,1.218c-1.736,0.11-3.604,0.19-5.079-0.732
			c-1.428-0.895-2.177-2.538-2.786-4.109c-2.302-5.925-3.755-12.178-4.303-18.511c-0.161-1.854-0.259-3.773-1.084-5.443
			c-0.86-1.74-2.418-3.016-3.949-4.209c-8.138-6.331-16.888-11.875-26.09-16.529c-2.059-1.041-4.24-2.122-5.513-4.046
			c-1.199-1.812-1.629-4.589-1.223-6.722c0.535-2.818,2.337-2.653,5.142-2.907c3.201-0.291,5.864,0.094,8.413,2.131
			c3.245,2.591,5.218,6.259,8.999,8.236C570.017,631.117,575.191,632.412,579.924,634.074"/>
	</g>
	<path fill="#5DB4B3" d="M415.462,504.635c0.524,16.442,8.211,35.76,16.807,49.786c8.504,13.877,23.34,22.382,37.556,30.307
		l45.781,25.52c10.48,5.843,23.698,17.871,35.696,17.868c9.17-0.002,16.725-10.918,21.025-18.573
		c2.151-3.828,0.907-8.675-2.8-11.025l-79.821-50.621c-6.304-3.997-12.856-8.251-16.524-14.751
		c-4.988-8.839-3.566-19.716-2.658-29.823c2.173-24.18,0.523-48.699-4.868-72.37c-3.462-15.203-10.339-33.006-27.869-35.714
		c-11.863-1.833-18.564,3.639-19.988,14.966c-1.574,12.525-4.718,24.347-4.168,36.924
		C414.469,466.284,414.852,485.471,415.462,504.635"/>
	<g>
		<defs>
			<path id="SVGID_17_" d="M417.799,410.205c-1.574,12.525-4.718,24.346-4.168,36.924c0.838,19.155,1.22,38.342,1.831,57.505
				c0.523,16.442,8.211,35.761,16.806,49.787c8.505,13.877,23.341,22.383,37.556,30.306l45.781,25.521
				c10.481,5.843,23.698,17.873,35.697,17.87c9.169-0.002,16.725-10.918,21.025-18.574c2.15-3.828,0.907-8.674-2.801-11.025
				l-79.821-50.622c-6.303-3.996-12.855-8.251-16.524-14.751c-4.987-8.838-3.566-19.715-2.658-29.823
				c2.173-24.179,0.524-48.698-4.867-72.369c-3.463-15.204-10.339-33.006-27.87-35.715c-1.507-0.232-2.931-0.347-4.271-0.347
				C424.306,394.891,419.042,400.317,417.799,410.205"/>
		</defs>
		<clipPath id="SVGID_18_">
			<use xlink:href="#SVGID_17_"  overflow="visible"/>
		</clipPath>
		<path clip-path="url(#SVGID_18_)" fill="#84DBDB" d="M410.215,519.222c3.071,17.416,14.797,33.085,30.641,40.943
			c15.157,7.517,33.419,8.154,47.33,17.784c8.369,5.792,14.497,14.434,23.049,19.952c8.162,5.268,17.915,7.31,27.067,10.564
			c9.152,3.255,18.583,8.339,22.706,17.135c1.664,3.548,2.226,7.518,2.799,11.394c0.19,1.288,0.367,2.607,0.11,3.883
			c-0.836,4.149-5.694,6.061-9.909,6.439c-9.286,0.834-18.465-2.249-27.043-5.904c-8.494-3.616-16.717-7.833-24.9-12.105
			c-22.778-11.895-45.417-24.335-65.744-40.058c-6.425-4.969-12.691-10.35-17.192-17.112c-8.239-12.379-9.613-29.031-3.516-42.593"
			/>
	</g>
	<g>
		<path fill="#3E787A" d="M352.053,491.227c5.698-4.013,11.471-8.066,17.981-10.553c6.51-2.487,13.941-3.281,20.41-0.689
			c9.666,3.873,14.425,15.75,21.21,23.65c5.073,5.908,38.923,53.659,37.147,58.548c-1.958,5.39-44.251-35.844-49.939-35.115
			c-15.578,1.999-31.976-6.324-39.559-20.076"/>
		<path fill="#47FBD4" d="M374.726,486.699c14.172,12.259,28.344,24.519,42.515,36.778c10.87,9.403,21.972,19.089,28.87,31.698
			c12.481,22.813,9.225,51.311,19.571,75.168c9.909,22.849,31.474,38.985,54.691,47.999c23.217,9.015,48.292,11.83,73.016,14.836
			c13.171,1.603,26.819,3.449,38.011,10.577c11.191,7.128,19.169,21.124,15.103,33.755c-4.777,14.838-22.474,20.573-37.856,23.104
			c-42.469,6.987-86.259,5.859-128.312-3.306c-19.725-4.298-39.973-10.886-53.962-25.44c-11.686-12.159-17.719-28.538-23.211-44.483
			c-14.817-43.022-27.95-86.625-39.361-130.674c-4.761-18.378-10.994-33.54-14.401-52.089
			C346.189,487.135,361.073,474.887,374.726,486.699"/>
		<path fill="#FFFFFF" d="M584.898,937.686c0,11.183-32.906,20.249-73.497,20.249c-40.59,0-73.496-9.066-73.496-20.249
			c0-11.185,32.906-20.249,73.496-20.249C551.992,917.437,584.898,926.501,584.898,937.686"/>
		<path fill="#66C3C3" d="M547.378,937.686c0,5.474-16.107,9.911-35.977,9.911c-19.869,0-35.976-4.437-35.976-9.911
			c0-5.476,16.107-9.912,35.976-9.912C531.271,927.773,547.378,932.21,547.378,937.686"/>
		<path fill="#47FBD4" d="M521.196,937.686c0,1.49-4.385,2.698-9.794,2.698c-5.41,0-9.795-1.208-9.795-2.698
			c0-1.49,4.385-2.699,9.795-2.699C516.811,934.986,521.196,936.195,521.196,937.686"/>
		<path fill="#FFFFFF" d="M502.015,924.918c0.504,3.063,1.056,6.222,2.75,8.823c1.695,2.601,4.85,4.512,7.869,3.79
			c4.44-1.062,5.873-6.555,6.481-11.079c7.243-53.88,14.485-107.761,21.727-161.64c0.61-4.532,1.119-9.529-1.434-13.323
			c-3.377-5.019-10.393-5.629-16.44-5.739c-9.761-0.181-19.521-0.358-29.282-0.538c-2.408-0.044-4.999-0.036-6.971,1.347
			c-5.393,3.778-0.12,33.707,0.247,40.451c0.827,15.218,1.928,30.421,3.301,45.599C493.056,863.508,496.975,894.306,502.015,924.918
			"/>
	</g>
	<g>
		<defs>
			<path id="SVGID_19_" d="M486.714,746.559c-5.393,3.778-0.12,33.707,0.247,40.45c0.828,15.218,1.929,30.421,3.301,45.602
				c2.793,30.897,6.713,61.695,11.752,92.307c0.505,3.064,1.056,6.222,2.751,8.823c1.695,2.601,4.849,4.512,7.868,3.79
				c4.44-1.062,5.873-6.556,6.481-11.079c7.243-53.88,14.485-107.76,21.727-161.64c0.61-4.532,1.119-9.529-1.434-13.323
				c-3.376-5.019-10.393-5.628-16.44-5.739c-9.76-0.18-19.521-0.358-29.282-0.538c-0.355-0.007-0.714-0.012-1.074-0.012
				C490.527,745.2,488.396,745.379,486.714,746.559"/>
		</defs>
		<clipPath id="SVGID_20_">
			<use xlink:href="#SVGID_19_"  overflow="visible"/>
		</clipPath>
		<path clip-path="url(#SVGID_20_)" fill="#66C3C3" d="M461.788,766.666c5.893-7.398,15.33-13.909,27.323-16.158
			c12.839-2.407,27.888,0.074,38.825-5.063c5.046-2.369,8.523-6.123,13.929-8.098c5.143-1.879,11.546-1.865,16.977-0.401
			c5.43,1.464,9.924,4.265,13.174,7.545c6.32,6.38,8.038,14.737,4.528,22.039c-3.51,7.3-12.173,13.386-22.841,16.047
			c-11.004,2.745-23.134,1.9-34.864,2.031c-11.73,0.132-24.548,1.675-32.141,7.708c-4.475,3.557-6.494,8.195-9.853,12.272
			c-3.358,4.078-9.113,7.925-16.018,7.699C433.166,811.384,455.471,774.596,461.788,766.666"/>
	</g>
	<g>
		<path fill="#3E787A" d="M639.423,740.172c-4.78,14.84-22.48,20.58-37.86,23.109c-23,3.781-46.38,5.192-69.66,4.221
			c-19.72-0.81-39.37-3.33-58.65-7.529c-19.73-4.291-39.97-10.881-53.96-25.442c-11.69-12.158-17.72-28.539-23.21-44.479
			c-14.82-43.021-27.95-86.631-39.37-130.67c-1.85-7.12-4.03-14.37-6.21-21.65c-3.45-11.5-6.89-23.1-8.98-34.461
			c-3.21-17.49,12.47-25.72,26.12-13.91c14.17,12.26,28.34,24.52,42.52,36.78c10.87,9.4,21.97,19.09,28.87,31.7
			c12.48,22.81,9.22,51.308,19.57,75.169c9.9,22.85,31.47,38.98,54.69,48c23.21,9.01,48.29,11.83,73.01,14.83
			c13.17,1.6,26.82,3.451,38.01,10.58C635.513,713.553,643.483,727.543,639.423,740.172"/>
		<path fill="#386362" d="M531.903,767.502c-19.72-0.81-39.37-3.33-58.65-7.529c-19.73-4.291-39.97-10.881-53.96-25.442
			c-11.69-12.158-17.72-28.539-23.21-44.479c-14.82-43.021-27.95-86.631-39.37-130.67c-1.85-7.12-4.03-14.37-6.21-21.651
			c7.53,3.181,14.48,8.25,18.71,12.821c11.55,12.47,17.03,29.31,20.92,45.86c3.88,16.539,6.58,33.59,13.87,48.939
			c7.75,16.311,20.64,30.141,36.37,39.021c25.15,14.18,56.22,15.549,80.57,31.059c10.59,6.75,20.1,17.281,20.48,29.83
			C541.682,753.861,537.803,761.281,531.903,767.502"/>
		<path fill="#FFFFFF" d="M709.246,529.182c2.176,2.637,6.803,8.095,8.979,10.731c0.358,0.435,0.727,0.891,0.822,1.42
			c0.26,1.452-1.757,2.553-3.419,2.317c-1.662-0.236-2.983-1.293-4.299-2.209c-10.344-7.194-25.209-7.504-35.949-14.241"/>
		<path fill="#3E787A" d="M415.786,330.678c-20.881,19.464-34.63,46.418-38.127,74.75c-3.497,28.331,3.285,57.82,18.807,81.777
			c0.865,1.337,1.807,2.703,3.193,3.489c1.343,0.761,2.959,0.886,4.498,0.77c7.69-0.582,13.814-6.461,18.944-12.218
			c11.931-13.389,22.573-28.38,27.991-45.476c3.687-11.636,4.851-23.899,5.992-36.052c0.873-9.296,9.906-10.49,10.779-19.786
			c0.548-5.825,18.075-21.344,17.285-27.141c-0.956-7.014-19.037-23.634-21.875-30.119c-2.991-6.834-14.263-5.051-22.821-4.757
			C431.679,316.216,421.785,325.066,415.786,330.678"/>
	</g>
	<g>
		<defs>
			<path id="SVGID_21_" d="M440.451,315.915c-8.772,0.301-18.667,9.151-24.665,14.764c-20.882,19.463-34.631,46.418-38.127,74.749
				c-3.498,28.331,3.284,57.821,18.806,81.778c0.866,1.336,1.807,2.703,3.192,3.489c1.345,0.761,2.96,0.886,4.5,0.77
				c7.689-0.583,13.814-6.461,18.944-12.218c11.93-13.39,22.572-28.38,27.99-45.476c3.688-11.636,4.851-23.899,5.993-36.052
				c0.872-9.296,9.905-10.491,10.778-19.787c0.548-5.825,18.075-21.343,17.286-27.141c-0.956-7.014-19.038-23.634-21.875-30.119
				c-1.876-4.287-7.011-5.183-12.69-5.183C447.208,315.489,443.641,315.806,440.451,315.915"/>
		</defs>
		<clipPath id="SVGID_22_">
			<use xlink:href="#SVGID_21_"  overflow="visible"/>
		</clipPath>
		<path clip-path="url(#SVGID_22_)" fill="#3E787A" d="M428.852,354.372c-12.396,8.515-22.101,22.499-21.376,37.52
			c0.765,15.885,12.758,30.308,10.7,46.077c-1.191,9.126-6.923,16.894-11.086,25.102c-8.346,16.452-10.197,37.373-0.141,52.84
			c7.503,11.541,20.617,18.552,34.099,21.33c8.695,1.792,18.179,1.906,25.979-2.335c3.801-2.067,7.019-5.071,9.873-8.323
			c12.116-13.802,18.012-32.13,20.18-50.366c2.169-18.237,0.916-36.679,0.425-55.037c-0.458-17.112-0.251-34.241,0.62-51.336
			c0.405-7.941,7.047-33.315-0.695-38.419c-6.579-4.336-21.407,4.279-27.626,6.401C455.733,342.627,441.32,345.808,428.852,354.372"
			/>
	</g>
	<g>
		<path fill="#47FBD4" d="M435.342,309.859c-6.516,7.493-8.199,16.741-4.317,23.716c2.564,4.607,7.26,8.104,11.877,11.512
			c1.432,1.058,3.284,2.179,5.502,1.605c3.102-0.803,3.87-3.958,3.667-6.241c-0.677-7.622-3.616-14.633-6.268-21.676
			c-1.251-3.321-1.704-7.503-3.503-10.578C440.309,304.796,438.633,306.075,435.342,309.859"/>
		<path fill="#3E787A" d="M523.352,297.398c-3.073,1.901-5.388,4.791-7.554,7.684c-4.757,6.355-9.113,13.01-13.03,19.913
			c-2.068,3.643-4.523,7.747-8.633,8.558c-3.929-4.531-5.843,20.036-9.772,15.505c-2.711-3.126-5.979-0.352-10,0.625
			c-4.297,1.045-4.639-9.171-4.75-4.75c-0.062,2.509,2.574,18.566,1,5.5c-0.215-1.784-2.18-5.329-1.75-3.585
			c0.406,1.643-0.382-4.718-0.403-3.026c-0.017,1.431-0.503,1.956-0.945,3.316c-2.185,6.721-6.259,10.985-11.01,16.217
			c-2.79-12.36-5.158-22.82-10.195-34.447c-2.065-4.767-4.504-9.397-5.985-14.377c-4.77-16.03,1.56-34.345,14.195-45.302
			c12.636-10.958,28.152-12.682,44.559-9.431c2.649,0.526,5.756,1.629,8.319,2.483c3.5,1.166,5.86,2.455,9.625,4.416
			c4.6,2.397,7.353,5.067,11.358,8.364c3.667,3.018,9.954,6.491,12.25,10.729C545.341,294.485,528.028,294.505,523.352,297.398"/>
	</g>
	<g>
		<defs>
			<path id="SVGID_23_" d="M470.613,350.433c-0.078-0.64-0.38-1.507-0.717-2.275C470.516,353.153,471.835,360.586,470.613,350.433
				 M468.862,346.847c0.133,0.542,0.138,0.215,0.082-0.406c-0.04-0.041-0.073-0.063-0.098-0.063
				C468.785,346.378,468.781,346.518,468.862,346.847 M454.52,269.228c-12.636,10.957-18.966,29.272-14.196,45.303
				c1.481,4.979,3.919,9.609,5.985,14.377c5.037,11.626,7.405,22.086,10.195,34.446c4.751-5.232,8.825-9.496,11.01-16.216
				c0.443-1.361,0.928-1.886,0.946-3.317c0.01-0.847,0.213,0.329,0.362,1.506c0.05,0.397,0.094,0.794,0.122,1.114
				c0.206,0.208,0.598,0.907,0.952,1.717c-0.177-1.433-0.297-2.666-0.283-3.225c0.061-2.498,0.198-0.322,1.081,1.855
				c0.679,1.675,1.8,3.349,3.669,2.894c4.02-0.977,7.289-3.751,10-0.624c1.964,2.266,3.424-2.744,4.885-7.753
				c1.461-5.008,2.921-10.018,4.886-7.753c4.11-0.811,6.565-4.914,8.633-8.558c3.918-6.903,8.274-13.558,13.031-19.912
				c2.165-2.894,4.48-5.784,7.554-7.684c4.676-2.894,21.989-2.914,17.279-11.609c-2.296-4.238-8.583-7.711-12.251-10.729
				c-4.004-3.297-6.758-5.966-11.358-8.363c-3.765-1.962-6.124-3.25-9.625-4.416c-2.562-0.855-5.67-1.958-8.319-2.484
				c-4.769-0.944-9.46-1.469-14.029-1.469C473.898,258.329,463.483,261.455,454.52,269.228"/>
		</defs>
		<clipPath id="SVGID_24_">
			<use xlink:href="#SVGID_23_"  overflow="visible"/>
		</clipPath>
		<path clip-path="url(#SVGID_24_)" fill="#519D9D" d="M565.701,223.759c-13.93,5.273-28.59,11.073-37.686,22.869
			c-5.102,6.615-8.275,14.928-14.948,19.956c-7.199,5.425-16.838,5.839-25.811,6.687c-8.974,0.847-18.822,2.879-24.189,10.12
			c-4.737,6.389-4.929,15.599-10.589,21.185c-4.798,4.737-12.128,5.502-18.852,6.005c-14.042,1.049-28.083,2.097-42.125,3.146
			c-5.034,0.376-10.172,0.744-15.066-0.491c-4.894-1.235-9.592-4.373-11.363-9.101c-2.608-6.962,1.705-14.437,5.838-20.618
			c13.672-20.446,27.794-41.362,47.854-55.594c13.758-9.762,29.688-15.915,45.433-21.972c11.707-4.503,23.414-9.006,35.122-13.509
			c4.664-1.794,9.398-3.605,14.37-4.108c8.611-0.87,17.241,2.307,24.426,7.132c7.186,4.825,13.147,11.226,19.038,17.566"/>
	</g>
	<path fill="#3E787A" d="M537.446,432.615c1.077-2.991,2.505-5.95,2.591-9.128c0.12-4.417-2.358-8.46-3.233-12.792
		c-0.801-3.962-0.314-8.346-2.46-11.773c-1.114-1.779-2.829-3.09-4.565-4.27c-4.284-2.913-8.937-5.284-13.812-7.037
		c-1.375,6.011-1.054,12.324,0.258,18.35c1.312,6.026,3.592,11.798,6.125,17.422c2.033,4.512,4.237,8.948,6.604,13.295
		c0.901,1.655,5.598,8.631,5.598,8.631s0.507-3.011,0.835-4.546C535.978,437.999,536.483,435.291,537.446,432.615"/>
	<path fill="#FFFFFF" d="M542.662,339.133c-0.74,0.81-1.77,1.34-2.54,2.12c-0.16,0.15-0.31,0.32-0.45,0.51
		c-0.46,0.62-1.08,1.74-1.72,3.02c-1.26,2.5-2.64,5.65-3.17,7.07c-3.84,10.16-1.11,14.08-9.5,16.64c-2.57,0.79-4.48,1.39-6.85,2.52
		c-0.92,0.42-1.76,0.97-2.48,1.72c-1.84,1.91-2.42,4.68-2.93,7.28c-0.17,0.9-0.33,1.89,0.16,2.66c0.39,0.61,1.08,0.93,1.7,1.29
		c2.21,1.28,3.65,3.26,4.66,5.56c1.51,3.44,2.06,7.62,2.81,11.36c3.02,15.15,12.84,28.99,12.2,44.43
		c-4.97,0.09-8.44-4.69-12.76-7.16c-2.51-1.42-5.37-2.07-8.04-3.15c-4.21-1.7-7.9-4.43-11.54-7.13
		c-11.67-8.65-23.35-17.3-35.02-25.96c-6.19-4.59-2.6-2.71-7.08-8.98l-9.9-6.58c14.4,3.08,12.658-5.108,16.484-16.42
		c1.125-3.328,2.335-6.361,4.211-10.169c0.425-0.862,1.187-2.253,1.677-3.081c3.02-5.108,2.724-6.071,4.967-11.651
		c1.285-3.197,2.823-6.749,2.741-10.269c-0.14-6-1.97-12.07-0.53-17.89c1.06-4.23,4.96-8.4,9.18-7.31c2.73,0.71,4.49,3.34,5.7,5.89
		c1.269,2.673,2.317,5.621,4.725,7.404c1.328,0.983,3.062,1.335,4.665,0.934c2.498-0.626,2.787-2.335,3.12-3.958
		c2.12-10.11,8.67-19.09,17.34-24.63c3.32-2.12,8.02-5.25,11.72-2.38c3.98,3.1,4.874,10.896,4.23,15.34
		c-1.246,8.603-2.33,10.27,1.16,18.97C543.183,331.075,545.533,335.993,542.662,339.133"/>
	<g>
		<path fill="#5DB4B3" d="M1232.541,705.879c0-13.292-2.97-27.098-3.795-40.364c-1.257-20.205,0.311-40.583,4.644-60.357
			c3.159-14.417,9.018-30.01,22.298-36.45c18.772-9.104,43.933,4.245,61.019-7.728c5.634-3.948,9.33-10.093,14.517-14.613
			c15.717-13.698,40.05-9.139,59.185-0.862c11.741,5.078,23.521,11.728,30.265,22.598c6.745,10.869,6.601,26.905-3.358,34.935
			c-4.504,3.631-10.283,5.187-15.865,6.706c-25.845,7.031-54.642,18.136-63.966,43.245c-3.597,9.688-3.814,20.616-8.965,29.575
			c-4.681,8.141-13.376,13.841-22.709,14.886c-16.147,1.807-32.01-9.476-47.931-6.229c-19.81,4.041-11.67,36.54-28.34,45.414
			C1229.541,736.634,1232.541,723.132,1232.541,705.879z"/>
		<path fill="#519D9D" d="M1280.77,690.596c4.238-3.081,8.585-6.278,11.329-10.741c5.694-9.263,3.095-21.282,5.774-31.82
			c3.067-12.064,12.679-21.12,20.74-30.605c8.062-9.485,15.239-21.76,12.022-33.785c-1.222-4.566-4.423-9.049-9.071-9.906
			c-2.859-0.527-5.769,0.387-8.511,1.353c-20.074,7.074-38.913,17.637-55.42,31.072c-14.616,11.896-28.38,29.061-25.101,47.619
			c2.052,11.612,10.449,21.104,14.022,32.341c2.828,8.895,2.144,18.115,2.415,27.24
			C1259.503,705.886,1270.236,698.254,1280.77,690.596z"/>
		<path fill="#66C3C3" d="M1260.695,687.675c0.167-4.717,0.344-9.494,1.689-14.018c2.656-8.931,9.516-15.886,16.133-22.446
			c1.92-1.904,3.879-3.836,6.275-5.091c3.229-1.691,6.969-2.012,10.566-2.604c7.754-1.275,15.276-3.955,22.09-7.869
			c9.976-5.731,20.232-14.464,31.413-11.753c5.675,1.376,10.195,5.535,14.442,9.543c6.154,5.806,12.307,11.613,18.461,17.419
			c3.537,3.337,7.095,6.692,11.132,9.403c4.964,3.334,10.705,5.746,14.615,10.269c6.228,7.204,6.231,17.757,5.431,27.247
			c-0.737,8.747-3.232,19.206-11.593,21.88c-1.268,0.406-2.691,0.58-3.903,0.029c-1.845-0.839-2.602-3.009-3.172-4.954
			c-1.062-3.625-2.123-7.249-3.185-10.874c-1.698-5.799-3.687-12.025-8.574-15.578c-4.823-3.508-11.357-3.531-17.22-2.437
			s-11.587,3.158-17.548,3.336c-15.442,0.462-29.829-11.707-45.016-8.875c-6.926,1.291-12.867,5.567-18.552,9.729
			c-6.172,4.518-15.977,15.029-23.518,15.817C1259.126,700.181,1261.523,693.609,1260.695,687.675z"/>
		<path fill="#5DB4B3" d="M1225.485,697.934c0-13.292,2.97-27.098,3.795-40.364c1.257-20.205-0.311-40.583-4.644-60.357
			c-3.159-14.417-9.018-30.01-22.298-36.45c-18.772-9.104-43.933,4.245-61.019-7.728c-5.634-3.948-9.33-10.092-14.517-14.613
			c-15.717-13.698-40.05-9.139-59.185-0.862c-11.741,5.078-23.521,11.728-30.265,22.598c-6.745,10.87-6.601,26.906,3.358,34.935
			c4.504,3.631,10.283,5.187,15.865,6.706c25.845,7.031,54.642,18.136,63.965,43.245c3.597,9.688,3.814,20.615,8.965,29.575
			c4.681,8.141,13.376,13.841,22.709,14.885c16.147,1.807,32.01-9.476,47.931-6.228c19.81,4.041,11.67,36.54,28.34,45.414
			C1228.486,728.689,1225.485,715.186,1225.485,697.934z"/>
		<path fill="#84DBDB" d="M1222.067,691.823c-3.147-2.287-6.375-4.661-8.412-7.975c-4.228-6.878-2.298-15.802-4.287-23.626
			c-2.277-8.958-9.414-15.682-15.4-22.724c-5.986-7.043-11.315-16.157-8.926-25.086c0.907-3.39,3.284-6.719,6.735-7.355
			c2.123-0.391,4.284,0.287,6.32,1.005c14.905,5.253,28.893,13.095,41.15,23.071c10.852,8.833,21.072,21.578,18.638,35.357
			c-1.523,8.622-7.759,15.67-10.412,24.014c-2.099,6.604-1.592,13.45-1.793,20.226
			C1237.858,703.177,1229.889,697.509,1222.067,691.823z"/>
		<g>
			<defs>
				<path id="XMLID_4_" d="M1188.762,706.333c-0.013,0.284,0.013,0.575,0.053,0.859l0.172,1.291l2.215,15.956l4.238,30.51
					c0.391,2.811,2.965,4.917,6.009,4.917h61.202c3.044,0,5.617-2.107,6.009-4.917l4.238-30.51l2.215-15.956l0.172-1.291
					c0.04-0.284,0.06-0.575,0.053-0.859c-0.245-7.351-6.785-13.294-14.737-13.294h-57.11
					C1195.54,693.039,1189.007,698.982,1188.762,706.333z"/>
			</defs>
			<use xlink:href="#XMLID_4_"  overflow="visible" fill="#6BF2CF"/>
			<clipPath id="XMLID_6_">
				<use xlink:href="#XMLID_4_"  overflow="visible"/>
			</clipPath>
			<path clip-path="url(#XMLID_6_)" fill="#5DB4B3" d="M1184.578,693.255c-0.014,0.284,0.015,0.574,0.058,0.859l0.189,1.291
				l2.429,15.956h89.591l2.429-15.956l0.189-1.291c0.044-0.284,0.066-0.575,0.058-0.859c-0.269-7.351-7.441-13.294-16.161-13.294
				h-62.629C1192.011,679.961,1184.847,685.904,1184.578,693.255z"/>
		</g>
		<path fill="#FFFFFF" d="M1190.669,711.854h82.748c5.701,0,10.365-4.664,10.365-10.365l0,0c0-5.701-4.664-10.365-10.365-10.365
			h-82.748c-5.701,0-10.365,4.664-10.365,10.365l0,0C1180.304,707.189,1184.968,711.854,1190.669,711.854z"/>
	</g>
	<path fill="#FFFFFF" d="M1075.796,394.16l-11.409,7.59c-5.171,7.23-1.03,5.06-8.171,10.35c-13.449,9.99-26.92,19.96-40.369,29.93
		c-4.2,3.12-8.45,6.26-13.311,8.22c-3.07,1.25,35.488,3.27,32.589,4.91c-4.98,2.84-8.98,8.35-14.71,8.25
		c-0.74-17.8,10.59-33.76,14.069-51.23c0.86-4.31-27.078,10.329-25.338,6.369c0.36-0.82,0.771-1.61,1.25-2.35
		c1.03-1.65-2.21-3.44-0.45-4.45c0.71-0.42-5.325-16.508-4.875-17.208c0.57-0.89-1.495-6.651-1.695-7.691
		c-0.58-3-1.25-6.19-3.37-8.39c-0.829-0.87-1.8-1.5-2.859-1.98c-1.49-0.71-2.82-1.24-4.21-1.72c-1.15-0.41-2.34-0.78-3.69-1.19
		c-9.67-2.95-6.53-7.47-10.95-19.18c-0.609-1.64-2.21-5.27-3.659-8.16c-0.74-1.47-1.45-2.76-1.98-3.48
		c-0.16-0.22-0.34-0.41-0.52-0.59c-0.891-0.89-2.07-1.51-2.931-2.44c-3.31-3.62-0.6-9.29,1.221-13.84
		c4.029-10.03,2.779-11.95,1.34-21.87c-0.74-5.12,0.29-14.11,4.88-17.68c4.26-3.31,9.68,0.3,13.51,2.74
		c10,6.39,8.67-18.73,11.12-7.07c0.38,1.87,11.43,2.27,14.31,3c1.851,0.46,7.58,20.88,9.11,19.75c2.78-2.06-1.59,10.75-0.12,7.67
		c1.39-2.94,3.42-5.97,6.57-6.79c4.859-1.26,13.17,3.87,14.39,8.74c1.66,6.71-0.45,13.71-0.609,20.63
		c-0.101,4.06-2.131,7.83-0.65,11.52c2.59,6.43,2.25,7.54,5.729,13.43c0.56,0.96,1.44,2.56,1.931,3.56
		c2.16,4.39,3.56,7.88,4.859,11.72C1061.206,388.27,1059.196,397.71,1075.796,394.16z"/>
	<path fill="#FFFFFF" d="M1002.754,476.603c0.15,0.19,0.21,0.3,0.2,0.35C1002.814,477.433,1002.754,477.253,1002.754,476.603"/>
	<path fill="#FFFFFF" d="M1039.826,386.022c1.782,5.529,4.922,17.918,9.157,30.738l-1.393-2.015
		c-5.679,7.714-1.187,5.444-8.959,11.038"/>
	<path fill="#E8FCFB" d="M1032.766,363.52c-6.15,5.2-8.761,7.22-11,9.38c-3.11,3-6.82,5.45-8.681,9.35
		c-1.58,3.3-1.069,12.68-1.069,12.68s-0.053,6.586-0.403,6.486c-3.59-1.09,3.943,14.283-1.217,14.783
		c0.132-0.212,2.984,7.849-4.84-14.173c-0.276-0.777,0.67,8.687-0.11,3.265c-0.151-1.046-1.375-15.292-2.07-18.441
		c-0.658-2.984-1.25-6.19-3.37-8.39c-0.829-0.87-1.8-1.5-2.859-1.98c-1.49-0.71-2.82-1.24-4.21-1.72c4.46,0.56,9.55,5.33,13.52,1.56
		c0.69-0.65,1.15-1.53,1.82-2.21c1.02-1.04,2.46-1.56,3.76-2.26c3.32-1.8,5.72-4.88,8.54-7.39c3.41-3.05,6.731-3.79,11.12-5.05
		c1.45-0.41,3.78-1.44,4.34-0.04C1036.597,360.76,1033.906,362.55,1032.766,363.52z"/>
	<path fill="none" d="M1009.64,459.226c5.268-2.043,9.906-5.367,14.488-8.662c14.665-10.55,29.353-21.093,44.025-31.65
		c7.771-5.594,3.281-3.324,8.959-11.038l1.393,2.015c-4.235-12.819-7.376-25.207-9.156-30.737
		c-1.344-4.159-2.793-7.956-5.056-12.721c-0.517-1.081-1.442-2.828-2.029-3.868c-3.663-6.406-3.282-7.594-5.969-14.58
		c-1.541-4.003-3.393-8.444-3.224-12.813c0.282-7.467,2.672-14.976,0.989-22.246c-1.245-5.275-6.025-10.536-11.292-9.255
		c-3.408,0.834-5.643,4.073-7.191,7.219l-17.826-41.557c-4.095-2.693-28.815,9.157-33.468,12.664"/>
	<path fill="#FFFFFF" d="M1068.124,419.592c-6.2,9.27-27.61,0.97-46.401-8.48L1068.124,419.592z"/>
	<path fill="#3E787A" d="M453.874,380.213c2.086-2.64,4.781-5.396,8.144-5.294c3.203,0.096,5.665,2.746,7.731,5.195
		c8.847,10.485,17.694,20.971,26.541,31.455c10.824,12.829,20.929,22.078,38.263,33.744c-25.607,12.37-70.69-36.505-87.192-47.112
		c-1.875-1.206,4.89,0.178,4.502-2.018c-0.491-2.777-11.371-4.251-6.113-7.665C448.231,386.907,452.094,382.465,453.874,380.213"/>
	<path fill="#D5FDFD" d="M519.27,389.725c-7.86,5.56-19.559-8.833-27.339-9.668c-0.365-0.04-0.483-0.511-0.179-0.716
		c2.878-1.945,4.088-6.142,3.921-9.799c-0.19-4.319-2.644-8.023-4.34-12c-1.22-2.859-2.845-5.734-6.47-12.926
		c-0.673-1.335-3.067-5.873-2.007-6.933c1.06-1.07,3.418,2.629,4.588,3.569c3.55,2.87,6.319,4.85,8.269,8.98
		c1.62,3.421,2.63,7.191,4.99,10.14c0.92,1.15,2.04,2.19,2.58,3.551c0.35,0.889,0.43,1.869,0.81,2.74
		c2.275,5.227,9.253,2.411,13.553,3.991c0.321,0.118,0.357,0.56,0.06,0.729c-0.638,0.361-1.228,0.802-1.753,1.349
		c-1.84,1.91-2.42,4.68-2.93,7.281c-0.17,0.899-0.33,1.89,0.16,2.66c0.39,0.61,1.08,0.929,1.7,1.289
		c2.111,1.223,3.519,3.084,4.521,5.253C519.486,389.392,519.429,389.612,519.27,389.725"/>
	<path fill="#D5FDFD" d="M490.768,315.479c-1.25-1.522-3.568-2.196-5.305-1.267c-1.143,0.611-1.894,1.795-2.253,3.041
		c-0.359,1.245-0.369,2.561-0.348,3.857c0.017,1.071,0.057,2.154,0.349,3.184c0.216,0.764,0.567,1.483,0.799,2.243
		c0.267,0.877,0.371,1.794,0.589,2.684c0.231,0.944,0.588,1.85,0.944,2.754c0.287,0.725,0.573,1.451,0.859,2.177
		c0.916-0.675,1.299-1.844,1.595-2.943c0.402-1.487,0.743-2.99,1.023-4.505c0.196-1.059,0.366-2.136,0.798-3.122
		c0.582-1.327,1.964-1.868,2.151-3.316C492.185,318.597,491.855,316.804,490.768,315.479"/>
	<path fill="#5DB4B3" d="M922.183,632.736c-9.356-0.952-18.867,0.562-26.071,6.608c-6.574,5.517-8.521,14.503-8.711,20.281
		c-0.766,23.341,1.356,42.966-3.364,65.839c30.148,6.029,62.023,11.96,91.058,1.854c11.708-4.076,22.533-10.659,34.589-13.554
		c11.375-2.73,23.758-2.167,34.076-7.681c8.626-4.609,14.889-13.402,16.426-23.061c1.614-10.142-0.988-21.749-11.108-25.186
		c-12.254-4.164-25.896-6.771-38.53-9.863C981.491,640.863,951.943,635.765,922.183,632.736"/>
	<g>
		<defs>
			<path id="XMLID_2_" d="M1073.412,449.544c-0.67,5.35,12.238,33.082,9.958,37.972c-25.34,54.25-74.458,81.728-115.389,125.408
				c-4.64,4.95-8.83,12.83-15.58,16.691c-1.97,1.119-4.1,1.88-6.34,2.399c-4.8,1.93-6.76,4.25-9.35,6.69
				c-3.08,2.89-7.07,5.05-11.3,5.068c-1.05,0-2.141-0.139-3-0.729c-0.86-0.6-1.41-1.75-1.03-2.73c0.36-0.93,1.36-1.399,2.24-1.88
				c1.93-1.069,3.519-2.649,4.67-4.52c-1.851,0.22-3.65,0.51-5.391,0.95c-12.35,3.13-22.19,8.71-26.859,20.54
				c-0.4,1.039-1.76,1.31-2.52,0.489c-5.34-5.739-5.671-15.371-2.05-22.54c3.99-7.88,11.62-13.27,19.42-17.43
				s16.13-7.47,23.181-12.82c8.309-6.3,14.359-15.06,20.139-23.74c19.67-29.54,37.97-60.01,54.79-91.27
				c-0.26,0.85-0.5,1.7-0.73,2.56l8.5-17.23c-2.55,4.91-5.14,9.8-7.77,14.67c4.87-16.55,13.45-32,24.93-44.88
				c4.55-5.11,9.76-9.95,16.209-12.25c6.451-2.29,14.401-1.5,19.102,3.48C1072.952,438.354,1074.071,444.184,1073.412,449.544"/>
		</defs>
		<use xlink:href="#XMLID_2_"  overflow="visible" fill="#FFFFFF"/>
		<clipPath id="XMLID_7_">
			<use xlink:href="#XMLID_2_"  overflow="visible"/>
		</clipPath>
		<path clip-path="url(#XMLID_7_)" fill="#D5FDFD" d="M1100.696,498.5c-54.161,34.558-106.071,71.821-147.662,121.382
			c-2.421,2.887-30.179,35.091-24.679,39.092c6.794,4.942,44.366-39.802,47.794-43.526c43.931-47.725,85.306-97.82,127.047-147.447"
			/>
	</g>
	<path fill="#FFFFFF" d="M1016.771,473.424l-8.5,17.23c0.229-0.86,0.471-1.71,0.729-2.56
		C1011.632,483.224,1014.221,478.334,1016.771,473.424"/>
	<path fill="#4C9292" d="M1126.905,415.392c29.802,31.628,38.709,77.62,39.707,121.064c1.244,54.188-7.883,108.585-26.646,159.429
		c-4.399,11.923-18.381,17.14-29.539,11.06c-36.779-20.04-73.558-40.082-110.337-60.121c-10.348-5.639-13.995-18.737-7.994-28.881
		c4.159-7.028,7.244-14.768,9.421-22.646c4.14-14.989,5.25-30.623,6.341-46.135c3.058-43.519,6.084-87.584,0.009-130.649
		c-1.134-8.036,2.392-16.013,9.171-20.472c7.781-5.115,16.661-12.305,17.57-13.508c6.388-8.45,8.272-15.38,19.992-11.842
		C1080.766,380.587,1108.094,395.426,1126.905,415.392"/>
	<path fill="#3E787A" d="M1218.061,492.387c-5.697-4.012-11.471-8.066-17.982-10.553c-6.51-2.487-13.94-3.28-20.41-0.689
		c-9.666,3.873-14.425,15.75-21.209,23.65c-5.073,5.908-38.924,53.659-37.148,58.548c1.958,5.39,44.252-35.844,49.938-35.114
		c15.578,1.998,31.978-6.324,39.56-20.077"/>
	<path fill="#5DB4B3" d="M921.131,877.198c11.325,3.405,23.403,4.275,35.102,2.555c1.787-0.263,3.045-1.889,2.848-3.685
		c-5.066-45.99-7.347-92.288-6.82-138.555l-35.109,2.351"/>
	<path fill="#84DBDB" d="M866.62,888.702c-3.283-0.371-6.569-1.095-9.859-0.789c-3.29,0.307-6.711,1.896-8.101,4.894
		c-1.428,3.081-0.298,6.887,1.965,9.418c2.263,2.533,5.455,4.022,8.634,5.217c21.391,8.035,45.11,5.483,67.804,2.818
		c9.728-1.142,19.458-2.285,29.188-3.427c4.643-0.546,9.721-1.306,12.84-4.789c4.336-4.843,2.825-12.353,1.056-18.609
		c-1.203-4.252-2.462-8.617-5.152-12.125c-2.691-3.505-7.187-5.998-11.498-5.033c-4.375,0.979-7.258,5.019-10.854,7.694
		c-5.036,3.745-11.96,4.8-17.882,2.723c-5.668-1.987-8.959-6.288-11.818-11.265c-3.185,1.83-5.537,7.024-8.347,9.782
		c-3.301,3.241-7.085,5.989-11.17,8.158C885.264,887.702,875.831,889.742,866.62,888.702"/>
	<g>
		<defs>
			<path id="SVGID_25_" d="M904.595,875.212c-3.303,3.241-7.085,5.989-11.171,8.158c-8.16,4.332-17.594,6.372-26.805,5.332
				c-3.283-0.371-6.569-1.095-9.859-0.789c-3.291,0.307-6.712,1.896-8.101,4.896c-1.429,3.08-0.298,6.886,1.965,9.417
				c2.263,2.533,5.455,4.022,8.634,5.217c21.391,8.035,45.11,5.483,67.804,2.818c9.728-1.142,19.458-2.284,29.188-3.428
				c4.643-0.545,9.721-1.304,12.839-4.788c4.338-4.843,2.825-12.353,1.057-18.609c-1.203-4.251-2.461-8.617-5.152-12.125
				c-2.691-3.505-7.186-5.998-11.498-5.033c-4.375,0.979-7.258,5.019-10.854,7.694c-5.036,3.745-11.96,4.801-17.883,2.723
				c-5.666-1.987-8.959-6.288-11.817-11.265C909.755,867.26,907.404,872.454,904.595,875.212"/>
		</defs>
		<clipPath id="SVGID_26_">
			<use xlink:href="#SVGID_25_"  overflow="visible"/>
		</clipPath>
		<path clip-path="url(#SVGID_26_)" fill="#5DB4B3" d="M828.025,886.902c14.14,8.602,30.451,13.136,46.86,15.293
			c16.409,2.157,33.022,2.03,49.573,1.9c13.631-0.107,27.561-0.266,40.403-4.836c4.761-1.693,9.388-3.996,14.406-4.592
			c5.018-0.597,10.739,0.986,13.265,5.363c3.22,5.581-0.404,13.097-5.965,16.348c-5.564,3.252-12.343,3.387-18.785,3.435
			c-24.949,0.184-49.898,0.367-74.848,0.55c-10.504,0.077-21.141,0.14-31.328-2.419c-7.467-1.876-14.579-5.153-20.855-9.611
			c-4.419-3.139-8.483-6.932-11.165-11.641c-2.681-4.71-3.871-10.427-2.444-15.655"/>
		<path clip-path="url(#SVGID_26_)" fill="#5DB4B3" d="M902.373,883.736c0.84,0.435,1.046,1.551,0.388,2.229
			c-6.568,6.776-16.643,10.032-25.925,8.24c-7.635-1.474-14.29-5.969-20.706-10.363c0.913,0.625,5.513-0.75,6.68-0.944
			c2.412-0.403,4.811-0.872,7.197-1.407c4.676-1.047,9.296-2.344,13.833-3.884c4.122-1.398,7.021-3.888,10.341-0.408
			C896.682,879.819,899.211,882.096,902.373,883.736"/>
		<path clip-path="url(#SVGID_26_)" fill="#5DB4B3" d="M949.298,857.152c0.06,3.515,0.137,7.112,1.389,10.396
			c2.4,6.3,8.562,10.222,14.338,13.697c6.074,3.654,12.452,7.408,19.525,7.87c1.73,0.112,3.618-0.031,4.931-1.164
			c2.011-1.734,1.777-4.891,1.11-7.461c-2.133-8.216-7.05-15.719-13.865-20.779c-6.815-5.061-15.5-7.606-23.951-6.808
			c-1.621,0.152-3.396,0.519-4.375,1.819c-1.277,1.696-0.614,4.097,0.1,6.096c1.234,3.454,2.929,7.361,6.456,8.368"/>
	</g>
	<g>
		<path fill="#519D9D" d="M1124.071,728.773c-0.159,0.28-0.329,0.56-0.519,0.83c-4.22,6.721-11.35,11.311-18.91,13.83
			c-7.881,2.62-16.26,3.21-24.549,3.511c-41.931,1.519-84.101-4-124.221-16.261c-7.9-2.42,17.39,6.181,11.529,12.011
			c-6.239,6.21-31.02,9.029-28.1,17.34c12.4,35.319,8.7,70.399,3.07,107.41c-0.84,5.5-2.04,11.279-5.46,15.569
			c-0.36,0.471-0.761,0.909-1.181,1.34c-10.109,10.2-38.96,7.851-42.489-7.54c-5.28-23.079-6.851-47.69-10.2-71.141
			c-4.16-29.059-8.31-58.129-12.46-87.199c-1.47-10.31-2.56-22.051,4.24-29.939c4.04-4.7,10.139-7.021,16.01-9.011
			c58.25-19.649,121.78-23.409,181.95-10.771c15.109,3.181,30.63,7.701,41.97,18.181
			C1126.082,697.414,1131.811,715.414,1124.071,728.773"/>
	</g>
	<g>
		<defs>
			<path id="SVGID_27_" d="M890.832,679.523c-5.87,1.989-11.97,4.31-16.01,9.011c-6.801,7.889-5.71,19.63-4.24,29.939
				c4.149,29.07,8.3,58.142,12.459,87.2c3.351,23.451,4.921,48.062,10.201,71.14c3.529,15.392,32.38,17.741,42.489,7.54
				c0.42-0.429,0.821-0.868,1.181-1.34c3.42-4.289,4.62-10.068,5.46-15.568c5.63-37.012,9.329-72.092-3.07-107.41
				c-2.92-8.311,21.859-11.13,28.1-17.34c5.86-5.83-19.43-14.431-11.529-12.011c40.12,12.261,82.29,17.78,124.221,16.261
				c8.289-0.302,16.67-0.891,24.549-3.512c7.561-2.519,14.69-7.108,18.91-13.829c0.19-0.27,0.36-0.55,0.519-0.83
				c7.74-13.359,2.011-31.359-9.319-41.84c-11.34-10.479-26.86-15-41.97-18.18c-23.331-4.901-47.159-7.337-70.997-7.336
				C964.146,661.419,926.495,667.493,890.832,679.523"/>
		</defs>
		<clipPath id="SVGID_28_">
			<use xlink:href="#SVGID_27_"  overflow="visible"/>
		</clipPath>
		<path clip-path="url(#SVGID_28_)" fill="#66C3C3" d="M926.535,859.55c-0.056-7.993,2.012-15.828,3.181-23.736
			c1.17-7.909,1.366-16.34-2.171-23.509c-4.763-9.651-15.872-16.279-16.938-26.989c-0.727-7.307,3.63-14.117,8.388-19.708
			c7.319-8.602,17.259-16.432,28.543-15.957c11.589,0.487,21.309,10.01,25.278,20.91c3.97,10.899,3.249,22.913,1.691,34.407
			c-1.558,11.495-3.904,23.025-3.014,34.592c0.629,8.168,2.86,16.12,4.137,24.212c1.276,8.092,1.541,16.645-1.612,24.206
			c-2.391,5.735-7.938,12.183-14.416,13.323c-5.859,1.029-11.938-3.649-16.268-7.246
			C933.212,885.643,926.627,872.792,926.535,859.55"/>
	</g>
	<g>
		<path fill="#47FBD4" d="M1195.387,487.86c-14.171,12.259-28.343,24.519-42.515,36.778c-10.87,9.403-21.972,19.088-28.87,31.698
			c-12.481,22.813-9.225,51.31-19.57,75.167c-9.909,22.85-31.475,38.984-54.691,48c-23.218,9.014-48.293,11.829-73.017,14.836
			c-13.171,1.602-26.819,3.449-38.012,10.576c-11.191,7.128-19.169,21.124-15.103,33.755c4.777,14.839,22.475,20.572,37.857,23.105
			c42.469,6.988,86.259,5.861,128.312-3.304c19.725-4.299,39.973-10.888,53.962-25.443c11.687-12.158,17.719-28.538,23.21-44.481
			c14.818-43.023,27.951-86.626,39.362-130.674c4.761-18.378,10.994-33.54,14.4-52.089
			C1223.924,488.295,1209.041,476.048,1195.387,487.86"/>
		<path fill="#84DBDB" d="M985.215,938.846c0,11.182,32.905,20.249,73.497,20.249c40.591,0,73.496-9.066,73.496-20.249
			c0-11.185-32.905-20.249-73.496-20.249C1018.12,918.597,985.215,927.661,985.215,938.846"/>
		<path fill="#FFFFFF" d="M1022.734,938.846c0,5.474,16.107,9.912,35.977,9.912c19.869,0,35.977-4.438,35.977-9.912
			c0-5.476-16.107-9.912-35.977-9.912C1038.842,928.934,1022.734,933.37,1022.734,938.846"/>
		<path fill="#47FBD4" d="M1048.917,938.846c0,1.49,4.385,2.698,9.795,2.698c5.409,0,9.794-1.208,9.794-2.698
			c0-1.49-4.385-2.698-9.794-2.698C1053.302,936.148,1048.917,937.356,1048.917,938.846"/>
		<path fill="#D5FDFD" d="M1068.099,926.079c-0.504,3.063-1.057,6.221-2.75,8.822c-1.694,2.601-4.85,4.512-7.869,3.79
			c-4.439-1.062-5.873-6.554-6.482-11.078c-7.241-53.882-14.483-107.762-21.726-161.641c-0.61-4.533-1.118-9.529,1.435-13.324
			c3.377-5.018,10.392-5.628,16.439-5.738c9.761-0.18,19.522-0.358,29.282-0.538c2.408-0.044,4.998-0.036,6.972,1.347
			c5.393,3.778,0.119,33.708-0.247,40.452c-0.828,15.218-1.93,30.42-3.302,45.598
			C1077.057,864.668,1073.137,895.466,1068.099,926.079"/>
	</g>
	<g>
		<defs>
			<path id="SVGID_29_" d="M1076.428,746.372c-9.761,0.18-19.521,0.36-29.281,0.538c-6.048,0.111-13.063,0.721-16.441,5.739
				c-2.552,3.795-2.044,8.791-1.433,13.323c7.241,53.879,14.482,107.76,21.726,161.641c0.608,4.524,2.042,10.017,6.481,11.078
				c3.02,0.722,6.175-1.19,7.869-3.79c1.693-2.602,2.246-5.76,2.75-8.822c5.039-30.613,8.959-61.411,11.753-92.31
				c1.371-15.18,2.473-30.382,3.301-45.6c0.366-6.743,5.639-36.673,0.247-40.451c-1.684-1.181-3.818-1.358-5.905-1.358
				C1077.138,746.361,1076.78,746.365,1076.428,746.372"/>
		</defs>
		<clipPath id="SVGID_30_">
			<use xlink:href="#SVGID_29_"  overflow="visible"/>
		</clipPath>
		<path clip-path="url(#SVGID_30_)" fill="#66C3C3" d="M1108.325,767.826c-5.893-7.398-15.329-13.909-27.322-16.158
			c-12.839-2.407-27.889,0.074-38.825-5.062c-5.046-2.369-8.523-6.123-13.93-8.098c-5.143-1.879-11.546-1.865-16.977-0.401
			c-5.431,1.464-9.925,4.265-13.175,7.545c-6.32,6.381-8.037,14.738-4.527,22.039c3.51,7.3,12.173,13.386,22.841,16.047
			c11.004,2.745,23.134,1.9,34.864,2.031c11.73,0.133,24.548,1.676,32.141,7.708c4.475,3.558,6.494,8.195,9.851,12.272
			c3.36,4.078,9.114,7.925,16.02,7.699C1136.947,812.544,1114.641,775.757,1108.325,767.826"/>
	</g>
	<g>
		<path fill="#3E787A" d="M930.69,741.333c4.78,14.84,22.479,20.58,37.86,23.109c23,3.78,46.38,5.19,69.66,4.221
			c19.72-0.811,39.369-3.33,58.65-7.53c19.73-4.29,39.97-10.88,53.96-25.44c11.691-12.159,17.72-28.54,23.21-44.479
			c14.82-43.021,27.95-86.63,39.37-130.67c1.851-7.12,4.03-14.37,6.21-21.65c3.45-11.5,6.891-23.1,8.98-34.46
			c3.209-17.49-12.471-25.72-26.12-13.91c-14.171,12.26-28.341,24.52-42.521,36.78c-10.87,9.4-21.97,19.09-28.87,31.7
			c-12.479,22.81-9.22,51.309-19.569,75.17c-9.9,22.85-31.471,38.979-54.691,48c-23.21,9.01-48.29,11.83-73.01,14.83
			c-13.17,1.6-26.82,3.45-38.01,10.58C934.6,714.713,926.63,728.703,930.69,741.333"/>
		<path fill="#386362" d="M1038.211,768.663c19.72-0.812,39.369-3.33,58.65-7.53c19.73-4.29,39.97-10.88,53.959-25.439
			c11.692-12.16,17.721-28.54,23.211-44.48c14.82-43.019,27.95-86.63,39.369-130.67c1.852-7.12,4.031-14.37,6.211-21.65
			c-7.53,3.18-14.479,8.25-18.711,12.82c-11.549,12.47-17.029,29.31-20.919,45.86c-3.88,16.54-6.581,33.59-13.87,48.94
			c-7.75,16.31-20.64,30.141-36.37,39.021c-25.149,14.18-56.22,15.55-80.569,31.06c-10.591,6.75-20.101,17.28-20.481,29.83
			C1028.431,755.023,1032.31,762.443,1038.211,768.663"/>
		<path fill="#84DBDB" d="M846.62,898.702c-3.283-0.371-6.569-1.095-9.859-0.789c-3.29,0.307-6.711,1.896-8.101,4.894
			c-1.428,3.081-0.298,6.887,1.965,9.418c2.263,2.533,5.455,4.022,8.634,5.217c21.391,8.035,45.11,5.483,67.804,2.818
			c9.728-1.142,19.458-2.285,29.188-3.427c4.643-0.546,9.721-1.306,12.84-4.789c4.336-4.843,2.825-12.353,1.056-18.609
			c-1.203-4.252-2.462-8.617-5.152-12.125c-2.691-3.505-7.187-5.998-11.498-5.033c-4.375,0.979-7.258,5.019-10.854,7.694
			c-5.036,3.745-11.96,4.8-17.882,2.723c-5.668-1.987-8.959-6.288-11.818-11.265c-3.185,1.83-5.537,7.024-8.347,9.782
			c-3.301,3.241-7.085,5.989-11.17,8.158C865.264,897.702,855.83,899.742,846.62,898.702"/>
	</g>
	<g>
		<defs>
			<path id="SVGID_31_" d="M884.595,885.212c-3.302,3.241-7.087,5.989-11.171,8.158c-8.159,4.332-17.595,6.372-26.805,5.332
				c-3.283-0.371-6.57-1.094-9.859-0.789c-3.291,0.307-6.712,1.897-8.101,4.896c-1.429,3.08-0.298,6.887,1.965,9.417
				c2.263,2.533,5.454,4.021,8.634,5.217c21.391,8.036,45.11,5.483,67.804,2.818c9.727-1.142,19.458-2.285,29.186-3.428
				c4.645-0.545,9.722-1.305,12.841-4.789c4.337-4.842,2.825-12.352,1.056-18.608c-1.203-4.251-2.462-8.616-5.152-12.125
				c-2.69-3.505-7.186-5.998-11.499-5.032c-4.375,0.978-7.257,5.018-10.854,7.693c-5.036,3.745-11.96,4.8-17.883,2.723
				c-5.668-1.987-8.957-6.288-11.817-11.265C889.755,877.26,887.404,882.454,884.595,885.212"/>
		</defs>
		<clipPath id="SVGID_32_">
			<use xlink:href="#SVGID_31_"  overflow="visible"/>
		</clipPath>
		<path clip-path="url(#SVGID_32_)" fill="#5DB4B3" d="M808.025,896.902c14.14,8.602,30.451,13.136,46.86,15.293
			c16.409,2.157,33.022,2.03,49.573,1.899c13.631-0.106,27.561-0.265,40.403-4.835c4.761-1.693,9.388-3.996,14.406-4.592
			c5.018-0.597,10.739,0.986,13.265,5.363c3.22,5.581-0.404,13.097-5.965,16.348c-5.564,3.252-12.343,3.387-18.785,3.435
			c-24.949,0.184-49.898,0.367-74.848,0.55c-10.504,0.077-21.141,0.14-31.328-2.419c-7.467-1.876-14.579-5.153-20.855-9.611
			c-4.419-3.139-8.483-6.932-11.165-11.641c-2.681-4.71-3.871-10.427-2.444-15.655"/>
		<path clip-path="url(#SVGID_32_)" fill="#5DB4B3" d="M897.873,887.679c0.84,0.436,1.046,1.552,0.388,2.23
			c-6.568,6.775-16.643,10.031-25.925,8.24c-7.635-1.474-14.29-5.97-20.706-10.364c0.913,0.625,5.513-0.75,6.68-0.944
			c2.411-0.403,4.811-0.872,7.197-1.406c4.676-1.048,9.296-2.345,13.833-3.885c4.122-1.398,7.021-3.887,10.341-0.407
			C892.182,883.763,894.711,886.039,897.873,887.679"/>
		<path clip-path="url(#SVGID_32_)" fill="#5DB4B3" d="M929.298,867.152c0.06,3.515,0.137,7.112,1.389,10.396
			c2.4,6.3,8.562,10.222,14.338,13.697c6.074,3.654,12.452,7.408,19.525,7.87c1.73,0.112,3.618-0.031,4.931-1.164
			c2.011-1.734,1.777-4.891,1.11-7.461c-2.133-8.216-7.05-15.719-13.865-20.779c-6.815-5.061-15.5-7.606-23.951-6.808
			c-1.621,0.152-3.396,0.519-4.375,1.819c-1.277,1.696-0.614,4.097,0.1,6.096c1.234,3.454,2.929,7.361,6.456,8.368"/>
	</g>
	<path fill="#519D9D" d="M1000.854,245.808c-3.386,0.585-6.716,1.484-9.893,2.792c-6.263,2.579-10.864,5.875-16.063,8.506
		c-8.449,4.276-15.673,12.167-15.377,22.205c0.158,5.349,2.81,10.423,7.453,13.087c9.777,5.61,20.566-2.645,31.207-2.165
		c8.005,0.36,15.134,5.821,19.299,12.665c3.84,6.306,5.517,13.661,6.473,21.004c0.153,1.185,1.558,1.75,2.463,0.972
		c0.948-0.817,1.631-2.07,1.993-3.296c1.003-3.399,0.64-7.33,5.805-8.981c1.85-0.592,3.75-1.323,5.505-0.493
		c4.592,2.173,4.455,5.753,3.598,11.599c-0.639,4.361-0.824,11.532-0.436,15.923c1.268,14.289,3.645,21.975,12.914,32.78
		c1.452-4.922,4.034-16.433,5.844-21.234c4.067-10.783,7.411-17.338,9.193-27.224c1.341-7.442,0.844-14.023-0.103-21.527
		c-1.311-10.411-9.665-29.054-15.454-35.867c-10.768-12.669-16.579-19.063-32.998-21.685
		C1014.915,243.696,1006.334,244.481,1000.854,245.808"/>
	<path fill="#E8FCFB" d="M1032.384,324.894c0.179-1.79-0.219-3.995,1.24-5.048c1.446-1.042,3.609,0.168,4.253,1.83
		c0.642,1.664,0.276,3.519,0.055,5.289c-0.519,4.126-0.192,8.359,0.953,12.358c0.3,1.049,0.385,2.105,0.384,3.21
		c-0.007,3.825-1.424,2.143-2.463,1.415c-0.631-0.443-0.901-1.214-1.095-1.96c-0.943-3.623-2.765-7.012-5.249-9.812
		c-1.58-1.781-1.667-1.491-0.207-3.091C1031.368,327.867,1032.216,326.589,1032.384,324.894"/>
	<g>
		<defs>
			<path id="XMLID_1_" d="M992.589,522.399c-6.467,6.226-13.048,12.535-20.986,16.728c-13.163,6.953-22.837,6.386-37.52,3.93
				c-17.888-2.992-89.872-16.13-108.229-21.914c-5.503-1.734-8.049-8.156-5.103-13.116c3.033-5.105,9.009-9.057,15.084-9.861
				c10.09-1.336,19.953,2.904,29.711,5.794c35.558,10.532,87.816,11.617,104.417-13.306c6.493-9.747,17.647-23.432,26.878-30.639
				c9.474-7.397,21.329-13.784,33.723-13.082c10.643,0.603,20.896,5.6,17.389,17.356c-3.219,10.79-15.663,19.889-23.381,27.319
				C1013.912,501.871,1003.251,512.135,992.589,522.399z"/>
		</defs>
		<use xlink:href="#XMLID_1_"  overflow="visible" fill="#FFFFFF"/>
		<clipPath id="XMLID_8_">
			<use xlink:href="#XMLID_1_"  overflow="visible"/>
		</clipPath>
		<path clip-path="url(#XMLID_8_)" fill="#D5FDFD" d="M929.559,534.17c10.556,1.264,21.611,2.68,31.538-1.125
			c5.268-2.019,9.881-5.398,14.529-8.597c10.297-7.086,21.086-13.458,32.262-19.054c3.536-1.771,7.205-3.491,11.141-3.87
			c3.937-0.379,8.246,0.827,10.637,3.977c2.289,3.016,2.412,7.153,1.854,10.898c-1.442,9.684-6.773,18.517-13.783,25.352
			s-15.634,11.814-24.572,15.812c-23.91,10.696-50.432,14.722-76.623,14.402c-26.191-0.32-52.161-4.864-77.696-10.701
			c-5.638-1.289-11.387-2.694-16.232-5.852c-14.086-9.179-8.539-26.744,7.361-26.969c21.145-0.298,42.386,0.661,63.468,2.226
			C905.507,531.565,917.549,532.732,929.559,534.17z"/>
	</g>
	<path fill="#519D9D" d="M974.933,465.994c20.603-20.641,41.855-45.979,67.76-60.208c15.307-8.408,35.043,3.121,33.781,20.586
		c-1.642,22.724-12.631,46.553-24.359,65.71c-6.906,11.281-32.011,27.561-48.399,22.57
		C986.032,509.265,958.671,480.17,974.933,465.994L974.933,465.994z"/>
	<path fill="#84DBDB" d="M622.846,265.948L622.846,265.948c-7.286,0-12.448-5.162-12.448-12.447l-0.8-51.242
		c0-7.286,5.961-13.247,13.247-13.247l0,0c7.286,0,13.247,5.961,13.247,13.247v50.443
		C636.093,259.987,630.132,265.948,622.846,265.948z"/>
	<path fill="#9DAAED" d="M631.585,207.644L631.585,207.644c-0.438-0.438-0.438-1.154,0-1.591l7.425-7.425
		c0.438-0.438,1.154-0.438,1.591,0l0,0c0.438,0.438,0.438,1.153,0,1.591l-7.425,7.425
		C632.739,208.081,632.023,208.081,631.585,207.644z"/>
	<path fill="#9DAAED" d="M634.335,230.622L634.335,230.622c-0.438-0.438-0.438-1.153,0-1.591l7.425-7.425
		c0.438-0.438,1.154-0.438,1.591,0l0,0c0.438,0.437,0.438,1.153,0,1.591l-7.425,7.425
		C635.489,231.06,634.773,231.06,634.335,230.622z"/>
	<path fill="#47FBD4" d="M624.348,195.227L624.348,195.227c-0.438,0.438-1.153,0.438-1.591,0l-7.425-7.425
		c-0.438-0.438-0.438-1.154,0-1.591l0,0c0.438-0.438,1.154-0.438,1.591,0l7.425,7.425
		C624.786,194.073,624.786,194.789,624.348,195.227z"/>
	<path fill="#47FBD4" d="M615.524,207.644L615.524,207.644c-0.438,0.438-1.154,0.438-1.591,0l-7.425-7.425
		c-0.438-0.438-0.438-1.153,0-1.591l0,0c0.438-0.438,1.153-0.438,1.591,0l7.425,7.425
		C615.962,206.49,615.962,207.206,615.524,207.644z"/>
	<path fill="#3E787A" d="M662.145,265.948L662.145,265.948c-7.286,0-13.247-5.961-13.247-13.247v-53.172
		c0-7.286,5.961-13.247,13.247-13.247h0c7.286,0,13.247,5.961,13.247,13.247l-1.185,52.789
		C674.207,259.603,669.43,265.948,662.145,265.948z"/>
	<path fill="#519D9D" d="M638.892,276.948L638.892,276.948c-7.286,0-13.247-5.961-13.247-13.247v-53.172
		c0-7.286,5.961-13.247,13.247-13.247l0,0c7.286,0,13.247,5.961,13.247,13.247v53.172
		C652.139,270.987,646.178,276.948,638.892,276.948z"/>
	<path fill="#6BF2CF" d="M675.387,254.257l-0.19,1.5l-5.81,44.92h-58.5l-5.81-44.92l-0.19-1.5c0-6.6,5.4-12,12-12h46.5
		C669.987,242.257,675.387,247.657,675.387,254.257z"/>
	<path fill="#39E5BC" d="M675.392,259.4l-0.19,1.5h-70.12l-0.19-1.5c0-6.6,5.4-12,12-12h46.5
		C669.992,247.4,675.392,252.8,675.392,259.4z"/>
	<path fill="#47FBD4" d="M670.884,207.644L670.884,207.644c-0.438-0.438-0.438-1.154,0-1.591l7.425-7.425
		c0.438-0.438,1.154-0.438,1.591,0l0,0c0.438,0.438,0.438,1.153,0,1.591l-7.425,7.425
		C672.037,208.081,671.321,208.081,670.884,207.644z"/>
	<path fill="#47FBD4" d="M648.817,211.076L648.817,211.076c-0.438-0.438-0.438-1.154,0-1.591l7.425-7.425
		c0.438-0.438,1.154-0.438,1.591,0l0,0c0.438,0.438,0.438,1.153,0,1.591l-7.425,7.425
		C649.97,211.514,649.254,211.514,648.817,211.076z"/>
	<path fill="#47FBD4" d="M637.134,204.977L637.134,204.977c-0.438-0.438-0.438-1.154,0-1.591l7.425-7.425
		c0.438-0.438,1.154-0.438,1.591,0l0,0c0.438,0.438,0.438,1.154,0,1.591l-7.425,7.425
		C638.287,205.414,637.571,205.414,637.134,204.977z"/>
	<path fill="#47FBD4" d="M606.509,229.97L606.509,229.97c-0.438-0.437-0.438-1.153,0-1.591l7.425-7.425
		c0.438-0.438,1.154-0.438,1.591,0l0,0c0.438,0.438,0.438,1.154,0,1.591l-7.425,7.425
		C607.662,230.408,606.946,230.408,606.509,229.97z"/>
	<path fill="#47FBD4" d="M634.384,221.31L634.384,221.31c-0.438-0.438-0.438-1.153,0-1.591l7.425-7.425
		c0.438-0.438,1.154-0.438,1.591,0l0,0c0.438,0.438,0.438,1.154,0,1.591l-7.425,7.425
		C635.537,221.748,634.821,221.748,634.384,221.31z"/>
	<path fill="#47FBD4" d="M673.634,230.622L673.634,230.622c-0.438-0.438-0.438-1.153,0-1.591l7.425-7.425
		c0.438-0.438,1.154-0.438,1.591,0l0,0c0.438,0.437,0.438,1.153,0,1.591l-7.425,7.425
		C674.787,231.06,674.071,231.06,673.634,230.622z"/>
	<path fill="#47FBD4" d="M663.647,195.227L663.647,195.227c-0.438,0.438-1.154,0.438-1.591,0l-7.425-7.425
		c-0.438-0.438-0.438-1.154,0-1.591l0,0c0.438-0.438,1.153-0.438,1.591,0l7.425,7.425
		C664.084,194.073,664.084,194.789,663.647,195.227z"/>
	<path fill="#47FBD4" d="M630.152,209.64L630.152,209.64c-0.438,0.438-1.153,0.438-1.591,0l-7.425-7.425
		c-0.438-0.438-0.438-1.153,0-1.591l0,0c0.438-0.438,1.154-0.438,1.591,0l7.425,7.425C630.59,208.486,630.59,209.202,630.152,209.64
		z"/>
	<path fill="#47FBD4" d="M668.483,221.727L668.483,221.727c-0.438,0.438-1.153,0.438-1.591,0l-7.425-7.425
		c-0.438-0.438-0.438-1.154,0-1.591l0,0c0.438-0.438,1.154-0.438,1.591,0l7.425,7.425
		C668.92,220.573,668.92,221.289,668.483,221.727z"/>
	<path fill="#47FBD4" d="M632.233,230.622L632.233,230.622c-0.438,0.438-1.153,0.438-1.591,0l-7.425-7.425
		c-0.438-0.438-0.438-1.154,0-1.591l0,0c0.438-0.438,1.154-0.438,1.591,0l7.425,7.425
		C632.67,229.469,632.67,230.185,632.233,230.622z"/>
	<path fill="#47FBD4" d="M654.635,229.97L654.635,229.97c-0.438,0.438-1.153,0.438-1.591,0l-7.425-7.425
		c-0.438-0.438-0.438-1.154,0-1.591l0,0c0.438-0.438,1.154-0.438,1.591,0l7.425,7.425
		C655.073,228.817,655.073,229.533,654.635,229.97z"/>
	<path fill="#8AFFE3" d="M611.017,301.013c3.014,4.981,6.084,10.03,10.617,14.161c4.533,4.131,10.795,7.3,17.562,7.411
		c6.761,0.111,13.167-2.846,17.896-6.819c4.729-3.973,8.044-8.911,11.299-13.783c-16.931-0.258-34.503-0.389-51.197-2.723"/>
	<path fill="#FFFFFF" d="M669.306,303.261h-58.329c-1.422,0-2.586-1.164-2.586-2.586l0,0c0-1.422,1.164-2.586,2.586-2.586h58.329
		c1.422,0,2.586,1.164,2.586,2.586l0,0C671.892,302.097,670.728,303.261,669.306,303.261z"/>
	<path fill="#FFFFFF" d="M676.67,252.419h-73.056c-3.078,0-5.597-2.519-5.597-5.597l0,0c0-3.078,2.519-5.597,5.597-5.597h73.056
		c3.078,0,5.597,2.519,5.597,5.597l0,0C682.267,249.901,679.748,252.419,676.67,252.419z"/>
	<g>
		<defs>
			<path id="XMLID_3_" d="M411.238,851.3c0.013,0.46-0.013,0.93-0.053,1.39l-0.172,2.09l-2.215,25.83L404.56,930
				c-0.391,4.55-2.965,7.96-6.009,7.96h-61.202c-3.044,0-5.617-3.41-6.009-7.96l-4.238-49.39l-2.215-25.83l-0.172-2.09
				c-0.04-0.46-0.06-0.93-0.053-1.39c0.245-11.9,6.785-21.52,14.737-21.52h57.11C404.46,829.78,410.993,839.4,411.238,851.3z"/>
		</defs>
		<use xlink:href="#XMLID_3_"  overflow="visible" fill="#6BF2CF"/>
		<clipPath id="XMLID_9_">
			<use xlink:href="#XMLID_3_"  overflow="visible"/>
		</clipPath>
		<path clip-path="url(#XMLID_9_)" fill="#5DB4B3" d="M415.422,830.13c0.015,0.46-0.014,0.93-0.058,1.39l-0.189,2.09l-2.429,25.83
			h-89.591l-2.429-25.83l-0.189-2.09c-0.044-0.46-0.066-0.93-0.058-1.39c0.269-11.9,7.44-21.52,16.161-21.52h62.629
			C407.988,808.61,415.152,818.23,415.422,830.13z"/>
	</g>
	<path fill="#FFFFFF" d="M409.331,848.595h-82.748c-5.701,0-10.365-4.664-10.365-10.365l0,0c0-5.701,4.664-10.365,10.365-10.365
		h82.748c5.701,0,10.365,4.664,10.365,10.365l0,0C419.696,843.931,415.032,848.595,409.331,848.595z"/>
	<path fill="#84DBDB" d="M791.675,334.3L791.675,334.3c-7.286,0-12.447-5.161-12.447-12.447l-0.8-51.242
		c0-7.286,5.961-13.247,13.247-13.247l0,0c7.286,0,13.247,5.961,13.247,13.247v50.443C804.922,328.339,798.961,334.3,791.675,334.3z
		"/>
	<path fill="#9DAAED" d="M800.414,275.996L800.414,275.996c-0.438-0.438-0.438-1.153,0-1.591l7.425-7.425
		c0.438-0.438,1.153-0.438,1.591,0l0,0c0.438,0.438,0.438,1.154,0,1.591l-7.425,7.425
		C801.568,276.433,800.852,276.433,800.414,275.996z"/>
	<path fill="#9DAAED" d="M803.164,298.975L803.164,298.975c-0.438-0.438-0.438-1.154,0-1.591l7.425-7.425
		c0.438-0.438,1.153-0.438,1.591,0l0,0c0.438,0.438,0.438,1.153,0,1.591l-7.425,7.425
		C804.318,299.412,803.602,299.412,803.164,298.975z"/>
	<path fill="#47FBD4" d="M793.177,263.579L793.177,263.579c-0.438,0.438-1.154,0.438-1.591,0l-7.425-7.425
		c-0.438-0.438-0.438-1.153,0-1.591l0,0c0.438-0.438,1.154-0.438,1.591,0l7.425,7.425
		C793.615,262.426,793.615,263.142,793.177,263.579z"/>
	<path fill="#47FBD4" d="M784.353,275.996L784.353,275.996c-0.437,0.438-1.153,0.438-1.591,0l-7.425-7.425
		c-0.438-0.438-0.438-1.154,0-1.591l0,0c0.438-0.438,1.154-0.438,1.591,0l7.425,7.425
		C784.791,274.843,784.791,275.558,784.353,275.996z"/>
	<path fill="#3E787A" d="M830.974,334.3L830.974,334.3c-7.286,0-13.247-5.961-13.247-13.247v-53.172
		c0-7.286,5.961-13.247,13.247-13.247l0,0c7.286,0,13.247,5.961,13.247,13.247l-1.185,52.789
		C843.036,327.955,838.259,334.3,830.974,334.3z"/>
	<path fill="#519D9D" d="M807.721,345.3L807.721,345.3c-7.286,0-13.247-5.961-13.247-13.247v-53.172
		c0-7.286,5.961-13.247,13.247-13.247l0,0c7.286,0,13.247,5.961,13.247,13.247v53.172C820.968,339.339,815.007,345.3,807.721,345.3z
		"/>
	<path fill="#6BF2CF" d="M844.216,322.609l-0.19,1.5l-5.81,44.92h-58.5l-5.81-44.92l-0.19-1.5c0-6.6,5.4-12,12-12h46.5
		C838.816,310.609,844.216,316.009,844.216,322.609z"/>
	<path fill="#39E5BC" d="M844.221,327.752l-0.19,1.5h-70.12l-0.19-1.5c0-6.6,5.4-12,12-12h46.5
		C838.821,315.752,844.221,321.152,844.221,327.752z"/>
	<path fill="#47FBD4" d="M839.713,275.996L839.713,275.996c-0.438-0.438-0.438-1.153,0-1.591l7.425-7.425
		c0.438-0.438,1.154-0.438,1.591,0l0,0c0.438,0.438,0.438,1.154,0,1.591l-7.425,7.425
		C840.866,276.433,840.15,276.433,839.713,275.996z"/>
	<path fill="#47FBD4" d="M817.646,279.429L817.646,279.429c-0.438-0.438-0.438-1.154,0-1.591l7.425-7.425
		c0.438-0.438,1.154-0.438,1.591,0l0,0c0.438,0.438,0.438,1.154,0,1.591l-7.425,7.425
		C818.799,279.866,818.083,279.866,817.646,279.429z"/>
	<path fill="#47FBD4" d="M805.963,273.329L805.963,273.329c-0.438-0.438-0.438-1.154,0-1.591l7.425-7.425
		c0.438-0.438,1.154-0.438,1.591,0l0,0c0.438,0.438,0.438,1.154,0,1.591l-7.425,7.425
		C807.116,273.767,806.4,273.767,805.963,273.329z"/>
	<path fill="#47FBD4" d="M775.338,298.322L775.338,298.322c-0.438-0.438-0.438-1.154,0-1.591l7.425-7.425
		c0.438-0.438,1.154-0.438,1.591,0l0,0c0.438,0.438,0.438,1.153,0,1.591l-7.425,7.425
		C776.491,298.76,775.775,298.76,775.338,298.322z"/>
	<path fill="#47FBD4" d="M803.213,289.663L803.213,289.663c-0.438-0.438-0.438-1.154,0-1.591l7.425-7.425
		c0.438-0.437,1.154-0.437,1.591,0l0,0c0.438,0.438,0.438,1.153,0,1.591l-7.425,7.425C804.366,290.1,803.65,290.1,803.213,289.663z"
		/>
	<path fill="#47FBD4" d="M842.463,298.975L842.463,298.975c-0.438-0.438-0.438-1.154,0-1.591l7.425-7.425
		c0.438-0.438,1.154-0.438,1.591,0l0,0c0.438,0.438,0.438,1.153,0,1.591l-7.425,7.425
		C843.616,299.412,842.9,299.412,842.463,298.975z"/>
	<path fill="#47FBD4" d="M832.476,263.579L832.476,263.579c-0.438,0.438-1.154,0.438-1.591,0l-7.425-7.425
		c-0.438-0.438-0.438-1.153,0-1.591l0,0c0.438-0.438,1.154-0.438,1.591,0l7.425,7.425
		C832.913,262.426,832.913,263.142,832.476,263.579z"/>
	<path fill="#47FBD4" d="M798.981,277.992L798.981,277.992c-0.438,0.438-1.154,0.438-1.591,0l-7.425-7.425
		c-0.438-0.438-0.438-1.154,0-1.591l0,0c0.438-0.438,1.153-0.438,1.591,0l7.425,7.425
		C799.419,276.839,799.419,277.555,798.981,277.992z"/>
	<path fill="#47FBD4" d="M837.312,290.079L837.312,290.079c-0.438,0.438-1.154,0.438-1.591,0l-7.425-7.425
		c-0.438-0.438-0.438-1.153,0-1.591l0,0c0.438-0.438,1.154-0.438,1.591,0l7.425,7.425
		C837.749,288.926,837.749,289.642,837.312,290.079z"/>
	<path fill="#47FBD4" d="M801.062,298.975L801.062,298.975c-0.438,0.437-1.154,0.437-1.591,0l-7.425-7.425
		c-0.438-0.438-0.438-1.154,0-1.591l0,0c0.438-0.438,1.154-0.438,1.591,0l7.425,7.425
		C801.499,297.821,801.499,298.537,801.062,298.975z"/>
	<path fill="#47FBD4" d="M823.464,298.322L823.464,298.322c-0.438,0.438-1.154,0.438-1.591,0l-7.425-7.425
		c-0.438-0.438-0.438-1.153,0-1.591l0,0c0.438-0.438,1.153-0.438,1.591,0l7.425,7.425
		C823.901,297.169,823.901,297.885,823.464,298.322z"/>
	<path fill="#8AFFE3" d="M779.846,369.365c3.014,4.981,6.084,10.03,10.617,14.161c4.533,4.131,10.795,7.3,17.562,7.411
		c6.761,0.111,13.167-2.846,17.896-6.819c4.729-3.973,8.044-8.911,11.299-13.783c-16.931-0.258-34.503-0.389-51.197-2.723"/>
	<path fill="#FFFFFF" d="M838.135,371.613h-58.329c-1.422,0-2.586-1.164-2.586-2.586l0,0c0-1.422,1.163-2.586,2.586-2.586h58.329
		c1.422,0,2.586,1.163,2.586,2.586l0,0C840.721,370.45,839.557,371.613,838.135,371.613z"/>
	<path fill="#FFFFFF" d="M845.499,320.772h-73.056c-3.078,0-5.597-2.519-5.597-5.597v0c0-3.078,2.519-5.597,5.597-5.597h73.056
		c3.078,0,5.597,2.519,5.597,5.597v0C851.096,318.253,848.577,320.772,845.499,320.772z"/>
	<path fill="#84DBDB" d="M1175.882,335.682L1175.882,335.682c-7.286,0-12.447-5.161-12.447-12.447l-0.8-51.242
		c0-7.286,5.961-13.247,13.247-13.247l0,0c7.286,0,13.247,5.961,13.247,13.247v50.443
		C1189.129,329.721,1183.168,335.682,1175.882,335.682z"/>
	<path fill="#9DAAED" d="M1184.621,277.378L1184.621,277.378c-0.438-0.438-0.438-1.153,0-1.591l7.425-7.425
		c0.438-0.438,1.154-0.438,1.591,0l0,0c0.438,0.438,0.438,1.154,0,1.591l-7.425,7.425
		C1185.775,277.815,1185.059,277.815,1184.621,277.378z"/>
	<path fill="#9DAAED" d="M1187.371,300.356L1187.371,300.356c-0.438-0.438-0.438-1.154,0-1.591l7.425-7.425
		c0.438-0.438,1.154-0.438,1.591,0l0,0c0.438,0.438,0.438,1.153,0,1.591l-7.425,7.425
		C1188.525,300.794,1187.809,300.794,1187.371,300.356z"/>
	<path fill="#47FBD4" d="M1177.384,264.961L1177.384,264.961c-0.438,0.438-1.153,0.438-1.591,0l-7.425-7.425
		c-0.438-0.438-0.438-1.153,0-1.591l0,0c0.438-0.438,1.153-0.438,1.591,0l7.425,7.425
		C1177.822,263.808,1177.822,264.524,1177.384,264.961z"/>
	<path fill="#47FBD4" d="M1168.56,277.378L1168.56,277.378c-0.438,0.438-1.153,0.438-1.591,0l-7.425-7.425
		c-0.438-0.438-0.438-1.154,0-1.591l0,0c0.438-0.438,1.154-0.438,1.591,0l7.425,7.425
		C1168.998,276.224,1168.998,276.94,1168.56,277.378z"/>
	<path fill="#3E787A" d="M1215.18,335.682L1215.18,335.682c-7.286,0-13.247-5.961-13.247-13.247v-53.172
		c0-7.286,5.961-13.247,13.247-13.247l0,0c7.286,0,13.247,5.961,13.247,13.247l-1.185,52.789
		C1227.243,329.337,1222.466,335.682,1215.18,335.682z"/>
	<path fill="#519D9D" d="M1191.927,346.682L1191.927,346.682c-7.286,0-13.247-5.961-13.247-13.247v-53.172
		c0-7.286,5.961-13.247,13.247-13.247l0,0c7.286,0,13.247,5.961,13.247,13.247v53.172
		C1205.175,340.721,1199.213,346.682,1191.927,346.682z"/>
	<path fill="#6BF2CF" d="M1228.423,323.991l-0.19,1.5l-5.81,44.92h-58.5l-5.81-44.92l-0.19-1.5c0-6.6,5.4-12,12-12h46.5
		C1223.023,311.991,1228.423,317.391,1228.423,323.991z"/>
	<path fill="#39E5BC" d="M1228.427,329.134l-0.19,1.5h-70.12l-0.19-1.5c0-6.6,5.4-12,12-12h46.5
		C1223.027,317.134,1228.427,322.534,1228.427,329.134z"/>
	<path fill="#47FBD4" d="M1223.92,277.378L1223.92,277.378c-0.438-0.438-0.438-1.153,0-1.591l7.425-7.425
		c0.438-0.438,1.153-0.438,1.591,0l0,0c0.438,0.438,0.438,1.154,0,1.591l-7.425,7.425
		C1225.073,277.815,1224.357,277.815,1223.92,277.378z"/>
	<path fill="#47FBD4" d="M1201.852,280.811L1201.852,280.811c-0.438-0.438-0.438-1.153,0-1.591l7.425-7.425
		c0.438-0.438,1.154-0.438,1.591,0l0,0c0.438,0.438,0.438,1.154,0,1.591l-7.425,7.425
		C1203.006,281.248,1202.29,281.248,1201.852,280.811z"/>
	<path fill="#47FBD4" d="M1190.17,274.711L1190.17,274.711c-0.438-0.438-0.438-1.154,0-1.591l7.425-7.425
		c0.438-0.438,1.153-0.438,1.591,0l0,0c0.438,0.438,0.438,1.153,0,1.591l-7.425,7.425
		C1191.323,275.149,1190.607,275.149,1190.17,274.711z"/>
	<path fill="#47FBD4" d="M1159.545,299.704L1159.545,299.704c-0.438-0.438-0.438-1.154,0-1.591l7.425-7.425
		c0.438-0.438,1.153-0.438,1.591,0l0,0c0.438,0.438,0.438,1.153,0,1.591l-7.425,7.425
		C1160.698,300.142,1159.982,300.142,1159.545,299.704z"/>
	<path fill="#47FBD4" d="M1187.42,291.045L1187.42,291.045c-0.438-0.438-0.438-1.154,0-1.591l7.425-7.425
		c0.438-0.438,1.153-0.438,1.591,0l0,0c0.438,0.438,0.438,1.153,0,1.591l-7.425,7.425
		C1188.573,291.482,1187.857,291.482,1187.42,291.045z"/>
	<path fill="#47FBD4" d="M1226.67,300.356L1226.67,300.356c-0.438-0.438-0.438-1.154,0-1.591l7.425-7.425
		c0.438-0.438,1.153-0.438,1.591,0l0,0c0.438,0.438,0.438,1.153,0,1.591l-7.425,7.425
		C1227.823,300.794,1227.107,300.794,1226.67,300.356z"/>
	<path fill="#47FBD4" d="M1216.683,264.961L1216.683,264.961c-0.438,0.438-1.154,0.438-1.591,0l-7.425-7.425
		c-0.438-0.438-0.438-1.153,0-1.591l0,0c0.438-0.438,1.154-0.438,1.591,0l7.425,7.425
		C1217.12,263.808,1217.12,264.524,1216.683,264.961z"/>
	<path fill="#47FBD4" d="M1183.188,279.374L1183.188,279.374c-0.438,0.438-1.154,0.438-1.591,0l-7.425-7.425
		c-0.438-0.438-0.438-1.154,0-1.591l0,0c0.438-0.438,1.153-0.438,1.591,0l7.425,7.425
		C1183.626,278.221,1183.626,278.937,1183.188,279.374z"/>
	<path fill="#47FBD4" d="M1221.519,291.461L1221.519,291.461c-0.438,0.438-1.153,0.438-1.591,0l-7.425-7.425
		c-0.438-0.438-0.438-1.153,0-1.591l0,0c0.438-0.438,1.153-0.438,1.591,0l7.425,7.425
		C1221.956,290.308,1221.956,291.024,1221.519,291.461z"/>
	<path fill="#47FBD4" d="M1185.269,300.356L1185.269,300.356c-0.438,0.438-1.153,0.438-1.591,0l-7.425-7.425
		c-0.438-0.438-0.438-1.154,0-1.591l0,0c0.438-0.438,1.153-0.438,1.591,0l7.425,7.425
		C1185.706,299.203,1185.706,299.919,1185.269,300.356z"/>
	<path fill="#47FBD4" d="M1207.671,299.704L1207.671,299.704c-0.438,0.438-1.153,0.438-1.591,0l-7.425-7.425
		c-0.438-0.438-0.438-1.153,0-1.591l0,0c0.438-0.438,1.153-0.438,1.591,0l7.425,7.425
		C1208.108,298.551,1208.108,299.267,1207.671,299.704z"/>
	<path fill="#8AFFE3" d="M1164.052,370.747c3.014,4.981,6.084,10.03,10.618,14.161c4.533,4.131,10.795,7.3,17.562,7.411
		c6.761,0.111,13.167-2.846,17.896-6.819c4.729-3.973,8.044-8.911,11.299-13.783c-16.931-0.258-34.503-0.389-51.197-2.723"/>
	<path fill="#FFFFFF" d="M1222.342,372.995h-58.329c-1.422,0-2.586-1.163-2.586-2.586l0,0c0-1.422,1.164-2.586,2.586-2.586h58.329
		c1.422,0,2.586,1.164,2.586,2.586l0,0C1224.927,371.832,1223.764,372.995,1222.342,372.995z"/>
	<path fill="#FFFFFF" d="M1229.705,322.153h-73.056c-3.078,0-5.597-2.519-5.597-5.597v0c0-3.078,2.519-5.597,5.597-5.597h73.056
		c3.078,0,5.597,2.519,5.597,5.597v0C1235.302,319.635,1232.784,322.153,1229.705,322.153z"/>
	<path fill="#8AFFE3" d="M926.713,263.713h-30.234c-4.054,0-7.371-3.317-7.371-7.371v-30.234c0-4.054,3.317-7.371,7.371-7.371
		h30.234c4.054,0,7.371,3.317,7.371,7.371v30.234C934.084,260.396,930.767,263.713,926.713,263.713z"/>
	<path fill="#8AFFE3" d="M743.146,448.947h-30.234c-4.054,0-7.371-3.317-7.371-7.371v-30.234c0-4.054,3.317-7.371,7.371-7.371
		h30.234c4.054,0,7.371,3.317,7.371,7.371v30.234C750.517,445.63,747.201,448.947,743.146,448.947z"/>
	<path fill="#FFFFFF" d="M923.086,417.251h-30.234c-4.054,0-7.371-3.317-7.371-7.371v-30.234c0-4.054,3.317-7.371,7.371-7.371
		h30.234c4.054,0,7.371,3.317,7.371,7.371v30.234C930.457,413.934,927.14,417.251,923.086,417.251z"/>
	<path fill="#FFFFFF" d="M1273.364,469.233h-30.234c-4.054,0-7.371-3.317-7.371-7.371v-30.234c0-4.054,3.317-7.371,7.371-7.371
		h30.234c4.054,0,7.371,3.317,7.371,7.371v30.234C1280.735,465.916,1277.418,469.233,1273.364,469.233z"/>
	<path fill="#FFFFFF" d="M774.733,213.207h-30.234c-4.054,0-7.371-3.317-7.371-7.371v-30.234c0-4.054,3.317-7.371,7.371-7.371
		h30.234c4.054,0,7.371,3.317,7.371,7.371v30.234C782.104,209.89,778.787,213.207,774.733,213.207z"/>
	<path fill="#39E5BC" d="M730.654,354.692H700.42c-4.054,0-7.371-3.317-7.371-7.371v-30.234c0-4.054,3.317-7.371,7.371-7.371h30.234
		c4.054,0,7.371,3.317,7.371,7.371v30.234C738.025,351.375,734.708,354.692,730.654,354.692z"/>
	<path fill="#8AFFE3" d="M620.354,388.93H590.12c-4.054,0-7.371-3.317-7.371-7.371v-30.234c0-4.054,3.317-7.371,7.371-7.371h30.234
		c4.054,0,7.371,3.317,7.371,7.371v30.234C627.725,385.613,624.408,388.93,620.354,388.93z"/>
	<path fill="#39E5BC" d="M1313.666,390.979h-30.234c-4.054,0-7.371-3.317-7.371-7.371v-30.234c0-4.054,3.317-7.371,7.371-7.371
		h30.234c4.054,0,7.371,3.317,7.371,7.371v30.234C1321.036,387.662,1317.719,390.979,1313.666,390.979z"/>
	<path fill="#2DC9A0" d="M709.32,567.251h109.755c1.512,0,2.749-1.237,2.749-2.749l0,0c0-1.512-1.237-2.749-2.749-2.749H709.32
		c-1.512,0-2.749,1.237-2.749,2.749l0,0C706.571,566.015,707.808,567.251,709.32,567.251z"/>
	<path fill="#FFFFFF" d="M853.446,574.5H585.85c-2.063,0-3.75-1.688-3.75-3.75l0,0c0-2.063,1.688-3.75,3.75-3.75h267.596
		c2.063,0,3.75,1.688,3.75,3.75l0,0C857.196,572.813,855.509,574.5,853.446,574.5z"/>
	<path fill="#FFFFFF" d="M856.701,512.882c0.325-4.852,0.628-9.868-1.026-14.44c-1.048-2.899-2.892-5.783-2.312-8.811
		c0.205-1.071,0.927-2.221,2.017-2.249c0.656-0.017,1.242,0.382,1.775,0.763c2.587,1.849,15.753,19.679,18.34,21.528"/>
	<path fill="#FFFFFF" d="M622.363,563c3.6,0.988,6.958,3.54,10.383,5.023c2.891,1.252,5.826,2.412,8.689,3.718
		c4.879,2.225,8.898,2.899,14.057,3.585c6.493,0.862,10.767-4.599,17.07-4.991c11.152-0.694,22.425-0.11,33.55-1.001
		c7.753-0.621,15.563-1.237,23.232-2.758c4.641-0.921,9.887-2.525,14.613-2.55c-7.785-0.607-15.377-2.872-23.128-3.717
		c-5.972-0.651-12.078-0.232-18.082-0.293c-12.052-0.123-24.237-3.864-36.359-2.492c-9.064,1.026-17.772,3.821-26.932,3.811
		C633.67,561.328,628.945,561.131,622.363,563z"/>
	<circle fill="#FFFFFF" cx="774.05" cy="504.896" r="1.563"/>
	<path fill="#8AFFE3" d="M638.415,274.921h-20.242c-0.95,0-1.727-0.777-1.727-1.727l0,0c0-0.95,0.777-1.727,1.727-1.727h20.242
		c0.95,0,1.727,0.777,1.727,1.727l0,0C640.142,274.144,639.365,274.921,638.415,274.921z"/>
	<path fill="#8AFFE3" d="M658.062,286.882H637.82c-0.95,0-1.727-0.777-1.727-1.727l0,0c0-0.95,0.777-1.727,1.727-1.727h20.242
		c0.95,0,1.727,0.777,1.727,1.727l0,0C659.789,286.105,659.012,286.882,658.062,286.882z"/>
	<path fill="#8AFFE3" d="M806.301,343.594H786.06c-0.95,0-1.727-0.777-1.727-1.727l0,0c0-0.95,0.777-1.727,1.727-1.727h20.242
		c0.95,0,1.727,0.777,1.727,1.727l0,0C808.028,342.816,807.251,343.594,806.301,343.594z"/>
	<path fill="#8AFFE3" d="M825.948,355.554h-20.242c-0.95,0-1.727-0.777-1.727-1.727l0,0c0-0.95,0.777-1.727,1.727-1.727h20.242
		c0.95,0,1.727,0.777,1.727,1.727l0,0C827.675,354.777,826.898,355.554,825.948,355.554z"/>
	<path fill="#8AFFE3" d="M1193.475,344.975h-20.242c-0.95,0-1.727-0.777-1.727-1.727l0,0c0-0.95,0.777-1.727,1.727-1.727h20.242
		c0.95,0,1.727,0.777,1.727,1.727l0,0C1195.202,344.198,1194.425,344.975,1193.475,344.975z"/>
	<path fill="#8AFFE3" d="M1213.122,356.936h-20.241c-0.95,0-1.727-0.777-1.727-1.727l0,0c0-0.95,0.777-1.727,1.727-1.727h20.241
		c0.95,0,1.727,0.777,1.727,1.727l0,0C1214.849,356.159,1214.072,356.936,1213.122,356.936z"/>
</g>
</svg>
