<?xml version="1.0" encoding="utf-8"?>
<!-- Generator: Adobe Illustrator 22.1.0, SVG Export Plug-In . SVG Version: 6.00 Build 0)  -->
<svg version="1.1" id="Layer_1" xmlns="http://www.w3.org/2000/svg" xmlns:xlink="http://www.w3.org/1999/xlink" x="0px" y="0px"
	 viewBox="0 0 1600 1168" enable-background="new 0 0 1600 1168" xml:space="preserve">
<path fill="#47FBD4" d="M533.055,1044.736c63.035-5.445,122.082-31.884,179.737-57.945c144.456-65.3,288.915-130.601,433.374-195.9
	c56.691-25.629,114.493-51.984,159.927-94.488c62.754-58.71,96.6-146.965,89.193-232.579
	c-7.399-85.613-55.894-166.749-127.795-213.815c-83.187-54.455-187.285-61.596-284.839-80.802
	c-88.843-17.494-176.468-46.293-267.014-46.902c-90.544-0.608-188.559,34.039-232.82,113.033
	c-35.61,63.548-29.7,141.459-19.951,213.652c9.748,72.189,21.979,147.837-3.319,216.151
	c-17.131,46.256-49.977,84.624-76.852,125.984c-26.88,41.361-48.689,90.357-39.432,138.809c7.609,39.827,36.196,73.899,71.825,93.26
	C450.718,1042.551,492.658,1048.226,533.055,1044.736"/>
<path fill="#5DB4B3" d="M1354.24,597.528c0-8.88-1.984-18.103-2.535-26.965c-0.84-13.498,0.208-27.112,3.102-40.322
	c2.111-9.631,6.025-20.048,14.897-24.351c12.54-6.081,29.349,2.837,40.764-5.162c3.764-2.638,6.232-6.742,9.697-9.762
	c10.5-9.151,26.756-6.105,39.539-0.576c7.844,3.392,15.713,7.836,20.219,15.096c4.505,7.262,4.409,17.975-2.243,23.338
	c-3.009,2.426-6.869,3.466-10.599,4.48c-17.267,4.697-36.504,12.116-42.733,28.89c-2.402,6.472-2.547,13.772-5.988,19.757
	c-3.127,5.439-8.936,9.247-15.171,9.944c-10.787,1.208-21.384-6.33-32.02-4.16c-13.234,2.699-7.796,24.41-18.933,30.338
	C1352.236,618.073,1354.24,609.054,1354.24,597.528"/>
<path fill="#519D9D" d="M1386.46,587.318c2.831-2.059,5.735-4.194,7.568-7.176c3.804-6.188,2.067-14.217,3.857-21.257
	c2.049-8.059,8.47-14.109,13.855-20.445c5.385-6.337,10.18-14.537,8.03-22.571c-0.815-3.05-2.955-6.045-6.06-6.617
	c-1.91-0.352-3.854,0.258-5.687,0.904c-13.409,4.726-25.995,11.782-37.022,20.757c-9.765,7.947-18.959,19.415-16.769,31.812
	c1.37,7.758,6.98,14.099,9.367,21.606c1.889,5.942,1.433,12.102,1.613,18.198C1372.252,597.532,1379.422,592.434,1386.46,587.318"/>
<path fill="#66C3C3" d="M1373.049,585.366c0.111-3.151,0.229-6.342,1.128-9.364c1.774-5.967,6.357-10.613,10.778-14.995
	c1.281-1.272,2.592-2.563,4.191-3.401c2.157-1.13,4.656-1.344,7.06-1.739c5.18-0.852,10.204-2.642,14.757-5.257
	c6.664-3.829,13.516-9.663,20.984-7.852c3.791,0.919,6.812,3.698,9.648,6.375c4.111,3.879,8.222,7.758,12.333,11.637
	c2.362,2.229,4.739,4.47,7.437,6.282c3.315,2.226,7.151,3.838,9.764,6.859c4.16,4.813,4.162,11.863,3.628,18.203
	c-0.492,5.843-2.159,12.83-7.745,14.616c-0.847,0.271-1.797,0.388-2.607,0.019c-1.231-0.56-1.737-2.01-2.118-3.309
	c-0.709-2.422-1.418-4.844-2.128-7.264c-1.134-3.875-2.463-8.034-5.728-10.408c-3.222-2.343-7.587-2.359-11.504-1.628
	c-3.916,0.731-7.74,2.109-11.723,2.229c-10.315,0.308-19.927-7.821-30.072-5.929c-4.627,0.863-8.597,3.719-12.394,6.499
	c-4.125,3.018-10.674,10.039-15.711,10.565C1372,593.722,1373.602,589.331,1373.049,585.366"/>
<path fill="#5DB4B3" d="M1349.527,592.22c0-8.879,1.982-18.103,2.535-26.965c0.84-13.497-0.208-27.111-3.103-40.321
	c-2.11-9.631-6.024-20.048-14.896-24.351c-12.54-6.082-29.35,2.836-40.765-5.162c-3.763-2.638-6.232-6.743-9.697-9.762
	c-10.5-9.151-26.755-6.106-39.538-0.576c-7.845,3.392-15.713,7.835-20.22,15.096c-4.505,7.261-4.408,17.974,2.244,23.338
	c3.009,2.426,6.869,3.466,10.599,4.48c17.266,4.697,36.504,12.116,42.732,28.89c2.402,6.472,2.548,13.772,5.989,19.757
	c3.127,5.439,8.936,9.247,15.171,9.944c10.787,1.208,21.384-6.33,32.02-4.16c13.233,2.699,7.796,24.41,18.933,30.338
	C1351.531,612.766,1349.527,603.746,1349.527,592.22"/>
<path fill="#84DBDB" d="M1347.243,588.138c-2.103-1.527-4.259-3.113-5.619-5.328c-2.825-4.594-1.535-10.556-2.864-15.783
	c-1.521-5.984-6.289-10.476-10.288-15.181c-3.999-4.705-7.559-10.793-5.963-16.758c0.606-2.265,2.194-4.489,4.5-4.913
	c1.418-0.262,2.861,0.192,4.222,0.671c9.957,3.509,19.302,8.748,27.489,15.412c7.25,5.901,14.077,14.415,12.451,23.62
	c-1.018,5.76-5.183,10.468-6.955,16.042c-1.403,4.412-1.063,8.985-1.198,13.513C1357.793,595.723,1352.469,591.937,1347.243,588.138
	"/>
<path fill="#6BF2CF" d="M1324.994,597.831c-0.01,0.189,0.009,0.384,0.035,0.573l0.115,0.864l1.479,10.658l2.831,20.384
	c0.262,1.876,1.98,3.283,4.015,3.283h40.886c2.033,0,3.753-1.407,4.014-3.283l2.831-20.384l1.48-10.658l0.115-0.864
	c0.026-0.189,0.04-0.384,0.035-0.573c-0.164-4.911-4.532-8.881-9.845-8.881h-38.152
	C1329.521,588.95,1325.157,592.92,1324.994,597.831"/>
<rect fill="none" width="1600" height="1168"/>
<g>
	<defs>
		<path id="SVGID_1_" d="M1334.834,588.95c-5.313,0-9.677,3.97-9.84,8.881c-0.01,0.188,0.008,0.384,0.035,0.573l0.115,0.863
			l1.479,10.659l2.831,20.382c0.262,1.879,1.98,3.285,4.015,3.285h40.886c2.033,0,3.754-1.406,4.014-3.285l2.831-20.382l1.48-10.659
			l0.115-0.863c0.026-0.189,0.04-0.385,0.035-0.573c-0.164-4.911-4.532-8.881-9.845-8.881H1334.834z"/>
	</defs>
	<clipPath id="SVGID_2_">
		<use xlink:href="#SVGID_1_"  overflow="visible"/>
	</clipPath>
	<path clip-path="url(#SVGID_2_)" fill="#5DB4B3" d="M1322.199,589.095c-0.01,0.19,0.01,0.384,0.039,0.573l0.126,0.863l1.623,10.659
		h59.851l1.623-10.659l0.126-0.863c0.029-0.19,0.044-0.384,0.039-0.573c-0.18-4.911-4.971-8.881-10.797-8.881h-41.839
		C1327.165,580.214,1322.379,584.184,1322.199,589.095"/>
</g>
<g>
	<defs>
		<rect id="SVGID_3_" width="1600" height="1168"/>
	</defs>
	<clipPath id="SVGID_4_">
		<use xlink:href="#SVGID_3_"  overflow="visible"/>
	</clipPath>
	<path clip-path="url(#SVGID_4_)" fill="#FFFFFF" d="M1326.268,601.52h55.279c3.809,0,6.925-3.116,6.925-6.925
		c0-3.808-3.116-6.924-6.925-6.924h-55.279c-3.809,0-6.924,3.116-6.924,6.924C1319.344,598.403,1322.459,601.52,1326.268,601.52"/>
	<path clip-path="url(#SVGID_4_)" fill="#84DBDB" d="M342.901,766.31c-12.435-0.009-22.324-10.374-28.902-20.927
		c-6.577-10.552-11.903-22.538-22.056-29.717c-9.408-6.651-22.646-8.979-28.259-19.04c-3.836-6.876-2.994-15.85-7.676-22.181
		c-5.027-6.801-15.593-9.363-17.675-17.56c-1.56-6.144,2.991-12.517,8.738-15.191c5.747-2.676,12.35-2.554,18.685-2.343
		c13.692,0.456,27.377,1.084,41.053,1.884c11.042,0.646,22.663,1.598,31.816,7.808c6.581,4.466,11.199,11.214,15.658,17.799
		c13.24,19.554,26.628,39.399,34.316,61.727c4.963,14.416,7.218,31.12-0.404,44.325s-28.277,18.982-38.486,7.657"/>
	<path clip-path="url(#SVGID_4_)" fill="#5DB4B3" d="M367.458,842.62c0-13.292,2.97-27.098,3.795-40.364
		c1.257-20.204-0.311-40.583-4.644-60.357c-3.159-14.417-9.018-30.01-22.297-36.45c-18.773-9.105-43.934,4.245-61.02-7.728
		c-5.634-3.948-9.33-10.093-14.517-14.612c-15.717-13.698-40.05-9.14-59.185-0.863c-11.741,5.079-23.521,11.729-30.265,22.599
		c-6.745,10.869-6.601,26.905,3.357,34.935c4.504,3.631,10.283,5.188,15.865,6.706c25.846,7.031,54.642,18.136,63.966,43.245
		c3.597,9.689,3.814,20.615,8.966,29.575c4.68,8.141,13.375,13.841,22.708,14.885c16.148,1.808,32.01-9.476,47.931-6.229
		c19.81,4.041,11.67,36.54,28.34,45.414C370.458,873.375,367.458,859.873,367.458,842.62"/>
	<path clip-path="url(#SVGID_4_)" fill="#519D9D" d="M319.23,827.337c-4.238-3.081-8.585-6.277-11.33-10.741
		c-5.694-9.263-3.094-21.281-5.774-31.819c-3.067-12.065-12.678-21.12-20.74-30.606c-8.06-9.484-15.239-21.76-12.02-33.785
		c1.221-4.565,4.423-9.049,9.071-9.905c2.859-0.527,5.769,0.387,8.511,1.353c20.074,7.073,38.913,17.636,55.42,31.071
		c14.616,11.896,28.38,29.061,25.102,47.618c-2.052,11.613-10.449,21.105-14.023,32.343c-2.827,8.894-2.144,18.114-2.414,27.241
		C340.497,842.627,329.764,834.995,319.23,827.337"/>
	<path clip-path="url(#SVGID_4_)" fill="#66C3C3" d="M339.305,824.416c-0.167-4.717-0.344-9.494-1.689-14.018
		c-2.656-8.932-9.517-15.887-16.134-22.446c-1.92-1.903-3.879-3.836-6.275-5.091c-3.229-1.69-6.969-2.012-10.566-2.604
		c-7.754-1.275-15.275-3.954-22.09-7.869c-9.975-5.732-20.231-14.464-31.413-11.754c-5.675,1.376-10.194,5.535-14.441,9.543
		c-6.154,5.807-12.308,11.613-18.461,17.42c-3.537,3.337-7.095,6.691-11.132,9.402c-4.964,3.334-10.705,5.746-14.615,10.269
		c-6.229,7.205-6.231,17.758-5.432,27.247c0.738,8.747,3.233,19.206,11.594,21.879c1.268,0.407,2.69,0.582,3.902,0.03
		c1.845-0.838,2.603-3.009,3.172-4.953c1.061-3.625,2.123-7.25,3.184-10.874c1.699-5.799,3.688-12.025,8.574-15.579
		c4.823-3.508,11.358-3.53,17.22-2.437c5.863,1.094,11.587,3.157,17.548,3.336c15.442,0.462,29.829-11.707,45.016-8.875
		c6.926,1.291,12.868,5.566,18.552,9.728c6.173,4.518,15.977,15.028,23.518,15.816C340.874,836.923,338.476,830.351,339.305,824.416
		"/>
	<path clip-path="url(#SVGID_4_)" fill="#5DB4B3" d="M374.515,834.675c0-13.291-2.97-27.098-3.795-40.364
		c-1.257-20.204,0.311-40.583,4.644-60.357c3.159-14.417,9.017-30.01,22.298-36.45c18.772-9.104,43.933,4.245,61.019-7.728
		c5.634-3.948,9.331-10.093,14.517-14.612c15.717-13.698,28.863,13.56,47.999,21.837c11.74,5.078,34.706-10.971,41.452-0.102
		c6.744,10.869,6.6,26.905-3.358,34.935c-4.504,3.631-10.283,5.188-15.865,6.706c-25.846,7.031-54.642,18.136-63.966,43.245
		c-3.597,9.689-3.814,20.615-8.965,29.575c-4.681,8.141-13.376,13.841-22.709,14.885c-16.148,1.808-32.01-9.475-47.931-6.228
		c-19.81,4.041-11.67,36.54-28.34,45.414C371.515,865.43,374.515,851.928,374.515,834.675"/>
	<path clip-path="url(#SVGID_4_)" fill="#84DBDB" d="M376.044,824.536c3.146-2.287,6.375-4.661,8.412-7.975
		c4.228-6.878,2.297-15.802,4.287-23.627c2.278-8.957,9.414-15.682,15.4-22.724c5.985-7.043,11.315-16.157,8.925-25.086
		c-0.906-3.39-3.284-6.719-6.734-7.354c-2.123-0.392-4.284,0.286-6.32,1.004c-14.905,5.253-28.893,13.096-41.15,23.071
		c-10.852,8.833-21.072,21.578-18.638,35.357c1.524,8.622,7.759,15.67,10.412,24.014c2.099,6.604,1.592,13.45,1.793,20.226
		C360.252,835.89,368.222,830.223,376.044,824.536"/>
	<path clip-path="url(#SVGID_4_)" fill="#FFFFFF" d="M683.123,533.378c-4.193-1.019-8.387-2.038-12.671-1.936
		c-3.369,0.079-6.678,0.852-10.018,1.295c-5.969,0.792-12.078,0.525-17.956-0.788l17.384-20.161
		c13.026-0.895,26.053-1.79,39.08-2.684c1.949-0.133,2.11,1.192,3.894,1.988c1.604,0.716,4.69,0.644,6.168,1.594
		c3.654,2.348,8.439,1.826,12.617,0.639c3.07-0.873,6.111-2.065,9.23-2.602c1.699-0.292,2.965,1.46,2.182,2.996
		c-2.842,5.569-8.771,9.408-14.297,12.728c-7.072,4.249-14.555,8.623-22.802,8.865c-0.245,0.007-0.489,0.011-0.733,0.011
		C691.123,535.322,687.124,534.351,683.123,533.378"/>
	<path clip-path="url(#SVGID_4_)" fill="#FFFFFF" d="M733.417,475.294c1.902-3.773,4.292-8.31,8.512-8.531
		c3.338-0.175,6.011,2.535,8.915,4.19c8.935,5.092,20.744,0.223,30.232,4.191c-8.6,5.747-16.15,13.062-22.163,21.478
		c-2.928,4.097-5.555,8.519-9.412,11.757c-2.716,2.281-5.964,3.901-8.504,6.377c-4.153,4.051-6.019,9.996-10.122,14.098
		c-4.011,4.01-10.386,6.781-10.941,12.425c-0.23,2.34-23.907-7.9-25.753-9.089c-2.987-1.923-10.847-9.981-11.938-13.199
		c-1.104-3.254,10.015-3.564,12.783-4.296c7.232-1.913,12.135-4.668,17.064-10.302C719.994,495.359,727.979,486.079,733.417,475.294
		"/>
</g>
<g>
	<defs>
		<path id="SVGID_5_" d="M741.928,466.763c-4.22,0.222-6.61,4.758-8.512,8.531c-5.436,10.785-13.422,20.066-21.326,29.099
			c-4.929,5.635-9.833,8.39-17.064,10.302c-2.768,0.732-13.887,1.043-12.784,4.296c1.091,3.218,8.952,11.276,11.938,13.199
			c1.847,1.19,25.524,11.43,25.753,9.09c0.556-5.645,6.93-8.415,10.942-12.426c4.103-4.101,5.969-10.047,10.122-14.097
			c2.539-2.476,5.788-4.096,8.504-6.377c3.857-3.238,6.484-7.661,9.411-11.758c6.014-8.415,13.563-15.731,22.164-21.478
			c-4.461-1.864-9.433-1.777-14.38-1.689c-5.576,0.099-11.118,0.197-15.853-2.502c-2.814-1.603-5.412-4.198-8.607-4.198
			C742.134,466.755,742.032,466.758,741.928,466.763"/>
	</defs>
	<clipPath id="SVGID_6_">
		<use xlink:href="#SVGID_5_"  overflow="visible"/>
	</clipPath>
	<path clip-path="url(#SVGID_6_)" fill="#D5FDFD" d="M722.412,496.618c-3.536,6.365-7.601,12.917-14.039,16.32
		c-1.477,0.781-11.387,4.525-12.677,5.587c-1.291,1.061-2.253,2.741-1.883,4.371c0.263,1.158,1.127,2.065,1.86,2.998
		c5.152,6.565,13.039,13.247,18.557,19.509c1.784,2.025,4.316,4.132,3.796,6.78c-5.334,1.075-10.851-0.205-16.041-1.838
		c-16.579-5.219-32.864-15.141-39.972-31.002c-1.246-2.778-2.196-5.895-1.423-8.84c0.766-2.921,3.093-5.157,5.505-6.974
		c7.862-5.922,17.489-9.004,25.83-14.23c6.436-4.032,12.009-9.278,18.068-13.858c4.392-3.32,9.037-6.288,13.676-9.253
		c6.184-3.951,15.685-4.946,11.421,5.045C731.385,479.915,726.994,488.37,722.412,496.618"/>
</g>
<g>
	<defs>
		<rect id="SVGID_7_" width="1600" height="1168"/>
	</defs>
	<clipPath id="SVGID_8_">
		<use xlink:href="#SVGID_7_"  overflow="visible"/>
	</clipPath>
	<path clip-path="url(#SVGID_8_)" fill="#FFFFFF" d="M673.56,510.848c12.312-3.027,20.8-1.64,32.879-5.225
		c1.537-0.457,3.123-1.046,4.775-0.749c1.652,0.298,3.222,1.976,2.519,3.273c-0.256,0.472-0.749,0.789-1.225,1.09
		c-2.893,1.82-8.999,5.551-11.893,7.372c0,0-3.928,1.266-9.74-1.921"/>
	<path clip-path="url(#SVGID_8_)" fill="#5DB4B3" d="M541.435,416.463c9.943,15.032,14.801,32.881,17.546,50.694
		c1.708,11.076,6.935,21.151,17.685,28.651c10.961,7.647,31.192,10.824,44.473,9.323c14.525-1.642,29.114-5.958,43.514-2.34
		c2.405,0.605,4.65,1.82,6.347,3.627c7.004,7.45-0.192,17.735-2.285,27.215c-0.999,4.525-5.488,7.394-9.947,6.133
		c-35.778-10.119-78.871,7.619-112.09-10.602c-25.246-13.847-36.143-43.773-45.022-71.165c-4.08-12.591-8.204-25.441-8.183-38.676
		c0.021-13.664-16.259-26.866,0-27.001C509.049,392.191,533.635,404.67,541.435,416.463"/>
</g>
<g>
	<defs>
		<path id="SVGID_9_" d="M515.722,384.386c-0.059,0-0.119,0.001-0.178,0.001c-16.258,0.136-22.049,21.272-22.071,34.936
			c-0.019,13.236,4.104,26.086,8.184,38.677c8.878,27.391,19.775,57.317,45.02,71.165c18.718,10.267,40.573,9.118,62.484,7.967
			c16.976-0.891,33.989-1.782,49.606,2.635c4.461,1.261,8.948-1.609,9.947-6.134c2.094-9.479,9.29-19.764,2.286-27.215
			c-1.698-1.807-3.944-3.022-6.347-3.626c-14.4-3.619-28.99,0.698-43.515,2.339c-13.28,1.501-28.323,0.075-37.305-9.821
			c-7.532-8.298-8.835-20.297-10.542-31.373c-2.746-17.813-7.603-35.661-17.548-50.693c-7.77-11.749-24.494-28.858-40.02-28.858
			C515.723,384.386,515.723,384.386,515.722,384.386"/>
	</defs>
	<clipPath id="SVGID_10_">
		<use xlink:href="#SVGID_9_"  overflow="visible"/>
	</clipPath>
	<path clip-path="url(#SVGID_10_)" fill="#84DBDB" d="M679.848,556.254c-5.338-2.013-10.149-5.406-13.837-9.758
		c-1.585-1.871-2.979-3.929-4.845-5.518c-2.191-1.868-4.907-2.985-7.575-4.067c-14.097-5.711-28.565-11.319-43.751-12.145
		c-18.026-0.98-36.566,4.804-53.892-0.267c-12.588-3.684-22.903-12.712-31.713-22.43c-4.486-4.949-8.772-10.207-14.284-13.98
		c-5.513-3.772-12.62-5.901-18.957-3.789c-4.365,1.456-7.907,4.761-10.589,8.501c-4.795,6.69-7.075,16.108-2.769,23.122
		c3.358,5.471,9.758,8.144,15.776,10.375c29.315,10.869,59.545,19.266,90.265,25.075c28.602,5.408,57.995,8.57,86.814,4.466"/>
</g>
<g>
	<defs>
		<rect id="SVGID_11_" width="1600" height="1168"/>
	</defs>
	<clipPath id="SVGID_12_">
		<use xlink:href="#SVGID_11_"  overflow="visible"/>
	</clipPath>
	<path clip-path="url(#SVGID_12_)" fill="#FFFFFF" d="M657.363,867.116c-1.82,11.48-2.261,23.144-3.992,34.639
		c-0.346,2.3-0.93,4.875-2.925,6.069c-1.539,0.921-3.476,0.73-5.249,0.454c-11.51-1.787-22.66-5.863-32.609-11.92
		c-2.343-1.427-7.641-1.685-8.255-4.358c-0.61-2.658,4.988-9.862,6.178-12.317c12.294-25.356,3.649-53.306,13.396-79.745
		c0.439-1.191,0.986-2.457,2.087-3.088c1.361-0.779,3.073-0.323,4.539,0.231c11.682,4.404,20.841,13.539,29.616,22.419
		c3.108,3.146,6.607,6.625,8.081,10.908c1.448,4.208-0.619,6.544-2.599,10.217C661.209,848.831,658.816,857.954,657.363,867.116"/>
	<path clip-path="url(#SVGID_12_)" fill="#438987" d="M637.167,619.667c7.487,0.284,16.859,2.136,23.728,3.439
		c8.221,1.562,15.7,5.044,20.639,11.921c6.856,9.548,6.642,22.28,6.15,34.025c-2.191,52.254-4.383,104.51-6.574,156.764
		c-0.088,2.106-0.228,4.359-1.514,6.029c-1.307,1.698-3.497,2.402-5.55,3.016l-52.453,15.668c-5.051,1.508-10.098-2.373-9.937-7.642
		c1.57-51.203,0.168-99.628-4.781-151.046c-24.89,3.31-49.283,7.366-73.797,12.805c-25.952,5.758-53.324,8.784-78.836,0.825
		c-2.852-0.89-5.34-2.815-6.635-5.507c-3.806-7.917,5.584-13.612,7.694-21.134c2.459-8.768-5.456-17.982-2.994-26.749
		c1.381-4.917,9.41-5.684,10.329-10.709c0.513-2.806,3.449,0.01,18.227-1.338c25.125-2.292-49.863-36.122-8.274-31.365
		C502.568,612.1,601.281,618.305,637.167,619.667"/>
</g>
<g>
	<defs>
		<path id="SVGID_13_" d="M480.862,640.035c-6.288,0.574-10.433,0.393-13.158,0.213c-3.68-0.243-4.775-0.486-5.069,1.125
			c-0.919,5.025-8.947,5.793-10.328,10.709c-2.463,8.766,5.453,17.981,2.994,26.749c-2.111,7.521-11.5,13.217-7.694,21.134
			c1.294,2.692,3.783,4.617,6.635,5.507c25.511,7.959,52.884,4.933,78.835-0.824c24.514-5.44,48.907-9.494,73.798-12.807
			c4.949,51.418,6.351,99.844,4.78,151.047c-0.161,5.268,4.886,9.149,9.937,7.643l52.453-15.669c2.053-0.612,4.244-1.317,5.55-3.016
			c1.286-1.67,1.427-3.924,1.515-6.029c2.191-52.256,4.382-104.51,6.573-156.764c0.493-11.745,0.706-24.478-6.15-34.025
			c-4.939-6.877-12.418-10.359-20.639-11.92c-6.868-1.305-16.24-3.156-23.727-3.44c-35.886-1.363-134.599-7.567-164.578-10.997
			c-2.726-0.312-4.95-0.458-6.736-0.458C440.402,608.213,504.34,637.894,480.862,640.035"/>
	</defs>
	<clipPath id="SVGID_14_">
		<use xlink:href="#SVGID_13_"  overflow="visible"/>
	</clipPath>
	<path clip-path="url(#SVGID_14_)" fill="#519D9D" d="M635.119,896.416c-8.695-12.434-17.819-27.377-13.106-41.8
		c2.887-8.838,10.429-15.247,15.338-23.143c7.896-12.698,8.575-28.435,9.027-43.38c0.546-18.084,1.093-36.167,1.639-54.25
		c0.317-10.502,0.626-21.111-1.434-31.414c-2.06-10.303-6.732-20.422-14.83-27.116c-13.725-11.345-34.728-10.284-50.184-1.44
		c-15.456,8.844-26.259,23.985-34.878,39.567c-10.074,18.212-17.917,37.882-20.841,58.488c-2.924,20.605-0.72,42.233,8.39,60.946
		c8.062,16.56,21.12,30.19,35.215,42.047c9.265,7.793,19.423,15.118,31.2,17.928c11.777,2.809,25.535,0.185,33.193-9.192"/>
</g>
<g>
	<defs>
		<rect id="SVGID_15_" width="1600" height="1168"/>
	</defs>
	<clipPath id="SVGID_16_">
		<use xlink:href="#SVGID_15_"  overflow="visible"/>
	</clipPath>
	<path clip-path="url(#SVGID_16_)" fill="#519D9D" d="M544.755,427.421c6.745,12.745,2.099,42.378,4.912,69.935
		c1.796,17.599,3.721,30.461,7,49.977c4.208,25.046,6.789,41.427,12.327,67.667c0.434,2.057,1.124,5.949-0.972,5.785
		c-52.349-4.088-104.772,19.765-156.527,8.405c6.281-49.051,9.641-81.478,11.533-91.459c2.646-13.966-0.362-31.933-0.361-47.078
		c0-14.213-4.647-27.554-3.333-41.707c2.515-27.104,3.144-45.995,48.529-71.014C497.186,361.768,529.137,398.523,544.755,427.421"/>
	<path clip-path="url(#SVGID_16_)" fill="#84DBDB" d="M699.33,906.991c3.283-0.371,6.568-1.095,9.859-0.789
		c3.29,0.307,6.711,1.897,8.101,4.895c1.428,3.081,0.298,6.887-1.965,9.418c-2.263,2.533-5.455,4.023-8.635,5.217
		c-21.39,8.035-45.109,5.483-67.803,2.818c-9.729-1.142-19.458-2.285-29.188-3.427c-4.643-0.546-9.721-1.306-12.84-4.789
		c-4.336-4.843-2.825-12.353-1.055-18.609c1.203-4.252,2.462-8.617,5.152-12.125c2.69-3.504,7.186-5.998,11.498-5.033
		c4.375,0.979,7.258,5.019,10.855,7.695c5.036,3.744,11.959,4.799,17.881,2.722c5.668-1.987,11.409-6.862,14.268-11.839
		c3.185,1.83,3.088,7.599,5.897,10.356c3.301,3.241,7.085,5.989,11.17,8.158C680.685,905.991,690.12,908.031,699.33,906.991"/>
</g>
<g>
	<defs>
		<path id="SVGID_17_" d="M641.191,894.983c-5.923,2.076-12.847,1.023-17.883-2.723c-3.597-2.676-6.479-6.716-10.854-7.692
			c-4.313-0.967-8.809,1.526-11.499,5.03c-2.69,3.511-3.949,7.875-5.151,12.125c-1.771,6.257-3.282,13.769,1.055,18.609
			c3.119,3.484,8.197,4.244,12.841,4.789c9.729,1.142,19.459,2.286,29.187,3.428c22.694,2.665,46.413,5.218,67.803-2.817
			c3.18-1.196,6.372-2.685,8.634-5.219c2.263-2.529,3.394-6.336,1.965-9.416c-1.388-2.998-4.809-4.589-8.101-4.895
			c-3.288-0.305-6.576,0.417-9.858,0.788c-9.21,1.04-18.646-1-26.805-5.332c-4.084-2.169-7.87-4.917-11.171-8.158
			c-2.809-2.758-2.71-8.527-5.897-10.356C652.597,888.121,646.859,892.996,641.191,894.983"/>
	</defs>
	<clipPath id="SVGID_18_">
		<use xlink:href="#SVGID_17_"  overflow="visible"/>
	</clipPath>
	<path clip-path="url(#SVGID_18_)" fill="#5DB4B3" d="M737.925,905.191c-14.14,8.602-30.451,13.136-46.86,15.293
		c-16.409,2.157-33.022,2.03-49.573,1.899c-13.631-0.107-27.561-0.265-40.403-4.835c-4.761-1.693-9.388-3.996-14.407-4.592
		c-5.018-0.597-10.739,0.986-13.264,5.363c-3.22,5.581,0.404,13.097,5.965,16.348c5.563,3.252,12.342,3.387,18.785,3.434
		c24.949,0.184,49.898,0.367,74.847,0.55c10.504,0.077,21.141,0.14,31.328-2.419c7.467-1.876,14.579-5.153,20.855-9.611
		c4.419-3.139,8.483-6.932,11.165-11.642c2.681-4.71,3.871-10.427,2.444-15.655"/>
	<path clip-path="url(#SVGID_18_)" fill="#5DB4B3" d="M655.296,895.117c-1.137,0.59-1.417,2.102-0.525,3.022
		c8.896,9.175,22.539,13.585,35.109,11.159c10.34-1.996,19.353-8.085,28.042-14.036c-1.236,0.847-7.466-1.016-9.046-1.279
		c-3.266-0.546-6.516-1.181-9.747-1.904c-6.332-1.419-12.589-3.176-18.734-5.261c-5.582-1.894-9.508-5.263-14.004-0.552
		C663.003,889.815,659.579,892.898,655.296,895.117"/>
	<path clip-path="url(#SVGID_18_)" fill="#5DB4B3" d="M616.652,875.441c-0.061,3.515-0.137,7.112-1.389,10.396
		c-2.4,6.3-8.561,10.222-14.338,13.697c-6.074,3.654-12.452,7.408-19.525,7.87c-1.729,0.112-3.618-0.031-4.931-1.164
		c-2.01-1.734-1.777-4.891-1.11-7.461c2.133-8.216,7.05-15.719,13.865-20.779c6.815-5.061,15.5-7.606,23.951-6.808
		c1.622,0.152,3.396,0.519,4.375,1.819c1.278,1.696,0.615,4.097-0.099,6.096c-1.235,3.454-2.929,7.361-6.456,8.368"/>
</g>
<g>
	<defs>
		<rect id="SVGID_19_" width="1600" height="1168"/>
	</defs>
	<clipPath id="SVGID_20_">
		<use xlink:href="#SVGID_19_"  overflow="visible"/>
	</clipPath>
	<path clip-path="url(#SVGID_20_)" fill="#FFFFFF" d="M551.541,901.577c-0.869,2.854-1.718,6.18-0.016,8.63
		c1.188,1.71,3.299,2.471,5.277,3.119c9.053,2.969,18.198,5.659,27.417,8.066c3.656,0.955,7.6,1.854,11.135,0.518
		c3.95-1.493,6.467-5.532,7.379-9.656s0.503-8.406,0.274-12.624c-1.176-21.686,2.638-43.63,11.062-63.648
		c1.049-2.492,2.183-5.01,2.426-7.703c0.244-2.692-0.582-5.655-2.777-7.234c-1.644-1.183-3.763-1.421-5.781-1.604
		c-9.139-0.835-18.307-1.346-27.481-1.531c-5.744-0.116-16.056-2.566-16.418,5.256c-0.779,16.821,2.262,33.621-1.038,50.211
		C561.085,883.003,554.4,892.187,551.541,901.577"/>
	<path clip-path="url(#SVGID_20_)" fill="#3E7979" d="M632.608,634.529c6.92,0.999,13.885,1.889,20.242,4.799
		c7.608,3.484,14.036,8.656,17.185,16.516c4.371,10.911,1.115,23.223-2.174,34.508c-14.637,50.211-29.274,100.421-43.91,150.632
		c-0.59,2.023-1.266,4.179-2.914,5.492c-1.675,1.335-3.971,1.495-6.111,1.6c-18.226,0.885-36.452,1.77-54.678,2.654
		c-5.265,0.256-9.237-4.722-7.819-9.798c13.783-49.339,24.013-96.69,31.518-147.799c-24.959-2.744-49.614-4.646-74.717-5.233
		c-26.576-0.623-53.876-4.236-76.741-18.071c-2.556-1.547-4.512-4.012-5.124-6.935c-1.8-8.598,8.681-11.879,12.53-18.678
		c4.486-7.924-0.994-18.765,3.496-26.687c2.518-4.443,10.497-3.267,12.592-7.925c1.17-2.602,3.347,0.836,18.017,3.064
		c24.943,3.789,50.859,7.001,91.047,11.716C597.57,628.198,606.642,630.783,632.608,634.529"/>
</g>
<g>
	<defs>
		<path id="SVGID_21_" d="M455.983,609.602c-2.095,4.659-10.074,3.482-12.592,7.927c-4.49,7.922,0.989,18.763-3.496,26.686
			c-3.849,6.799-14.33,10.08-12.53,18.678c0.612,2.924,2.568,5.389,5.124,6.935c22.864,13.835,50.164,17.449,76.741,18.072
			c25.103,0.587,49.758,2.488,74.717,5.233c-7.505,51.107-17.735,98.459-31.518,147.798c-1.419,5.076,2.554,10.055,7.818,9.797
			c18.227-0.884,36.453-1.768,54.679-2.653c2.14-0.104,4.436-0.265,6.111-1.6c1.648-1.313,2.324-3.47,2.914-5.492
			c14.637-50.211,29.273-100.421,43.91-150.632c3.29-11.285,6.546-23.597,2.174-34.508c-3.149-7.859-9.577-13.031-17.185-16.516
			c-6.357-2.91-13.322-3.799-20.242-4.798c-25.966-3.747-35.039-6.332-67.561-10.148c-40.188-4.715-66.104-7.927-91.047-11.716
			c-10.942-1.662-14.934-3.997-16.741-3.997C456.643,608.67,456.28,608.941,455.983,609.602"/>
	</defs>
	<clipPath id="SVGID_22_">
		<use xlink:href="#SVGID_21_"  overflow="visible"/>
	</clipPath>
	<path clip-path="url(#SVGID_22_)" fill="#519D9D" d="M385.746,594.888c34.512,35.709,82.844,57.704,132.438,60.273
		c10.641,0.551,22.196,0.53,30.628,7.045c4.158,3.213,7.176,7.788,11.582,10.652c11.249,7.311,27.871,1.433,38.506,9.61
		c6.763,5.2,8.817,14.622,8.25,23.135c-2.016,30.297-29.592,52.847-37.509,82.16c-5.566,20.612-1.068,43.481-9.634,63.037
		c-3.335,7.613-8.791,14.55-16.218,18.282c-7.702,3.871-16.678,3.985-25.297,4.019c-12.488,0.049-25.519-0.026-36.655-5.677
		c-10.767-5.464-18.473-15.56-24.211-26.184c-5.737-10.623-9.881-22.057-15.76-32.603c-10.655-19.113-26.599-34.633-40.027-51.911
		c-13.427-17.278-24.775-37.885-23.595-59.734c1.584-29.329,25.407-56.106,19.498-84.875"/>
</g>
<g>
	<defs>
		<rect id="SVGID_23_" width="1600" height="1168"/>
	</defs>
	<clipPath id="SVGID_24_">
		<use xlink:href="#SVGID_23_"  overflow="visible"/>
	</clipPath>
	<path clip-path="url(#SVGID_24_)" fill="#3E787A" d="M352.053,491.227c5.698-4.013,11.471-8.066,17.981-10.553
		c6.51-2.487,13.941-3.281,20.41-0.689c9.666,3.872,14.425,15.75,21.21,23.65c5.073,5.908,38.923,53.659,37.147,58.548
		c-1.958,5.39-44.251-35.844-49.939-35.115c-15.578,1.999-31.976-6.324-39.559-20.076"/>
	<path clip-path="url(#SVGID_24_)" fill="#47FBD4" d="M374.726,486.699c14.172,12.259,28.344,24.519,42.515,36.778
		c10.87,9.403,21.972,19.089,28.87,31.698c12.481,22.813,9.225,51.31,19.571,75.168c9.909,22.848,31.474,38.984,54.691,47.998
		c23.217,9.015,48.292,11.83,73.016,14.836c13.171,1.603,26.819,3.449,38.011,10.577c11.191,7.128,19.169,21.124,15.102,33.755
		c-4.776,14.838-22.473,20.573-37.855,23.104c-42.469,6.987-86.259,5.859-128.312-3.306c-19.725-4.297-39.973-10.886-53.962-25.44
		c-11.686-12.159-17.719-28.538-23.211-44.483c-14.817-43.023-27.95-86.625-39.361-130.673
		c-4.761-18.378-10.994-33.54-14.401-52.089C346.189,487.135,361.073,474.887,374.726,486.699"/>
	<path clip-path="url(#SVGID_24_)" fill="#FFFFFF" d="M584.898,937.685c0,11.183-32.906,20.249-73.497,20.249
		c-40.59,0-73.496-9.066-73.496-20.249c0-11.185,32.906-20.249,73.496-20.249C551.992,917.437,584.898,926.501,584.898,937.685"/>
	<path clip-path="url(#SVGID_24_)" fill="#66C3C3" d="M547.378,937.685c0,5.474-16.107,9.911-35.977,9.911
		c-19.869,0-35.976-4.438-35.976-9.911c0-5.475,16.107-9.912,35.976-9.912C531.271,927.773,547.378,932.21,547.378,937.685"/>
	<path clip-path="url(#SVGID_24_)" fill="#47FBD4" d="M521.196,937.685c0,1.49-4.385,2.698-9.794,2.698
		c-5.41,0-9.795-1.208-9.795-2.698c0-1.49,4.385-2.699,9.795-2.699C516.811,934.986,521.196,936.195,521.196,937.685"/>
	<path clip-path="url(#SVGID_24_)" fill="#FFFFFF" d="M502.015,924.918c0.504,3.063,1.056,6.222,2.75,8.823
		c1.695,2.601,4.85,4.512,7.869,3.79c4.44-1.061,5.872-6.555,6.481-11.079c7.243-53.88,14.485-107.761,21.727-161.639
		c0.61-4.533,1.119-9.53-1.434-13.324c-3.377-5.019-10.393-5.629-16.44-5.739c-9.761-0.181-19.521-0.358-29.282-0.538
		c-2.408-0.044-4.999-0.036-6.971,1.347c-5.393,3.778-0.12,33.707,0.247,40.451c0.827,15.218,1.928,30.421,3.301,45.599
		C493.056,863.508,496.976,894.306,502.015,924.918"/>
</g>
<g>
	<defs>
		<path id="SVGID_25_" d="M486.715,746.559c-5.394,3.778-0.121,33.707,0.246,40.449c0.828,15.219,1.929,30.421,3.301,45.604
			c2.793,30.896,6.713,61.694,11.752,92.307c0.506,3.065,1.056,6.222,2.751,8.823c1.696,2.601,4.849,4.512,7.869,3.791
			c4.439-1.063,5.872-6.557,6.481-11.079c7.243-53.881,14.484-107.761,21.726-161.641c0.61-4.532,1.119-9.529-1.434-13.323
			c-3.376-5.019-10.393-5.628-16.44-5.739c-9.76-0.179-19.52-0.358-29.282-0.538c-0.354-0.007-0.714-0.012-1.074-0.012
			C490.527,745.2,488.397,745.379,486.715,746.559"/>
	</defs>
	<clipPath id="SVGID_26_">
		<use xlink:href="#SVGID_25_"  overflow="visible"/>
	</clipPath>
	<path clip-path="url(#SVGID_26_)" fill="#66C3C3" d="M461.788,766.666c5.893-7.398,15.33-13.909,27.323-16.158
		c12.839-2.407,27.888,0.074,38.825-5.063c5.046-2.369,8.523-6.123,13.929-8.098c5.143-1.879,11.546-1.865,16.977-0.401
		c5.43,1.464,9.924,4.265,13.174,7.545c6.32,6.38,8.038,14.737,4.528,22.039c-3.51,7.3-12.173,13.386-22.841,16.047
		c-11.004,2.745-23.134,1.9-34.864,2.031c-11.73,0.132-24.548,1.675-32.141,7.708c-4.475,3.558-6.494,8.195-9.853,12.273
		c-3.358,4.078-9.113,7.925-16.018,7.699C433.166,811.384,455.471,774.596,461.788,766.666"/>
</g>
<g>
	<defs>
		<rect id="SVGID_27_" width="1600" height="1168"/>
	</defs>
	<clipPath id="SVGID_28_">
		<use xlink:href="#SVGID_27_"  overflow="visible"/>
	</clipPath>
	<path clip-path="url(#SVGID_28_)" fill="#3E787A" d="M639.423,740.172c-4.78,14.84-22.48,20.58-37.86,23.109
		c-23,3.781-46.38,5.192-69.66,4.221c-19.72-0.81-39.37-3.33-58.65-7.529c-19.73-4.291-39.97-10.881-53.96-25.442
		c-11.69-12.158-17.72-28.539-23.21-44.478c-14.82-43.022-27.95-86.631-39.37-130.671c-1.85-7.12-4.03-14.37-6.21-21.649
		c-3.45-11.5-6.89-23.101-8.98-34.461c-3.21-17.49,12.47-25.72,26.12-13.91c14.17,12.26,28.34,24.52,42.52,36.78
		c10.87,9.401,21.97,19.091,28.87,31.7c12.48,22.81,9.22,51.31,19.57,75.17c9.9,22.85,31.47,38.98,54.69,48
		c23.21,9.01,48.29,11.83,73.01,14.83c13.17,1.601,26.82,3.451,38.01,10.58C635.513,713.553,643.483,727.543,639.423,740.172"/>
	<path clip-path="url(#SVGID_28_)" fill="#386362" d="M531.903,767.502c-19.72-0.811-39.37-3.33-58.65-7.529
		c-19.73-4.291-39.97-10.881-53.96-25.442c-11.691-12.158-17.72-28.539-23.21-44.478c-14.82-43.022-27.95-86.631-39.37-130.671
		c-1.85-7.12-4.03-14.37-6.21-21.651c7.53,3.181,14.48,8.25,18.71,12.821c11.55,12.47,17.03,29.31,20.92,45.86
		c3.88,16.539,6.58,33.59,13.87,48.94c7.75,16.31,20.64,30.141,36.37,39.021c25.15,14.18,56.22,15.549,80.57,31.059
		c10.59,6.75,20.1,17.281,20.48,29.83C541.683,753.861,537.803,761.281,531.903,767.502"/>
	<path clip-path="url(#SVGID_28_)" fill="#3E787A" d="M539.667,440.585c1.077-2.991,2.505-5.95,2.591-9.128
		c0.12-4.417-3.159-12.422-4.034-16.754c-0.801-3.962-3.299-6.483-5.815-8.733c-1.565-1.399-9.548-9.852-11.284-11.033
		c-4.284-2.913,1.938,2.4-2.937,0.647c-1.375,6.011-1.054,12.324,0.258,18.35c1.312,6.026,3.592,11.798,6.125,17.422
		c2.033,4.512,1.033,9.308,3.4,13.655c0.902,1.655,1.905,13.316,1.905,13.316s6.079-7.691,7.041-9.411
		C538.297,446.446,538.704,443.261,539.667,440.585"/>
	<path clip-path="url(#SVGID_28_)" fill="#FFFFFF" d="M505.84,425.49c0.13,0.03,0.78,0.26,2.35,0.87
		C507.5,426.18,506.04,425.6,505.84,425.49"/>
	<path clip-path="url(#SVGID_28_)" fill="#FFFFFF" d="M551.56,343.63c-0.74,1.04-1.85,1.79-2.62,2.8c-0.17,0.2-0.32,0.41-0.44,0.65
		c-0.45,0.77-1,2.15-1.55,3.7c-1.1,3.05-2.25,6.86-2.65,8.57c-2.98,12.2,0.69,16.31-8.58,20.43c-2.83,1.26-4.94,2.22-7.5,3.85
		c-0.36,0.22-0.7,0.45-1.02,0.71c-0.12,0.09-0.24,0.19-0.36,0.29c-0.24,0.21-0.47,0.44-0.71,0.69c-0.17,0.19-0.35,0.41-0.519,0.63
		c-1.85,2.44-2.12,5.7-2.34,8.77c-0.07,1.05-1.586,2.314-0.916,3.134c0.55,0.64-0.251,2.867-0.021,3.667
		c0.52,1.74,2.167,3.569,2.247,5.459c0.11,2.86-0.12,5.6-0.16,7.35c-0.15,5.8-2.42,0.64-6.8,1.17c-17.63,2.12-3.34,11.65,5.05,12.17
		l-13.29-0.85c-0.45-0.17-0.84-0.33-1.19-0.46c0.54,0.13,0.62,0.03-0.73-0.73c-8.72-4.95-2.09,13.78-6.59,7.31
		c-3.03-4.37-6.53-8.56-12.43-11.92c-7.75-4.4,14.25-3.45,8.23-10.02l-11.59-9.56c-6.36-0.81-18.05-3.82-16.39-11.8
		c0.82-3.979,3.671-7.93,5.29-12.57c0.35-1.04,2.24-4.84,2.69-5.86c2.75-6.29-0.81-4.95,0.98-11.67c1.03-3.85,2.29-8.14,1.71-12.17
		c-1-6.87-3.95-13.58-3.12-20.46c0.63-5,4.51-10.33,9.51-9.671c3.23,0.421,5.63,3.2,7.37,5.95c1.83,2.89,3.45,6.13,6.47,7.84
		c1.65,0.95,3.7,1.1,5.48,0.42c2.77-1.07,4.48-3.75,3.03-4.99c-36.01-30.4-14.66-32.43-3.68-39.1c3.9-2.36,28.58,1.26,33.24,4.03
		c5,3,7.11,11.82,7,17.01c-0.22,10.05-1.23,12.12,4,21.61C551.02,334.31,554.41,339.63,551.56,343.63"/>
	<path clip-path="url(#SVGID_28_)" fill="#D5FDFD" d="M527.43,384.15c-0.08,0.06-0.15,0.12-0.23,0.19
		c-0.12,0.09-0.24,0.19-0.36,0.29c-0.24,0.21-0.47,0.44-0.71,0.69c-0.17,0.19-0.35,0.41-0.519,0.63c-1.85,2.44-2.12,5.7-2.34,8.77
		c-0.07,1.05-0.034,2.305-0.062,3.364c-0.028,1.062,0.476,2.506,0.542,3.336c0.146,1.83,0.751,3.709,0.831,5.599
		c-8.26-0.95-18.691-9.389-25.511-9.299c-0.43,0.01-0.63-0.52-0.3-0.79c3.03-2.64,3.82-7.62,3.12-11.8
		c-0.82-4.92-4.17-8.83-6.66-13.17c-1.81-3.11-4.07-6.17-9.24-13.92c-0.96-1.43-4.35-6.31-3.29-7.68c1.08-1.37,4.31,2.53,5.77,3.46
		c4.48,2.79,7.94,4.67,10.76,9.15c2.33,3.7,4.02,7.88,7.14,10.93c1.22,1.19,2.65,2.22,3.46,3.72c0.53,0.97,0.76,2.08,1.32,3.02
		c3.34,5.68,10.96,1.47,16.12,2.69C527.65,383.42,527.75,383.92,527.43,384.15"/>
	<path clip-path="url(#SVGID_28_)" fill="#D5FDFD" d="M490.922,334.498c-1.257-1.199-3.359-1.542-4.782-0.542
		c-0.935,0.658-1.466,1.775-1.647,2.904c-0.181,1.129-0.049,2.283,0.108,3.414c0.129,0.936,0.28,1.881,0.646,2.751
		c0.271,0.647,0.655,1.239,0.94,1.88c0.328,0.739,0.517,1.531,0.803,2.287c0.304,0.802,0.713,1.557,1.121,2.31
		c0.33,0.605,0.658,1.211,0.986,1.815c0.73-0.689,0.94-1.754,1.082-2.748c0.193-1.345,0.33-2.698,0.413-4.054
		c0.059-0.949,0.093-1.911,0.365-2.82c0.368-1.224,1.521-1.846,1.529-3.135C492.497,337.077,492.016,335.542,490.922,334.498"/>
	<path clip-path="url(#SVGID_28_)" fill="#84DBDB" d="M649.33,916.991c3.283-0.371,6.568-1.095,9.859-0.789
		c3.29,0.307,6.711,1.897,8.101,4.895c1.428,3.081,0.298,6.887-1.965,9.418c-2.263,2.533-5.455,4.023-8.635,5.217
		c-21.39,8.035-45.109,5.483-67.803,2.818c-9.729-1.142-19.458-2.285-29.188-3.427c-4.643-0.546-9.721-1.306-12.84-4.789
		c-4.336-4.843-2.825-12.353-1.055-18.609c1.203-4.252,2.462-8.617,5.152-12.125c2.69-3.504,7.186-5.998,11.498-5.033
		c4.375,0.979,7.258,5.019,10.855,7.694c5.036,3.745,11.959,4.8,17.881,2.723c5.668-1.987,8.761-6.288,11.62-11.265
		c3.186,1.83,5.736,7.025,8.545,9.782c3.301,3.241,7.085,5.989,11.17,8.158C630.685,915.991,640.12,918.031,649.33,916.991"/>
</g>
<g>
	<defs>
		<path id="SVGID_29_" d="M591.191,904.983c-5.923,2.076-12.847,1.023-17.883-2.723c-3.596-2.676-6.478-6.716-10.853-7.693
			c-4.314-0.966-8.81,1.527-11.499,5.031c-2.691,3.51-3.95,7.874-5.153,12.126c-1.768,6.257-3.281,13.767,1.056,18.608
			c3.119,3.484,8.196,4.244,12.841,4.789c9.727,1.142,19.459,2.286,29.185,3.427c22.695,2.665,46.413,5.219,67.804-2.816
			c3.181-1.196,6.371-2.685,8.634-5.219c2.264-2.529,3.394-6.337,1.966-9.416c-1.39-2.998-4.811-4.59-8.101-4.896
			c-3.29-0.305-6.577,0.418-9.86,0.789c-9.209,1.04-18.645-1-26.804-5.332c-4.084-2.169-7.869-4.916-11.171-8.158
			c-2.808-2.758-5.357-7.953-8.544-9.782C599.95,898.696,596.859,902.996,591.191,904.983"/>
	</defs>
	<clipPath id="SVGID_30_">
		<use xlink:href="#SVGID_29_"  overflow="visible"/>
	</clipPath>
	<path clip-path="url(#SVGID_30_)" fill="#5DB4B3" d="M687.925,915.191c-14.14,8.602-30.451,13.136-46.86,15.293
		c-16.409,2.157-33.022,2.03-49.573,1.899c-13.631-0.107-27.561-0.265-40.403-4.835c-4.761-1.693-9.388-3.996-14.407-4.592
		c-5.018-0.597-10.739,0.986-13.264,5.363c-3.22,5.581,0.404,13.097,5.965,16.348c5.563,3.252,12.342,3.387,18.785,3.434
		c24.949,0.184,49.898,0.367,74.847,0.55c10.504,0.077,21.141,0.14,31.328-2.419c7.467-1.876,14.579-5.153,20.855-9.611
		c4.419-3.139,8.483-6.932,11.165-11.642c2.681-4.71,3.871-10.427,2.444-15.655"/>
	<path clip-path="url(#SVGID_30_)" fill="#5DB4B3" d="M605.581,905.583c-1.174,0.608-1.463,2.17-0.542,3.119
		c9.187,9.476,23.276,14.029,36.258,11.525c10.678-2.061,19.986-8.349,28.96-14.495c-1.278,0.874-7.711-1.049-9.343-1.32
		c-3.373-0.564-6.729-1.22-10.065-1.967c-6.54-1.465-13.002-3.279-19.348-5.434c-5.765-1.956-9.818-5.435-14.462-0.569
		C613.54,900.106,610.003,903.289,605.581,905.583"/>
	<path clip-path="url(#SVGID_30_)" fill="#5DB4B3" d="M566.652,885.441c-0.061,3.515-0.137,7.112-1.389,10.396
		c-2.4,6.3-8.561,10.222-14.338,13.697c-6.074,3.654-12.452,7.408-19.525,7.87c-1.729,0.112-3.618-0.031-4.931-1.164
		c-2.01-1.734-1.777-4.891-1.11-7.461c2.133-8.216,7.05-15.719,13.865-20.779c6.815-5.061,15.5-7.606,23.951-6.808
		c1.622,0.152,3.396,0.519,4.375,1.819c1.278,1.696,0.615,4.097-0.099,6.096c-1.235,3.454-2.929,7.361-6.456,8.368"/>
</g>
<g>
	<defs>
		<rect id="SVGID_31_" width="1600" height="1168"/>
	</defs>
	<clipPath id="SVGID_32_">
		<use xlink:href="#SVGID_31_"  overflow="visible"/>
	</clipPath>
	<path clip-path="url(#SVGID_32_)" fill="#84DBDB" d="M662.577,272.612L662.577,272.612c-7.286,0-12.448-5.162-12.448-12.447
		l-0.799-51.243c0-7.286,5.961-13.247,13.247-13.247c7.286,0,13.247,5.961,13.247,13.247v50.443
		C675.824,266.651,669.863,272.612,662.577,272.612"/>
	<path clip-path="url(#SVGID_32_)" fill="#9DAAED" d="M671.316,214.308L671.316,214.308c-0.437-0.437-0.437-1.153,0-1.591
		l7.424-7.425c0.438-0.437,1.154-0.437,1.592,0c0.437,0.438,0.437,1.154,0,1.592l-7.425,7.424
		C672.469,214.745,671.753,214.745,671.316,214.308"/>
	<path clip-path="url(#SVGID_32_)" fill="#9DAAED" d="M674.066,237.286L674.066,237.286c-0.437-0.437-0.437-1.153,0-1.591
		l7.424-7.425c0.438-0.437,1.154-0.437,1.592,0c0.437,0.438,0.437,1.154,0,1.592l-7.425,7.424
		C675.219,237.724,674.503,237.724,674.066,237.286"/>
	<path clip-path="url(#SVGID_32_)" fill="#47FBD4" d="M664.079,201.891L664.079,201.891c-0.437,0.437-1.153,0.437-1.591,0
		l-7.424-7.425c-0.438-0.437-0.438-1.153,0-1.591c0.437-0.437,1.153-0.437,1.591,0l7.424,7.425
		C664.516,200.738,664.516,201.454,664.079,201.891"/>
	<path clip-path="url(#SVGID_32_)" fill="#47FBD4" d="M655.255,214.308L655.255,214.308c-0.437,0.437-1.153,0.437-1.591,0
		l-7.425-7.424c-0.437-0.438-0.437-1.154,0-1.592c0.438-0.437,1.154-0.437,1.592,0l7.424,7.425
		C655.692,213.155,655.692,213.871,655.255,214.308"/>
	<path clip-path="url(#SVGID_32_)" fill="#3E787A" d="M701.875,272.612L701.875,272.612c-7.286,0-13.247-5.961-13.247-13.247
		v-53.172c0-7.287,5.961-13.248,13.247-13.248c7.286,0,13.247,5.961,13.247,13.248l-1.184,52.788
		C713.938,266.267,709.161,272.612,701.875,272.612"/>
	<path clip-path="url(#SVGID_32_)" fill="#519D9D" d="M678.622,283.612L678.622,283.612c-7.286,0-13.247-5.961-13.247-13.247
		v-53.172c0-7.287,5.961-13.248,13.247-13.248c7.286,0,13.247,5.961,13.247,13.248v53.172
		C691.869,277.651,685.908,283.612,678.622,283.612"/>
	<path clip-path="url(#SVGID_32_)" fill="#6BF2CF" d="M715.117,260.921l-0.19,1.5l-5.81,44.92h-58.5l-5.81-44.92l-0.19-1.5
		c0-6.6,5.4-12,12-12h46.5C709.717,248.921,715.117,254.321,715.117,260.921"/>
	<path clip-path="url(#SVGID_32_)" fill="#39E5BC" d="M715.122,266.064l-0.19,1.5h-70.12l-0.19-1.5c0-6.6,5.4-12,12-12h46.5
		C709.722,254.064,715.122,259.464,715.122,266.064"/>
	<path clip-path="url(#SVGID_32_)" fill="#47FBD4" d="M710.614,214.308L710.614,214.308c-0.437-0.437-0.437-1.153,0-1.591
		l7.425-7.425c0.438-0.437,1.153-0.437,1.591,0c0.437,0.438,0.437,1.154,0,1.592l-7.425,7.424
		C711.767,214.745,711.051,214.745,710.614,214.308"/>
	<path clip-path="url(#SVGID_32_)" fill="#47FBD4" d="M688.547,217.741L688.547,217.741c-0.437-0.437-0.437-1.154,0-1.591
		l7.424-7.425c0.438-0.437,1.154-0.437,1.592,0c0.437,0.438,0.437,1.154,0,1.591l-7.425,7.425
		C689.7,218.178,688.984,218.178,688.547,217.741"/>
	<path clip-path="url(#SVGID_32_)" fill="#47FBD4" d="M676.864,211.641L676.864,211.641c-0.437-0.437-0.437-1.153,0-1.591
		l7.425-7.425c0.438-0.437,1.153-0.437,1.591,0c0.437,0.438,0.437,1.154,0,1.591l-7.425,7.425
		C678.017,212.078,677.301,212.078,676.864,211.641"/>
	<path clip-path="url(#SVGID_32_)" fill="#47FBD4" d="M646.239,236.634L646.239,236.634c-0.437-0.437-0.437-1.154,0-1.591
		l7.425-7.425c0.438-0.437,1.153-0.437,1.591,0c0.437,0.438,0.437,1.154,0,1.591l-7.425,7.425
		C647.392,237.071,646.676,237.071,646.239,236.634"/>
	<path clip-path="url(#SVGID_32_)" fill="#47FBD4" d="M674.114,227.975L674.114,227.975c-0.437-0.437-0.437-1.154,0-1.591
		l7.425-7.425c0.438-0.437,1.153-0.437,1.591,0c0.437,0.438,0.437,1.154,0,1.591l-7.425,7.425
		C675.267,228.412,674.551,228.412,674.114,227.975"/>
	<path clip-path="url(#SVGID_32_)" fill="#47FBD4" d="M713.364,237.286L713.364,237.286c-0.437-0.437-0.437-1.153,0-1.591
		l7.425-7.425c0.438-0.437,1.153-0.437,1.591,0c0.437,0.438,0.437,1.154,0,1.592l-7.425,7.424
		C714.517,237.724,713.801,237.724,713.364,237.286"/>
	<path clip-path="url(#SVGID_32_)" fill="#47FBD4" d="M703.377,201.891L703.377,201.891c-0.437,0.437-1.154,0.437-1.591,0
		l-7.425-7.425c-0.437-0.437-0.437-1.153,0-1.591c0.438-0.437,1.154-0.437,1.591,0l7.425,7.425
		C703.814,200.738,703.814,201.454,703.377,201.891"/>
	<path clip-path="url(#SVGID_32_)" fill="#47FBD4" d="M669.883,216.304L669.883,216.304c-0.437,0.438-1.153,0.438-1.591,0
		l-7.425-7.424c-0.437-0.438-0.437-1.154,0-1.592c0.438-0.437,1.154-0.437,1.591,0l7.425,7.425
		C670.32,215.151,670.32,215.867,669.883,216.304"/>
	<path clip-path="url(#SVGID_32_)" fill="#47FBD4" d="M708.213,228.391L708.213,228.391c-0.437,0.437-1.153,0.437-1.591,0
		l-7.425-7.425c-0.437-0.437-0.437-1.153,0-1.591c0.438-0.437,1.154-0.437,1.591,0l7.425,7.425
		C708.65,227.238,708.65,227.954,708.213,228.391"/>
	<path clip-path="url(#SVGID_32_)" fill="#47FBD4" d="M671.963,237.286L671.963,237.286c-0.437,0.438-1.153,0.438-1.591,0
		l-7.425-7.424c-0.437-0.438-0.437-1.154,0-1.592c0.438-0.437,1.154-0.437,1.591,0l7.425,7.425
		C672.4,236.133,672.4,236.849,671.963,237.286"/>
	<path clip-path="url(#SVGID_32_)" fill="#47FBD4" d="M694.365,236.634L694.365,236.634c-0.437,0.437-1.153,0.437-1.591,0
		l-7.425-7.425c-0.437-0.437-0.437-1.153,0-1.591c0.438-0.437,1.154-0.437,1.592,0l7.424,7.425
		C694.802,235.481,694.802,236.197,694.365,236.634"/>
	<path clip-path="url(#SVGID_32_)" fill="#8AFFE3" d="M650.747,307.677c3.014,4.981,6.084,10.03,10.618,14.161
		c4.533,4.131,10.795,7.3,17.562,7.411c6.761,0.11,13.167-2.846,17.896-6.819c4.729-3.973,8.043-8.911,11.299-13.783
		c-16.931-0.258-34.502-0.389-51.197-2.722"/>
	<path clip-path="url(#SVGID_32_)" fill="#FFFFFF" d="M709.037,309.925h-58.329c-1.422,0-2.586-1.164-2.586-2.585
		c0-1.422,1.164-2.586,2.586-2.586h58.329c1.422,0,2.585,1.164,2.585,2.586C711.622,308.761,710.458,309.925,709.037,309.925"/>
	<path clip-path="url(#SVGID_32_)" fill="#FFFFFF" d="M716.4,259.084h-73.056c-3.079,0-5.597-2.519-5.597-5.597
		c0-3.078,2.518-5.597,5.597-5.597H716.4c3.078,0,5.597,2.519,5.597,5.597C721.998,256.565,719.478,259.084,716.4,259.084"/>
	<path clip-path="url(#SVGID_32_)" fill="#6BF2CF" d="M411.238,851.3c0.013,0.46-0.013,0.931-0.053,1.391l-0.173,2.09l-2.215,25.83
		L404.559,930c-0.391,4.55-2.964,7.96-6.009,7.96h-61.202c-3.044,0-5.617-3.41-6.008-7.96l-4.238-49.39l-2.216-25.83l-0.172-2.09
		c-0.039-0.46-0.059-0.931-0.053-1.391c0.245-11.899,6.785-21.519,14.737-21.519h57.11C404.46,829.78,410.992,839.4,411.238,851.3"
		/>
</g>
<g>
	<defs>
		<path id="SVGID_33_" d="M339.398,829.78c-7.951,0-14.492,9.62-14.737,21.519c-0.006,0.46,0.014,0.931,0.054,1.391l0.172,2.09
			l2.215,25.83L331.34,930c0.391,4.55,2.965,7.96,6.009,7.96h61.202c3.044,0,5.617-3.41,6.009-7.96l4.237-49.39l2.216-25.83
			l0.172-2.09c0.04-0.46,0.066-0.931,0.053-1.391c-0.245-11.899-6.778-21.519-14.73-21.519H339.398z"/>
	</defs>
	<clipPath id="SVGID_34_">
		<use xlink:href="#SVGID_33_"  overflow="visible"/>
	</clipPath>
	<path clip-path="url(#SVGID_34_)" fill="#5DB4B3" d="M415.421,830.13c0.015,0.46-0.014,0.93-0.058,1.39l-0.189,2.091l-2.429,25.829
		h-89.591l-2.429-25.829l-0.189-2.091c-0.044-0.46-0.066-0.93-0.058-1.39c0.269-11.9,7.44-21.519,16.16-21.519h62.63
		C407.988,808.61,415.152,818.229,415.421,830.13"/>
</g>
<g>
	<defs>
		<rect id="SVGID_35_" width="1600" height="1168"/>
	</defs>
	<clipPath id="SVGID_36_">
		<use xlink:href="#SVGID_35_"  overflow="visible"/>
	</clipPath>
	<path clip-path="url(#SVGID_36_)" fill="#FFFFFF" d="M409.331,848.595h-82.748c-5.701,0-10.365-4.664-10.365-10.365
		c0-5.7,4.664-10.364,10.365-10.364h82.748c5.701,0,10.365,4.664,10.365,10.364C419.696,843.931,415.032,848.595,409.331,848.595"/>
	<path clip-path="url(#SVGID_36_)" fill="#84DBDB" d="M1114.043,305.258L1114.043,305.258c-7.286,0-12.447-5.162-12.447-12.448
		l-0.8-51.242c0-7.286,5.961-13.247,13.247-13.247s13.247,5.961,13.247,13.247v50.443
		C1127.29,299.297,1121.329,305.258,1114.043,305.258"/>
	<path clip-path="url(#SVGID_36_)" fill="#9DAAED" d="M1122.782,246.954L1122.782,246.954c-0.437-0.437-0.437-1.153,0-1.591
		l7.425-7.425c0.438-0.437,1.153-0.437,1.591,0c0.438,0.438,0.438,1.154,0,1.591l-7.424,7.425
		C1123.936,247.391,1123.219,247.391,1122.782,246.954"/>
	<path clip-path="url(#SVGID_36_)" fill="#9DAAED" d="M1125.532,269.933L1125.532,269.933c-0.437-0.437-0.437-1.153,0-1.591
		l7.425-7.425c0.438-0.437,1.153-0.437,1.591,0c0.438,0.438,0.438,1.154,0,1.591l-7.424,7.425
		C1126.686,270.37,1125.969,270.37,1125.532,269.933"/>
	<path clip-path="url(#SVGID_36_)" fill="#47FBD4" d="M1115.546,234.538L1115.546,234.538c-0.437,0.437-1.153,0.437-1.591,0
		l-7.426-7.425c-0.437-0.437-0.437-1.153,0-1.591c0.438-0.437,1.154-0.437,1.592,0l7.425,7.425
		C1115.982,233.384,1115.982,234.101,1115.546,234.538"/>
	<path clip-path="url(#SVGID_36_)" fill="#47FBD4" d="M1106.722,246.954L1106.722,246.954c-0.437,0.437-1.153,0.437-1.591,0
		l-7.426-7.425c-0.437-0.437-0.437-1.153,0-1.591c0.438-0.437,1.154-0.437,1.592,0l7.425,7.425
		C1107.158,245.801,1107.158,246.517,1106.722,246.954"/>
	<path clip-path="url(#SVGID_36_)" fill="#3E787A" d="M1153.342,305.258L1153.342,305.258c-7.286,0-13.247-5.961-13.247-13.247
		v-53.172c0-7.287,5.961-13.248,13.247-13.248s13.247,5.961,13.247,13.248l-1.185,52.788
		C1165.404,298.913,1160.628,305.258,1153.342,305.258"/>
	<path clip-path="url(#SVGID_36_)" fill="#519D9D" d="M1130.089,316.258L1130.089,316.258c-7.286,0-13.247-5.961-13.247-13.247
		v-53.172c0-7.287,5.961-13.248,13.247-13.248s13.247,5.961,13.247,13.248v53.172
		C1143.336,310.297,1137.375,316.258,1130.089,316.258"/>
	<path clip-path="url(#SVGID_36_)" fill="#6BF2CF" d="M1166.584,293.567l-0.19,1.5l-5.81,44.92h-58.5l-5.811-44.92l-0.189-1.5
		c0-6.6,5.4-12,12-12h46.5C1161.185,281.567,1166.584,286.967,1166.584,293.567"/>
	<path clip-path="url(#SVGID_36_)" fill="#39E5BC" d="M1166.589,298.71l-0.19,1.5h-70.121l-0.188-1.5c0-6.6,5.399-12,12-12h46.5
		C1161.188,286.71,1166.589,292.11,1166.589,298.71"/>
	<path clip-path="url(#SVGID_36_)" fill="#47FBD4" d="M1162.081,246.954L1162.081,246.954c-0.437-0.437-0.437-1.153,0-1.591
		l7.425-7.425c0.438-0.437,1.153-0.437,1.591,0c0.438,0.438,0.438,1.154,0,1.591l-7.425,7.425
		C1163.234,247.391,1162.518,247.391,1162.081,246.954"/>
	<path clip-path="url(#SVGID_36_)" fill="#47FBD4" d="M1140.014,250.387L1140.014,250.387c-0.438-0.437-0.438-1.153,0-1.591
		l7.425-7.425c0.438-0.437,1.153-0.437,1.591,0c0.438,0.438,0.438,1.154,0,1.592l-7.425,7.424
		C1141.167,250.824,1140.45,250.824,1140.014,250.387"/>
	<path clip-path="url(#SVGID_36_)" fill="#47FBD4" d="M1128.331,244.288L1128.331,244.288c-0.437-0.437-0.437-1.154,0-1.591
		l7.425-7.425c0.438-0.437,1.153-0.437,1.591,0c0.438,0.438,0.438,1.154,0,1.591l-7.425,7.425
		C1129.484,244.725,1128.768,244.725,1128.331,244.288"/>
	<path clip-path="url(#SVGID_36_)" fill="#47FBD4" d="M1097.706,269.281L1097.706,269.281c-0.437-0.438-0.437-1.154,0-1.591
		l7.425-7.425c0.438-0.438,1.153-0.438,1.591,0c0.438,0.439,0.438,1.154,0,1.591l-7.425,7.425
		C1098.859,269.718,1098.143,269.718,1097.706,269.281"/>
	<path clip-path="url(#SVGID_36_)" fill="#47FBD4" d="M1125.581,260.621L1125.581,260.621c-0.437-0.437-0.437-1.153,0-1.591
		l7.425-7.425c0.438-0.437,1.153-0.437,1.591,0c0.438,0.438,0.438,1.154,0,1.592l-7.425,7.424
		C1126.734,261.058,1126.018,261.058,1125.581,260.621"/>
	<path clip-path="url(#SVGID_36_)" fill="#47FBD4" d="M1164.831,269.933L1164.831,269.933c-0.437-0.437-0.437-1.153,0-1.591
		l7.425-7.425c0.438-0.437,1.153-0.437,1.591,0c0.438,0.438,0.438,1.154,0,1.591l-7.425,7.425
		C1165.984,270.37,1165.268,270.37,1164.831,269.933"/>
	<path clip-path="url(#SVGID_36_)" fill="#47FBD4" d="M1154.844,234.538L1154.844,234.538c-0.438,0.437-1.153,0.437-1.591,0
		l-7.425-7.425c-0.438-0.437-0.438-1.153,0-1.591c0.438-0.437,1.153-0.437,1.591,0l7.425,7.425
		C1155.28,233.384,1155.28,234.101,1154.844,234.538"/>
	<path clip-path="url(#SVGID_36_)" fill="#47FBD4" d="M1121.35,248.95L1121.35,248.95c-0.438,0.437-1.153,0.437-1.591,0
		l-7.425-7.424c-0.438-0.438-0.438-1.154,0-1.592c0.438-0.437,1.153-0.437,1.591,0l7.425,7.425
		C1121.786,247.797,1121.786,248.513,1121.35,248.95"/>
	<path clip-path="url(#SVGID_36_)" fill="#47FBD4" d="M1159.68,261.038L1159.68,261.038c-0.438,0.437-1.153,0.437-1.591,0
		l-7.425-7.425c-0.438-0.437-0.438-1.153,0-1.591c0.438-0.437,1.153-0.437,1.591,0l7.425,7.425
		C1160.116,259.884,1160.116,260.601,1159.68,261.038"/>
	<path clip-path="url(#SVGID_36_)" fill="#47FBD4" d="M1123.43,269.933L1123.43,269.933c-0.438,0.437-1.153,0.437-1.591,0
		l-7.425-7.425c-0.438-0.437-0.438-1.153,0-1.591c0.438-0.437,1.153-0.437,1.591,0l7.425,7.425
		C1123.866,268.78,1123.866,269.496,1123.43,269.933"/>
	<path clip-path="url(#SVGID_36_)" fill="#47FBD4" d="M1145.832,269.281L1145.832,269.281c-0.438,0.437-1.153,0.437-1.591,0
		l-7.425-7.425c-0.438-0.437-0.438-1.153,0-1.591c0.438-0.438,1.153-0.438,1.591,0l7.425,7.425
		C1146.269,268.127,1146.269,268.843,1145.832,269.281"/>
	<path clip-path="url(#SVGID_36_)" fill="#8AFFE3" d="M1102.214,340.324c3.014,4.981,6.084,10.03,10.617,14.161
		c4.532,4.131,10.795,7.3,17.563,7.411c6.761,0.11,13.167-2.846,17.896-6.819c4.729-3.973,8.044-8.911,11.3-13.783
		c-16.931-0.258-34.503-0.389-51.197-2.722"/>
	<path clip-path="url(#SVGID_36_)" fill="#FFFFFF" d="M1160.503,342.571h-58.328c-1.423,0-2.586-1.164-2.586-2.585
		c0-1.423,1.163-2.586,2.586-2.586h58.328c1.423,0,2.586,1.163,2.586,2.586C1163.089,341.407,1161.926,342.571,1160.503,342.571"/>
	<path clip-path="url(#SVGID_36_)" fill="#FFFFFF" d="M1167.867,291.73h-73.057c-3.078,0-5.597-2.519-5.597-5.597
		c0-3.078,2.519-5.596,5.597-5.596h73.057c3.078,0,5.597,2.518,5.597,5.596C1173.464,289.21,1170.945,291.73,1167.867,291.73"/>
	<path clip-path="url(#SVGID_36_)" fill="#FFFFFF" d="M752.239,390.478h-30.234c-4.054,0-7.371-3.317-7.371-7.371v-30.234
		c0-4.054,3.317-7.371,7.371-7.371h30.234c4.054,0,7.371,3.317,7.371,7.371v30.234C759.61,387.161,756.293,390.478,752.239,390.478"
		/>
	<path clip-path="url(#SVGID_36_)" fill="#FFFFFF" d="M818.681,254.614h-30.234c-4.054,0-7.371-3.317-7.371-7.371v-30.234
		c0-4.054,3.317-7.371,7.371-7.371h30.234c4.055,0,7.371,3.317,7.371,7.371v30.234C826.052,251.297,822.735,254.614,818.681,254.614
		"/>
	<path clip-path="url(#SVGID_36_)" fill="#39E5BC" d="M883.813,332.413h-30.233c-4.055,0-7.37-3.317-7.37-7.371v-30.234
		c0-4.054,3.315-7.371,7.37-7.371h30.233c4.055,0,7.371,3.317,7.371,7.371v30.234C891.184,329.096,887.867,332.413,883.813,332.413"
		/>
	<path clip-path="url(#SVGID_36_)" fill="#8AFFE3" d="M620.354,388.93H590.12c-4.054,0-7.371-3.317-7.371-7.371v-30.234
		c0-4.054,3.317-7.371,7.371-7.371h30.234c4.054,0,7.371,3.317,7.371,7.371v30.234C627.725,385.613,624.408,388.93,620.354,388.93"
		/>
	<path clip-path="url(#SVGID_36_)" fill="#39E5BC" d="M1009.987,262.095h-30.233c-4.055,0-7.371-3.317-7.371-7.371V224.49
		c0-4.054,3.316-7.371,7.371-7.371h30.233c4.055,0,7.371,3.317,7.371,7.371v30.234
		C1017.358,258.778,1014.042,262.095,1009.987,262.095"/>
	<path clip-path="url(#SVGID_36_)" fill="#39E5BC" d="M1254.247,345.546h-30.234c-4.054,0-7.371-3.317-7.371-7.371v-30.234
		c0-4.054,3.317-7.371,7.371-7.371h30.234c4.054,0,7.37,3.317,7.37,7.371v30.234C1261.617,342.23,1258.301,345.546,1254.247,345.546
		"/>
	<path clip-path="url(#SVGID_36_)" fill="#8AFFE3" d="M678.145,281.585h-20.242c-0.949,0-1.726-0.777-1.726-1.727
		c0-0.95,0.777-1.727,1.726-1.727h20.242c0.95,0,1.727,0.777,1.727,1.727C679.872,280.808,679.095,281.585,678.145,281.585"/>
	<path clip-path="url(#SVGID_36_)" fill="#8AFFE3" d="M697.792,293.546H677.55c-0.949,0-1.727-0.777-1.727-1.727
		c0-0.95,0.778-1.727,1.727-1.727h20.242c0.95,0,1.727,0.777,1.727,1.727C699.519,292.769,698.742,293.546,697.792,293.546"/>
	<path clip-path="url(#SVGID_36_)" fill="#8AFFE3" d="M1131.636,314.552h-20.241c-0.95,0-1.727-0.777-1.727-1.727
		c0-0.95,0.776-1.727,1.727-1.727h20.241c0.95,0,1.728,0.777,1.728,1.727C1133.363,313.775,1132.586,314.552,1131.636,314.552"/>
	<path clip-path="url(#SVGID_36_)" fill="#8AFFE3" d="M1151.283,326.513h-20.241c-0.95,0-1.728-0.777-1.728-1.727
		c0-0.95,0.777-1.727,1.728-1.727h20.241c0.95,0,1.727,0.777,1.727,1.727C1153.01,325.736,1152.233,326.513,1151.283,326.513"/>
	<path clip-path="url(#SVGID_36_)" fill="#FFFFFF" d="M690.36,588.809L690.36,588.809c-0.708,0.27-1.506-0.092-1.773-0.8
		l-18.889-49.975c-0.266-0.707,0.094-1.505,0.801-1.773c0.709-0.268,1.507,0.092,1.774,0.8l18.887,49.977
		C691.427,587.744,691.068,588.541,690.36,588.809"/>
	<path clip-path="url(#SVGID_36_)" fill="#FFFFFF" d="M659.125,554.473c1.933,0.804,3.857,1.7,5.925,2.036
		c2.272,0.369,4.591,0.042,6.891-0.026c9.568-0.281,19.155,4.25,25.011,11.823c0.77,0.997,1.487,2.056,1.907,3.245
		c0.76,2.156,0.475,4.523,0.183,6.79c-0.743,5.752-2.18,12.48-7.492,14.808c-1.465,0.643-3.089,0.857-4.558,1.495
		c-5.074,2.199-7.819,9.092-13.346,9.269c-1.514-2.758,0.295-6.115,2.175-8.639c1.88-2.522,4.008-5.525,3.076-8.53
		c-0.725-2.334-3.144-3.769-5.541-4.252c-2.396-0.486-4.873-0.243-7.31-0.417c-3.964-0.281-7.84-1.691-11.057-4.021
		c-1.26-0.913-2.425-1.966-3.767-2.749c-3.988-2.333-8.921-2.016-13.534-1.749c-17.792,1.035-36.549-2.313-54.19-4.84
		c-6.611-0.948-12.414,0.422-18.459-2.415c-2.24-1.052-4.536-2.497-5.389-4.82c-1.115-3.042,0.622-6.32,2.298-9.091
		c1.943-3.211,3.921-6.466,6.656-9.034c4.596-4.316,11.244-6.341,17.465-5.321c3.065,0.503,5.972,1.688,8.992,2.411
		c4.974,1.192,9.917,0.453,14.887,1.119c5.153,0.689,10.319,2.885,15.411,4.045C636.7,548.193,648.323,549.979,659.125,554.473"/>
</g>
<g>
	<defs>
		<path id="SVGID_37_" d="M575.407,539.145c-2.511,0.948-4.844,2.371-6.802,4.211c-2.737,2.568-4.714,5.823-6.657,9.034
			c-1.676,2.771-3.412,6.049-2.297,9.092c0.854,2.321,3.149,3.768,5.389,4.819c6.045,2.837,11.847,1.467,18.458,2.415
			c17.642,2.527,36.398,5.874,54.191,4.84c4.613-0.267,9.545-0.585,13.534,1.749c1.342,0.783,2.506,1.837,3.765,2.747
			c3.218,2.332,7.094,3.741,11.057,4.023c2.439,0.173,4.917-0.069,7.312,0.416c2.396,0.484,4.815,1.918,5.54,4.251
			c0.933,3.006-1.194,6.008-3.075,8.531c-1.88,2.523-3.69,5.88-2.176,8.639c5.526-0.176,8.272-7.069,13.346-9.269
			c0.729-0.315,1.497-0.526,2.263-0.739c0.779-0.215,1.557-0.432,2.295-0.756c5.313-2.327,6.749-9.055,7.493-14.808
			c0.291-2.268,0.577-4.633-0.184-6.79c-0.419-1.189-1.136-2.247-1.906-3.246c-5.857-7.571-15.442-12.103-25.011-11.822
			c-2.301,0.067-4.62,0.395-6.892,0.026c-2.067-0.335-3.992-1.232-5.924-2.035c-10.802-4.495-22.425-6.281-33.766-8.865
			c-5.094-1.161-10.26-3.355-15.412-4.043c-4.97-0.667-9.913,0.072-14.887-1.119c-3.019-0.724-5.926-1.909-8.99-2.412
			c-1.065-0.174-2.143-0.26-3.22-0.26C580.316,537.775,577.781,538.248,575.407,539.145"/>
	</defs>
	<clipPath id="SVGID_38_">
		<use xlink:href="#SVGID_37_"  overflow="visible"/>
	</clipPath>
	<path clip-path="url(#SVGID_38_)" fill="#D5FDFD" d="M646.869,570.33c2.288-0.054,4.658-0.093,6.762,0.811
		c1.184,0.509,2.224,1.294,3.281,2.032c2.338,1.631,4.869,3.084,7.658,3.68c3.331,0.709,6.827,0.154,10.173,0.795
		c4.401,0.844,8.202,3.721,11.025,7.202c2.824,3.479,4.791,7.559,6.733,11.597c0.359,0.746,0.727,1.582,0.491,2.375
		c-0.274,0.92-1.244,1.418-2.118,1.814c-5.49,2.484-10.982,4.968-16.472,7.453c-1.501,0.68-3.13,1.375-4.746,1.052
		c-1.565-0.316-2.779-1.522-3.845-2.711c-4.023-4.48-7.403-9.536-10.008-14.965c-0.763-1.59-1.492-3.258-2.782-4.461
		c-1.344-1.255-3.152-1.863-4.908-2.409c-9.331-2.888-18.942-4.872-28.655-5.918c-2.173-0.234-4.467-0.462-6.239-1.741
		c-1.669-1.204-2.98-3.522-3.334-5.548c-0.469-2.677,1.183-3.133,3.585-4.297c2.739-1.329,5.228-1.88,8.169-0.927
		c3.743,1.21,6.719,3.801,10.731,4.288C637.099,571.025,642.118,570.441,646.869,570.33"/>
</g>
<g>
	<defs>
		<rect id="SVGID_39_" width="1600" height="1168"/>
	</defs>
	<clipPath id="SVGID_40_">
		<use xlink:href="#SVGID_39_"  overflow="visible"/>
	</clipPath>
	<path clip-path="url(#SVGID_40_)" fill="#5DB4B3" d="M457.794,510.652c5.967,14.396,19.245,28.944,31.557,38.498
		c12.181,9.453,28.175,12.026,43.426,14.292l49.115,7.296c11.243,1.672,26.983,7.909,37.616,3.891
		c8.126-3.071,11.169-15.274,12.417-23.497c0.626-4.113-2.098-7.992-6.171-8.834l-87.682-18.151
		c-6.925-1.433-14.155-3.011-19.582-7.544c-7.378-6.164-9.758-16.28-12.336-25.541c-6.166-22.157-15.834-43.335-28.533-62.51
		c-8.156-12.315-20.209-25.791-36.651-22.325c-11.128,2.346-15.235,9.438-12.706,19.953c2.796,11.627,3.967,23.157,8.662,34.119
		C444.08,476.995,450.84,493.871,457.794,510.652"/>
</g>
<g>
	<defs>
		<path id="SVGID_41_" d="M440.969,406.227c-1.414,0.298-2.714,0.673-3.902,1.122c-8.161,3.081-11.011,9.651-8.803,18.831
			c2.796,11.627,3.966,23.156,8.663,34.119c7.153,16.696,13.913,33.573,20.867,50.352c5.966,14.397,19.245,28.946,31.556,38.5
			c12.182,9.452,28.177,12.026,43.427,14.29l49.114,7.296c11.245,1.672,26.984,7.911,37.618,3.892
			c8.125-3.07,11.168-15.273,12.417-23.498c0.625-4.112-2.099-7.99-6.172-8.834l-87.684-18.151
			c-6.922-1.432-14.154-3.01-19.58-7.543c-7.377-6.164-9.759-16.28-12.336-25.542c-6.166-22.156-15.833-43.334-28.533-62.508
			c-7.271-10.978-17.638-22.878-31.45-22.879C444.487,405.673,442.755,405.85,440.969,406.227"/>
	</defs>
	<clipPath id="SVGID_42_">
		<use xlink:href="#SVGID_41_"  overflow="visible"/>
	</clipPath>
	<path clip-path="url(#SVGID_42_)" fill="#84DBDB" d="M458.026,525.335c8.55,14.407,24.186,24.37,40.858,26.032
		c15.948,1.589,32.347-3.958,47.898-0.078c9.355,2.332,17.679,7.941,27.104,9.968c8.997,1.937,18.325,0.484,27.524,0.305
		c9.2-0.178,19.261,1.172,25.858,7.587c2.662,2.588,4.489,5.918,6.294,9.162c0.599,1.077,1.197,2.188,1.397,3.403
		c0.647,3.958-3.019,7.278-6.628,9.023c-7.951,3.847-17.117,4.187-25.943,3.817c-8.738-0.362-17.437-1.348-26.118-2.394
		c-24.169-2.92-48.396-6.368-71.673-13.5c-7.356-2.254-14.711-4.927-20.963-9.413c-11.445-8.214-18.235-22.512-17.37-36.572"/>
</g>
<g>
	<defs>
		<rect id="SVGID_43_" width="1600" height="1168"/>
	</defs>
	<clipPath id="SVGID_44_">
		<use xlink:href="#SVGID_43_"  overflow="visible"/>
	</clipPath>
	<path clip-path="url(#SVGID_44_)" fill="#5DB4B3" d="M533.611,304.315c-2.967-5.976-8.441-10.806-14.929-12.362
		c-6.488-1.556-13.865,0.456-18.204,5.524c-4.34,5.068-5.075,13.094-1.231,18.548c2.142,3.04,5.438,5.145,7.462,8.266
		c2.279,3.515,2.662,8.185,0.985,12.024c-1.394,3.192-4.177,5.73-7.447,6.906c-1.132,0.407-2.397-0.019-3.035-1.039l-6.387-10.2
		c-0.759-1.213-1.674-2.548-3.427-2.228c-0.859,0.158-1.594,0.707-2.133,1.393c-2.322,2.953-3.058,7.051-1.97,10.636
		c1.105,3.643,3.983,6.849,3.809,10.653c-0.121,2.63-1.702,4.938-3.225,7.086c-4.151,5.851-6.773,14.234-10.923,20.085
		c-5.865-14.844-11.746-32.816-14.499-48.539c-1.471-8.402-2.47-17.151-0.202-25.375c1.556-5.641,4.576-10.751,7.563-15.784
		c2.838-4.784,5.782-9.689,10.192-13.078c5.51-4.233,12.715-5.619,19.661-5.785c8.023-0.192,16.139,1.099,23.497,4.304
		c8.93,3.891,16.602,10.61,21.637,18.948c1.906,3.156,3.465,6.626,3.717,10.304c0.182,2.667-0.553,9.224-4.376,8.816
		C536.807,313.062,534.826,306.762,533.611,304.315"/>
	<path clip-path="url(#SVGID_44_)" fill="#519D9D" d="M522.223,409.706c0.971-0.355,2.058-0.754,3.003-0.333
		c0.678,0.302,1.115,0.963,1.493,1.602c4.111,6.948,5.671,15.169,5.74,23.242c0.07,8.073-1.274,16.084-2.613,24.046
		c-4.263-3.35-6.882-8.315-10.319-12.509c-3.503-4.274-7.864-7.749-12.205-11.169c-4.341-3.42-8.73-6.85-12.313-11.058
		c-3.582-4.208-6.346-9.306-6.853-14.809c-0.067-0.722-0.091-1.473,0.17-2.151c0.26-0.676,0.869-1.266,1.593-1.298
		c1.795-0.078,2.381,2.569,3.936,3.178c1.689,0.661,3.699,1.055,5.454,1.624c4.702,1.524,9.726,2.044,14.642,1.535
		C516.771,411.314,519.559,410.682,522.223,409.706"/>
	<path clip-path="url(#SVGID_44_)" fill="#3E787A" d="M464.52,402.177c-0.794,2.573-1.543,5.368-0.651,7.909
		c1.369,3.9,5.875,5.535,9.817,6.781c3.188,1.007,6.416,2.109,9.103,4.1c2.686,1.99,4.792,5.036,4.853,8.379
		c0.065,3.55-2.111,6.918-2.997,10.301c-0.605,2.309,0.782,4.69,3.06,5.405c16.82,5.279,29.137,1.403,42.17,13.275
		c-14.624-26.942-27.365-40.24-44.801-65.454c-3.091-4.468-6.971-11.081-12.11-13.266
		C468.932,386.148,466.787,394.841,464.52,402.177"/>
	<path clip-path="url(#SVGID_44_)" fill="#3E787A" d="M467.345,578.494c1.958,0.197,3.912-0.288,5.873-0.455
		c7.502-0.638,14.556,3.339,21.949,4.766c2.021,0.39,4.164,0.58,6.096-0.13c3.194-1.174,4.907-4.343,6.052-7.678
		c0.499-1.453-0.442-2.999-1.967-3.184c-10.475-1.276-20.946-2.607-31.43-3.798c-3.488-0.395-5.679-1.154-8.528,1.256
		C461.719,572.377,461.837,577.941,467.345,578.494"/>
	<path clip-path="url(#SVGID_44_)" fill="none" stroke="#519D9D" stroke-width="14" stroke-miterlimit="10" d="M1309.679,883.87
		H917.935c-34.874,0-63.407-28.533-63.407-63.406V702.668c0-34.874,28.533-63.407,63.407-63.407h381.245
		c34.873,0,63.406,28.533,63.406,63.407v128.295C1362.586,860.062,1338.778,883.87,1309.679,883.87z"/>
	<path clip-path="url(#SVGID_44_)" fill="#8AFFE3" d="M835.965,557.131c7.815-30.281,21.587-59.706,43.938-81.579
		c32.25-31.56,78.301-44.034,122.681-52.195c48.907-8.994,99.058-14.214,148.37-7.792c49.313,6.421,98.032,25.226,134.221,59.334
		c45.792,43.16,67.153,105.524,86.893,165.274c1.854,5.609,3.574,12.24,0.12,17.034c-2.725,3.783-7.726,4.988-12.296,5.908
		c-117.892,23.705-238.138,35.69-358.39,35.717c-21.113,0.005-42.362-0.371-63.083-4.426c-18.329-3.588-35.967-10-53.517-16.387
		c-18.538-6.747-58.699-11.427-60.612-35.485C822.133,615.42,829.433,583.259,835.965,557.131"/>
	<path clip-path="url(#SVGID_44_)" fill="#39E5BC" d="M1348.877,719.44H868.236c-29.149,0-53-23.85-53-53c0-29.148,23.851-53,53-53
		h480.641c29.15,0,53,23.852,53,53C1401.877,695.59,1378.027,719.44,1348.877,719.44"/>
	<path clip-path="url(#SVGID_44_)" fill="#519D9D" d="M902.638,649.639c-0.643,4.547,3.335,23.313,7.684,28.744
		c6.673,8.333,0,0,5.721,2.452c30.693,13.159,43.856-9.497,60.983-7.146c17.189,2.36,18.883-4.088,33.883-3.465
		c7.861,0.327,14.805,15.412,22.393,13.334c7.588-2.079,15.06-7.336,18.949-22.309c1.772-6.824,1.188-20.856-1.739-27.271
		c-7.2-15.777-27.82-21.944-44.948-24.668c-17.128-2.723-30.729-2.922-47.163,2.621c-7.646,2.579-15.592,5.843-23.795,5.677
		c-4.624-0.095-16.822,3.81-20.469,6.771C901.718,634.464,904.201,638.566,902.638,649.639"/>
	<path clip-path="url(#SVGID_44_)" fill="#5DB4B3" d="M893.674,435.702c-4.859,29.843,2.771,60.221,11.695,89.11
		c8.925,28.889,19.308,57.902,20.111,88.128c0.186,6.975,0.37,15.079,5.938,19.283c3.64,2.749,8.547,2.916,13.107,2.97
		c22.057,0.26,44.113,0.52,66.169,0.78c5.918,0.07,12.309-0.006,17.06-3.533c8.123-6.03,7.143-18.176,6.272-28.256
		c-4.482-51.933,16.072-102.497,22.293-154.25c1.1-9.137,3.213-13.329-2.924-20.186c-5.069-5.665-14.941-11.863-22.469-14.648
		c-21.243-7.859-50.531-9.528-73.017-5.104c-10.425,2.051-21.064,6.47-30.935,10.299
		C922.462,422.045,894.428,431.073,893.674,435.702"/>
</g>
<g>
	<defs>
		<path id="SVGID_45_" d="M957.911,409.995c-10.423,2.051-21.064,6.47-30.935,10.299c-4.514,1.751-32.548,10.78-33.302,15.408
			c-4.858,29.844,2.771,60.221,11.695,89.11c8.925,28.889,19.308,57.902,20.112,88.128c0.185,6.975,0.369,15.079,5.938,19.284
			c3.64,2.747,8.546,2.915,13.108,2.97c22.056,0.259,44.111,0.519,66.169,0.779c5.917,0.07,12.308-0.006,17.059-3.532
			c8.122-6.031,7.142-18.176,6.272-28.257c-4.482-51.933,16.071-102.497,22.294-154.25c1.099-9.137,3.212-13.329-2.925-20.186
			c-5.069-5.664-14.941-11.863-22.47-14.648c-13.552-5.014-30.381-7.509-46.627-7.509
			C975.081,407.59,966.051,408.393,957.911,409.995"/>
	</defs>
	<clipPath id="SVGID_46_">
		<use xlink:href="#SVGID_45_"  overflow="visible"/>
	</clipPath>
	<path clip-path="url(#SVGID_46_)" fill="#84DBDB" d="M954.942,670.472c-11.41-14.672-18.958-32.321-21.687-50.706
		c-2.558-17.243-0.937-34.864-2.923-52.183c-1.986-17.319-8.505-35.418-22.967-45.152c-5.589-3.761-13.733-5.798-18.646-1.188
		c-2.639,2.475-3.589,6.214-4.363,9.747c-4.767,21.726-7.535,43.89-8.259,66.121c-0.456,13.998,0.008,28.518,6.018,41.169
		c8.992,18.927,28.53,30.185,47.163,39.771c6.007,3.09,12.245,6.188,18.982,6.666c6.738,0.478,14.166-2.307,17.183-8.352
		c3.016-6.045-0.661-14.974-7.395-15.516"/>
</g>
<g>
	<defs>
		<rect id="SVGID_47_" width="1600" height="1168"/>
	</defs>
	<clipPath id="SVGID_48_">
		<use xlink:href="#SVGID_47_"  overflow="visible"/>
	</clipPath>
	<path clip-path="url(#SVGID_48_)" fill="#FFFFFF" d="M945.977,415.53c-1.402,1.625-1.749,3.9-0.821,5.835
		c4.986,10.401,14.027,19.024,25.137,21.96c12.297,3.249,26.794-1.541,33.292-12.476c1.058-1.779,1.92-3.777,1.815-5.845
		c-0.127-2.487-1.608-4.663-2.878-6.806c-3.863-6.517-6.144-13.964-6.596-21.528c-0.082-1.362-0.17-2.88-1.161-3.818
		c-0.835-0.79-2.075-0.93-3.221-1.016c-5.662-0.425-11.349-0.506-17.021-0.247c-2.948,0.134-5.893,0.361-8.828,0.68
		c-2.101,0.228-6.99,0.022-8.712,1.268c-2.485,1.799-3.185,9.205-4.631,12.228C950.67,409.282,948.523,412.578,945.977,415.53"/>
	<path clip-path="url(#SVGID_48_)" fill="#FFFFFF" d="M933.359,345c-3.754,3.672-3.198,10.037-0.671,14.64
		c2.526,4.602,5.346,16.297,8.395,20.572c5.307,7.438,7.698,17.197,14.977,22.721c5.077,3.852,11.713,4.941,18.079,5.251
		c6.273,0.305,12.849-0.101,18.307-3.208c5.862-3.339,9.692-9.384,12.313-15.601c1.93-4.577,3.377-9.448,6.331-13.44
		c3.469-4.689,4.161-9.958,6.369-15.356c2.091-5.111,4.084-13.172-0.916-10.922c-1.571,0.707-2.846-1.982-4.011-3.252
		c-1.92-2.095-0.618-7.206-0.948-10.028c-0.425-3.63-0.385-7.324-1.176-10.893c-0.791-3.568-2.579-7.129-5.727-8.987
		c-2.848-1.682-6.334-1.729-9.641-1.731c-4.258-0.002-8.516-0.003-12.772-0.005c-12.968-0.006-27.194,0.44-36.923,9.013
		c-4.538,3.999-7.481,9.627-8.541,15.554c-0.54,3.016-0.602,6.12-0.131,9.15C937.587,354.338,938.219,343.624,933.359,345"/>
	<path clip-path="url(#SVGID_48_)" fill="#386362" d="M943.631,341.963c8.601-0.511,21.35-13.343,23.983-9.265
		c0.001,0.002,0.002,0.001,0.004,0.001c0.603,1.354,0.48,2.954-0.134,4.293c-0.58,1.265,0.438,2.695,1.829,2.68l17.689-0.187
		c2.381-0.025,4.888-0.086,6.935-1.393c2.047-1.306,3.354-4.317,2.127-6.506c-0.001-0.002,0.002-0.004,0.004-0.004
		c4.486,0.403,3.858,1.509,8.35,1.913c2.221,0.199,5.003,0.918,5.378,3.279c0.25,1.574-0.777,3.006-1.601,4.336
		c-3.035,4.903,1.267,10.381,1.771,16.245c0.505,5.863,0.709,10.986,2.426,16.577h0.002c3.814-3.793,6.644-9.122,7.266-14.667
		c0.623-5.547,0.792-11.31,3.027-16.354c1.284-2.899,3.284-5.883,2.558-8.998c-0.877-3.757-5.275-5.471-6.451-9.132
		c-0.95-2.96,0.348-6.782-1.688-9.021c-1.289-1.419-3.344-1.483-5.175-1.733c-4.284-0.585-8.301-2.676-11.785-5.419
		c-3.962-3.12-8.011-7.347-12.893-6.764c-2.612,0.312-4.916,2.011-7.495,2.553c-5.586,1.174-11.148-3.222-16.78-2.341
		c-3.392,0.531-6.243,2.887-9.198,4.752c-4.994,3.153-10.679,5.006-16.454,5.448c-2.099,0.161-3.44,2.165-2.964,4.214
		c0.007,0.03,0.014,0.06,0.021,0.091c0.422,1.993-0.551,3.99-1.49,5.768c-2.686,5.086-5.371,10.172-8.057,15.258
		c-0.333,0.63-0.668,1.419-0.32,2.041c0.37,0.658,1.229,0.664,1.924,0.845c1.643,0.43,2.726,2.195,3.069,3.974
		c0.344,1.779,0.113,3.62,0.054,5.435c-0.101,3.058,1.228,10.712,3.405,14.951c0.001,0,3.649,5.006,3.65,5.005
		c0.216-7.135,2.131-19.301,4.585-26.042C941.579,342.761,942.532,342.028,943.631,341.963"/>
	<path clip-path="url(#SVGID_48_)" fill="#84DBDB" d="M1015.144,504.794c0,19.48-15.792,35.272-35.273,35.272
		c-19.481,0-35.272-15.792-35.272-35.272c0-19.48,15.791-35.272,35.272-35.272C999.352,469.522,1015.144,485.314,1015.144,504.794"
		/>
	<path clip-path="url(#SVGID_48_)" fill="#84DBDB" d="M909.842,905.416c0.166-6.202,2.932-12.294,7.492-16.501
		c0.408-0.376,0.904-0.762,1.453-0.688c0.811,0.11,1.139,1.085,1.287,1.891c1.039,5.646,1.69,11.362,1.942,17.098
		c0.144,3.283-0.398,14.339-6.158,13.511C911.227,920.062,909.748,908.895,909.842,905.416"/>
	<path clip-path="url(#SVGID_48_)" fill="#84DBDB" d="M1046.301,908.071c-0.165-6.203-2.932-12.295-7.492-16.501
		c-0.407-0.376-0.904-0.762-1.453-0.688c-0.811,0.109-1.139,1.086-1.287,1.89c-1.04,5.646-1.689,11.363-1.942,17.099
		c-0.145,3.283,0.399,14.338,6.157,13.511C1044.916,922.716,1046.395,911.549,1046.301,908.071"/>
	<path clip-path="url(#SVGID_48_)" fill="#FFFFFF" d="M955.388,915.409h-40.893l0.672-43.576L938,873.25
		c1.554,0.306,3.178-9.473,4.75-9.281c7.813,0.948,11.917-32.823,11.917,32.864L955.388,915.409z"/>
</g>
<g>
	<defs>
		<path id="SVGID_49_" d="M948.063,860.056c-1.519,2.08-3.291,4.159-5.313,3.913c-0.782-0.094-1.577,2.275-2.369,4.644
			c-0.801,2.396-1.6,4.792-2.381,4.638l-22.833-1.417l-0.672,43.577h40.893l-0.721-18.577c0-32.616-1.012-40.71-2.987-40.71
			C950.706,856.123,949.498,858.09,948.063,860.056"/>
	</defs>
	<clipPath id="SVGID_50_">
		<use xlink:href="#SVGID_49_"  overflow="visible"/>
	</clipPath>
	<path clip-path="url(#SVGID_50_)" fill="#D5FDFD" d="M948.693,898.771c-4.145-12.56-5.914-26.013-4.136-39.118
		c0.442-3.255,1.147-6.592,3.057-9.265c1.91-2.673,5.304-4.523,8.493-3.737c2.607,0.643,4.575,2.901,5.575,5.393
		c1,2.493,1.189,5.226,1.364,7.905c1.163,17.618,2.326,35.237,3.488,52.855c0.277,4.205,1.989,10.823,0.798,14.854
		c-1.786,6.042-5.625-1.606-6.903-3.734C955.658,915.979,951.6,907.58,948.693,898.771"/>
</g>
<g>
	<defs>
		<rect id="SVGID_51_" width="1600" height="1168"/>
	</defs>
	<clipPath id="SVGID_52_">
		<use xlink:href="#SVGID_51_"  overflow="visible"/>
	</clipPath>
	<path clip-path="url(#SVGID_52_)" fill="#5DB4B3" d="M917.033,881.637c-2.686,0-4.877-2.149-4.928-4.834l-0.306-111.67
		l-3.962-110.271c0-15.803,12.93-28.732,28.732-28.732c15.803,0,28.732,12.93,28.732,28.732l-6.274,117.805l-1.188,104.306
		c-0.087,2.6-2.221,4.664-4.823,4.664H917.033z"/>
</g>
<g>
	<defs>
		<path id="SVGID_53_" d="M907.838,654.862l3.962,110.271l0.306,111.669c0.051,2.685,2.242,4.835,4.928,4.835h35.983
			c2.603,0,4.737-2.064,4.824-4.665l1.188-104.305l6.274-117.805c0-15.804-12.93-28.732-28.731-28.732
			C920.768,626.13,907.838,639.059,907.838,654.862"/>
	</defs>
	<clipPath id="SVGID_54_">
		<use xlink:href="#SVGID_53_"  overflow="visible"/>
	</clipPath>
	<path clip-path="url(#SVGID_54_)" fill="#519D9D" d="M917.055,695.568c8.401-2.578,17.304-2.896,26.087-3.194
		c9.925-0.337,21.415,6.409,28.97,12.855c5.703-10.277,2.57-29.652,2.804-41.403c0.14-6.958,1.327-13.858,1.555-20.814
		c0.227-6.955-0.595-14.185-4.139-20.173c-6.519-11.017-20.291-15.111-32.915-17.229c-6.728-1.129-13.858-1.922-20.187,0.626
		c-5.715,2.301-10.039,7.033-14.155,11.616c-4.182,4.655-8.401,9.363-11.43,14.839c-6.184,11.182-6.875,24.616-5.537,37.324
		c0.589,5.592,1.546,11.134,2.51,16.671c0.768,4.406,0.721,10.52,3.854,14.053C900.692,707.754,910.46,697.593,917.055,695.568"/>
</g>
<g>
	<defs>
		<rect id="SVGID_55_" width="1600" height="1168"/>
	</defs>
	<clipPath id="SVGID_56_">
		<use xlink:href="#SVGID_55_"  overflow="visible"/>
	</clipPath>
	<path clip-path="url(#SVGID_56_)" fill="#FFFFFF" d="M907.132,642.665c-0.34,5.712,4.2,10.504,8.862,13.821
		c4.66,3.317,9.229,7.337,14.095,10.348c4.369,2.704,8.146,5.836,12.297,7.607c4.996,2.133,12.379,2.765,17.234-0.448
		c3.956-2.617,5.34-5.406,5.853-11.205c0.42-4.742-4.069-9.696-8.05-12.8c-2.421-1.887-4.239-4.38-6.945-5.827
		c-10.708-5.727-22.184-10.017-34.022-12.716c-3.747-0.854-8.408-1.241-10.717,1.834c-1.735,2.314-1.217,5.732,0.437,8.106
		c1.653,2.374,4.2,3.942,6.674,5.442"/>
	<path clip-path="url(#SVGID_56_)" fill="#5DB4B3" d="M881.566,583.018c-1.882-2.666-3.819-5.624-4.104-9.21
		c-0.28-3.518,1.091-6.864,2.42-9.957c3.475-8.089,6.962-16.205,11.233-23.631c4.786-8.32,10.576-15.824,14.049-25.166
		c3.607-9.705,4.447-20.68,5.234-31.396c1.215-16.541-8.421-35.828-13.702-50.981c-15.898,8.004-20.536,36.528-30.134,59.932
		c-9.597,23.403-15.335,49.137-19.468,75.073c-1.126,7.063-2.117,14.549-0.263,21.35c1.779,6.523,5.911,11.435,9.893,16.063
		c17.908,20.817,36.479,44.695,59.931,51.869c2.19-6.659,4.817-15.953,4.452-23.173c-0.668-13.217-9.978-14.683-16.408-21.799
		C896.537,602.959,888.806,593.277,881.566,583.018"/>
</g>
<g>
	<defs>
		<path id="SVGID_57_" d="M866.563,492.609c-9.597,23.403-15.334,49.137-19.468,75.073c-1.126,7.062-2.116,14.549-0.262,21.349
			c1.78,6.523,5.911,11.434,9.892,16.063c17.908,20.817,36.481,44.695,59.932,51.869c2.19-6.659,4.817-15.953,4.453-23.173
			c-0.668-13.217-9.978-14.683-16.409-21.799c-8.163-9.032-15.895-18.714-23.134-28.973c-1.883-2.666-3.819-5.624-4.105-9.211
			c-0.28-3.518,1.092-6.864,2.421-9.956c3.475-8.089,6.962-16.206,11.233-23.632c4.786-8.319,10.576-15.823,14.049-25.164
			c3.607-9.705,4.447-20.68,5.234-31.396c1.216-16.541-8.421-35.828-13.702-50.981C880.798,440.68,876.161,469.205,866.563,492.609"
			/>
	</defs>
	<clipPath id="SVGID_58_">
		<use xlink:href="#SVGID_57_"  overflow="visible"/>
	</clipPath>
	<path clip-path="url(#SVGID_58_)" fill="#84DBDB" d="M914.471,628.067c-8.555-6.096-18.2-11.408-25.009-20.454
		c-3.607-4.794-7.897-8.641-11.677-13.208c-3.779-4.566-7.143-10.139-8.104-16.705c-0.893-6.103,0.378-12.362,1.806-18.294
		c3.3-13.708,7.576-27.241,14.358-38.619c6.781-11.378,16.317-20.5,27.243-23.19c3.689,7.539,1.534,17.5,3.203,26.155
		c1.31,6.797,4.903,12.411,7.469,18.583c8.663,20.837,5.254,46.753,11.442,69.009c1.102,3.963,2.53,8.022,2.11,12.198
		c-0.678,6.729-6.618,13.816-10.431,18.031c-2.825,3.123,3.755-1.121,0.76-3.007C924.289,636.456,917.747,630.402,914.471,628.067"
		/>
</g>
<g>
	<defs>
		<rect id="SVGID_59_" width="1600" height="1168"/>
	</defs>
	<clipPath id="SVGID_60_">
		<use xlink:href="#SVGID_59_"  overflow="visible"/>
	</clipPath>
	<polygon clip-path="url(#SVGID_60_)" fill="#FFFFFF" points="1042.198,915.409 1001.306,915.409 999.009,860.833 1044.496,860.833 
			"/>
</g>
<g>
	<defs>
		<polygon id="SVGID_61_" points="999.009,860.833 1001.306,915.41 1042.198,915.41 1044.496,860.833 		"/>
	</defs>
	<clipPath id="SVGID_62_">
		<use xlink:href="#SVGID_61_"  overflow="visible"/>
	</clipPath>
	<path clip-path="url(#SVGID_62_)" fill="#D5FDFD" d="M1059.492,936.301c-6.075-4.049-12.406-8.377-15.72-14.883
		c-2.14-4.2-2.831-8.969-3.398-13.648c-2.241-18.488-3.026-37.153-2.344-55.765c5.305,1.609,9.223,5.046,12.223,9.706
		c3.001,4.66,4.858,9.948,6.677,15.185c5.416,15.59,10.791,31.651,10.183,48.144c-0.11,3.001-0.479,6.158-2.258,8.576
		C1063.076,936.035,1061.991,937.965,1059.492,936.301"/>
</g>
<g>
	<defs>
		<rect id="SVGID_63_" width="1600" height="1168"/>
	</defs>
	<clipPath id="SVGID_64_">
		<use xlink:href="#SVGID_63_"  overflow="visible"/>
	</clipPath>
	<path clip-path="url(#SVGID_64_)" fill="#5DB4B3" d="M1004.953,881.637c-3.315,0-6.033-2.627-6.147-5.94L996.667,771l-5.37-116.138
		c0-15.803,12.93-28.732,28.732-28.732c15.803,0,28.732,12.93,28.732,28.732l-4.266,112.937l0.085,109.314
		c-0.048,2.512-2.098,4.523-4.61,4.523H1004.953z"/>
</g>
<g>
	<defs>
		<path id="SVGID_65_" d="M991.297,654.862L996.667,771l2.14,104.696c0.113,3.314,2.831,5.94,6.147,5.94h35.018
			c2.514,0,4.563-2.012,4.61-4.522l-0.085-109.315l4.266-112.937c0-15.804-12.93-28.732-28.732-28.732
			C1004.226,626.13,991.297,639.059,991.297,654.862"/>
	</defs>
	<clipPath id="SVGID_66_">
		<use xlink:href="#SVGID_65_"  overflow="visible"/>
	</clipPath>
	<path clip-path="url(#SVGID_66_)" fill="#519D9D" d="M1059.387,709.239c2.023-5.891,1.325-12.384-0.229-18.416
		c-1.553-6.032-3.929-11.839-5.271-17.921c-3.037-13.773-1.063-29.537-9.786-40.619c-6.757-8.584-18.102-11.816-28.675-14.56
		c-4.959-1.288-10.499-2.512-14.979-0.023c-3.631,2.019-5.636,5.998-7.429,9.746c-9.943,20.783-20.142,42.973-17.548,65.866
		c0.545,4.811,1.868,12.282,7.707,12.963c5.089,0.593,11.625-3.548,16.511-4.771c12.904-3.234,26.601-3.265,39.53-0.147
		C1041.063,701.801,1059.936,707.643,1059.387,709.239"/>
</g>
<g>
	<defs>
		<rect id="SVGID_67_" width="1600" height="1168"/>
	</defs>
	<clipPath id="SVGID_68_">
		<use xlink:href="#SVGID_67_"  overflow="visible"/>
	</clipPath>
	<path clip-path="url(#SVGID_68_)" fill="#FFFFFF" d="M923.426,634.419c8.588,1.958,20.403,1.616,29.187,0.944
		c1.317-0.102,2.673-0.228,3.935,0.164c1.261,0.393,2.419,1.453,2.479,2.772c0.077,1.699-1.566,2.935-3.099,3.675
		c-3.756,1.815-7.988,2.633-12.15,2.345"/>
	<path clip-path="url(#SVGID_68_)" fill="#FFFFFF" d="M1045.554,642.665c0.34,5.712-4.2,10.504-8.862,13.821
		c-4.661,3.317-9.23,7.337-14.096,10.348c-4.369,2.704-8.146,5.836-12.296,7.607c-4.997,2.133-12.379,2.765-17.234-0.448
		c-3.956-2.617-5.34-5.406-5.854-11.205c-0.42-4.742,4.068-9.696,8.051-12.8c2.42-1.887,4.239-4.38,6.945-5.827
		c10.708-5.727,22.184-10.017,34.022-12.716c3.747-0.854,8.408-1.241,10.716,1.834c1.736,2.314,1.216,5.732-0.436,8.106
		c-1.653,2.374-4.2,3.942-6.674,5.442"/>
	<path clip-path="url(#SVGID_68_)" fill="#5DB4B3" d="M1071.119,583.018c1.881-2.666,3.819-5.624,4.104-9.21
		c0.28-3.518-1.092-6.864-2.42-9.957c-3.475-8.089-6.963-16.205-11.234-23.631c-4.785-8.32-10.575-15.824-14.049-25.166
		c-3.606-9.705-4.447-20.68-5.233-31.396c-1.215-16.541,7.873-36.126,13.154-51.28c7.354,11.443,21.084,36.827,30.681,60.231
		c9.598,23.403,15.336,49.137,19.469,75.073c1.125,7.063,2.117,14.549,0.262,21.35c-1.778,6.523-5.91,11.435-9.892,16.063
		c-17.909,20.817-36.479,44.695-59.931,51.869c-2.191-6.659-4.818-15.953-4.453-23.173c0.669-13.217,9.978-14.683,16.409-21.799
		C1056.148,602.959,1063.88,593.277,1071.119,583.018"/>
</g>
<g>
	<defs>
		<path id="SVGID_69_" d="M1042.286,483.658c0.786,10.716,1.627,21.691,5.235,31.396c3.472,9.342,9.263,16.846,14.047,25.164
			c4.271,7.426,7.76,15.544,11.234,23.632c1.328,3.092,2.7,6.438,2.421,9.956c-0.286,3.587-2.224,6.545-4.104,9.211
			c-7.239,10.259-14.971,19.941-23.134,28.973c-6.432,7.116-15.74,8.582-16.409,21.799c-0.365,7.22,2.262,16.514,4.454,23.173
			c23.45-7.174,42.021-31.053,59.93-51.869c3.981-4.629,8.113-9.539,9.892-16.063c1.855-6.8,0.863-14.287-0.262-21.349
			c-4.133-25.936-9.871-51.67-19.469-75.073c-9.597-23.404-23.327-48.789-30.68-60.231
			C1050.16,447.531,1041.071,467.117,1042.286,483.658"/>
	</defs>
	<clipPath id="SVGID_70_">
		<use xlink:href="#SVGID_69_"  overflow="visible"/>
	</clipPath>
	<path clip-path="url(#SVGID_70_)" fill="#84DBDB" d="M1038.215,628.067c8.555-6.096,18.2-11.408,25.009-20.454
		c3.607-4.794,7.896-8.641,11.676-13.208c3.779-4.566,7.144-10.139,8.104-16.705c0.893-6.103-0.378-12.362-1.807-18.294
		c-3.299-13.708-7.576-27.241-14.357-38.619c-6.782-11.378-16.317-20.5-27.243-23.19c-3.69,7.539-1.534,17.5-3.203,26.155
		c-1.311,6.797-4.903,12.411-7.47,18.583c-8.662,20.837-5.253,46.753-11.441,69.009c-1.103,3.963-2.53,8.022-2.11,12.198
		c0.678,6.729,6.618,13.816,10.431,18.031c2.825,3.123-3.755-1.121-0.76-3.007C1028.396,636.456,1034.938,630.402,1038.215,628.067"
		/>
</g>
<g>
	<defs>
		<rect id="SVGID_71_" width="1600" height="1168"/>
	</defs>
	<clipPath id="SVGID_72_">
		<use xlink:href="#SVGID_71_"  overflow="visible"/>
	</clipPath>
	<path clip-path="url(#SVGID_72_)" fill="#FFFFFF" d="M1029.26,634.419c-8.588,1.958-20.403,1.616-29.187,0.944
		c-1.316-0.102-2.672-0.228-3.934,0.164c-1.262,0.393-2.419,1.453-2.479,2.772c-0.077,1.699,1.566,2.935,3.098,3.675
		c3.757,1.815,7.989,2.633,12.15,2.345"/>
	<path clip-path="url(#SVGID_72_)" fill="#84DBDB" d="M957.842,915.409c0,8.695-10.307,15.745-23.022,15.745
		c-12.714,0-23.02-7.05-23.02-15.745c0-8.695,14.307-19.744,27.02-19.744C951.535,895.665,957.842,906.714,957.842,915.409"/>
	<path clip-path="url(#SVGID_72_)" fill="#84DBDB" d="M1044.773,915.409c0,8.695-10.307,15.745-23.021,15.745
		c-12.714,0-23.021-7.05-23.021-15.745c0-8.695,6.307-19.744,19.021-19.744C1030.467,895.665,1044.773,906.714,1044.773,915.409"/>
	<path clip-path="url(#SVGID_72_)" fill="#519D9D" d="M1150.121,712.36c18.465-0.808,37.271-1.58,55.123,3.21
		c8.038,2.156,16.452,5.44,24.414,3.014c5.807-1.769,10.511-6.403,16.453-7.644c4.211-0.88,8.557,0.049,12.848,0.352
		c4.291,0.303,7.943-2.028,12.059-3.277c7.75-2.352,11.305-9.291,11.315-12.695c0.022-6.744-10.954-10.173-15.865-14.797
		c-4.495-4.233-10.456-6.647-16.516-7.831s-12.276-1.224-18.451-1.259c-13.399-0.075-26.798-0.151-40.196-0.227
		c-10.15-0.058-21.251,0.212-28.999,6.769c-2.952,2.498-5.177,5.748-7.041,9.135c-2.356,4.284-4.219,8.983-4.29,13.872
		c-0.07,4.89,1.903,9.999,5.928,12.777"/>
	<path clip-path="url(#SVGID_72_)" fill="#438987" d="M1142.892,767.941c3.463,26.362,10.943,52.092,14.009,78.503
		c1.583,13.642,1.979,27.421,1.182,41.13c-0.272,4.691-0.656,9.571,1.101,13.93c1.756,4.357,6.427,7.957,10.975,6.773
		c4.345-1.131,6.621-5.835,7.948-10.124c8.398-27.13,1.247-56.286,0.542-84.678c-1.162-46.838,20.404-92.955,14.836-139.476
		c-0.464-3.882,1.915-24.699-0.483-27.787c-3.197-4.117-16.811,10.731-22.023,10.75c-19.585,0.076-31.03,16.14-30.358,33.887
		C1141.597,716.672,1139.505,742.154,1142.892,767.941"/>
</g>
<g>
	<defs>
		<path id="SVGID_73_" d="M1170.976,656.963c-19.584,0.076-31.029,16.14-30.357,33.887c0.979,25.822-1.113,51.305,2.273,77.092
			c3.462,26.362,10.943,52.092,14.01,78.503c1.583,13.642,1.978,27.422,1.181,41.13c-0.273,4.69-0.656,9.572,1.101,13.929
			c1.757,4.359,6.427,7.958,10.975,6.774c4.345-1.13,6.621-5.835,7.948-10.124c8.398-27.13,1.248-56.286,0.541-84.678
			c-1.161-46.838,20.405-92.954,14.838-139.476c-0.465-3.882,1.914-24.699-0.484-27.787c-0.389-0.501-0.933-0.721-1.597-0.721
			C1186.612,645.492,1175.555,656.946,1170.976,656.963"/>
	</defs>
	<clipPath id="SVGID_74_">
		<use xlink:href="#SVGID_73_"  overflow="visible"/>
	</clipPath>
	<path clip-path="url(#SVGID_74_)" fill="#519D9D" d="M1186.664,940.453c-5.924-20.317-8.056-41.517-10.104-62.58
		c-5.46-56.125-7.665-132.852,6.087-187.54c0.604-2.398,1.3-4.896,2.999-6.693c1.698-1.798,4.719-2.597,6.676-1.082
		c1.724,1.336,1.974,3.799,2.082,5.978c2.526,50.379,2.29,120.042,4.815,170.421c0.476,9.487,0.925,19.199-1.834,28.29
		c-2.43,8.001-7.216,15.067-10.391,22.804c-3.175,7.736-4.57,17.005-0.265,24.173c-1.023,0.26-2.048,0.52-3.072,0.778"/>
</g>
<g>
	<defs>
		<rect id="SVGID_75_" width="1600" height="1168"/>
	</defs>
	<clipPath id="SVGID_76_">
		<use xlink:href="#SVGID_75_"  overflow="visible"/>
	</clipPath>
	<path clip-path="url(#SVGID_76_)" fill="#438987" d="M1207.392,767.941c3.463,26.362,10.943,52.092,14.009,78.503
		c1.583,13.642,1.979,27.421,1.182,41.13c-0.272,4.691-0.656,9.571,1.101,13.93c1.756,4.357,6.427,7.957,10.975,6.773
		c4.345-1.131,6.621-5.835,7.948-10.124c8.398-27.13,1.247-56.286,0.542-84.678c-1.162-46.838,15.462-93.351,9.894-139.871
		c-0.464-3.882-1.16-7.932-3.558-11.019c-3.198-4.117-8.794-5.642-14.007-5.622c-19.585,0.076-34.171-22.159-34.145,32.704
		C1201.347,715.508,1204.005,742.154,1207.392,767.941"/>
</g>
<g>
	<defs>
		<path id="SVGID_77_" d="M1201.333,689.667c0.014,25.841,2.672,52.487,6.058,78.274c3.465,26.362,10.943,52.092,14.011,78.503
			c1.582,13.642,1.978,27.422,1.181,41.13c-0.271,4.69-0.657,9.572,1.1,13.929c1.756,4.359,6.428,7.958,10.976,6.774
			c4.345-1.13,6.621-5.835,7.948-10.124c8.398-27.13,1.246-56.286,0.541-84.678c-1.16-46.838,15.463-93.351,9.895-139.87
			c-0.464-3.883-1.16-7.933-3.557-11.021c-3.199-4.117-8.795-5.642-14.008-5.622c-4.396,0.018-8.539-1.089-12.323-2.196
			c-3.754-1.098-7.153-2.196-10.091-2.196C1205.77,652.57,1201.317,659.337,1201.333,689.667"/>
	</defs>
	<clipPath id="SVGID_78_">
		<use xlink:href="#SVGID_77_"  overflow="visible"/>
	</clipPath>
	<path clip-path="url(#SVGID_78_)" fill="#519D9D" d="M1262.876,921.613c-15.715-8.203-19.605-27.292-21.209-44.946
		c-1.603-17.655-2.265-35.192-4.173-52.816c-1.32-12.2-0.373-25.114,1.839-37.184c2-10.907,1.896-21.966,4.334-32.784
		c3.356-14.9,0.403-44.832,4.704-59.488c0.776-2.645,4.89,1.58,7.629,1.272c3.842-0.435,3.277-2.8,3.999,1
		c3.917,20.634,8.29,57.283,12.207,77.916c6.457,34.012,12.942,68.554,9.843,103.034c-0.882,9.81-2.697,19.943-8.456,27.935
		c-5.759,7.989-16.428,13.175-25.705,9.866"/>
</g>
<g>
	<defs>
		<rect id="SVGID_79_" width="1600" height="1168"/>
	</defs>
	<clipPath id="SVGID_80_">
		<use xlink:href="#SVGID_79_"  overflow="visible"/>
	</clipPath>
	<path clip-path="url(#SVGID_80_)" fill="#5DB4B3" d="M1143.567,922.366c-0.396,1.073-0.798,2.227-0.523,3.339
		c0.36,1.457,1.843,2.427,3.332,2.614s2.983-0.257,4.39-0.782c5.699-2.127,10.857-5.692,14.861-10.273
		c3.482-3.982,6.264-8.85,10.917-11.366c1.95-1.055,4.169-1.653,5.89-3.053c3.088-2.516,3.788-6.929,3.759-10.911
		c-0.048-6.605-1.504-13.194-4.245-19.202c-0.404-0.887-12.204,6.366-13.226,7.122c-4.206,3.106-13.576,1.899-11.055,6.479
		C1160.167,890.874,1147.615,911.399,1143.567,922.366"/>
</g>
<g>
	<defs>
		<path id="SVGID_81_" d="M1168.722,879.854c-4.207,3.107-13.575,1.9-11.055,6.479c2.5,4.541-10.052,25.066-14.1,36.034
			c-0.396,1.072-0.798,2.227-0.523,3.338c0.36,1.457,1.842,2.427,3.332,2.614c1.489,0.187,2.983-0.256,4.389-0.782
			c5.701-2.127,10.858-5.691,14.862-10.273c3.482-3.982,6.264-8.85,10.917-11.365c1.95-1.055,4.17-1.653,5.889-3.054
			c3.089-2.515,3.789-6.928,3.761-10.91c-0.049-6.605-1.506-13.194-4.245-19.201c-0.024-0.052-0.085-0.076-0.179-0.076
			C1180.223,872.657,1169.686,879.142,1168.722,879.854"/>
	</defs>
	<clipPath id="SVGID_82_">
		<use xlink:href="#SVGID_81_"  overflow="visible"/>
	</clipPath>
	<path clip-path="url(#SVGID_82_)" fill="#519D9D" d="M1143.063,932.181c0.646-2.441,2.648-4.3,4.8-5.625
		c2.151-1.324,4.532-2.258,6.627-3.67c7.14-4.811,9.849-14.304,16.737-19.47c5.475-4.106,12.688-4.838,19.505-5.424
		c0.698-0.061,1.445-0.111,2.055,0.233c0.823,0.467,1.127,1.493,1.255,2.43c0.699,5.084-1.667,10.23-5.229,13.925
		c-3.563,3.695-8.205,6.145-12.889,8.242c-9.489,4.251-19.508,7.32-29.749,9.115"/>
</g>
<g>
	<defs>
		<rect id="SVGID_83_" width="1600" height="1168"/>
	</defs>
	<clipPath id="SVGID_84_">
		<use xlink:href="#SVGID_83_"  overflow="visible"/>
	</clipPath>
	<path clip-path="url(#SVGID_84_)" fill="#5DB4B3" d="M1208.354,922.366c-0.396,1.073-0.799,2.227-0.523,3.339
		c0.36,1.457,1.842,2.427,3.332,2.614c1.489,0.188,2.982-0.257,4.389-0.782c5.699-2.127,10.857-5.692,14.861-10.273
		c3.482-3.982,6.264-8.85,10.917-11.366c1.95-1.055,4.171-1.653,5.89-3.053c3.088-2.516,3.788-6.929,3.759-10.911
		c-0.047-6.605-1.504-13.194-4.244-19.202c-0.405-0.887-12.204,6.366-13.227,7.122c-4.205,3.106-9.784,5.951-11.073,11.018
		C1220.735,897.544,1212.4,911.399,1208.354,922.366"/>
</g>
<g>
	<defs>
		<path id="SVGID_85_" d="M1233.507,879.854c-4.205,3.107-9.784,5.952-11.073,11.019c-1.697,6.672-10.032,20.527-14.08,31.495
			c-0.396,1.072-0.8,2.227-0.523,3.338c0.361,1.457,1.842,2.427,3.332,2.614c1.489,0.187,2.982-0.256,4.389-0.782
			c5.699-2.127,10.857-5.691,14.861-10.273c3.482-3.982,6.264-8.85,10.917-11.365c1.95-1.055,4.17-1.653,5.89-3.054
			c3.088-2.515,3.788-6.928,3.758-10.91c-0.046-6.605-1.503-13.194-4.243-19.201c-0.023-0.052-0.084-0.076-0.179-0.076
			C1245.008,872.657,1234.47,879.142,1233.507,879.854"/>
	</defs>
	<clipPath id="SVGID_86_">
		<use xlink:href="#SVGID_85_"  overflow="visible"/>
	</clipPath>
	<path clip-path="url(#SVGID_86_)" fill="#519D9D" d="M1211.235,924.685c3.721-2.885,8.37-4.352,12.163-7.141
		c3.831-2.817,6.584-6.823,9.313-10.719c1.582-2.261,3.213-4.544,5.391-6.238c3.982-3.101,9.252-3.856,14.258-4.504
		c1.08-0.14,2.255-0.262,3.189,0.297c1.426,0.853,1.612,2.839,1.392,4.484c-0.892,6.655-5.597,12.125-10.494,16.718
		c-5.034,4.721-10.498,8.983-16.303,12.715c-3.363,2.162-6.892,4.169-10.757,5.192c-3.172,0.839-11.42,2.496-13.906-0.484
		C1202.889,931.898,1209.027,926.396,1211.235,924.685"/>
</g>
<g>
	<defs>
		<rect id="SVGID_87_" width="1600" height="1168"/>
	</defs>
	<clipPath id="SVGID_88_">
		<use xlink:href="#SVGID_87_"  overflow="visible"/>
	</clipPath>
	<path clip-path="url(#SVGID_88_)" fill="#519D9D" d="M1222.903,871.433c-1.034,2.16-1.22,4.613-1.389,7.001
		c-0.264,3.72-0.527,7.44-0.747,11.163c-0.051,0.858-0.092,1.762,0.293,2.531c0.305,0.612,0.845,1.07,1.369,1.51
		c1.289,1.078,2.578,2.157,3.868,3.235c0.475,0.398,1.075,0.821,1.66,0.618c0.365-0.126,0.606-0.465,0.821-0.785
		c2.825-4.21,5.346-8.624,7.536-13.196c0.406-0.849,1.307-2.107,1.261-3.08c-0.047-0.983-1.352-1.168-2.086-1.51
		c-2.086-0.972-4.001-2.26-5.905-3.54C1227.438,873.937,1225.282,872.471,1222.903,871.433"/>
	<path clip-path="url(#SVGID_88_)" fill="#519D9D" d="M1155.435,888.497c0.032,0.908,0.108,1.865,0.62,2.616
		c0.591,0.867,1.633,1.281,2.588,1.715c1.519,0.689,2.962,1.542,4.299,2.538c0.922,0.688,2.225,0.277,2.555-0.825
		c1.475-4.939,3.995-9.565,7.348-13.482c0.574-0.672,0.355-1.698-0.444-2.075c-1.694-0.797-4.028-2.096-4.417-2.298
		c-2.08-1.084-4.109-2.26-6.086-3.523c-0.904-0.579-1.861-1.489-2.842-1.907c-0.719-0.307-0.553-0.326-0.919,0.409
		c-0.268,0.537-0.42,1.18-0.604,1.751c-0.725,2.258-1.268,4.575-1.623,6.92C1155.5,883.033,1155.34,885.77,1155.435,888.497"/>
	<path clip-path="url(#SVGID_88_)" fill="#FFFFFF" d="M1256.609,446.938c17.488,9.298,27.814,27.719,37.191,45.166
		c3.793,7.059,7.587,14.118,11.38,21.177c2.174,4.043,4.417,8.473,3.665,13.002c-0.387,2.332-1.59,4.52-3.354,6.095
		c-3.254,2.907-8.095,3.499-12.337,2.482c-4.242-1.018-8.004-3.436-11.531-6.004c-16.283-11.853-29.577-27.95-37.392-46.511
		c-2.226-5.286-4.03-10.879-3.995-16.615c0.035-5.735,2.135-11.673,6.579-15.3c4.444-3.626,11.409-4.321,15.899-0.751"/>
</g>
<g>
	<defs>
		<path id="SVGID_89_" d="M1262.714,449.679c-1.393-1.109-3.024-1.806-4.746-2.132L1262.714,449.679z M1246.814,450.43
			c-4.443,3.626-6.543,9.564-6.578,15.3c-0.035,5.736,1.769,11.328,3.994,16.614c7.815,18.563,21.11,34.659,37.393,46.511
			c3.528,2.569,7.289,4.987,11.531,6.004c4.242,1.018,9.083,0.425,12.337-2.481c1.764-1.575,2.968-3.763,3.354-6.096
			c0.751-4.528-1.492-8.959-3.665-13.001c-3.794-7.06-7.587-14.119-11.381-21.178c-9.194-17.109-19.304-35.158-36.186-44.618
			c-0.662-0.105-1.336-0.157-2.013-0.157C1252.464,447.329,1249.259,448.436,1246.814,450.43 M1257.614,447.485
			c0.118,0.019,0.235,0.04,0.354,0.062l-1.357-0.61C1256.947,447.116,1257.282,447.299,1257.614,447.485"/>
	</defs>
	<clipPath id="SVGID_90_">
		<use xlink:href="#SVGID_89_"  overflow="visible"/>
	</clipPath>
	<path clip-path="url(#SVGID_90_)" fill="#D5FDFD" d="M1264.028,493.737c8.451,6.261,19.075,8.932,27.818,14.778
		c6.633,4.436,12.047,10.674,15.505,17.866c1.405,2.921,2.456,6.507,0.785,9.285c-1.349,2.244-4.113,3.244-6.723,3.455
		c-6.496,0.525-12.625-2.751-18.316-5.926c-9.646-5.38-19.438-10.871-27.156-18.772c-11.102-11.363-16.973-26.698-22.557-41.57
		c-1.459-3.887-2.918-7.773-4.378-11.659c-0.802-2.139-4.086-7.677,0.117-7.272c4.04,0.388,10.03,9.417,12.291,12.381
		c3.632,4.763,6.85,9.824,10.435,14.621c1.837,2.459,3.749,4.871,5.854,7.108C1258.596,488.981,1264.028,492.934,1264.028,493.737"
		/>
</g>
<path fill="#FFFFFF" d="M1150,446.334c-4.492,0.908-8.349,4.69-12.183,7.024c-5.2,3.165-9.964,7.861-13.552,12.805
	c-3.554,4.896-0.337,10.119,3.554,13.941c2.909,2.858,6.577,6.688,10.184,8.61c4.942,2.635,7.165-1.426,9.03-5.774
	c2.627-6.124,4.379-13.066,4.877-19.72c0.147-1.97-0.035-3.672,0.757-5.553"/>
<g>
	<defs>
		<rect id="SVGID_91_" width="1600" height="1168"/>
	</defs>
	<clipPath id="SVGID_92_">
		<use xlink:href="#SVGID_91_"  overflow="visible"/>
	</clipPath>
	<path clip-path="url(#SVGID_92_)" fill="#519D9D" d="M1139.604,455.668c-5.207,10.516,0.655,22.855,5.896,33.354
		c12.714,25.465,22.415,53.9,18.136,82.038c-3.497,22.999-15.935,43.472-25.291,64.771c-9.356,21.299-15.675,46.076-6.614,67.502
		c1.591,3.761,4.225,7.753,8.28,8.218c3.396,0.391,6.452-1.845,9.331-3.685c17.035-10.892,38.648-10.601,58.858-9.945
		c18.527,0.601,37.3,1.239,55.058,6.56c5.619,1.685,12.141,3.71,16.953,0.357c4.028-2.805,5.051-8.224,5.742-13.082
		c3.404-23.917,6.71-48.954-1.405-71.709c-6.52-18.281-20.007-33.699-24.902-52.48c-4.026-15.445-1.84-31.961,3.166-47.116
		c5.007-15.156,12.72-29.244,20.011-43.442c3.307-6.439,6.563-14.147,3.309-20.613c-2.091-4.154-6.454-6.689-10.855-8.192
		c-10.786-3.682-23.181-2.318-32.906,3.624c-9.506,5.806-17.285,15.957-28.402,16.649c-6.733,0.419-13.133-2.887-18.686-6.718
		c-7.875-5.432-15.195-17.179-24.89-19.032C1159.633,440.669,1144.681,445.414,1139.604,455.668"/>
</g>
<g>
	<path fill="#FFFFFF" d="M1068.086,411.612c1.646,3.339,5.24,5.44,8.585,7.256c-7.165,1.252-14.331,2.505-21.496,3.758
		c-2.531,0.441-5.426,1.129-6.234,3.819c-0.482,1.608,0.048,3.34,1.159,4.601c2.212,2.509,5.493,2.989,8.59,3.573
		c8.413,1.582,16.717,4.434,23.662,9.438c10.563,7.614,17.138,19.523,22.382,31.444c5.243,11.92,9.589,24.408,17.15,35.01
		c3.487,4.89,7.833,9.457,13.447,11.589c5.614,2.132,12.69,1.254,16.554-3.344c3.045-3.627,3.575-8.86,2.485-13.469
		c-1.089-4.607-3.596-8.738-6.134-12.735c-9.229-14.532-19.381-28.478-30.371-41.727c-5.304-6.392-11.489-12.29-16.319-19.042
		c-3.287-4.595-5.657-9.248-9.931-13.115c-6.22-5.628-14.43-9.021-22.869-8.256C1068.174,410.465,1067.831,411.096,1068.086,411.612
		"/>
	<g>
		<defs>
			<path id="SVGID_93_" d="M1091.615,418.669c4.273,3.868,6.644,8.52,9.931,13.116c4.83,6.75,11.017,12.648,16.32,19.042
				c10.989,13.249,21.142,27.194,30.37,41.726c2.538,3.997,5.045,8.129,6.135,12.736c1.089,4.609,0.558,9.841-2.487,13.468
				c-3.862,4.598-10.938,5.477-16.553,3.344c-5.614-2.133-9.961-6.7-13.448-11.59c-7.562-10.602-11.907-23.089-17.15-35.011
				c-5.244-11.92-11.817-23.828-22.381-31.443c-6.945-5.004-15.248-7.856-23.661-9.438c-3.099-0.583-6.379-1.064-8.591-3.572
				c-1.109-1.259-1.642-2.993-1.159-4.601c0.808-2.692,3.703-3.378,6.235-3.819c7.164-1.254,14.328-2.507,21.495-3.759
				c-3.345-1.816-6.939-3.917-8.585-7.256c-0.255-0.516,0.089-1.147,0.663-1.2c0.821-0.075,1.64-0.108,2.456-0.106
				C1078.766,410.331,1086.001,413.588,1091.615,418.669"/>
		</defs>
		<clipPath id="SVGID_94_">
			<use xlink:href="#SVGID_93_"  overflow="visible"/>
		</clipPath>
		<path clip-path="url(#SVGID_94_)" fill="#D5FDFD" d="M1150.798,528.86c-6.066-1.913-10.978-6.395-15.127-11.215
			c-11.868-13.784-18.965-30.919-28.084-46.658c-9.118-15.738-21.438-31.006-38.715-36.692c-7.784-2.561-15.444-1.64-24.267-3.419
			c-3.713-0.749-8.577,0.242-9.85,3.813c-1.004,2.82,0.963,5.755,2.82,8.104c23.981,30.345,48.707,61.356,81.831,81.323
			c7.187,4.333,14.902,8.163,23.228,9.194c5.83,0.722,14.611,0.255,18.843-4.27C1157.943,529.901,1154.29,529.961,1150.798,528.86"
			/>
	</g>
</g>
<g>
	<defs>
		<path id="SVGID_95_" d="M1139.604,455.667c-5.207,10.517,0.655,22.856,5.897,33.355c12.713,25.465,22.414,53.9,18.135,82.038
			c-3.497,22.997-15.935,43.471-25.292,64.77c-9.355,21.299-15.674,46.076-6.613,67.502c1.591,3.761,4.225,7.752,8.28,8.218
			c3.396,0.391,6.452-1.845,9.33-3.685c17.036-10.893,38.649-10.601,58.859-9.945c18.528,0.601,37.3,1.24,55.058,6.559
			c5.619,1.686,12.141,3.71,16.954,0.358c4.027-2.805,5.05-8.224,5.741-13.082c3.404-23.917,6.71-48.954-1.406-71.709
			c-6.519-18.281-20.005-33.7-24.902-52.481c-4.025-15.445-1.839-31.961,3.168-47.116c5.006-15.155,12.719-29.243,20.01-43.442
			c3.307-6.438,6.563-14.146,3.309-20.613c-2.091-4.154-6.454-6.689-10.854-8.191c-10.787-3.683-23.183-2.318-32.907,3.623
			c-9.506,5.807-17.285,15.957-28.402,16.65c-6.733,0.418-13.132-2.887-18.686-6.718c-7.875-5.433-15.195-17.18-24.891-19.033
			c-1.648-0.315-3.398-0.47-5.194-0.47C1155.278,442.253,1143.902,446.986,1139.604,455.667"/>
	</defs>
	<clipPath id="SVGID_96_">
		<use xlink:href="#SVGID_95_"  overflow="visible"/>
	</clipPath>
	<path clip-path="url(#SVGID_96_)" fill="#FFFFFF" d="M1259.449,542.56l11.256,25.897c-28.283,1.728-56.568,3.456-84.851,5.184
		c-14.177,0.866-29.132,1.581-41.798-4.847c3.273,1.661,9.217-24.629,10.634-25.714c2.965-2.269,12.534,0.105,16.058,0.303
		c5.745,0.322,11.493,0.57,17.244,0.745C1211.816,544.857,1235.68,544.335,1259.449,542.56"/>
</g>
<path fill="#FFFFFF" d="M1325.717,411.418h-30.234c-4.054,0-7.371-3.317-7.371-7.371v-30.234c0-4.054,3.317-7.371,7.371-7.371
	h30.234c4.054,0,7.371,3.317,7.371,7.371v30.234C1333.088,408.101,1329.771,411.418,1325.717,411.418"/>
<path fill="#FFFFFF" d="M1191,415.834c1.911,4.148,0.484,11.178-2.277,14.815c-2.762,3.637-6.627,6.24-10.195,9.091
	c-3.567,2.853-7.022,6.206-8.414,10.556c-1.978,6.18,0.776,13.117,5.359,17.71c4.582,4.593,10.713,7.264,16.791,9.533
	c7.715,2.881,15.685,5.302,23.894,5.969s16.724-0.511,23.943-4.475c7.22-3.963,12.993-10.924,14.459-19.029
	c1.466-8.104-4.791-15.677-11.799-20.003c-3.199-1.976-4.023-4.394-7.516-5.789c-3.492-1.394-3.138-8.248-5.245-11.361
	c-1.386-2.046-3.524-5.352-4.624-7.784c-5.731-12.676-9.204,0.775-13.88,0.105c-5.092-0.729-10.458-1.43-15.241,0.464"/>
<path fill="#D5FDFD" d="M1185.56,350.825c-7.063,6.953-2.103,25.893-11.385,25c2.063,12.569-0.141,19.951,6.025,30.615
	c6.165,10.664,17.391,18.565,28.312,15.884c8.361-2.052,14.611-3.661,20.363-10.906c4.696-5.914,9.51-17.88,12.863-24.889
	c3.354-7.009-2.516-15-3.721-22.872c-6.653,3.289-6.206-2.833-10.707-9.339c-3.339-4.826-9.52-18.314-16.24-15.317
	C1205.541,341.467,1190.388,346.073,1185.56,350.825"/>
<path fill="#5DB4B3" d="M1210.669,362.189c-4.881,3.078-10.651,4.155-16.447,4.771c-1.012,0.108-1.509-1.201-0.676-1.787
	c3.079-2.164,5.676-5.018,7.514-8.304c-8.224,0.116-15.43,6.283-19.021,13.683c-3.59,7.399,2.769,24.558,2.628,32.782
	c-0.372,21.68-4.618,35.446,6.44,54.097c-9.295-5.009-19.113-10.528-24.047-19.865c-5.821-11.017-3.36-24.389-0.755-36.575
	c2.309-10.794,4.617-21.588,6.925-32.383c1.728-8.075,3.484-16.24,7.078-23.676c3.594-7.435,9.263-14.184,16.863-17.414
	c11.797-5.015,26.024-0.395,35.344,8.407c9.619,9.086,14.905,21.831,18.887,34.416c3.486,11.015,6.125,22.278,8.128,33.656
	c1.065,6.053,1.997,12.308,0.723,18.328c-1.67,7.89-7.029,14.609-13.438,19.505c-6.408,4.896-13.864,8.199-21.241,11.456
	c2.19-15.541-5.539-20.593-0.74-35.536c3.667-11.416,10.382-32.99,8.953-43.876c-0.992-7.556-3.737-18.002-9.729-23.289
	c-3.869-3.415-4-1.897-5.741,1.734C1216.382,356.359,1214.628,359.692,1210.669,362.189"/>
<rect fill="none" width="1600" height="1168"/>
<g>
	<defs>
		<rect id="SVGID_97_" width="1600" height="1168"/>
	</defs>
	<clipPath id="SVGID_98_">
		<use xlink:href="#SVGID_97_"  overflow="visible"/>
	</clipPath>
	<path clip-path="url(#SVGID_98_)" fill="#FFFFFF" d="M1306.464,522.21c2.347,3.076,2.112,3.467,2.474,5.713
		c0.36,2.247-0.322,4.581-1.714,6.381c-2.678,3.462-6.696,3.223-10.379,2.844c-25.272-2.6-35.218-4.88-59.358-17.841
		c-8.263-4.436-19.446-8.88-24.537-12.133c-6.605-4.22-17.74-8.365-24.053-13.012c-6.338-4.665-13.219-10.208-13.812-18.19
		c-0.056-0.759,0.017-1.535,0.331-2.227c1.063-2.34,3.411-2.095,5.374-1.666c7.128,1.56,13.948,4.507,19.971,8.628l-5.677-10.934
		c-0.54-1.041,0.335-2.298,1.486-2.081c3.777,0.71,6.865,4.706,9.523,7.936c12.018,14.601,31.79,19.771,50.245,23.897
		c18.454,4.127,37.068,8.282,49.78,22.282L1306.464,522.21z"/>
</g>
</svg>
