<?xml version="1.0" encoding="UTF-8"?>
<svg width="139px" height="108px" viewBox="0 0 139 108" version="1.1" xmlns="http://www.w3.org/2000/svg" xmlns:xlink="http://www.w3.org/1999/xlink">
    <!-- Generator: Sketch 47.1 (45422) - http://www.bohemiancoding.com/sketch -->
    <title>Connecting</title>
    <desc>Created with Sketch.</desc>
    <defs>
        <polygon id="path-1" points="28.7440741 10 0.8489 10 0.8489 0.5461 28.7440741 0.5461"></polygon>
        <polygon id="path-3" points="0 9.5953 0 0.1413 27.8949741 0.1413 27.8949741 9.5953"></polygon>
    </defs>
    <g id="Page-1" stroke="none" stroke-width="1" fill="none" fill-rule="evenodd">
        <g id="Luna---7" transform="translate(-417.000000, -2070.000000)">
            <g id="Group-13" transform="translate(413.000000, 1606.000000)">
                <g id="Connecting" transform="translate(4.000000, 464.000000)">
                    <g id="Page-1">
                        <path d="M124.6636,32.1028 C123.8616,30.5648 122.6366,29.5258 120.9626,29.0558 C120.7236,28.9888 120.5966,28.8728 120.4706,28.7018 C120.0516,28.1288 119.8926,27.4538 119.7476,26.7828 C119.5676,25.9448 119.5116,25.0888 119.4166,24.2378 C119.2826,23.0408 119.3506,21.8488 119.3086,20.6548 C119.2916,20.1478 119.3796,19.6588 119.4866,19.1708 C119.4866,19.1698 119.4886,19.1688 119.4886,19.1678 C119.7406,18.0248 119.9386,16.8698 119.8606,15.6998 C119.7456,13.9708 119.3706,12.3078 118.2886,10.8878 C117.5936,9.9768 116.7106,9.2948 115.6766,8.8108 C115.6566,8.8018 115.6346,8.7948 115.6146,8.7858 C115.5216,8.7438 115.4266,8.7018 115.3276,8.6718 C115.2896,8.6598 115.2496,8.6598 115.2106,8.6518 C115.1316,8.6338 115.0536,8.6108 114.9726,8.6108 C114.9556,8.6108 114.9386,8.6118 114.9226,8.6128 C114.6326,8.6278 114.3436,8.6218 114.0546,8.6128 C113.9406,8.6088 113.8266,8.6068 113.7126,8.6008 C113.4576,8.5868 113.2016,8.5698 112.9466,8.5488 C112.5836,8.5198 112.2206,8.4898 111.8576,8.4688 C111.7966,8.4648 111.7356,8.4648 111.6756,8.4618 C111.4606,8.4508 111.2456,8.4398 111.0296,8.4398 C110.9446,8.4398 110.8586,8.4408 110.7726,8.4438 C109.0966,8.4878 107.6666,9.0678 106.4296,10.1808 C105.2046,11.2828 104.3976,12.6308 103.9976,14.2268 C103.7926,15.0438 103.7266,15.8738 103.7706,16.7118 C103.7956,17.1968 103.7426,17.6408 103.4966,18.0838 C103.1916,18.6328 103.3206,19.2588 103.3876,19.8438 C103.4166,20.0998 103.4776,20.3568 103.4786,20.6188 C103.4816,22.0328 103.5066,23.4478 103.4726,24.8608 C103.4426,26.0518 103.3386,27.2408 103.2056,28.4268 C103.1746,28.7128 103.0096,28.7988 102.8066,28.8508 C102.5546,28.9158 102.2956,28.9468 102.0396,29.0058 C100.2696,29.4128 99.0276,30.4858 98.1596,32.0348 C97.8956,32.5058 97.6796,33.0048 97.4416,33.4908 L97.4416,34.3538 C97.7936,35.3168 98.6026,35.7478 99.4846,36.0628 C100.6036,36.4618 101.7706,36.6528 102.9466,36.8068 C104.1986,36.9708 105.4496,37.1018 106.7126,37.1108 C106.8056,37.1118 106.9056,37.1098 106.9376,37.2308 L115.8576,37.2308 C115.9586,37.1048 116.0806,37.0748 116.2066,37.0748 C116.3236,37.0748 116.4436,37.0998 116.5556,37.0998 C116.5646,37.0998 116.5736,37.0998 116.5826,37.0998 C118.6726,37.0118 120.7416,36.7858 122.7636,36.2228 C123.0586,36.1408 123.3496,36.0388 123.6366,35.9288 C124.4136,35.6308 125.0216,35.1408 125.3526,34.3538 L125.3526,33.4908 C125.1236,33.0278 124.9026,32.5608 124.6636,32.1028 L124.6636,32.1028 Z M119.5956,29.1958 C119.3996,29.1568 119.2046,29.1168 119.0106,29.0688 C118.0436,28.8258 117.0196,28.5418 116.0806,28.1088 C115.8316,27.9948 115.8346,27.9338 115.8416,27.7728 C115.8546,27.5128 115.8756,27.0768 115.5416,26.7258 L115.2626,26.4548 C115.4076,26.3138 115.5486,26.1638 115.6876,26.0048 C116.5846,24.9818 117.1636,23.8548 117.4166,22.6238 C117.8956,22.3618 118.1556,21.9338 118.3246,21.6188 C118.3246,21.7168 118.3256,21.8138 118.3256,21.9108 C118.3276,22.7008 118.3296,23.5168 118.4226,24.3488 C118.4456,24.5498 118.4656,24.7508 118.4856,24.9518 C118.5526,25.6158 118.6216,26.3018 118.7706,26.9928 C118.9036,27.6118 119.0836,28.4488 119.5956,29.1958 L119.5956,29.1958 Z M106.9596,27.6718 C106.9856,27.8898 107.0016,28.0218 106.4676,28.2298 C106.4016,28.2558 106.3366,28.2848 106.2716,28.3138 C106.2346,28.3308 106.1976,28.3488 106.1596,28.3618 C105.5216,28.5958 104.8416,28.8018 104.0816,28.9908 C104.1526,28.8258 104.1856,28.6648 104.1996,28.5368 C104.3596,27.1068 104.4456,25.9468 104.4716,24.8858 C104.4976,23.8388 104.4906,22.7808 104.4846,21.7578 L104.4836,21.6988 C104.6266,21.9478 104.8726,22.3378 105.3076,22.5968 C105.5926,23.7578 106.1356,24.8438 106.9246,25.8278 C107.1026,26.0498 107.2876,26.2568 107.4786,26.4478 L107.2226,26.7358 C107.0726,26.9048 106.9046,27.2048 106.9596,27.6718 L106.9596,27.6718 Z M106.2286,22.1408 C106.1986,21.9978 106.1966,21.8738 106.0126,21.8208 C105.6666,21.7208 105.4806,21.4308 105.3156,21.1378 C104.9086,20.4168 104.7356,19.6378 104.7726,18.8098 C104.7726,18.8078 104.7726,18.8078 104.7726,18.8068 C104.7776,18.7078 104.8006,18.6318 104.8456,18.5808 C104.8596,18.5648 104.8906,18.5668 104.9096,18.5568 C104.9546,18.5298 104.9986,18.5008 105.0766,18.5048 C105.0956,18.5068 105.1146,18.5068 105.1336,18.5068 C105.1386,18.5068 105.1436,18.5068 105.1486,18.5068 C105.1956,18.5058 105.2436,18.5048 105.2896,18.5088 L105.2906,18.5088 C105.3096,18.5108 105.3286,18.5118 105.3476,18.5118 C105.4306,18.5118 105.5166,18.4988 105.5986,18.4988 C105.6866,18.4988 105.7716,18.5128 105.8466,18.5728 C105.9926,18.6918 105.9106,18.8898 105.9446,19.0488 C106.0396,19.4898 106.1316,19.9308 106.2276,20.3708 C106.2376,20.4158 106.2656,20.4568 106.2846,20.4998 C106.3076,20.4598 106.3426,20.4228 106.3526,20.3808 C106.4496,19.9888 106.5526,19.5988 106.6326,19.2038 C106.7926,18.4128 106.7836,18.3818 107.4936,18.2668 C107.4956,18.2668 107.4986,18.2658 107.5016,18.2658 C108.9546,18.0318 110.2876,17.4728 111.5626,16.7728 C112.6946,16.1518 113.7356,15.3888 114.7186,14.5498 C114.7816,14.4968 114.8276,14.4578 114.8666,14.4318 C114.8776,14.4248 114.8856,14.4248 114.8946,14.4198 C114.9196,14.4068 114.9416,14.3988 114.9606,14.4008 C114.9826,14.4038 115.0016,14.4228 115.0216,14.4488 C115.0286,14.4578 115.0366,14.4588 115.0436,14.4708 C115.0716,14.5158 115.1016,14.5798 115.1426,14.6718 C115.2796,14.9748 115.4086,15.2818 115.5486,15.5838 C115.8596,16.2568 116.2266,16.8988 116.6956,17.4748 C116.9326,17.7658 117.0636,18.0738 117.0176,18.4568 C116.9946,18.6458 117.0096,18.8398 117.0186,19.0308 C117.0216,19.0928 117.0586,19.1528 117.0796,19.2128 C117.1146,19.1518 117.1506,19.0908 117.1846,19.0288 C117.2086,18.9878 117.2346,18.9468 117.2536,18.9028 C117.3236,18.7358 117.2696,18.4878 117.5066,18.4298 C117.5106,18.4288 117.5136,18.4288 117.5176,18.4288 C117.5266,18.4288 117.5446,18.4468 117.5566,18.4518 C117.7976,18.7318 117.9946,18.9768 118.0096,19.0558 C118.0096,19.0578 118.0136,19.0638 118.0136,19.0658 C118.0196,19.1848 118.0296,19.3108 118.0026,19.4248 C117.8706,19.9778 117.7636,20.5368 117.4936,21.0508 C117.3236,21.3758 117.1506,21.6978 116.7826,21.8108 C116.5416,21.8848 116.4976,22.0828 116.4696,22.2458 C116.2696,23.4368 115.7116,24.4618 114.9356,25.3458 C113.9996,26.4138 112.8486,27.1478 111.3736,27.1958 C109.8166,27.1128 108.6366,26.3638 107.7046,25.2018 C106.9826,24.3018 106.4706,23.2808 106.2286,22.1408 L106.2286,22.1408 Z M100.8866,31.0388 C101.4406,30.6468 102.0666,30.4438 102.7276,30.3138 C104.0086,30.0628 105.2746,29.7508 106.5036,29.3018 C106.6146,29.2608 106.7206,29.2048 106.8316,29.1618 C107.5636,28.8758 108.0566,28.4348 107.9526,27.5548 C107.9376,27.4268 107.9636,27.3848 108.0076,27.3848 C108.0566,27.3848 108.1296,27.4368 108.1956,27.4828 C108.7476,27.8638 109.3436,28.1368 109.9856,28.3488 C110.4596,28.5058 110.9206,28.5768 111.3726,28.5768 C112.2456,28.5768 113.0816,28.3108 113.9026,27.8848 C114.1146,27.7758 114.3166,27.6478 114.5206,27.5248 C114.6496,27.4468 114.7296,27.4008 114.7786,27.4008 C114.8486,27.4008 114.8546,27.4948 114.8436,27.7248 C114.8126,28.3618 115.1056,28.7618 115.6626,29.0178 C116.6586,29.4768 117.7076,29.7718 118.7676,30.0378 C119.5486,30.2338 120.3576,30.3088 121.1146,30.6078 C121.5186,30.7678 121.8776,30.9958 122.2096,31.2708 C122.2576,31.3098 122.2846,31.3748 122.3166,31.4218 C122.2366,31.5458 122.1326,31.5868 122.0126,31.6218 C121.0576,31.9028 120.1146,32.2298 119.1486,32.4658 L115.6666,33.1748 C114.6796,33.3158 113.6886,33.4838 112.6856,33.4838 C112.4216,33.4838 112.2256,33.5668 112.0616,33.7628 C111.9856,33.8538 111.8946,33.9338 111.8086,34.0178 C111.6286,34.1948 111.5326,34.2878 111.4416,34.2878 C111.3536,34.2878 111.2696,34.2028 111.1186,34.0248 C110.7566,33.5988 110.3266,33.4948 109.7866,33.4888 C106.7386,33.4558 103.7886,32.8928 100.9536,31.7608 C100.7826,31.6918 100.5216,31.6618 100.4926,31.4848 C100.4546,31.2528 100.7176,31.1578 100.8866,31.0388 L100.8866,31.0388 Z M124.3526,34.1288 C124.1406,34.5188 123.7946,34.7968 123.2776,34.9958 C122.9846,35.1078 122.7286,35.1948 122.4946,35.2598 C120.7896,35.7348 118.8976,36.0018 116.5616,36.0998 L116.4926,36.0938 C116.3976,36.0828 116.3016,36.0748 116.2066,36.0748 C115.9336,36.0748 115.7106,36.1388 115.5306,36.2308 L107.2906,36.2308 C107.1386,36.1588 106.9506,36.1118 106.7196,36.1108 C105.4326,36.1018 104.1556,35.9568 103.0766,35.8158 C101.8346,35.6528 100.8056,35.4728 99.8216,35.1208 C99.0396,34.8428 98.6456,34.5708 98.4416,34.1538 L98.4416,33.7188 C98.4836,33.6318 98.5246,33.5438 98.5666,33.4558 C98.7216,33.1268 98.8686,32.8158 99.0326,32.5228 C99.1866,32.2468 99.3526,31.9928 99.5296,31.7598 C99.6986,32.4148 100.3176,32.6068 100.5286,32.6718 L100.5826,32.6888 C103.4856,33.8488 106.5786,34.4538 109.7756,34.4888 C110.2046,34.4928 110.2746,34.5768 110.3566,34.6728 C110.5516,34.9028 110.8796,35.2878 111.4416,35.2878 C111.9426,35.2878 112.2566,34.9788 112.5096,34.7308 L112.5686,34.6738 C112.6336,34.6118 112.6986,34.5498 112.7586,34.4838 C113.6736,34.4768 114.5576,34.3468 115.4136,34.2218 L115.8086,34.1638 L115.8376,34.1598 L115.8666,34.1538 L119.3866,33.4368 C120.0566,33.2728 120.7116,33.0688 121.3456,32.8718 C121.6616,32.7728 121.9776,32.6748 122.2946,32.5818 C122.4516,32.5348 122.8696,32.4128 123.1586,31.9608 L123.2846,31.7758 C123.4636,32.0158 123.6276,32.2788 123.7766,32.5658 C123.9366,32.8718 124.0886,33.1828 124.2406,33.4928 L124.3526,33.7228 L124.3526,34.1288 Z" id="Fill-1" fill="#BFBEBD"></path>
                        <path d="M80.1984,56.3813 C79.3964,54.8433 78.1714,53.8043 76.4974,53.3343 C76.2584,53.2673 76.1314,53.1513 76.0054,52.9803 C75.5864,52.4073 75.4274,51.7323 75.2824,51.0613 C75.1024,50.2233 75.0464,49.3673 74.9514,48.5163 C74.8174,47.3193 74.8854,46.1273 74.8444,44.9333 C74.8264,44.4263 74.9144,43.9373 75.0214,43.4493 C75.0214,43.4483 75.0234,43.4473 75.0234,43.4463 C75.2754,42.3033 75.4734,41.1483 75.3954,39.9783 C75.2804,38.2493 74.9054,36.5863 73.8234,35.1663 C73.1284,34.2553 72.2454,33.5733 71.2114,33.0893 C71.1914,33.0803 71.1694,33.0733 71.1494,33.0643 C71.0564,33.0223 70.9614,32.9803 70.8624,32.9503 C70.8244,32.9383 70.7844,32.9383 70.7454,32.9303 C70.6664,32.9123 70.5884,32.8893 70.5074,32.8893 C70.4904,32.8893 70.4744,32.8903 70.4574,32.8913 C70.1674,32.9063 69.8784,32.9003 69.5894,32.8913 C69.4754,32.8873 69.3614,32.8853 69.2474,32.8793 C68.9924,32.8653 68.7364,32.8483 68.4814,32.8273 C68.1184,32.7983 67.7554,32.7683 67.3924,32.7473 C67.3314,32.7433 67.2714,32.7433 67.2104,32.7403 C66.9954,32.7293 66.7804,32.7183 66.5644,32.7183 C66.4794,32.7183 66.3934,32.7193 66.3074,32.7223 C64.6314,32.7663 63.2024,33.3463 61.9654,34.4593 C60.7394,35.5613 59.9324,36.9093 59.5324,38.5053 C59.3274,39.3223 59.2614,40.1523 59.3054,40.9903 C59.3304,41.4753 59.2774,41.9193 59.0314,42.3623 C58.7264,42.9113 58.8554,43.5373 58.9224,44.1223 C58.9514,44.3783 59.0134,44.6353 59.0134,44.8973 C59.0164,46.3113 59.0414,47.7263 59.0074,49.1393 C58.9774,50.3303 58.8734,51.5193 58.7414,52.7053 C58.7094,52.9913 58.5444,53.0773 58.3414,53.1293 C58.0894,53.1943 57.8304,53.2253 57.5744,53.2843 C55.8044,53.6913 54.5624,54.7643 53.6944,56.3133 C53.4304,56.7843 53.2144,57.2833 52.9764,57.7693 L52.9764,58.6323 C53.3284,59.5953 54.1374,60.0263 55.0204,60.3413 C56.1384,60.7403 57.3054,60.9313 58.4814,61.0853 C59.7334,61.2493 60.9844,61.3803 62.2474,61.3893 C62.3404,61.3903 62.4404,61.3883 62.4724,61.5093 L71.3924,61.5093 C71.4934,61.3833 71.6154,61.3533 71.7424,61.3533 C71.8584,61.3533 71.9784,61.3783 72.0904,61.3783 C72.0994,61.3783 72.1084,61.3783 72.1174,61.3783 C74.2084,61.2903 76.2764,61.0643 78.2984,60.5013 C78.5934,60.4193 78.8844,60.3173 79.1714,60.2073 C79.9484,59.9093 80.5564,59.4193 80.8884,58.6323 L80.8884,57.7693 C80.6584,57.3063 80.4374,56.8393 80.1984,56.3813 L80.1984,56.3813 Z M75.1304,53.4743 C74.9344,53.4353 74.7394,53.3953 74.5464,53.3473 C73.5784,53.1043 72.5544,52.8203 71.6154,52.3873 C71.3664,52.2733 71.3694,52.2123 71.3764,52.0513 C71.3894,51.7913 71.4104,51.3553 71.0764,51.0043 L70.7974,50.7333 C70.9424,50.5923 71.0834,50.4423 71.2224,50.2833 C72.1194,49.2603 72.6984,48.1333 72.9514,46.9023 C73.4304,46.6403 73.6904,46.2123 73.8594,45.8973 C73.8594,45.9953 73.8604,46.0923 73.8604,46.1893 C73.8624,46.9793 73.8644,47.7953 73.9574,48.6273 C73.9804,48.8283 74.0004,49.0293 74.0204,49.2303 C74.0874,49.8943 74.1564,50.5803 74.3054,51.2713 C74.4384,51.8903 74.6184,52.7273 75.1304,53.4743 L75.1304,53.4743 Z M62.4944,51.9503 C62.5204,52.1683 62.5364,52.3003 62.0024,52.5083 C61.9364,52.5343 61.8714,52.5633 61.8064,52.5923 C61.7694,52.6093 61.7324,52.6273 61.6944,52.6403 C61.0564,52.8743 60.3764,53.0803 59.6174,53.2693 C59.6884,53.1043 59.7204,52.9433 59.7344,52.8153 C59.8944,51.3853 59.9804,50.2253 60.0064,49.1643 C60.0324,48.1173 60.0254,47.0593 60.0194,46.0363 L60.0184,45.9773 C60.1614,46.2263 60.4074,46.6163 60.8424,46.8743 C61.1274,48.0363 61.6704,49.1223 62.4594,50.1063 C62.6374,50.3283 62.8224,50.5353 63.0134,50.7263 L62.7584,51.0143 C62.6074,51.1833 62.4394,51.4833 62.4944,51.9503 L62.4944,51.9503 Z M61.7634,46.4193 C61.7334,46.2763 61.7314,46.1523 61.5474,46.0993 C61.2014,45.9993 61.0154,45.7093 60.8504,45.4163 C60.4434,44.6943 60.2704,43.9163 60.3074,43.0883 C60.3074,43.0863 60.3074,43.0863 60.3074,43.0853 C60.3124,42.9863 60.3354,42.9103 60.3804,42.8593 C60.3944,42.8433 60.4264,42.8453 60.4444,42.8353 C60.4894,42.8083 60.5334,42.7793 60.6114,42.7833 C60.6304,42.7853 60.6494,42.7853 60.6684,42.7853 C60.6734,42.7853 60.6784,42.7853 60.6834,42.7853 C60.7314,42.7843 60.7784,42.7833 60.8244,42.7873 C60.8254,42.7873 60.8254,42.7873 60.8254,42.7873 C60.8444,42.7893 60.8634,42.7903 60.8824,42.7903 C60.9654,42.7903 61.0514,42.7773 61.1334,42.7773 C61.2214,42.7773 61.3064,42.7913 61.3814,42.8513 C61.5274,42.9703 61.4454,43.1683 61.4794,43.3273 C61.5744,43.7683 61.6664,44.2093 61.7624,44.6493 C61.7724,44.6943 61.8004,44.7353 61.8194,44.7783 C61.8424,44.7383 61.8774,44.7013 61.8874,44.6593 C61.9844,44.2673 62.0874,43.8773 62.1674,43.4823 C62.3274,42.6913 62.3184,42.6603 63.0284,42.5453 C63.0304,42.5453 63.0344,42.5443 63.0364,42.5443 C64.4894,42.3103 65.8224,41.7513 67.0974,41.0513 C68.2294,40.4303 69.2704,39.6673 70.2534,38.8283 C70.3164,38.7753 70.3624,38.7363 70.4014,38.7103 C70.4134,38.7033 70.4204,38.7033 70.4294,38.6983 C70.4544,38.6853 70.4764,38.6773 70.4954,38.6793 C70.5174,38.6823 70.5364,38.7013 70.5564,38.7273 C70.5634,38.7363 70.5714,38.7373 70.5784,38.7493 C70.6064,38.7943 70.6364,38.8583 70.6774,38.9503 C70.8144,39.2533 70.9434,39.5603 71.0834,39.8623 C71.3944,40.5353 71.7614,41.1773 72.2304,41.7533 C72.4674,42.0443 72.5984,42.3523 72.5524,42.7353 C72.5294,42.9243 72.5444,43.1183 72.5534,43.3093 C72.5564,43.3713 72.5934,43.4313 72.6144,43.4913 C72.6494,43.4303 72.6854,43.3693 72.7194,43.3073 C72.7434,43.2663 72.7704,43.2253 72.7884,43.1813 C72.8584,43.0143 72.8044,42.7663 73.0424,42.7083 C73.0454,42.7073 73.0484,42.7073 73.0524,42.7073 C73.0614,42.7073 73.0794,42.7253 73.0914,42.7303 C73.3324,43.0103 73.5294,43.2553 73.5444,43.3343 C73.5444,43.3363 73.5484,43.3423 73.5484,43.3443 C73.5544,43.4633 73.5644,43.5893 73.5374,43.7033 C73.4064,44.2563 73.2984,44.8153 73.0294,45.3293 C72.8584,45.6543 72.6854,45.9763 72.3174,46.0893 C72.0774,46.1633 72.0324,46.3613 72.0044,46.5243 C71.8044,47.7153 71.2464,48.7403 70.4704,49.6243 C69.5344,50.6923 68.3834,51.4263 66.9084,51.4743 C65.3514,51.3913 64.1714,50.6423 63.2394,49.4803 C62.5174,48.5803 62.0054,47.5593 61.7634,46.4193 L61.7634,46.4193 Z M56.4214,55.3173 C56.9754,54.9253 57.6014,54.7223 58.2624,54.5923 C59.5434,54.3413 60.8104,54.0293 62.0384,53.5803 C62.1504,53.5393 62.2554,53.4833 62.3664,53.4403 C63.0984,53.1543 63.5914,52.7133 63.4874,51.8333 C63.4724,51.7053 63.4984,51.6633 63.5424,51.6633 C63.5914,51.6633 63.6644,51.7153 63.7304,51.7613 C64.2824,52.1423 64.8784,52.4153 65.5204,52.6273 C65.9944,52.7843 66.4554,52.8553 66.9074,52.8553 C67.7804,52.8553 68.6164,52.5893 69.4374,52.1633 C69.6494,52.0543 69.8524,51.9263 70.0554,51.8033 C70.1844,51.7253 70.2644,51.6793 70.3134,51.6793 C70.3834,51.6793 70.3894,51.7733 70.3784,52.0033 C70.3474,52.6403 70.6404,53.0403 71.1974,53.2963 C72.1934,53.7553 73.2424,54.0503 74.3024,54.3163 C75.0834,54.5123 75.8924,54.5873 76.6494,54.8863 C77.0534,55.0463 77.4134,55.2743 77.7454,55.5493 C77.7924,55.5883 77.8194,55.6533 77.8514,55.7003 C77.7714,55.8243 77.6674,55.8653 77.5474,55.9003 C76.5924,56.1813 75.6494,56.5083 74.6834,56.7443 L71.2024,57.4533 C70.2144,57.5943 69.2234,57.7623 68.2204,57.7623 C67.9564,57.7623 67.7604,57.8453 67.5964,58.0413 C67.5204,58.1323 67.4294,58.2123 67.3434,58.2963 C67.1634,58.4733 67.0674,58.5663 66.9764,58.5663 C66.8884,58.5663 66.8044,58.4813 66.6534,58.3033 C66.2914,57.8773 65.8614,57.7733 65.3214,57.7673 C62.2734,57.7343 59.3234,57.1713 56.4884,56.0393 C56.3174,55.9703 56.0564,55.9403 56.0274,55.7633 C55.9894,55.5313 56.2524,55.4363 56.4214,55.3173 L56.4214,55.3173 Z M79.8884,58.4073 C79.6754,58.7973 79.3294,59.0753 78.8124,59.2743 C78.5194,59.3863 78.2634,59.4733 78.0294,59.5383 C76.3244,60.0133 74.4324,60.2803 72.0964,60.3783 L72.0274,60.3723 C71.9324,60.3613 71.8364,60.3533 71.7424,60.3533 C71.4684,60.3533 71.2454,60.4173 71.0654,60.5093 L62.8254,60.5093 C62.6734,60.4373 62.4854,60.3903 62.2544,60.3893 C60.9674,60.3803 59.6904,60.2353 58.6114,60.0943 C57.3694,59.9313 56.3404,59.7513 55.3564,59.3993 C54.5744,59.1213 54.1804,58.8493 53.9764,58.4323 L53.9764,57.9973 C54.0184,57.9103 54.0594,57.8223 54.1014,57.7343 C54.2564,57.4053 54.4034,57.0943 54.5674,56.8013 C54.7214,56.5253 54.8874,56.2713 55.0644,56.0383 C55.2334,56.6933 55.8524,56.8853 56.0634,56.9503 L56.1174,56.9673 C59.0204,58.1273 62.1134,58.7323 65.3104,58.7673 C65.7394,58.7713 65.8094,58.8553 65.8914,58.9513 C66.0864,59.1813 66.4144,59.5663 66.9764,59.5663 C67.4774,59.5663 67.7924,59.2573 68.0444,59.0093 L68.1034,58.9523 C68.1684,58.8903 68.2334,58.8283 68.2934,58.7623 C69.2084,58.7553 70.0924,58.6253 70.9484,58.5003 L71.3434,58.4423 L71.3724,58.4383 L71.4014,58.4323 L74.9214,57.7153 C75.5914,57.5513 76.2464,57.3473 76.8804,57.1503 C77.1964,57.0513 77.5124,56.9533 77.8294,56.8603 C77.9864,56.8133 78.4044,56.6913 78.6934,56.2393 L78.8194,56.0543 C78.9984,56.2943 79.1624,56.5573 79.3114,56.8443 C79.4714,57.1503 79.6234,57.4613 79.7754,57.7713 L79.8884,58.0013 L79.8884,58.4073 Z" id="Fill-3" fill="#BFBEBD"></path>
                        <path d="M39.1621,33.6627 C38.3601,32.1247 37.1351,31.0857 35.4611,30.6157 C35.2221,30.5487 35.0951,30.4327 34.9701,30.2617 C34.5501,29.6887 34.3911,29.0137 34.2461,28.3427 C34.0661,27.5047 34.0101,26.6487 33.9151,25.7977 C33.7811,24.6007 33.8491,23.4087 33.8081,22.2147 C33.7901,21.7077 33.8781,21.2187 33.9851,20.7307 C33.9861,20.7297 33.9871,20.7287 33.9871,20.7277 C34.2391,19.5847 34.4371,18.4297 34.3591,17.2597 C34.2441,15.5307 33.8691,13.8677 32.7871,12.4477 C32.0921,11.5367 31.2091,10.8547 30.1751,10.3707 C30.1551,10.3617 30.1331,10.3547 30.1131,10.3457 C30.0201,10.3037 29.9251,10.2617 29.8261,10.2307 C29.7881,10.2197 29.7481,10.2197 29.7091,10.2107 C29.6301,10.1937 29.5521,10.1707 29.4711,10.1707 C29.4541,10.1707 29.4381,10.1717 29.4211,10.1727 C29.1311,10.1877 28.8421,10.1817 28.5531,10.1727 C28.4391,10.1687 28.3251,10.1667 28.2111,10.1607 C27.9561,10.1467 27.7001,10.1297 27.4451,10.1087 C27.0821,10.0797 26.7201,10.0497 26.3561,10.0277 C26.2961,10.0247 26.2351,10.0247 26.1741,10.0217 C25.9591,10.0107 25.7441,9.9997 25.5281,9.9997 C25.4431,9.9997 25.3571,10.0007 25.2711,10.0037 C23.5951,10.0477 22.1661,10.6277 20.9291,11.7397 C19.7031,12.8427 18.8961,14.1907 18.4961,15.7867 C18.2911,16.6037 18.2251,17.4337 18.2691,18.2717 C18.2941,18.7557 18.2411,19.2007 17.9951,19.6437 C17.6901,20.1927 17.8191,20.8177 17.8861,21.4037 C17.9151,21.6597 17.9771,21.9167 17.9771,22.1787 C17.9801,23.5927 18.0051,25.0077 17.9711,26.4207 C17.9411,27.6117 17.8371,28.8007 17.7051,29.9867 C17.6731,30.2727 17.5081,30.3587 17.3051,30.4107 C17.0531,30.4757 16.7941,30.5067 16.5381,30.5657 C14.7681,30.9727 13.5261,32.0457 12.6581,33.5947 C12.3941,34.0657 12.1781,34.5647 11.9401,35.0507 L11.9401,35.9137 C12.2921,36.8767 13.1011,37.3077 13.9841,37.6227 C15.1021,38.0217 16.2691,38.2127 17.4451,38.3667 C18.6971,38.5307 19.9481,38.6617 21.2111,38.6707 C21.3041,38.6717 21.4041,38.6697 21.4361,38.7907 L30.3561,38.7907 C30.4571,38.6647 30.5791,38.6347 30.7061,38.6347 C30.8221,38.6347 30.9421,38.6597 31.0541,38.6597 C31.0631,38.6597 31.0721,38.6597 31.0821,38.6597 C33.1721,38.5717 35.2411,38.3457 37.2621,37.7827 C37.5571,37.7007 37.8481,37.5987 38.1351,37.4887 C38.9131,37.1907 39.5201,36.7007 39.8521,35.9137 L39.8521,35.0507 C39.6221,34.5877 39.4011,34.1207 39.1621,33.6627 L39.1621,33.6627 Z M34.0941,30.7557 C33.8981,30.7167 33.7031,30.6767 33.5101,30.6287 C32.5421,30.3857 31.5181,30.1017 30.5791,29.6687 C30.3301,29.5547 30.3331,29.4937 30.3401,29.3327 C30.3531,29.0727 30.3741,28.6367 30.0401,28.2857 L29.7611,28.0147 C29.9061,27.8737 30.0471,27.7237 30.1861,27.5647 C31.0831,26.5417 31.6631,25.4147 31.9151,24.1837 C32.3941,23.9217 32.6541,23.4937 32.8231,23.1787 C32.8231,23.2767 32.8241,23.3737 32.8241,23.4707 C32.8261,24.2607 32.8281,25.0767 32.9211,25.9087 C32.9441,26.1097 32.9641,26.3107 32.9841,26.5117 C33.0511,27.1757 33.1201,27.8617 33.2691,28.5527 C33.4021,29.1717 33.5821,30.0087 34.0941,30.7557 L34.0941,30.7557 Z M21.4581,29.2317 C21.4841,29.4497 21.5001,29.5817 20.9661,29.7897 C20.9001,29.8157 20.8351,29.8447 20.7701,29.8737 C20.7331,29.8907 20.6961,29.9087 20.6591,29.9217 C20.0201,30.1557 19.3401,30.3617 18.5811,30.5507 C18.6521,30.3857 18.6841,30.2247 18.6981,30.0967 C18.8581,28.6667 18.9441,27.5067 18.9701,26.4457 C18.9961,25.3987 18.9891,24.3407 18.9831,23.3177 L18.9831,23.2587 C19.1251,23.5077 19.3711,23.8977 19.8061,24.1557 C20.0911,25.3177 20.6341,26.4037 21.4231,27.3877 C21.6011,27.6097 21.7861,27.8167 21.9781,28.0077 L21.7221,28.2957 C21.5711,28.4647 21.4031,28.7647 21.4581,29.2317 L21.4581,29.2317 Z M20.7271,23.7007 C20.6971,23.5577 20.6951,23.4337 20.5121,23.3807 C20.1651,23.2807 19.9791,22.9907 19.8141,22.6977 C19.4071,21.9757 19.2341,21.1967 19.2711,20.3697 C19.2711,20.3677 19.2711,20.3677 19.2711,20.3667 C19.2761,20.2667 19.2991,20.1917 19.3451,20.1407 C19.3581,20.1247 19.3901,20.1267 19.4081,20.1167 C19.4531,20.0897 19.4971,20.0607 19.5751,20.0647 C19.5941,20.0657 19.6131,20.0667 19.6321,20.0667 C19.6371,20.0667 19.6421,20.0667 19.6471,20.0667 C19.6941,20.0657 19.7421,20.0647 19.7881,20.0687 L19.7891,20.0687 C19.8081,20.0707 19.8271,20.0717 19.8461,20.0717 C19.9291,20.0717 20.0151,20.0587 20.0971,20.0587 C20.1851,20.0587 20.2701,20.0727 20.3451,20.1327 C20.4911,20.2517 20.4091,20.4497 20.4431,20.6087 C20.5381,21.0497 20.6301,21.4907 20.7261,21.9307 C20.7361,21.9757 20.7641,22.0167 20.7831,22.0597 C20.8061,22.0197 20.8411,21.9827 20.8521,21.9397 C20.9481,21.5487 21.0511,21.1587 21.1311,20.7637 C21.2911,19.9727 21.2831,19.9417 21.9921,19.8267 C21.9941,19.8267 21.9981,19.8257 22.0001,19.8257 C23.4531,19.5917 24.7861,19.0327 26.0611,18.3327 C27.1931,17.7117 28.2341,16.9487 29.2181,16.1097 C29.2801,16.0567 29.3271,16.0177 29.3661,15.9917 C29.3771,15.9847 29.3841,15.9847 29.3931,15.9797 C29.4181,15.9667 29.4401,15.9587 29.4591,15.9607 C29.4811,15.9637 29.5001,15.9827 29.5201,16.0077 C29.5271,16.0167 29.5351,16.0187 29.5421,16.0307 C29.5701,16.0757 29.6001,16.1397 29.6411,16.2317 C29.7781,16.5347 29.9081,16.8417 30.0471,17.1437 C30.3581,17.8167 30.7251,18.4587 31.1941,19.0347 C31.4311,19.3257 31.5621,19.6337 31.5161,20.0167 C31.4931,20.2057 31.5081,20.3997 31.5171,20.5907 C31.5201,20.6527 31.5571,20.7127 31.5781,20.7727 C31.6131,20.7117 31.6491,20.6507 31.6831,20.5887 C31.7071,20.5477 31.7341,20.5067 31.7521,20.4627 C31.8221,20.2947 31.7681,20.0477 32.0061,19.9897 C32.0091,19.9887 32.0121,19.9887 32.0161,19.9887 C32.0251,19.9887 32.0431,20.0067 32.0551,20.0117 C32.2961,20.2917 32.4931,20.5357 32.5081,20.6157 C32.5081,20.6177 32.5121,20.6237 32.5121,20.6257 C32.5181,20.7447 32.5281,20.8697 32.5011,20.9837 C32.3701,21.5377 32.2621,22.0967 31.9931,22.6107 C31.8221,22.9357 31.6491,23.2577 31.2811,23.3707 C31.0411,23.4447 30.9961,23.6427 30.9681,23.8057 C30.7681,24.9967 30.2101,26.0217 29.4351,26.9057 C28.4981,27.9737 27.3471,28.7077 25.8721,28.7557 C24.3151,28.6727 23.1351,27.9237 22.2031,26.7617 C21.4811,25.8617 20.9691,24.8407 20.7271,23.7007 L20.7271,23.7007 Z M15.3851,32.5987 C15.9391,32.2067 16.5651,32.0037 17.2261,31.8737 C18.5071,31.6227 19.7741,31.3107 21.0021,30.8617 C21.1141,30.8207 21.2191,30.7647 21.3301,30.7217 C22.0621,30.4357 22.5551,29.9947 22.4511,29.1147 C22.4361,28.9867 22.4621,28.9447 22.5061,28.9447 C22.5561,28.9447 22.6281,28.9967 22.6941,29.0427 C23.2461,29.4237 23.8421,29.6967 24.4841,29.9087 C24.9581,30.0657 25.4191,30.1367 25.8711,30.1367 C26.7441,30.1367 27.5801,29.8707 28.4011,29.4447 C28.6131,29.3357 28.8161,29.2077 29.0201,29.0847 C29.1481,29.0067 29.2281,28.9607 29.2771,28.9607 C29.3471,28.9607 29.3531,29.0547 29.3421,29.2847 C29.3111,29.9217 29.6041,30.3217 30.1611,30.5777 C31.1571,31.0367 32.2061,31.3317 33.2661,31.5977 C34.0471,31.7937 34.8561,31.8687 35.6131,32.1677 C36.0171,32.3277 36.3771,32.5557 36.7091,32.8307 C36.7561,32.8697 36.7831,32.9347 36.8151,32.9817 C36.7351,33.1057 36.6311,33.1467 36.5111,33.1817 C35.5561,33.4627 34.6131,33.7897 33.6471,34.0257 L30.1661,34.7347 C29.1781,34.8757 28.1871,35.0437 27.1841,35.0437 C26.9201,35.0437 26.7241,35.1267 26.5601,35.3227 C26.4841,35.4137 26.3931,35.4937 26.3071,35.5777 C26.1271,35.7547 26.0311,35.8477 25.9401,35.8477 C25.8521,35.8477 25.7681,35.7627 25.6171,35.5847 C25.2551,35.1587 24.8251,35.0547 24.2851,35.0487 C21.2371,35.0157 18.2881,34.4527 15.4521,33.3207 C15.2811,33.2517 15.0201,33.2217 14.9911,33.0447 C14.9531,32.8127 15.2161,32.7177 15.3851,32.5987 L15.3851,32.5987 Z M38.8521,35.6887 C38.6391,36.0787 38.2931,36.3567 37.7761,36.5557 C37.4831,36.6677 37.2271,36.7547 36.9941,36.8197 C35.2881,37.2947 33.3961,37.5617 31.0601,37.6597 L30.9911,37.6537 C30.8961,37.6427 30.8001,37.6347 30.7061,37.6347 C30.4321,37.6347 30.2091,37.6987 30.0301,37.7907 L21.7891,37.7907 C21.6371,37.7187 21.4491,37.6717 21.2181,37.6707 C19.9311,37.6617 18.6541,37.5167 17.5751,37.3757 C16.3331,37.2127 15.3041,37.0327 14.3201,36.6807 C13.5391,36.4027 13.1441,36.1307 12.9401,35.7137 L12.9401,35.2787 C12.9821,35.1917 13.0231,35.1037 13.0651,35.0157 C13.2201,34.6867 13.3671,34.3757 13.5311,34.0827 C13.6851,33.8067 13.8511,33.5527 14.0281,33.3197 C14.1971,33.9747 14.8161,34.1667 15.0271,34.2317 L15.0811,34.2487 C17.9841,35.4087 21.0771,36.0137 24.2741,36.0487 C24.7031,36.0527 24.7731,36.1367 24.8551,36.2327 C25.0501,36.4627 25.3781,36.8477 25.9401,36.8477 C26.4411,36.8477 26.7561,36.5387 27.0081,36.2907 L27.0671,36.2337 C27.1321,36.1717 27.1971,36.1097 27.2571,36.0437 C28.1721,36.0367 29.0561,35.9067 29.9121,35.7817 L30.3071,35.7237 L30.3361,35.7197 L30.3651,35.7137 L33.8851,34.9967 C34.5551,34.8327 35.2101,34.6287 35.8441,34.4317 C36.1601,34.3327 36.4761,34.2347 36.7931,34.1417 C36.9501,34.0947 37.3681,33.9727 37.6571,33.5207 L37.7831,33.3357 C37.9621,33.5757 38.1261,33.8387 38.2751,34.1257 C38.4351,34.4317 38.5871,34.7427 38.7391,35.0527 L38.8521,35.2827 L38.8521,35.6887 Z" id="Fill-5" fill="#BFBEBD"></path>
                        <path d="M67.0348,72.0139 C67.0348,71.0989 67.6338,70.5349 68.1978,69.9809 C68.6388,69.5409 69.0218,69.1349 69.0218,68.5929 C69.0218,67.9259 68.6498,67.4629 67.8138,67.4629 C66.9678,67.4629 66.3908,68.0389 66.3118,68.9309 L65.4318,68.9309 C65.5108,67.6099 66.4478,66.6839 67.8248,66.6839 C69.3608,66.6839 69.9708,67.6099 69.9708,68.5579 C69.9708,69.3939 69.4068,69.9249 68.8648,70.4439 C68.3558,70.9299 67.8708,71.4039 67.8708,72.0929 L67.8708,72.5779 L67.0348,72.5779 L67.0348,72.0139 Z M66.7078,74.1929 C66.7078,73.7859 67.0348,73.4709 67.4308,73.4709 C67.8248,73.4709 68.1528,73.7859 68.1528,74.1929 C68.1528,74.5989 67.8248,74.9159 67.4308,74.9159 C67.0348,74.9159 66.7078,74.5989 66.7078,74.1929 L66.7078,74.1929 Z" id="Fill-7" fill="#BFBEBD"></path>
                        <path d="M60.3367,93.9954 C60.4577,94.1594 60.5527,94.3514 60.6187,94.5444 C60.8307,95.1634 61.1217,95.7384 61.4777,96.2854 C61.6187,96.5014 63.5097,99.3354 66.7497,99.3354 C69.9907,99.3354 71.9897,96.4574 72.0477,96.3714 C72.4387,95.7854 72.7447,95.1534 72.9847,94.4944 C73.0667,94.2704 73.1557,94.0634 73.2997,93.8764 C74.1427,92.7824 74.3567,91.4744 74.5387,90.1634 C74.5937,89.7754 74.4697,89.3754 74.2917,89.0384 C74.0267,88.5364 74.0927,88.0434 74.1617,87.5254 C74.4107,85.6524 74.2517,83.8514 73.1807,82.2174 C72.8907,81.7764 72.5137,81.4184 72.1217,81.0764 C71.9137,80.8954 71.8217,80.7294 72.0097,80.4854 C72.3077,80.1014 72.2657,79.6584 72.2207,79.2154 L71.5947,79.2154 C71.4877,79.4384 71.2787,79.3494 71.1147,79.3574 C70.3887,79.3924 69.6637,79.3974 68.9367,79.4784 C68.0837,79.5734 67.2327,79.3594 66.3777,79.3174 C66.3417,79.3154 66.3087,79.2504 66.2737,79.2154 L65.1787,79.2154 C64.7637,79.4654 64.2747,79.5304 63.8507,79.7744 C63.1327,80.1884 62.5297,80.6964 62.1757,81.4604 C62.0617,81.7064 61.9007,81.8234 61.6157,81.9054 C60.5197,82.2234 59.9087,83.0524 59.5757,84.0904 C59.4437,84.5034 59.3547,84.9384 59.3717,85.3914 C59.4037,86.2484 59.3147,87.1084 59.5157,87.9584 C59.5877,88.2634 59.5387,88.5654 59.3627,88.8564 C59.0087,89.4434 58.9887,90.1114 59.1027,90.7514 C59.3077,91.9034 59.6237,93.0274 60.3367,93.9954 M61.0587,89.7004 C61.2497,89.5984 61.3167,89.4554 61.3417,89.2454 C61.4397,88.4014 61.6917,87.6064 62.1227,86.8674 C62.5427,86.1454 63.1477,85.6794 63.9687,85.5114 C64.5227,85.3974 65.0477,85.5764 65.5677,85.7244 C65.9047,85.8204 66.2187,85.9954 66.5517,86.1124 C68.0767,86.6484 69.6227,87.0284 71.2547,86.6724 C71.4797,86.6224 71.6327,86.7424 71.7527,86.8804 C72.0767,87.2534 72.3577,87.6554 72.3367,88.1884 C72.3297,88.3794 72.3357,88.5704 72.3357,88.8614 C72.3317,88.9244 72.3267,89.0884 72.3117,89.2514 C72.2917,89.4664 72.3517,89.6574 72.5777,89.6874 C72.9447,89.7354 72.9817,89.9674 72.9947,90.2654 C73.0337,91.2184 72.6897,92.0684 72.3317,92.9234 C72.1877,93.2674 71.7167,93.3194 71.6787,93.7204 C71.6447,94.0794 71.5157,94.4074 71.3727,94.7274 C70.6287,96.3934 69.4927,97.6284 67.6687,98.1384 C66.8357,98.3704 66.0577,98.2434 65.2857,97.9424 C64.0937,97.4774 63.2217,96.6444 62.5997,95.5424 C62.3197,95.0474 62.0647,94.5424 61.9467,93.9704 C61.8927,93.7064 61.8667,93.3814 61.5107,93.2364 C61.3657,93.1784 61.2837,92.9434 61.1927,92.7784 C60.8217,92.1014 60.6717,91.3544 60.5357,90.6084 C60.4417,90.0944 60.5267,89.9844 61.0587,89.7004" id="Fill-9" fill="#BFBEBD"></path>
                        <g id="Group-13" transform="translate(52.000000, 97.187000)">
                            <mask id="mask-2" fill="white">
                                <use xlink:href="#path-1"></use>
                            </mask>
                            <g id="Clip-12"></g>
                            <path d="M28.6499,6.1381 C28.5029,5.6541 28.2769,5.2071 28.0329,4.7721 C27.0659,3.0441 25.6079,1.9941 23.6449,1.6551 C23.2489,1.5861 22.8619,1.4651 22.4659,1.3911 C21.5739,1.2251 20.7189,0.9411 19.8829,0.5981 C19.8129,0.5691 19.7549,0.5461 19.7039,0.5461 C19.6429,0.5461 19.5919,0.5801 19.5439,0.6801 C19.4719,0.8301 19.3629,0.9611 19.2769,1.1041 C18.5159,2.3731 15.9149,3.7641 14.8049,3.7641 C13.5379,3.7641 11.0809,2.3711 10.1289,0.7711 C10.0509,0.6401 9.9969,0.5621 9.8869,0.5621 C9.8379,0.5621 9.7769,0.5771 9.6979,0.6111 C8.5149,1.1171 7.2679,1.4281 6.0049,1.6511 C3.9879,2.0051 2.4959,3.0651 1.5399,4.8731 C1.2989,5.3301 1.0789,5.7971 0.8489,6.2591 L0.8489,7.1231 C1.1659,7.8541 1.7099,8.3431 2.4419,8.6441 C3.6609,9.1441 4.9419,9.3881 6.2379,9.5591 C6.8519,9.6401 7.4799,9.6601 8.0859,9.7541 C9.0599,9.9051 10.0479,9.7641 11.0099,9.9811 C11.0739,9.9811 11.1369,9.9811 11.1999,9.9811 C12.5849,9.9811 13.9689,10.0001 15.3529,10.0001 C17.4709,10.0001 19.5879,9.9561 21.7029,9.7351 C23.2199,9.5761 24.7249,9.3961 26.1969,8.9891 C26.8439,8.8101 27.4569,8.5631 27.9989,8.1531 C28.6649,7.6491 28.8919,6.9321 28.6499,6.1381 M27.3949,7.3551 C27.0189,7.6401 26.5539,7.8531 25.9309,8.0251 C24.5199,8.4151 23.0769,8.5861 21.5989,8.7411 C19.4129,8.9691 17.2149,9.0001 15.3529,9.0001 C14.6639,9.0001 13.9739,8.9951 13.2839,8.9911 C12.5889,8.9861 11.8949,8.9811 11.1999,8.9811 L11.1149,8.9811 C10.5279,8.8621 9.9669,8.8511 9.4219,8.8401 C9.0049,8.8311 8.6099,8.8231 8.2399,8.7661 C7.8719,8.7091 7.5089,8.6781 7.1569,8.6471 C6.8939,8.6251 6.6299,8.6021 6.3689,8.5681 C5.2919,8.4261 4.0299,8.2141 2.8219,7.7191 C2.3689,7.5331 2.0559,7.2681 1.8489,6.8931 L1.8489,6.4921 L1.9629,6.2611 C2.1129,5.9531 2.2639,5.6441 2.4239,5.3411 C3.2259,3.8241 4.4539,2.9391 6.1779,2.6351 C7.4889,2.4051 8.5839,2.1171 9.5759,1.7391 C10.8609,3.4501 13.3619,4.7641 14.8049,4.7641 C16.2069,4.7641 19.0459,3.2601 20.0579,1.7401 C20.8429,2.0341 21.5749,2.2421 22.2829,2.3741 C22.4519,2.4061 22.6189,2.4471 22.7859,2.4881 C23.0149,2.5441 23.2439,2.6001 23.4749,2.6401 C25.1279,2.9251 26.3339,3.7831 27.1609,5.2601 C27.3519,5.6021 27.5649,6.0081 27.6929,6.4291 C27.8149,6.8281 27.7259,7.1051 27.3949,7.3551" id="Fill-11" fill="#BFBEBD" mask="url(#mask-2)"></path>
                        </g>
                        <path d="M60.6237,14.7801 C60.7447,14.9441 60.8397,15.1361 60.9057,15.3291 C61.1177,15.9481 61.4087,16.5231 61.7647,17.0701 C61.9057,17.2861 63.7967,20.1201 67.0367,20.1201 C70.2777,20.1201 72.2767,17.2421 72.3347,17.1561 C72.7257,16.5701 73.0317,15.9381 73.2717,15.2791 C73.3537,15.0551 73.4427,14.8481 73.5867,14.6611 C74.4297,13.5671 74.6437,12.2591 74.8267,10.9481 C74.8807,10.5601 74.7567,10.1601 74.5787,9.8231 C74.3137,9.3211 74.3797,8.8281 74.4487,8.3101 C74.6977,6.4371 74.5387,4.6361 73.4677,3.0021 C73.1777,2.5611 72.8007,2.2031 72.4087,1.8611 C72.2007,1.6801 72.1087,1.5141 72.2967,1.2701 C72.5947,0.8861 72.5527,0.4431 72.5077,0.0001 L71.8817,0.0001 C71.7747,0.2231 71.5657,0.1341 71.4017,0.1421 C70.6757,0.1771 69.9507,0.1821 69.2237,0.2631 C68.3707,0.3581 67.5197,0.1441 66.6647,0.1021 C66.6287,0.1001 66.5957,0.0351 66.5607,0.0001 L65.4657,0.0001 C65.0507,0.2501 64.5617,0.3151 64.1377,0.5591 C63.4197,0.9731 62.8167,1.4811 62.4627,2.2451 C62.3487,2.4911 62.1877,2.6081 61.9027,2.6901 C60.8067,3.0081 60.1957,3.8371 59.8627,4.8751 C59.7307,5.2881 59.6417,5.7231 59.6587,6.1761 C59.6907,7.0331 59.6017,7.8931 59.8027,8.7431 C59.8747,9.0481 59.8257,9.3501 59.6497,9.6411 C59.2957,10.2281 59.2757,10.8961 59.3897,11.5361 C59.5947,12.6881 59.9107,13.8121 60.6237,14.7801 M61.3457,10.4851 C61.5367,10.3831 61.6037,10.2401 61.6287,10.0301 C61.7267,9.1861 61.9787,8.3911 62.4097,7.6521 C62.8297,6.9301 63.4347,6.4641 64.2557,6.2961 C64.8097,6.1821 65.3347,6.3611 65.8547,6.5091 C66.1917,6.6051 66.5057,6.7801 66.8387,6.8971 C68.3637,7.4331 69.9097,7.8131 71.5417,7.4571 C71.7667,7.4071 71.9197,7.5271 72.0397,7.6651 C72.3637,8.0381 72.6447,8.4401 72.6237,8.9731 C72.6167,9.1641 72.6227,9.3551 72.6227,9.6461 C72.6187,9.7091 72.6137,9.8731 72.5987,10.0361 C72.5787,10.2511 72.6387,10.4421 72.8647,10.4721 C73.2317,10.5201 73.2697,10.7521 73.2817,11.0501 C73.3207,12.0031 72.9767,12.8531 72.6187,13.7081 C72.4747,14.0521 72.0037,14.1041 71.9657,14.5051 C71.9317,14.8641 71.8027,15.1921 71.6597,15.5121 C70.9157,17.1781 69.7797,18.4131 67.9557,18.9231 C67.1227,19.1551 66.3447,19.0281 65.5727,18.7271 C64.3807,18.2621 63.5087,17.4291 62.8867,16.3271 C62.6067,15.8321 62.3527,15.3271 62.2337,14.7551 C62.1797,14.4911 62.1537,14.1661 61.7977,14.0211 C61.6527,13.9631 61.5707,13.7281 61.4797,13.5631 C61.1087,12.8861 60.9587,12.1391 60.8227,11.3931 C60.7287,10.8791 60.8137,10.7691 61.3457,10.4851" id="Fill-14" fill="#BFBEBD"></path>
                        <path d="M80.9369,24.1098 C80.7899,23.6258 80.5639,23.1788 80.3209,22.7438 C79.3529,21.0158 77.8949,19.9658 75.9329,19.6268 C75.5359,19.5578 75.1489,19.4368 74.7529,19.3628 C73.8609,19.1968 73.0059,18.9128 72.1699,18.5698 C72.0999,18.5408 72.0419,18.5178 71.9909,18.5178 C71.9299,18.5178 71.8789,18.5518 71.8309,18.6518 C71.7589,18.8018 71.6499,18.9328 71.5639,19.0758 C70.8029,20.3448 68.2019,21.7358 67.0919,21.7358 C65.8249,21.7358 63.3679,20.3428 62.4159,18.7438 C62.3379,18.6118 62.2839,18.5338 62.1739,18.5338 C62.1249,18.5338 62.0639,18.5488 61.9849,18.5828 C60.8019,19.0888 59.5549,19.3998 58.2919,19.6228 C56.2749,19.9768 54.7829,21.0368 53.8269,22.8448 C53.5859,23.3018 53.3659,23.7688 53.1359,24.2308 L53.1359,25.0948 C53.4529,25.8258 53.9969,26.3148 54.7299,26.6158 C55.9479,27.1158 57.2289,27.3608 58.5249,27.5308 C59.1389,27.6118 59.7669,27.6318 60.3729,27.7258 C61.3469,27.8768 62.3349,27.7358 63.2969,27.9528 C63.3609,27.9528 63.4239,27.9528 63.4869,27.9528 C64.8719,27.9528 66.2559,27.9718 67.6399,27.9718 C69.7579,27.9718 71.8749,27.9278 73.9899,27.7068 C75.5069,27.5478 77.0119,27.3678 78.4839,26.9608 C79.1309,26.7818 79.7439,26.5348 80.2859,26.1248 C80.9519,25.6208 81.1789,24.9038 80.9369,24.1098 M79.6819,25.3268 C79.3059,25.6118 78.8409,25.8248 78.2179,25.9968 C76.8069,26.3868 75.3639,26.5578 73.8859,26.7128 C71.6999,26.9408 69.5019,26.9718 67.6399,26.9718 C66.9509,26.9718 66.2609,26.9668 65.5709,26.9628 C64.8759,26.9578 64.1819,26.9528 63.4869,26.9528 L63.4019,26.9528 C62.8149,26.8338 62.2539,26.8228 61.7089,26.8118 C61.2919,26.8028 60.8979,26.7948 60.5269,26.7378 C60.1589,26.6808 59.7959,26.6498 59.4449,26.6188 C59.1809,26.5968 58.9169,26.5738 58.6559,26.5398 C57.5789,26.3978 56.3169,26.1858 55.1089,25.6908 C54.6559,25.5048 54.3429,25.2398 54.1359,24.8648 L54.1359,24.4638 L54.2499,24.2328 C54.3999,23.9248 54.5509,23.6158 54.7109,23.3128 C55.5129,21.7958 56.7409,20.9108 58.4649,20.6068 C59.7759,20.3768 60.8709,20.0888 61.8629,19.7108 C63.1479,21.4218 65.6489,22.7358 67.0919,22.7358 C68.4939,22.7358 71.3339,21.2318 72.3449,19.7118 C73.1299,20.0058 73.8619,20.2138 74.5699,20.3458 C74.7389,20.3778 74.9059,20.4188 75.0729,20.4598 C75.3019,20.5158 75.5309,20.5718 75.7619,20.6118 C77.4149,20.8968 78.6209,21.7548 79.4479,23.2318 C79.6389,23.5738 79.8519,23.9808 79.9799,24.4008 C80.1019,24.7998 80.0129,25.0768 79.6819,25.3268" id="Fill-16" fill="#BFBEBD"></path>
                        <path d="M118.1604,77.4154 C118.2814,77.5794 118.3764,77.7714 118.4434,77.9644 C118.6544,78.5834 118.9454,79.1594 119.3014,79.7054 C119.4424,79.9214 121.3334,82.7554 124.5734,82.7554 C127.8144,82.7554 129.8134,79.8774 129.8714,79.7914 C130.2624,79.2054 130.5684,78.5734 130.8084,77.9144 C130.8904,77.6904 130.9794,77.4834 131.1234,77.2964 C131.9664,76.2024 132.1804,74.8944 132.3634,73.5834 C132.4174,73.1954 132.2934,72.7954 132.1154,72.4584 C131.8504,71.9564 131.9164,71.4634 131.9854,70.9454 C132.2344,69.0724 132.0754,67.2714 131.0044,65.6374 C130.7144,65.1954 130.3374,64.8384 129.9454,64.4964 C129.7374,64.3154 129.6454,64.1494 129.8344,63.9064 C130.1314,63.5214 130.0894,63.0784 130.0444,62.6354 L129.4184,62.6354 C129.3114,62.8584 129.1034,62.7694 128.9384,62.7774 C128.2124,62.8124 127.4874,62.8174 126.7614,62.8984 C125.9084,62.9924 125.0564,62.7794 124.2014,62.7374 C124.1654,62.7354 124.1324,62.6704 124.0974,62.6354 L123.0024,62.6354 C122.5874,62.8854 122.0984,62.9504 121.6744,63.1944 C120.9564,63.6084 120.3534,64.1164 119.9994,64.8804 C119.8854,65.1264 119.7244,65.2434 119.4394,65.3254 C118.3434,65.6434 117.7324,66.4724 117.3994,67.5104 C117.2674,67.9234 117.1784,68.3584 117.1954,68.8114 C117.2274,69.6684 117.1384,70.5284 117.3394,71.3784 C117.4114,71.6834 117.3624,71.9854 117.1864,72.2764 C116.8324,72.8634 116.8124,73.5314 116.9264,74.1714 C117.1314,75.3234 117.4474,76.4474 118.1604,77.4154 M118.8834,73.1204 C119.0734,73.0184 119.1404,72.8754 119.1654,72.6654 C119.2634,71.8214 119.5164,71.0264 119.9464,70.2874 C120.3664,69.5654 120.9714,69.0994 121.7924,68.9314 C122.3464,68.8174 122.8714,68.9964 123.3914,69.1444 C123.7284,69.2404 124.0424,69.4154 124.3754,69.5324 C125.9004,70.0684 127.4464,70.4484 129.0784,70.0914 C129.3044,70.0424 129.4564,70.1624 129.5764,70.3004 C129.9004,70.6744 130.1814,71.0754 130.1604,71.6084 C130.1534,71.7994 130.1594,71.9904 130.1594,72.2814 C130.1554,72.3444 130.1504,72.5084 130.1354,72.6714 C130.1154,72.8864 130.1754,73.0774 130.4014,73.1074 C130.7684,73.1554 130.8064,73.3874 130.8184,73.6854 C130.8574,74.6384 130.5134,75.4884 130.1554,76.3434 C130.0114,76.6864 129.5404,76.7394 129.5024,77.1404 C129.4684,77.4994 129.3394,77.8274 129.1964,78.1474 C128.4524,79.8134 127.3164,81.0484 125.4924,81.5574 C124.6594,81.7904 123.8814,81.6634 123.1094,81.3624 C121.9174,80.8974 121.0464,80.0644 120.4234,78.9624 C120.1434,78.4674 119.8894,77.9624 119.7704,77.3894 C119.7164,77.1264 119.6904,76.8014 119.3344,76.6564 C119.1894,76.5984 119.1074,76.3634 119.0164,76.1984 C118.6454,75.5214 118.4954,74.7734 118.3594,74.0274 C118.2654,73.5144 118.3504,73.4044 118.8834,73.1204" id="Fill-18" fill="#BFBEBD"></path>
                        <path d="M138.4737,86.7451 C138.3267,86.2611 138.1007,85.8141 137.8567,85.3791 C136.8897,83.6511 135.4317,82.6011 133.4687,82.2621 C133.0727,82.1931 132.6857,82.0721 132.2897,81.9981 C131.3977,81.8321 130.5427,81.5481 129.7067,81.2051 C129.6367,81.1761 129.5787,81.1531 129.5277,81.1531 C129.4667,81.1531 129.4157,81.1871 129.3677,81.2871 C129.2957,81.4371 129.1867,81.5681 129.1007,81.7121 C128.3397,82.9801 125.7387,84.3711 124.6287,84.3711 C123.3617,84.3711 120.9047,82.9781 119.9527,81.3791 C119.8747,81.2471 119.8207,81.1691 119.7107,81.1691 C119.6617,81.1691 119.6007,81.1841 119.5217,81.2181 C118.3387,81.7241 117.0917,82.0351 115.8287,82.2581 C113.8117,82.6131 112.3197,83.6721 111.3637,85.4801 C111.1227,85.9371 110.9027,86.4041 110.6727,86.8661 L110.6727,87.7301 C110.9897,88.4611 111.5337,88.9501 112.2667,89.2511 C113.4847,89.7511 114.7657,89.9961 116.0617,90.1661 C116.6757,90.2471 117.3037,90.2671 117.9097,90.3611 C118.8837,90.5121 119.8717,90.3711 120.8337,90.5881 C120.8977,90.5881 120.9607,90.5881 121.0237,90.5881 C122.4087,90.5881 123.7927,90.6071 125.1767,90.6071 C127.2947,90.6071 129.4117,90.5631 131.5267,90.3421 C133.0437,90.1841 134.5487,90.0031 136.0207,89.5961 C136.6677,89.4171 137.2807,89.1701 137.8227,88.7601 C138.4887,88.2561 138.7157,87.5391 138.4737,86.7451 M137.2187,87.9631 C136.8427,88.2471 136.3777,88.4601 135.7547,88.6321 C134.3437,89.0221 132.9007,89.1931 131.4227,89.3481 C129.2367,89.5761 127.0387,89.6071 125.1767,89.6071 C124.4877,89.6071 123.7977,89.6021 123.1077,89.5981 C122.4127,89.5931 121.7187,89.5881 121.0237,89.5881 L120.9387,89.5881 C120.3517,89.4691 119.7907,89.4581 119.2457,89.4471 C118.8287,89.4391 118.4337,89.4311 118.0637,89.3731 C117.6957,89.3161 117.3327,89.2851 116.9807,89.2541 C116.7177,89.2321 116.4537,89.2091 116.1927,89.1751 C115.1157,89.0331 113.8537,88.8211 112.6457,88.3261 C112.1927,88.1401 111.8797,87.8751 111.6727,87.5001 L111.6727,87.0991 L111.7867,86.8681 C111.9367,86.5601 112.0877,86.2511 112.2477,85.9481 C113.0497,84.4311 114.2777,83.5461 116.0017,83.2431 C117.3127,83.0121 118.4077,82.7241 119.3997,82.3461 C120.6847,84.0571 123.1857,85.3711 124.6287,85.3711 C126.0307,85.3711 128.8697,83.8681 129.8817,82.3471 C130.6667,82.6411 131.3987,82.8491 132.1067,82.9811 C132.2757,83.0131 132.4427,83.0541 132.6097,83.0951 C132.8387,83.1521 133.0677,83.2071 133.2987,83.2471 C134.9517,83.5331 136.1577,84.3901 136.9847,85.8681 C137.1757,86.2091 137.3887,86.6161 137.5167,87.0361 C137.6387,87.4351 137.5497,87.7131 137.2187,87.9631" id="Fill-20" fill="#BFBEBD"></path>
                        <path d="M7.4876,75.5907 C7.6086,75.7547 7.7036,75.9467 7.7696,76.1397 C7.9816,76.7587 8.2726,77.3337 8.6286,77.8807 C8.7696,78.0957 10.6606,80.9307 13.9006,80.9307 C17.1416,80.9307 19.1406,78.0527 19.1986,77.9667 C19.5896,77.3807 19.8956,76.7487 20.1356,76.0897 C20.2176,75.8657 20.3066,75.6587 20.4506,75.4717 C21.2936,74.3777 21.5076,73.0697 21.6906,71.7587 C21.7446,71.3707 21.6206,70.9707 21.4426,70.6337 C21.1776,70.1317 21.2436,69.6387 21.3126,69.1207 C21.5616,67.2477 21.4026,65.4467 20.3316,63.8127 C20.0416,63.3707 19.6646,63.0137 19.2726,62.6717 C19.0646,62.4907 18.9726,62.3247 19.1616,62.0807 C19.4586,61.6967 19.4166,61.2537 19.3716,60.8107 L18.7456,60.8107 C18.6386,61.0337 18.4296,60.9447 18.2656,60.9527 C17.5396,60.9877 16.8146,60.9927 16.0886,61.0737 C15.2346,61.1687 14.3836,60.9547 13.5286,60.9127 C13.4926,60.9107 13.4596,60.8457 13.4246,60.8107 L12.3296,60.8107 C11.9146,61.0607 11.4256,61.1257 11.0016,61.3697 C10.2836,61.7837 9.6806,62.2917 9.3266,63.0557 C9.2126,63.3017 9.0516,63.4187 8.7666,63.5007 C7.6706,63.8187 7.0596,64.6477 6.7266,65.6857 C6.5946,66.0977 6.5056,66.5327 6.5226,66.9867 C6.5546,67.8437 6.4656,68.7037 6.6666,69.5537 C6.7386,69.8587 6.6896,70.1607 6.5136,70.4517 C6.1596,71.0387 6.1396,71.7067 6.2536,72.3467 C6.4586,73.4987 6.7746,74.6227 7.4876,75.5907 M8.2096,71.2957 C8.4006,71.1937 8.4676,71.0507 8.4926,70.8407 C8.5906,69.9967 8.8426,69.2017 9.2736,68.4627 C9.6936,67.7407 10.2986,67.2747 11.1196,67.1057 C11.6736,66.9927 12.1986,67.1717 12.7186,67.3197 C13.0556,67.4157 13.3696,67.5907 13.7026,67.7077 C15.2276,68.2437 16.7736,68.6237 18.4056,68.2677 C18.6316,68.2177 18.7836,68.3367 18.9036,68.4757 C19.2276,68.8487 19.5086,69.2507 19.4876,69.7837 C19.4806,69.9747 19.4866,70.1657 19.4866,70.4567 C19.4826,70.5197 19.4776,70.6837 19.4626,70.8467 C19.4426,71.0617 19.5026,71.2527 19.7286,71.2827 C20.0956,71.3307 20.1336,71.5617 20.1456,71.8607 C20.1846,72.8137 19.8406,73.6637 19.4826,74.5187 C19.3386,74.8627 18.8676,74.9147 18.8296,75.3157 C18.7956,75.6747 18.6666,76.0027 18.5236,76.3227 C17.7796,77.9887 16.6436,79.2237 14.8196,79.7327 C13.9866,79.9657 13.2086,79.8387 12.4366,79.5377 C11.2446,79.0727 10.3726,78.2397 9.7506,77.1377 C9.4706,76.6427 9.2166,76.1377 9.0976,75.5657 C9.0436,75.3017 9.0176,74.9767 8.6616,74.8317 C8.5166,74.7737 8.4346,74.5387 8.3436,74.3737 C7.9726,73.6967 7.8226,72.9487 7.6866,72.2037 C7.5926,71.6897 7.6776,71.5797 8.2096,71.2957" id="Fill-22" fill="#BFBEBD"></path>
                        <g id="Group-26" transform="translate(0.000000, 79.187000)">
                            <mask id="mask-4" fill="white">
                                <use xlink:href="#path-3"></use>
                            </mask>
                            <g id="Clip-25"></g>
                            <path d="M27.8008,5.7333 C27.6538,5.2493 27.4278,4.8023 27.1848,4.3673 C26.2168,2.6393 24.7588,1.5893 22.7968,1.2503 C22.3998,1.1813 22.0128,1.0603 21.6168,0.9863 C20.7248,0.8203 19.8698,0.5363 19.0348,0.1933 C18.9638,0.1643 18.9058,0.1413 18.8548,0.1413 C18.7938,0.1413 18.7428,0.1753 18.6948,0.2753 C18.6228,0.4253 18.5138,0.5563 18.4278,0.7003 C17.6668,1.9683 15.0658,3.3593 13.9558,3.3593 C12.6898,3.3593 10.2318,1.9663 9.2798,0.3673 C9.2018,0.2353 9.1478,0.1573 9.0378,0.1573 C8.9888,0.1573 8.9278,0.1723 8.8488,0.2063 C7.6658,0.7123 6.4188,1.0233 5.1558,1.2463 C3.1388,1.6003 1.6468,2.6603 0.6908,4.4683 C0.4498,4.9253 0.2298,5.3923 -0.0002,5.8543 L-0.0002,6.7183 C0.3168,7.4493 0.8608,7.9383 1.5938,8.2393 C2.8118,8.7393 4.0928,8.9843 5.3888,9.1543 C6.0028,9.2353 6.6308,9.2553 7.2378,9.3493 C8.2108,9.5003 9.1988,9.3593 10.1608,9.5763 C10.2248,9.5763 10.2878,9.5763 10.3508,9.5763 C11.7358,9.5763 13.1198,9.5953 14.5038,9.5953 C16.6218,9.5953 18.7388,9.5513 20.8538,9.3303 C22.3708,9.1713 23.8758,8.9913 25.3478,8.5843 C25.9948,8.4053 26.6078,8.1583 27.1498,7.7483 C27.8158,7.2443 28.0428,6.5273 27.8008,5.7333 M26.5458,6.9513 C26.1698,7.2353 25.7048,7.4483 25.0818,7.6203 C23.6708,8.0103 22.2278,8.1813 20.7498,8.3363 C18.5638,8.5643 16.3658,8.5953 14.5038,8.5953 C13.8148,8.5953 13.1248,8.5903 12.4348,8.5863 C11.7398,8.5813 11.0458,8.5763 10.3508,8.5763 L10.2658,8.5763 C9.6788,8.4573 9.1178,8.4463 8.5738,8.4353 C8.1558,8.4263 7.7608,8.4183 7.3908,8.3613 C7.0228,8.3043 6.6598,8.2733 6.3078,8.2423 C6.0448,8.2203 5.7808,8.1973 5.5198,8.1633 C4.4438,8.0213 3.1808,7.8093 1.9728,7.3143 C1.5198,7.1283 1.2068,6.8633 0.9998,6.4883 L0.9998,6.0873 L1.1138,5.8563 C1.2638,5.5473 1.4148,5.2393 1.5748,4.9363 C2.3768,3.4193 3.6048,2.5343 5.3288,2.2303 C6.6398,2.0003 7.7348,1.7123 8.7268,1.3343 C10.0118,3.0453 12.5128,4.3593 13.9558,4.3593 C15.3578,4.3593 18.1978,2.8553 19.2088,1.3353 C19.9938,1.6293 20.7258,1.8373 21.4338,1.9693 C21.6028,2.0013 21.7698,2.0423 21.9368,2.0833 C22.1658,2.1403 22.3948,2.1953 22.6258,2.2353 C24.2788,2.5203 25.4848,3.3783 26.3118,4.8553 C26.5028,5.1973 26.7158,5.6033 26.8438,6.0243 C26.9658,6.4233 26.8768,6.7003 26.5458,6.9513" id="Fill-24" fill="#BFBEBD" mask="url(#mask-4)"></path>
                        </g>
                        <path d="M122.322,41.59 C124.289,46.275 125.357,51.301 125.357,56.531 C125.357,57.397 125.327,58.258 125.269,59.113 M78.762,11.157 C86.282,12.238 93.287,14.534 99.465,17.787 M38.327,17.785 C43.716,14.948 49.735,12.839 56.175,11.629 M12.432,56.531 C12.432,51.304 13.498,46.281 15.463,41.598 M48.431,99.487 C41.241,97.205 34.765,93.754 29.354,89.422 M112.661,77.838 C109.732,72.097 101.084,58.491 84.039,56.216" id="Stroke-27" stroke="#BFBEBD" stroke-linecap="round"></path>
                        <path d="M50.2189,100.8212 L46.9629,101.4782 C46.3269,101.6062 45.8079,100.9662 46.0649,100.3702 L47.5879,96.8432 C47.8469,96.2422 48.6769,96.1852 49.0149,96.7462 L50.7489,99.6162 C51.0369,100.0932 50.7649,100.7112 50.2189,100.8212" id="Fill-29" fill="#BFBEBD"></path>
                        <path d="M12.3194,58.3005 L9.9714,55.9515 C9.5124,55.4915 9.7594,54.7055 10.3984,54.5905 L14.1784,53.9085 C14.8224,53.7915 15.3284,54.4525 15.0494,55.0435 L13.6164,58.0755 C13.3784,58.5795 12.7134,58.6945 12.3194,58.3005" id="Fill-31" fill="#BFBEBD"></path>
                        <path d="M37.4942,17.7147 L39.1112,14.8137 C39.4272,14.2467 40.2512,14.2677 40.5362,14.8517 L42.2282,18.3007 C42.5162,18.8877 42.0192,19.5557 41.3732,19.4487 L38.0652,18.9007 C37.5162,18.8097 37.2232,18.2017 37.4942,17.7147" id="Fill-33" fill="#BFBEBD"></path>
                        <path d="M78.1866,9.9639 L81.1846,8.5349 C81.7706,8.2549 82.4296,8.7499 82.3256,9.3909 L81.7066,13.1819 C81.6016,13.8279 80.8106,14.0849 80.3456,13.6239 L77.9656,11.2619 C77.5706,10.8689 77.6836,10.2039 78.1866,9.9639" id="Fill-35" fill="#BFBEBD"></path>
                        <path d="M122.1682,39.3087 L124.6962,41.4627 C125.1902,41.8837 125.0082,42.6877 124.3802,42.8537 L120.6662,43.8357 C120.0332,44.0027 119.4762,43.3857 119.7072,42.7727 L120.8932,39.6367 C121.0902,39.1157 121.7442,38.9477 122.1682,39.3087" id="Fill-37" fill="#BFBEBD"></path>
                        <path d="M112.624,79.5445 L109.689,77.9895 C109.115,77.6855 109.119,76.8625 109.696,76.5635 L113.109,74.7995 C113.69,74.4985 114.368,74.9815 114.275,75.6295 L113.797,78.9485 C113.718,79.4995 113.116,79.8055 112.624,79.5445" id="Fill-39" fill="#BFBEBD"></path>
                    </g>
                </g>
            </g>
        </g>
    </g>
</svg>