<?xml version="1.0" encoding="UTF-8"?>
<svg width="1251px" height="493px" viewBox="0 0 1251 493" version="1.1" xmlns="http://www.w3.org/2000/svg" xmlns:xlink="http://www.w3.org/1999/xlink">
    <!-- Generator: Sketch 47.1 (45422) - http://www.bohemiancoding.com/sketch -->
    <title>Symmetrical Background</title>
    <desc>Created with Sketch.</desc>
    <defs>
        <radialGradient cx="50%" cy="-2.48949813e-15%" fx="50%" fy="-2.48949813e-15%" r="87.8812484%" gradientTransform="translate(0.500000,-0.000000),scale(0.325213,1.000000),rotate(90.000000),scale(1.000000,0.859905),translate(-0.500000,0.000000)" id="radialGradient-1">
            <stop stop-color="#C1E6FF" stop-opacity="0.208191803" offset="0%"></stop>
            <stop stop-color="#D8E6EF" stop-opacity="0" offset="100%"></stop>
        </radialGradient>
        <radialGradient cx="50.7989466%" cy="28.1592108%" fx="50.7989466%" fy="28.1592108%" r="64.8865009%" gradientTransform="translate(0.507989,0.281592),scale(0.362488,1.000000),rotate(90.000000),scale(1.000000,1.841442),translate(-0.507989,-0.281592)" id="radialGradient-2">
            <stop stop-color="#C1E6FF" stop-opacity="0.248754529" offset="0%"></stop>
            <stop stop-color="#000000" stop-opacity="0" offset="100%"></stop>
        </radialGradient>
    </defs>
    <g id="Page-1" stroke="none" stroke-width="1" fill="none" fill-rule="evenodd">
        <g id="Luna---7" transform="translate(-108.000000, -1447.000000)">
            <g id="Symmetrical-Background" transform="translate(0.000000, 1405.000000)">
                <g id="Group-4">
                    <path d="M1444.33066,122 C1327.34064,142.586309 1239.65361,164.217251 1181.26957,186.892826 C1027.1871,246.736392 873.448154,342.803761 720.052752,342.803761 C586.107646,342.803761 452.337168,232.522407 318.741317,186.892826 C247.836127,162.675202 141.589022,141.04426 0,122 L0,591.71539 L1441.08397,591.71539 L1444.33066,122 Z" id="Path-5-Copy" fill="url(#radialGradient-1)"></path>
                    <path d="M1444.33066,0.16224425 C1330.31448,41.9382987 1242.62745,81.5151593 1181.26957,118.892826 C1068.23954,187.747865 873.448154,274.803761 720.052752,274.803761 C586.107646,274.803761 412.847285,173.966199 318.741317,118.892826 C252.581741,80.1744412 146.334635,40.5975806 0,0.16224425 L0,523.71539 L1441.08397,523.71539 L1444.33066,0.16224425 Z" id="Path-5-Copy" fill="url(#radialGradient-2)"></path>
                </g>
            </g>
        </g>
    </g>
</svg>