<?xml version="1.0" standalone="no"?><!DOCTYPE svg PUBLIC "-//W3C//DTD SVG 1.1//EN" "http://www.w3.org/Graphics/SVG/1.1/DTD/svg11.dtd"><svg _ngcontent-c2="" xml:space="preserve" class="pdf-svg" id="" style="height:70px;text-align:center;top:39px;width:73px;perspective-origin:36.5px 35px;transform-origin:36.5px 35px;" version="1.1" viewBox="0 0 26.953 26.953" x="0px" y="0px" xmlns="http://www.w3.org/2000/svg" xmlns:xlink="http://www.w3.org/1999/xlink"><path _ngcontent-c2="" d="M0.213,5.981h1.678c0.121,0,0.217-0.098,0.217-0.222c0.004-1.345,1.068-2.442,2.377-2.444   c0.121,0,0.217-0.098,0.217-0.222V1.369C4.701,1.246,4.605,1.146,4.484,1.146C2.012,1.146,0,3.217,0,5.759   C0,5.883,0.094,5.981,0.213,5.981z" style="height:auto;overflow-x:visible;overflow-y:visible;text-align:center;width:auto;perspective-origin:0px 0px;transform-origin:0px 0px;fill:rgb(144, 223, 170);d:path('M 0.213 5.981 h 1.678 c 0.121 0 0.217 -0.098 0.217 -0.222 c 0.004 -1.345 1.068 -2.442 2.377 -2.444 c 0.121 0 0.217 -0.098 0.217 -0.222 V 1.369 C 4.701 1.246 4.605 1.146 4.484 1.146 C 2.012 1.146 0 3.217 0 5.759 C 0 5.883 0.094 5.981 0.213 5.981 Z');"/><path _ngcontent-c2="" d="M0.213,10.833h1.678c0.121,0,0.217-0.098,0.217-0.221v-3.53c0-0.121-0.096-0.222-0.217-0.222H0.213   C0.094,6.86,0,6.96,0,7.082v3.53C0,10.735,0.094,10.833,0.213,10.833z" style="height:auto;overflow-x:visible;overflow-y:visible;text-align:center;width:auto;perspective-origin:0px 0px;transform-origin:0px 0px;fill:rgb(144, 223, 170);d:path('M 0.213 10.833 h 1.678 c 0.121 0 0.217 -0.098 0.217 -0.221 v -3.53 c 0 -0.121 -0.096 -0.222 -0.217 -0.222 H 0.213 C 0.094 6.86 0 6.96 0 7.082 v 3.53 C 0 10.735 0.094 10.833 0.213 10.833 Z');"/><path _ngcontent-c2="" d="M0.213,15.438h1.678c0.121,0,0.217-0.097,0.217-0.221v-3.529c0-0.121-0.096-0.223-0.217-0.223H0.213   C0.094,11.465,0,11.567,0,11.688v3.529C0,15.341,0.094,15.438,0.213,15.438z" style="height:auto;overflow-x:visible;overflow-y:visible;text-align:center;width:auto;perspective-origin:0px 0px;transform-origin:0px 0px;fill:rgb(144, 223, 170);d:path('M 0.213 15.438 h 1.678 c 0.121 0 0.217 -0.097 0.217 -0.221 v -3.529 c 0 -0.121 -0.096 -0.223 -0.217 -0.223 H 0.213 C 0.094 11.465 0 11.567 0 11.688 v 3.529 C 0 15.341 0.094 15.438 0.213 15.438 Z');"/><path _ngcontent-c2="" d="M0.213,20.14h1.678c0.121,0,0.217-0.096,0.217-0.221v-3.526c0-0.119-0.096-0.221-0.217-0.221H0.213   C0.094,16.172,0,16.274,0,16.393v3.526C0,20.044,0.094,20.14,0.213,20.14z" style="height:auto;overflow-x:visible;overflow-y:visible;text-align:center;width:auto;perspective-origin:0px 0px;transform-origin:0px 0px;fill:rgb(144, 223, 170);d:path('M 0.213 20.14 h 1.678 c 0.121 0 0.217 -0.096 0.217 -0.221 v -3.526 c 0 -0.119 -0.096 -0.221 -0.217 -0.221 H 0.213 C 0.094 16.172 0 16.274 0 16.393 v 3.526 C 0 20.044 0.094 20.14 0.213 20.14 Z');"/><path _ngcontent-c2="" d="M23.818,10.833c0.119,0,0.213-0.098,0.213-0.221v-0.48l-0.758,0.7h0.545V10.833z" style="height:auto;overflow-x:visible;overflow-y:visible;text-align:center;width:auto;perspective-origin:0px 0px;transform-origin:0px 0px;fill:rgb(144, 223, 170);d:path('M 23.818 10.833 c 0.119 0 0.213 -0.098 0.213 -0.221 v -0.48 l -0.758 0.7 h 0.545 V 10.833 Z');"/><path _ngcontent-c2="" d="M23.818,11.465h-0.91l-0.984,1.025v2.727c0,0.124,0.098,0.221,0.215,0.221h1.68   c0.119,0,0.213-0.097,0.213-0.221v-3.529C24.031,11.567,23.938,11.465,23.818,11.465z" style="height:auto;overflow-x:visible;overflow-y:visible;text-align:center;width:auto;perspective-origin:0px 0px;transform-origin:0px 0px;fill:rgb(144, 223, 170);d:path('M 23.818 11.465 h -0.91 l -0.984 1.025 v 2.727 c 0 0.124 0.098 0.221 0.215 0.221 h 1.68 c 0.119 0 0.213 -0.097 0.213 -0.221 v -3.529 C 24.031 11.567 23.938 11.465 23.818 11.465 Z');"/><path _ngcontent-c2="" d="M23.816,16.172h-1.674c-0.121,0-0.217,0.102-0.217,0.221v3.526c0,0.125,0.096,0.221,0.217,0.221   h1.674c0.119,0,0.215-0.096,0.215-0.221v-3.526C24.031,16.274,23.936,16.172,23.816,16.172z" style="height:auto;overflow-x:visible;overflow-y:visible;text-align:center;width:auto;perspective-origin:0px 0px;transform-origin:0px 0px;fill:rgb(144, 223, 170);d:path('M 23.816 16.172 h -1.674 c -0.121 0 -0.217 0.102 -0.217 0.221 v 3.526 c 0 0.125 0.096 0.221 0.217 0.221 h 1.674 c 0.119 0 0.215 -0.096 0.215 -0.221 v -3.526 C 24.031 16.274 23.936 16.172 23.816 16.172 Z');"/><path _ngcontent-c2="" d="M18.211,23.638h-3.432c-0.117,0-0.217,0.1-0.217,0.221v1.725c0,0.125,0.1,0.223,0.217,0.223h3.432   c0.121,0,0.217-0.098,0.217-0.223v-1.725C18.428,23.738,18.332,23.638,18.211,23.638z" style="height:auto;overflow-x:visible;overflow-y:visible;text-align:center;width:auto;perspective-origin:0px 0px;transform-origin:0px 0px;fill:rgb(144, 223, 170);d:path('M 18.211 23.638 h -3.432 c -0.117 0 -0.217 0.1 -0.217 0.221 v 1.725 c 0 0.125 0.1 0.223 0.217 0.223 h 3.432 c 0.121 0 0.217 -0.098 0.217 -0.223 v -1.725 C 18.428 23.738 18.332 23.638 18.211 23.638 Z');"/><path _ngcontent-c2="" d="M13.729,23.638h-3.432c-0.117,0-0.215,0.1-0.215,0.221v1.725c0,0.125,0.098,0.223,0.215,0.223h3.432   c0.121,0,0.217-0.098,0.217-0.223v-1.725C13.945,23.738,13.85,23.638,13.729,23.638z" style="height:auto;overflow-x:visible;overflow-y:visible;text-align:center;width:auto;perspective-origin:0px 0px;transform-origin:0px 0px;fill:rgb(144, 223, 170);d:path('M 13.729 23.638 h -3.432 c -0.117 0 -0.215 0.1 -0.215 0.221 v 1.725 c 0 0.125 0.098 0.223 0.215 0.223 h 3.432 c 0.121 0 0.217 -0.098 0.217 -0.223 v -1.725 C 13.945 23.738 13.85 23.638 13.729 23.638 Z');"/><path _ngcontent-c2="" d="M9.154,23.638H5.723c-0.117,0-0.215,0.1-0.215,0.221v1.725c0,0.125,0.098,0.223,0.215,0.223h3.432   c0.123,0,0.217-0.098,0.217-0.223v-1.725C9.371,23.738,9.277,23.638,9.154,23.638z" style="height:auto;overflow-x:visible;overflow-y:visible;text-align:center;width:auto;perspective-origin:0px 0px;transform-origin:0px 0px;fill:rgb(144, 223, 170);d:path('M 9.154 23.638 H 5.723 c -0.117 0 -0.215 0.1 -0.215 0.221 v 1.725 c 0 0.125 0.098 0.223 0.215 0.223 h 3.432 c 0.123 0 0.217 -0.098 0.217 -0.223 v -1.725 C 9.371 23.738 9.277 23.638 9.154 23.638 Z');"/><path _ngcontent-c2="" d="M14.779,3.315h3.432c0.121,0,0.217-0.098,0.217-0.222V1.369c0-0.123-0.096-0.223-0.217-0.223h-3.432   c-0.117,0-0.217,0.1-0.217,0.223v1.725C14.562,3.217,14.662,3.315,14.779,3.315z" style="height:auto;overflow-x:visible;overflow-y:visible;text-align:center;width:auto;perspective-origin:0px 0px;transform-origin:0px 0px;fill:rgb(144, 223, 170);d:path('M 14.779 3.315 h 3.432 c 0.121 0 0.217 -0.098 0.217 -0.222 V 1.369 c 0 -0.123 -0.096 -0.223 -0.217 -0.223 h -3.432 c -0.117 0 -0.217 0.1 -0.217 0.223 v 1.725 C 14.562 3.217 14.662 3.315 14.779 3.315 Z');"/><path _ngcontent-c2="" d="M10.297,3.315h3.432c0.121,0,0.217-0.098,0.217-0.222V1.369c-0.001-0.123-0.096-0.223-0.217-0.223   h-3.432c-0.117,0-0.215,0.1-0.215,0.223v1.725C10.082,3.217,10.18,3.315,10.297,3.315z" style="height:auto;overflow-x:visible;overflow-y:visible;text-align:center;width:auto;perspective-origin:0px 0px;transform-origin:0px 0px;fill:rgb(144, 223, 170);d:path('M 10.297 3.315 h 3.432 c 0.121 0 0.217 -0.098 0.217 -0.222 V 1.369 c -0.001 -0.123 -0.096 -0.223 -0.217 -0.223 h -3.432 c -0.117 0 -0.215 0.1 -0.215 0.223 v 1.725 C 10.082 3.217 10.18 3.315 10.297 3.315 Z');"/><path _ngcontent-c2="" d="M5.723,3.315h3.432c0.123,0,0.217-0.098,0.217-0.222V1.369C9.371,1.246,9.277,1.146,9.154,1.146   H5.723c-0.118,0-0.215,0.1-0.215,0.223v1.725C5.508,3.217,5.605,3.315,5.723,3.315z" style="height:auto;overflow-x:visible;overflow-y:visible;text-align:center;width:auto;perspective-origin:0px 0px;transform-origin:0px 0px;fill:rgb(144, 223, 170);d:path('M 5.723 3.315 h 3.432 c 0.123 0 0.217 -0.098 0.217 -0.222 V 1.369 C 9.371 1.246 9.277 1.146 9.154 1.146 H 5.723 c -0.118 0 -0.215 0.1 -0.215 0.223 v 1.725 C 5.508 3.217 5.605 3.315 5.723 3.315 Z');"/><path _ngcontent-c2="" d="M4.484,23.584c-1.309-0.006-2.373-1.098-2.377-2.443c0-0.121-0.096-0.219-0.217-0.219H0.213   C0.094,20.921,0,21.019,0,21.14c0,2.545,2.012,4.611,4.484,4.611c0.121,0,0.217-0.098,0.217-0.223v-1.722   C4.701,23.685,4.605,23.584,4.484,23.584z" style="height:auto;overflow-x:visible;overflow-y:visible;text-align:center;width:auto;perspective-origin:0px 0px;transform-origin:0px 0px;fill:rgb(144, 223, 170);d:path('M 4.484 23.584 c -1.309 -0.006 -2.373 -1.098 -2.377 -2.443 c 0 -0.121 -0.096 -0.219 -0.217 -0.219 H 0.213 C 0.094 20.921 0 21.019 0 21.14 c 0 2.545 2.012 4.611 4.484 4.611 c 0.121 0 0.217 -0.098 0.217 -0.223 v -1.722 C 4.701 23.685 4.605 23.584 4.484 23.584 Z');"/><path _ngcontent-c2="" d="M23.768,20.921h-1.674c-0.121,0-0.217,0.098-0.217,0.219c-0.004,1.346-1.07,2.438-2.379,2.443   c-0.117,0-0.215,0.102-0.215,0.223v1.723c0,0.125,0.098,0.223,0.215,0.223c2.475,0,4.484-2.066,4.484-4.611   C23.982,21.019,23.889,20.921,23.768,20.921z" style="height:auto;overflow-x:visible;overflow-y:visible;text-align:center;width:auto;perspective-origin:0px 0px;transform-origin:0px 0px;fill:rgb(144, 223, 170);d:path('M 23.768 20.921 h -1.674 c -0.121 0 -0.217 0.098 -0.217 0.219 c -0.004 1.346 -1.07 2.438 -2.379 2.443 c -0.117 0 -0.215 0.102 -0.215 0.223 v 1.723 c 0 0.125 0.098 0.223 0.215 0.223 c 2.475 0 4.484 -2.066 4.484 -4.611 C 23.982 21.019 23.889 20.921 23.768 20.921 Z');"/><path _ngcontent-c2="" d="M19.498,3.315c1.299,0.002,1.484,0.188,2.154,1.43l1.596-1.5c-0.562-1.621-1.893-2.099-3.75-2.099   c-0.117,0-0.215,0.1-0.215,0.223v1.725C19.283,3.217,19.381,3.315,19.498,3.315z" style="height:auto;overflow-x:visible;overflow-y:visible;text-align:center;width:auto;perspective-origin:0px 0px;transform-origin:0px 0px;fill:rgb(144, 223, 170);d:path('M 19.498 3.315 c 1.299 0.002 1.484 0.188 2.154 1.43 l 1.596 -1.5 c -0.562 -1.621 -1.893 -2.099 -3.75 -2.099 c -0.117 0 -0.215 0.1 -0.215 0.223 v 1.725 C 19.283 3.217 19.381 3.315 19.498 3.315 Z');"/><path _ngcontent-c2="" d="M26.701,5.528l-1.832-1.832c-0.336-0.336-0.883-0.336-1.219,0L12.67,14.677l-5.223-5.26   c-0.34-0.337-0.885-0.337-1.223,0l-1.829,1.829c-0.338,0.337-0.338,0.885,0,1.221l5.809,5.852l0.02,0.027l1.264,1.266l0.295,0.295   l0,0l0.271,0.27c0.336,0.336,0.883,0.336,1.221,0L26.701,6.749C27.037,6.413,27.037,5.863,26.701,5.528z" style="height:auto;overflow-x:visible;overflow-y:visible;text-align:center;width:auto;perspective-origin:0px 0px;transform-origin:0px 0px;fill:rgb(24, 184, 119);d:path('M 26.701 5.528 l -1.832 -1.832 c -0.336 -0.336 -0.883 -0.336 -1.219 0 L 12.67 14.677 l -5.223 -5.26 c -0.34 -0.337 -0.885 -0.337 -1.223 0 l -1.829 1.829 c -0.338 0.337 -0.338 0.885 0 1.221 l 5.809 5.852 l 0.02 0.027 l 1.264 1.266 l 0.295 0.295 l 0 0 l 0.271 0.27 c 0.336 0.336 0.883 0.336 1.221 0 L 26.701 6.749 C 27.037 6.413 27.037 5.863 26.701 5.528 Z');"/></svg>