<?xml version="1.0" standalone="no"?><!DOCTYPE svg PUBLIC "-//W3C//DTD SVG 1.1//EN" "http://www.w3.org/Graphics/SVG/1.1/DTD/svg11.dtd"><svg _ngcontent-c2="" xml:space="preserve" class="pdf-svg" id="Layer_1" version="1.1" viewBox="0 0 508 508" x="0px" y="0px" xmlns="http://www.w3.org/2000/svg" xmlns:xlink="http://www.w3.org/1999/xlink" style="height:70px;text-align:center;top:39px;width:73px;perspective-origin:36.5px 35px;transform-origin:36.5px 35px;"><circle _ngcontent-c2="" cx="254" cy="254" r="254" style="height:auto;overflow-x:visible;overflow-y:visible;text-align:center;width:auto;perspective-origin:0px 0px;transform-origin:0px 0px;fill:rgb(144, 223, 170);cx:254px;cy:254px;r:254px;"/><path _ngcontent-c2="" d="M263.3,87.5c-86.8,0-157.2,70.4-157.2,157.2c0,27.2,6.9,52.8,19.1,75.1l-19.1,82.1l82.1-19.1  c22.3,12.2,47.9,19.1,75.1,19.1c86.8,0,157.2-70.4,157.2-157.2S350.1,87.5,263.3,87.5z" style="height:auto;overflow-x:visible;overflow-y:visible;text-align:center;width:auto;perspective-origin:0px 0px;transform-origin:0px 0px;fill:rgb(255, 255, 255);d:path('M 263.3 87.5 c -86.8 0 -157.2 70.4 -157.2 157.2 c 0 27.2 6.9 52.8 19.1 75.1 l -19.1 82.1 l 82.1 -19.1 c 22.3 12.2 47.9 19.1 75.1 19.1 c 86.8 0 157.2 -70.4 157.2 -157.2 S 350.1 87.5 263.3 87.5 Z');"/><path _ngcontent-c2="" d="M271.6,280.3h-29.3v-15.8c0-6.9,0.8-12.1,2.5-15.4c1.6-3.4,5.2-7.8,10.8-13.3l18.9-18.9  c4-4.3,6-9.7,6-16.1c0-6.4-2.1-11.7-6.2-15.9c-4.2-4.2-9.5-6.4-16.1-6.4s-12,2-16.5,6.1c-4.4,4.1-7,9.5-7.7,16.2h-31.4  c1.7-15.4,7.7-27.4,18-36.1c10.3-8.7,23.1-13.1,38.5-13.1s27.9,4.2,37.6,12.6c9.7,8.4,14.5,20.1,14.5,35.1c0,10.4-2.8,19-8.5,25.9  c-3.3,4.1-5.8,7.1-7.5,8.8s-4,3.9-6.9,6.6c-2.9,2.7-5.3,5-7.3,7s-3.6,3.7-4.8,5.1c-3.1,3.8-4.7,9.2-4.7,16.1v11.5H271.6z   M257.5,337.9c-5.4,0-10.1-1.9-14.1-5.6s-6-8.2-6-13.5s1.9-9.8,5.8-13.6c3.9-3.8,8.6-5.7,14-5.7c5.4,0,10.1,1.9,14.1,5.6  s5.9,8.2,5.9,13.5s-1.9,9.8-5.8,13.6C267.6,336,262.9,337.9,257.5,337.9z" style="height:auto;overflow-x:visible;overflow-y:visible;text-align:center;width:auto;perspective-origin:0px 0px;transform-origin:0px 0px;fill:rgb(255, 112, 88);d:path('M 271.6 280.3 h -29.3 v -15.8 c 0 -6.9 0.8 -12.1 2.5 -15.4 c 1.6 -3.4 5.2 -7.8 10.8 -13.3 l 18.9 -18.9 c 4 -4.3 6 -9.7 6 -16.1 c 0 -6.4 -2.1 -11.7 -6.2 -15.9 c -4.2 -4.2 -9.5 -6.4 -16.1 -6.4 s -12 2 -16.5 6.1 c -4.4 4.1 -7 9.5 -7.7 16.2 h -31.4 c 1.7 -15.4 7.7 -27.4 18 -36.1 c 10.3 -8.7 23.1 -13.1 38.5 -13.1 s 27.9 4.2 37.6 12.6 c 9.7 8.4 14.5 20.1 14.5 35.1 c 0 10.4 -2.8 19 -8.5 25.9 c -3.3 4.1 -5.8 7.1 -7.5 8.8 s -4 3.9 -6.9 6.6 c -2.9 2.7 -5.3 5 -7.3 7 s -3.6 3.7 -4.8 5.1 c -3.1 3.8 -4.7 9.2 -4.7 16.1 v 11.5 H 271.6 Z M 257.5 337.9 c -5.4 0 -10.1 -1.9 -14.1 -5.6 s -6 -8.2 -6 -13.5 s 1.9 -9.8 5.8 -13.6 c 3.9 -3.8 8.6 -5.7 14 -5.7 c 5.4 0 10.1 1.9 14.1 5.6 s 5.9 8.2 5.9 13.5 s -1.9 9.8 -5.8 13.6 C 267.6 336 262.9 337.9 257.5 337.9 Z');"/></svg>